<svg width="119" height="44" viewBox="0 0 119 44" fill="none" xmlns="http://www.w3.org/2000/svg">
<path d="M18.875 0.25C31.375 0.25 37.625 5.03125 37.625 14.5938C37.625 23.7812 31.375 28.375 18.875 28.375C14.7083 28.375 12.625 28.8021 12.625 29.6562V31.5H37.625V44H0.125V29.6562C0.125 20.4688 6.375 15.875 18.875 15.875H22C24.0833 15.875 25.125 15.4479 25.125 14.5938C25.125 13.3646 24.0833 12.75 22 12.75H1.6875V0.25H18.875ZM56.375 12.75C54.2917 12.75 53.25 13.7917 53.25 15.875H62.625C73.0417 15.875 78.25 20.5625 78.25 29.9375C78.25 39.3125 73.0417 44 62.625 44H56.375C45.9583 44 40.75 39.3125 40.75 29.9375V14.3125C40.75 4.9375 45.9583 0.25 56.375 0.25H75.125V12.75H56.375ZM56.375 26.8125C54.2917 26.8125 53.25 27.8542 53.25 29.9375C53.25 32.0208 54.2917 33.0625 56.375 33.0625H62.625C64.7083 33.0625 65.75 32.0208 65.75 29.9375C65.75 27.8542 64.7083 26.8125 62.625 26.8125H56.375ZM98.5625 0.25V44H86.0625V12.75H81.375L86.0625 0.25H98.5625ZM118.875 0.25V44H106.375V12.75H101.688L106.375 0.25H118.875Z" fill="url(#paint0_linear_73_4395)"/>
<defs>
<linearGradient id="paint0_linear_73_4395" x1="-152.5" y1="-53" x2="36.8075" y2="-168.616" gradientUnits="userSpaceOnUse">
<stop stop-color="#2B00FE"/>
<stop offset="0.614796" stop-color="#1488FC"/>
<stop offset="1" stop-color="#00FFFB"/>
</linearGradient>
</defs>
</svg>
