<svg width="289" height="44" viewBox="0 0 289 44" fill="none" xmlns="http://www.w3.org/2000/svg">
<path d="M37.75 31.5V44H25.25V31.5H0.25L9.625 0.25H22.125L17.1562 19H25.25V6.5H37.75V19H44V31.5H37.75ZM84.625 12.75V19H94C96.0833 19 97.125 17.9583 97.125 15.875C97.125 13.7917 96.0833 12.75 94 12.75H84.625ZM84.625 28.375V34.625H94C96.0833 34.625 97.125 33.5833 97.125 31.5C97.125 29.4167 96.0833 28.375 94 28.375H84.625ZM72.125 44V0.25H94C104.417 0.25 109.625 5.45833 109.625 15.875C109.625 19.2708 108.323 21.875 105.719 23.6875C108.323 25.5 109.625 28.1042 109.625 31.5C109.625 39.8333 104.417 44 94 44H72.125ZM125.5 0.25V44H113V0.25H125.5ZM143.75 31.5H156.25V44H131.25V0.25H143.75V31.5ZM171.75 31.5H184.25V44H159.25V0.25H171.75V31.5ZM199.75 0.25V44H187.25V0.25H199.75ZM223.938 44C217.896 44 212.74 41.8646 208.469 37.5938C204.198 33.3229 202.062 28.1667 202.062 22.125C202.062 16.0833 204.198 10.9271 208.469 6.65625C212.74 2.38542 217.896 0.25 223.938 0.25C229.979 0.25 235.135 2.38542 239.406 6.65625C243.677 10.9271 245.812 16.0833 245.812 22.125C245.812 28.1667 243.677 33.3229 239.406 37.5938C235.135 41.8646 229.979 44 223.938 44ZM223.938 31.5C226.521 31.5 228.729 30.5833 230.562 28.75C232.396 26.9167 233.312 24.7083 233.312 22.125C233.312 19.5417 232.396 17.3333 230.562 15.5C228.729 13.6667 226.521 12.75 223.938 12.75C221.354 12.75 219.146 13.6667 217.312 15.5C215.479 17.3333 214.562 19.5417 214.562 22.125C214.562 24.7083 215.479 26.9167 217.312 28.75C219.146 30.5833 221.354 31.5 223.938 31.5ZM260.625 22.125V44H248.125V0.25H260.625L276.25 22.125V0.25H288.75V44H276.25L260.625 22.125Z" fill="url(#paint0_linear_73_1799)"/>
<defs>
<linearGradient id="paint0_linear_73_1799" x1="-11.5" y1="-22.4782" x2="173.932" y2="-170.381" gradientUnits="userSpaceOnUse">
<stop stop-color="#FFAAAF"/>
<stop offset="1" stop-color="#2B00FE"/>
</linearGradient>
</defs>
</svg>
