<svg width="1566" height="923" viewBox="0 0 1566 923" fill="none" xmlns="http://www.w3.org/2000/svg">
<path d="M1167.53 143.336C1170.6 143.336 1173.31 141.8 1174.75 139.376L1171.9 137.72C1171.1 139.184 1169.45 140.096 1167.53 140.096C1165.9 140.096 1164.58 139.592 1163.57 138.56C1162.58 137.528 1162.08 136.208 1162.08 134.6C1162.08 132.968 1162.58 131.648 1163.57 130.616C1164.58 129.584 1165.9 129.08 1167.53 129.08C1169.45 129.08 1171.06 129.968 1171.9 131.48L1174.75 129.824C1173.31 127.4 1170.58 125.864 1167.53 125.864C1165.01 125.864 1162.92 126.704 1161.26 128.384C1159.61 130.04 1158.79 132.128 1158.79 134.6C1158.79 137.072 1159.61 139.136 1161.26 140.816C1162.92 142.496 1165.01 143.336 1167.53 143.336ZM1187.05 141.512C1188.28 140.288 1188.9 138.776 1188.9 137C1188.9 135.224 1188.28 133.736 1187.05 132.512C1185.83 131.288 1184.32 130.664 1182.54 130.664C1180.77 130.664 1179.25 131.288 1178.03 132.512C1176.81 133.736 1176.21 135.224 1176.21 137C1176.21 138.776 1176.81 140.288 1178.03 141.512C1179.25 142.736 1180.77 143.336 1182.54 143.336C1184.32 143.336 1185.83 142.736 1187.05 141.512ZM1180.21 139.376C1179.61 138.752 1179.3 137.96 1179.3 137C1179.3 136.04 1179.61 135.248 1180.21 134.624C1180.84 134 1181.61 133.688 1182.54 133.688C1183.48 133.688 1184.25 134 1184.87 134.624C1185.49 135.248 1185.81 136.04 1185.81 137C1185.81 137.96 1185.49 138.752 1184.87 139.376C1184.25 140 1183.48 140.312 1182.54 140.312C1181.61 140.312 1180.84 140 1180.21 139.376ZM1204.35 130.664C1202.77 130.664 1201.57 131.24 1200.78 132.392C1200.08 131.24 1198.98 130.664 1197.51 130.664C1196 130.664 1194.9 131.192 1194.18 132.272V131H1191.08V143H1194.18V136.256C1194.18 134.504 1195.06 133.544 1196.43 133.544C1197.7 133.544 1198.45 134.384 1198.45 135.824V143H1201.54V136.256C1201.54 134.504 1202.36 133.544 1203.78 133.544C1205.05 133.544 1205.79 134.384 1205.79 135.824V143H1208.89V135.608C1208.89 132.608 1207.11 130.664 1204.35 130.664ZM1218.5 130.664C1216.82 130.664 1215.53 131.24 1214.61 132.416V131H1211.52V147.8H1214.61V141.584C1215.53 142.76 1216.82 143.336 1218.5 143.336C1220.11 143.336 1221.5 142.736 1222.63 141.512C1223.78 140.288 1224.36 138.776 1224.36 137C1224.36 135.224 1223.78 133.736 1222.63 132.512C1221.5 131.288 1220.11 130.664 1218.5 130.664ZM1215.55 139.448C1214.93 138.8 1214.61 137.984 1214.61 137C1214.61 136.016 1214.93 135.2 1215.55 134.576C1216.17 133.928 1216.97 133.616 1217.93 133.616C1218.89 133.616 1219.68 133.928 1220.3 134.576C1220.95 135.2 1221.26 136.016 1221.26 137C1221.26 137.984 1220.95 138.8 1220.3 139.448C1219.68 140.072 1218.89 140.384 1217.93 140.384C1216.97 140.384 1216.17 140.072 1215.55 139.448ZM1229.64 143V125.48H1226.54V143H1229.64ZM1244.13 138.272C1244.21 137.816 1244.25 137.408 1244.25 137C1244.25 135.2 1243.68 133.712 1242.53 132.488C1241.4 131.264 1239.93 130.664 1238.18 130.664C1236.33 130.664 1234.8 131.264 1233.62 132.488C1232.45 133.688 1231.85 135.2 1231.85 137C1231.85 138.824 1232.45 140.336 1233.65 141.536C1234.85 142.736 1236.43 143.336 1238.42 143.336C1240.73 143.336 1242.48 142.472 1243.65 140.768L1241.16 139.328C1240.56 140.12 1239.65 140.528 1238.47 140.528C1236.62 140.528 1235.49 139.784 1235.09 138.272H1244.13ZM1235.04 135.872C1235.4 134.336 1236.53 133.448 1238.18 133.448C1239.6 133.448 1240.8 134.24 1241.16 135.872H1235.04ZM1252.41 136.856L1256.61 131H1253.06L1250.63 134.384L1248.21 131H1244.63L1248.83 136.88L1244.44 143H1248.02L1250.63 139.352L1253.22 143H1256.8L1252.41 136.856ZM1272.27 137.48C1272.27 139.472 1271.23 140.456 1269.63 140.456C1268.19 140.456 1267.25 139.592 1267.25 137.984V131H1264.15V138.368C1264.15 139.928 1264.59 141.128 1265.43 142.016C1266.29 142.904 1267.37 143.336 1268.69 143.336C1270.32 143.336 1271.52 142.784 1272.27 141.656V143H1275.36V131H1272.27V137.48ZM1280.96 134.408C1280.96 133.808 1281.56 133.424 1282.35 133.424C1283.24 133.424 1283.89 133.832 1284.27 134.648L1286.91 133.208C1285.98 131.576 1284.3 130.664 1282.35 130.664C1281.06 130.664 1279.98 131 1279.09 131.696C1278.22 132.368 1277.79 133.304 1277.79 134.48C1277.79 136.976 1280.02 137.72 1281.8 138.176C1283.02 138.488 1283.98 138.848 1283.98 139.496C1283.98 140.192 1283.43 140.528 1282.33 140.528C1281.1 140.528 1280.34 140 1279.98 138.968L1277.29 140.48C1278.18 142.376 1279.86 143.336 1282.33 143.336C1283.7 143.336 1284.85 143 1285.76 142.352C1286.7 141.68 1287.15 140.72 1287.15 139.496C1287.18 136.928 1284.9 136.088 1283.14 135.728C1281.92 135.416 1280.96 135.056 1280.96 134.408ZM1300.92 138.272C1301 137.816 1301.04 137.408 1301.04 137C1301.04 135.2 1300.47 133.712 1299.32 132.488C1298.19 131.264 1296.72 130.664 1294.97 130.664C1293.12 130.664 1291.59 131.264 1290.41 132.488C1289.24 133.688 1288.64 135.2 1288.64 137C1288.64 138.824 1289.24 140.336 1290.44 141.536C1291.64 142.736 1293.22 143.336 1295.21 143.336C1297.52 143.336 1299.27 142.472 1300.44 140.768L1297.95 139.328C1297.35 140.12 1296.44 140.528 1295.26 140.528C1293.41 140.528 1292.28 139.784 1291.88 138.272H1300.92ZM1291.83 135.872C1292.19 134.336 1293.32 133.448 1294.97 133.448C1296.39 133.448 1297.59 134.24 1297.95 135.872H1291.83ZM1306.3 131H1303.21V143H1306.3V137.264C1306.3 136.112 1306.66 135.296 1307.41 134.792C1308.15 134.288 1309.01 134.096 1309.95 134.216V130.76C1308.32 130.76 1306.88 131.528 1306.3 133.064V131ZM1326.88 132.416C1325.94 131.24 1324.65 130.664 1322.97 130.664C1321.36 130.664 1319.99 131.288 1318.84 132.512C1317.71 133.736 1317.14 135.224 1317.14 137C1317.14 138.776 1317.71 140.288 1318.84 141.512C1319.99 142.736 1321.36 143.336 1322.97 143.336C1324.65 143.336 1325.94 142.76 1326.88 141.584V143H1329.98V131H1326.88V132.416ZM1321.17 139.448C1320.54 138.8 1320.23 137.984 1320.23 137C1320.23 136.016 1320.54 135.2 1321.17 134.576C1321.79 133.928 1322.58 133.616 1323.54 133.616C1324.5 133.616 1325.3 133.928 1325.92 134.576C1326.57 135.2 1326.88 136.016 1326.88 137C1326.88 137.984 1326.57 138.8 1325.92 139.448C1325.3 140.072 1324.5 140.384 1323.54 140.384C1322.58 140.384 1321.79 140.072 1321.17 139.448ZM1338.5 143.336C1340.82 143.336 1342.86 142.112 1343.92 140.216L1341.23 138.68C1340.75 139.664 1339.72 140.264 1338.47 140.264C1337.54 140.264 1336.77 139.952 1336.17 139.352C1335.57 138.728 1335.26 137.936 1335.26 137C1335.26 135.08 1336.62 133.712 1338.47 133.712C1339.7 133.712 1340.73 134.336 1341.21 135.32L1343.87 133.76C1342.89 131.864 1340.82 130.664 1338.5 130.664C1336.7 130.664 1335.18 131.264 1333.96 132.488C1332.76 133.712 1332.16 135.2 1332.16 137C1332.16 138.8 1332.76 140.288 1333.96 141.512C1335.18 142.736 1336.7 143.336 1338.5 143.336ZM1351.36 143.336C1353.69 143.336 1355.73 142.112 1356.79 140.216L1354.1 138.68C1353.62 139.664 1352.59 140.264 1351.34 140.264C1350.4 140.264 1349.63 139.952 1349.03 139.352C1348.43 138.728 1348.12 137.936 1348.12 137C1348.12 135.08 1349.49 133.712 1351.34 133.712C1352.56 133.712 1353.59 134.336 1354.07 135.32L1356.74 133.76C1355.75 131.864 1353.69 130.664 1351.36 130.664C1349.56 130.664 1348.05 131.264 1346.83 132.488C1345.63 133.712 1345.03 135.2 1345.03 137C1345.03 138.8 1345.63 140.288 1346.83 141.512C1348.05 142.736 1349.56 143.336 1351.36 143.336ZM1368.74 141.512C1369.97 140.288 1370.59 138.776 1370.59 137C1370.59 135.224 1369.97 133.736 1368.74 132.512C1367.52 131.288 1366.01 130.664 1364.23 130.664C1362.45 130.664 1360.94 131.288 1359.72 132.512C1358.49 133.736 1357.89 135.224 1357.89 137C1357.89 138.776 1358.49 140.288 1359.72 141.512C1360.94 142.736 1362.45 143.336 1364.23 143.336C1366.01 143.336 1367.52 142.736 1368.74 141.512ZM1361.9 139.376C1361.3 138.752 1360.99 137.96 1360.99 137C1360.99 136.04 1361.3 135.248 1361.9 134.624C1362.53 134 1363.29 133.688 1364.23 133.688C1365.17 133.688 1365.93 134 1366.56 134.624C1367.18 135.248 1367.49 136.04 1367.49 137C1367.49 137.96 1367.18 138.752 1366.56 139.376C1365.93 140 1365.17 140.312 1364.23 140.312C1363.29 140.312 1362.53 140 1361.9 139.376ZM1380.69 137.48C1380.69 139.472 1379.66 140.456 1378.05 140.456C1376.61 140.456 1375.67 139.592 1375.67 137.984V131H1372.58V138.368C1372.58 139.928 1373.01 141.128 1373.85 142.016C1374.71 142.904 1375.79 143.336 1377.11 143.336C1378.74 143.336 1379.94 142.784 1380.69 141.656V143H1383.78V131H1380.69V137.48ZM1393.29 130.664C1391.66 130.664 1390.46 131.216 1389.72 132.344V131H1386.62V143H1389.72V136.52C1389.72 134.528 1390.75 133.544 1392.36 133.544C1393.8 133.544 1394.73 134.408 1394.73 136.016V143H1397.83V135.632C1397.83 134.072 1397.4 132.872 1396.53 131.984C1395.69 131.096 1394.61 130.664 1393.29 130.664ZM1407.33 131H1404.62V127.64L1401.53 128.576V131H1399.44V133.976H1401.53V138.968C1401.53 142.256 1403.09 143.48 1407.33 143V140.192C1405.56 140.288 1404.62 140.264 1404.62 138.968V133.976H1407.33V131ZM1165.13 179.336C1167.46 179.336 1169.5 178.112 1170.55 176.216L1167.86 174.68C1167.38 175.664 1166.35 176.264 1165.1 176.264C1164.17 176.264 1163.4 175.952 1162.8 175.352C1162.2 174.728 1161.89 173.936 1161.89 173C1161.89 171.08 1163.26 169.712 1165.1 169.712C1166.33 169.712 1167.36 170.336 1167.84 171.32L1170.5 169.76C1169.52 167.864 1167.46 166.664 1165.13 166.664C1163.33 166.664 1161.82 167.264 1160.59 168.488C1159.39 169.712 1158.79 171.2 1158.79 173C1158.79 174.8 1159.39 176.288 1160.59 177.512C1161.82 178.736 1163.33 179.336 1165.13 179.336ZM1175.38 167H1172.28V179H1175.38V173.264C1175.38 172.112 1175.74 171.296 1176.48 170.792C1177.23 170.288 1178.09 170.096 1179.03 170.216V166.76C1177.4 166.76 1175.96 167.528 1175.38 169.064V167ZM1192.5 174.272C1192.57 173.816 1192.62 173.408 1192.62 173C1192.62 171.2 1192.05 169.712 1190.89 168.488C1189.77 167.264 1188.3 166.664 1186.55 166.664C1184.7 166.664 1183.17 167.264 1181.99 168.488C1180.81 169.688 1180.21 171.2 1180.21 173C1180.21 174.824 1180.81 176.336 1182.01 177.536C1183.21 178.736 1184.8 179.336 1186.79 179.336C1189.09 179.336 1190.85 178.472 1192.02 176.768L1189.53 175.328C1188.93 176.12 1188.01 176.528 1186.84 176.528C1184.99 176.528 1183.86 175.784 1183.45 174.272H1192.5ZM1183.41 171.872C1183.77 170.336 1184.89 169.448 1186.55 169.448C1187.97 169.448 1189.17 170.24 1189.53 171.872H1183.41ZM1203.81 168.416C1202.87 167.24 1201.58 166.664 1199.9 166.664C1198.29 166.664 1196.92 167.288 1195.77 168.512C1194.64 169.736 1194.07 171.224 1194.07 173C1194.07 174.776 1194.64 176.288 1195.77 177.512C1196.92 178.736 1198.29 179.336 1199.9 179.336C1201.58 179.336 1202.87 178.76 1203.81 177.584V179H1206.91V167H1203.81V168.416ZM1198.1 175.448C1197.47 174.8 1197.16 173.984 1197.16 173C1197.16 172.016 1197.47 171.2 1198.1 170.576C1198.72 169.928 1199.51 169.616 1200.47 169.616C1201.43 169.616 1202.23 169.928 1202.85 170.576C1203.5 171.2 1203.81 172.016 1203.81 173C1203.81 173.984 1203.5 174.8 1202.85 175.448C1202.23 176.072 1201.43 176.384 1200.47 176.384C1199.51 176.384 1198.72 176.072 1198.1 175.448ZM1216.58 167H1213.86V163.64L1210.77 164.576V167H1208.68V169.976H1210.77V174.968C1210.77 178.256 1212.33 179.48 1216.58 179V176.192C1214.8 176.288 1213.86 176.264 1213.86 174.968V169.976H1216.58V167ZM1220.48 165.944C1221.54 165.944 1222.4 165.104 1222.4 164.096C1222.4 163.088 1221.54 162.224 1220.48 162.224C1219.45 162.224 1218.59 163.088 1218.59 164.096C1218.59 165.104 1219.45 165.944 1220.48 165.944ZM1222.04 179V167H1218.95V179H1222.04ZM1235.1 177.512C1236.32 176.288 1236.95 174.776 1236.95 173C1236.95 171.224 1236.32 169.736 1235.1 168.512C1233.88 167.288 1232.36 166.664 1230.59 166.664C1228.81 166.664 1227.3 167.288 1226.08 168.512C1224.85 169.736 1224.25 171.224 1224.25 173C1224.25 174.776 1224.85 176.288 1226.08 177.512C1227.3 178.736 1228.81 179.336 1230.59 179.336C1232.36 179.336 1233.88 178.736 1235.1 177.512ZM1228.26 175.376C1227.66 174.752 1227.35 173.96 1227.35 173C1227.35 172.04 1227.66 171.248 1228.26 170.624C1228.88 170 1229.65 169.688 1230.59 169.688C1231.52 169.688 1232.29 170 1232.92 170.624C1233.54 171.248 1233.85 172.04 1233.85 173C1233.85 173.96 1233.54 174.752 1232.92 175.376C1232.29 176 1231.52 176.312 1230.59 176.312C1229.65 176.312 1228.88 176 1228.26 175.376ZM1245.8 166.664C1244.17 166.664 1242.97 167.216 1242.22 168.344V167H1239.13V179H1242.22V172.52C1242.22 170.528 1243.25 169.544 1244.86 169.544C1246.3 169.544 1247.24 170.408 1247.24 172.016V179H1250.33V171.632C1250.33 170.072 1249.9 168.872 1249.04 167.984C1248.2 167.096 1247.12 166.664 1245.8 166.664ZM1261.83 170.408C1261.83 169.808 1262.43 169.424 1263.23 169.424C1264.11 169.424 1264.76 169.832 1265.15 170.648L1267.79 169.208C1266.85 167.576 1265.17 166.664 1263.23 166.664C1261.93 166.664 1260.85 167 1259.96 167.696C1259.1 168.368 1258.67 169.304 1258.67 170.48C1258.67 172.976 1260.9 173.72 1262.67 174.176C1263.9 174.488 1264.86 174.848 1264.86 175.496C1264.86 176.192 1264.31 176.528 1263.2 176.528C1261.98 176.528 1261.21 176 1260.85 174.968L1258.16 176.48C1259.05 178.376 1260.73 179.336 1263.2 179.336C1264.57 179.336 1265.72 179 1266.63 178.352C1267.57 177.68 1268.03 176.72 1268.03 175.496C1268.05 172.928 1265.77 172.088 1264.02 171.728C1262.79 171.416 1261.83 171.056 1261.83 170.408ZM1274.69 175.064L1271.57 167H1268.18L1273.1 178.616C1272.53 180.248 1271.61 180.944 1269.96 180.92V183.8C1273.03 183.968 1275.05 182.456 1276.29 179L1280.66 167H1277.35L1274.69 175.064ZM1284.24 170.408C1284.24 169.808 1284.84 169.424 1285.63 169.424C1286.52 169.424 1287.17 169.832 1287.55 170.648L1290.19 169.208C1289.26 167.576 1287.58 166.664 1285.63 166.664C1284.34 166.664 1283.26 167 1282.37 167.696C1281.5 168.368 1281.07 169.304 1281.07 170.48C1281.07 172.976 1283.3 173.72 1285.08 174.176C1286.3 174.488 1287.26 174.848 1287.26 175.496C1287.26 176.192 1286.71 176.528 1285.61 176.528C1284.38 176.528 1283.62 176 1283.26 174.968L1280.57 176.48C1281.46 178.376 1283.14 179.336 1285.61 179.336C1286.98 179.336 1288.13 179 1289.04 178.352C1289.98 177.68 1290.43 176.72 1290.43 175.496C1290.46 172.928 1288.18 172.088 1286.42 171.728C1285.2 171.416 1284.24 171.056 1284.24 170.408ZM1298.94 167H1296.22V163.64L1293.13 164.576V167H1291.04V169.976H1293.13V174.968C1293.13 178.256 1294.69 179.48 1298.94 179V176.192C1297.16 176.288 1296.22 176.264 1296.22 174.968V169.976H1298.94V167ZM1312.97 174.272C1313.04 173.816 1313.09 173.408 1313.09 173C1313.09 171.2 1312.51 169.712 1311.36 168.488C1310.23 167.264 1308.77 166.664 1307.02 166.664C1305.17 166.664 1303.63 167.264 1302.46 168.488C1301.28 169.688 1300.68 171.2 1300.68 173C1300.68 174.824 1301.28 176.336 1302.48 177.536C1303.68 178.736 1305.27 179.336 1307.26 179.336C1309.56 179.336 1311.31 178.472 1312.49 176.768L1309.99 175.328C1309.39 176.12 1308.48 176.528 1307.31 176.528C1305.46 176.528 1304.33 175.784 1303.92 174.272H1312.97ZM1303.87 171.872C1304.23 170.336 1305.36 169.448 1307.02 169.448C1308.43 169.448 1309.63 170.24 1309.99 171.872H1303.87ZM1328.52 166.664C1326.94 166.664 1325.74 167.24 1324.95 168.392C1324.25 167.24 1323.15 166.664 1321.68 166.664C1320.17 166.664 1319.07 167.192 1318.35 168.272V167H1315.25V179H1318.35V172.256C1318.35 170.504 1319.24 169.544 1320.6 169.544C1321.88 169.544 1322.62 170.384 1322.62 171.824V179H1325.72V172.256C1325.72 170.504 1326.53 169.544 1327.95 169.544C1329.22 169.544 1329.96 170.384 1329.96 171.824V179H1333.06V171.608C1333.06 168.608 1331.28 166.664 1328.52 166.664ZM1338.93 178.712C1339.72 177.92 1339.72 176.624 1338.93 175.832C1338.14 175.04 1336.84 175.04 1336.05 175.832C1335.26 176.624 1335.26 177.92 1336.05 178.712C1336.84 179.504 1338.14 179.504 1338.93 178.712Z" fill="white"/>
<path d="M111.069 143.336C112.869 143.336 114.333 142.88 115.461 141.968C116.589 141.056 117.165 139.832 117.165 138.272C117.165 137.312 116.901 136.472 116.541 135.896C116.229 135.32 115.461 134.72 114.957 134.408C114.717 134.24 114.357 134.072 113.901 133.904C113.445 133.712 113.085 133.568 112.821 133.496L111.669 133.112C110.421 132.728 109.581 132.368 109.125 132.056C108.693 131.72 108.477 131.288 108.477 130.76C108.477 129.776 109.317 129.08 110.685 129.08C112.149 129.08 113.229 129.8 113.901 131.24L116.685 129.632C115.533 127.256 113.397 125.864 110.685 125.864C109.173 125.864 107.853 126.32 106.773 127.232C105.693 128.12 105.165 129.344 105.165 130.856C105.165 132.392 105.717 133.544 106.749 134.312C107.805 135.056 108.717 135.416 110.229 135.872C111.597 136.256 112.533 136.616 113.061 136.952C113.589 137.264 113.853 137.72 113.853 138.32C113.853 139.352 113.013 140.096 111.165 140.096C109.245 140.096 107.949 139.232 107.301 137.528L104.469 139.184C105.405 141.752 107.733 143.336 111.069 143.336ZM122.278 143V125.48H119.182V143H122.278ZM135.335 141.512C136.559 140.288 137.183 138.776 137.183 137C137.183 135.224 136.559 133.736 135.335 132.512C134.111 131.288 132.599 130.664 130.823 130.664C129.047 130.664 127.535 131.288 126.311 132.512C125.087 133.736 124.487 135.224 124.487 137C124.487 138.776 125.087 140.288 126.311 141.512C127.535 142.736 129.047 143.336 130.823 143.336C132.599 143.336 134.111 142.736 135.335 141.512ZM128.495 139.376C127.895 138.752 127.583 137.96 127.583 137C127.583 136.04 127.895 135.248 128.495 134.624C129.119 134 129.887 133.688 130.823 133.688C131.759 133.688 132.527 134 133.151 134.624C133.775 135.248 134.087 136.04 134.087 137C134.087 137.96 133.775 138.752 133.151 139.376C132.527 140 131.759 140.312 130.823 140.312C129.887 140.312 129.119 140 128.495 139.376ZM150.365 138.392L148.181 131H145.253L143.069 138.368L141.029 131H137.741L141.557 143H144.509L146.717 135.728L148.925 143H151.877L155.693 131H152.405L150.365 138.392ZM170.225 131H167.513V127.64L164.417 128.576V131H162.329V133.976H164.417V138.968C164.417 142.256 165.977 143.48 170.225 143V140.192C168.449 140.288 167.513 140.264 167.513 138.968V133.976H170.225V131ZM175.692 131H172.596V143H175.692V137.264C175.692 136.112 176.052 135.296 176.796 134.792C177.54 134.288 178.404 134.096 179.34 134.216V130.76C177.708 130.76 176.268 131.528 175.692 133.064V131ZM189.825 132.416C188.889 131.24 187.593 130.664 185.913 130.664C184.305 130.664 182.937 131.288 181.785 132.512C180.657 133.736 180.081 135.224 180.081 137C180.081 138.776 180.657 140.288 181.785 141.512C182.937 142.736 184.305 143.336 185.913 143.336C187.593 143.336 188.889 142.76 189.825 141.584V143H192.921V131H189.825V132.416ZM184.113 139.448C183.489 138.8 183.177 137.984 183.177 137C183.177 136.016 183.489 135.2 184.113 134.576C184.737 133.928 185.529 133.616 186.489 133.616C187.449 133.616 188.241 133.928 188.865 134.576C189.513 135.2 189.825 136.016 189.825 137C189.825 137.984 189.513 138.8 188.865 139.448C188.241 140.072 187.449 140.384 186.489 140.384C185.529 140.384 184.737 140.072 184.113 139.448ZM202.401 130.664C200.769 130.664 199.569 131.216 198.825 132.344V131H195.729V143H198.825V136.52C198.825 134.528 199.857 133.544 201.465 133.544C202.905 133.544 203.841 134.408 203.841 136.016V143H206.937V135.632C206.937 134.072 206.505 132.872 205.641 131.984C204.801 131.096 203.721 130.664 202.401 130.664ZM212.436 134.408C212.436 133.808 213.036 133.424 213.828 133.424C214.716 133.424 215.364 133.832 215.748 134.648L218.388 133.208C217.452 131.576 215.772 130.664 213.828 130.664C212.532 130.664 211.452 131 210.564 131.696C209.7 132.368 209.268 133.304 209.268 134.48C209.268 136.976 211.5 137.72 213.276 138.176C214.5 138.488 215.46 138.848 215.46 139.496C215.46 140.192 214.908 140.528 213.804 140.528C212.58 140.528 211.812 140 211.452 138.968L208.764 140.48C209.652 142.376 211.332 143.336 213.804 143.336C215.172 143.336 216.324 143 217.236 142.352C218.172 141.68 218.628 140.72 218.628 139.496C218.652 136.928 216.372 136.088 214.62 135.728C213.396 135.416 212.436 135.056 212.436 134.408ZM229.575 132.416C228.639 131.24 227.343 130.664 225.663 130.664C224.055 130.664 222.687 131.288 221.535 132.512C220.407 133.736 219.831 135.224 219.831 137C219.831 138.776 220.407 140.288 221.535 141.512C222.687 142.736 224.055 143.336 225.663 143.336C227.343 143.336 228.639 142.76 229.575 141.584V143H232.671V131H229.575V132.416ZM223.863 139.448C223.239 138.8 222.927 137.984 222.927 137C222.927 136.016 223.239 135.2 223.863 134.576C224.487 133.928 225.279 133.616 226.239 133.616C227.199 133.616 227.991 133.928 228.615 134.576C229.263 135.2 229.575 136.016 229.575 137C229.575 137.984 229.263 138.8 228.615 139.448C227.991 140.072 227.199 140.384 226.239 140.384C225.279 140.384 224.487 140.072 223.863 139.448ZM241.191 143.336C243.519 143.336 245.559 142.112 246.615 140.216L243.927 138.68C243.447 139.664 242.415 140.264 241.167 140.264C240.23 140.264 239.463 139.952 238.863 139.352C238.263 138.728 237.951 137.936 237.951 137C237.951 135.08 239.319 133.712 241.167 133.712C242.391 133.712 243.423 134.336 243.903 135.32L246.567 133.76C245.583 131.864 243.519 130.664 241.191 130.664C239.391 130.664 237.879 131.264 236.655 132.488C235.455 133.712 234.854 135.2 234.854 137C234.854 138.8 235.455 140.288 236.655 141.512C237.879 142.736 239.391 143.336 241.191 143.336ZM255.116 131H252.404V127.64L249.308 128.576V131H247.22V133.976H249.308V138.968C249.308 142.256 250.868 143.48 255.116 143V140.192C253.34 140.288 252.404 140.264 252.404 138.968V133.976H255.116V131ZM259.022 129.944C260.078 129.944 260.942 129.104 260.942 128.096C260.942 127.088 260.078 126.224 259.022 126.224C257.99 126.224 257.126 127.088 257.126 128.096C257.126 129.104 257.99 129.944 259.022 129.944ZM260.582 143V131H257.486V143H260.582ZM273.64 141.512C274.864 140.288 275.488 138.776 275.488 137C275.488 135.224 274.864 133.736 273.64 132.512C272.416 131.288 270.904 130.664 269.128 130.664C267.352 130.664 265.84 131.288 264.616 132.512C263.392 133.736 262.792 135.224 262.792 137C262.792 138.776 263.392 140.288 264.616 141.512C265.84 142.736 267.352 143.336 269.128 143.336C270.904 143.336 272.416 142.736 273.64 141.512ZM266.8 139.376C266.2 138.752 265.888 137.96 265.888 137C265.888 136.04 266.2 135.248 266.8 134.624C267.424 134 268.192 133.688 269.128 133.688C270.064 133.688 270.832 134 271.456 134.624C272.08 135.248 272.392 136.04 272.392 137C272.392 137.96 272.08 138.752 271.456 139.376C270.832 140 270.064 140.312 269.128 140.312C268.192 140.312 267.424 140 266.8 139.376ZM284.338 130.664C282.706 130.664 281.506 131.216 280.762 132.344V131H277.666V143H280.762V136.52C280.762 134.528 281.794 133.544 283.402 133.544C284.842 133.544 285.778 134.408 285.778 136.016V143H288.874V135.632C288.874 134.072 288.442 132.872 287.578 131.984C286.738 131.096 285.658 130.664 284.338 130.664ZM304.502 130.664C302.822 130.664 301.526 131.24 300.614 132.416V131H297.518V147.8H300.614V141.584C301.526 142.76 302.822 143.336 304.502 143.336C306.11 143.336 307.502 142.736 308.63 141.512C309.782 140.288 310.358 138.776 310.358 137C310.358 135.224 309.782 133.736 308.63 132.512C307.502 131.288 306.11 130.664 304.502 130.664ZM301.55 139.448C300.926 138.8 300.614 137.984 300.614 137C300.614 136.016 300.926 135.2 301.55 134.576C302.174 133.928 302.966 133.616 303.926 133.616C304.886 133.616 305.678 133.928 306.302 134.576C306.95 135.2 307.262 136.016 307.262 137C307.262 137.984 306.95 138.8 306.302 139.448C305.678 140.072 304.886 140.384 303.926 140.384C302.966 140.384 302.174 140.072 301.55 139.448ZM315.637 131H312.541V143H315.637V137.264C315.637 136.112 315.997 135.296 316.741 134.792C317.485 134.288 318.349 134.096 319.285 134.216V130.76C317.653 130.76 316.213 131.528 315.637 133.064V131ZM331.32 141.512C332.544 140.288 333.168 138.776 333.168 137C333.168 135.224 332.544 133.736 331.32 132.512C330.096 131.288 328.584 130.664 326.808 130.664C325.032 130.664 323.52 131.288 322.296 132.512C321.072 133.736 320.472 135.224 320.472 137C320.472 138.776 321.072 140.288 322.296 141.512C323.52 142.736 325.032 143.336 326.808 143.336C328.584 143.336 330.096 142.736 331.32 141.512ZM324.48 139.376C323.88 138.752 323.568 137.96 323.568 137C323.568 136.04 323.88 135.248 324.48 134.624C325.104 134 325.872 133.688 326.808 133.688C327.744 133.688 328.512 134 329.136 134.624C329.76 135.248 330.072 136.04 330.072 137C330.072 137.96 329.76 138.752 329.136 139.376C328.512 140 327.744 140.312 326.808 140.312C325.872 140.312 325.104 140 324.48 139.376ZM341.058 143.336C343.386 143.336 345.426 142.112 346.482 140.216L343.794 138.68C343.314 139.664 342.282 140.264 341.034 140.264C340.098 140.264 339.33 139.952 338.73 139.352C338.13 138.728 337.818 137.936 337.818 137C337.818 135.08 339.186 133.712 341.034 133.712C342.258 133.712 343.29 134.336 343.77 135.32L346.434 133.76C345.45 131.864 343.386 130.664 341.058 130.664C339.258 130.664 337.746 131.264 336.522 132.488C335.322 133.712 334.722 135.2 334.722 137C334.722 138.8 335.322 140.288 336.522 141.512C337.746 142.736 339.258 143.336 341.058 143.336ZM359.877 138.272C359.949 137.816 359.997 137.408 359.997 137C359.997 135.2 359.421 133.712 358.269 132.488C357.141 131.264 355.677 130.664 353.925 130.664C352.077 130.664 350.541 131.264 349.365 132.488C348.189 133.688 347.589 135.2 347.589 137C347.589 138.824 348.189 140.336 349.389 141.536C350.589 142.736 352.173 143.336 354.165 143.336C356.469 143.336 358.221 142.472 359.397 140.768L356.901 139.328C356.301 140.12 355.389 140.528 354.213 140.528C352.365 140.528 351.237 139.784 350.829 138.272H359.877ZM350.781 135.872C351.141 134.336 352.269 133.448 353.925 133.448C355.341 133.448 356.541 134.24 356.901 135.872H350.781ZM364.545 134.408C364.545 133.808 365.145 133.424 365.937 133.424C366.825 133.424 367.473 133.832 367.857 134.648L370.497 133.208C369.561 131.576 367.881 130.664 365.937 130.664C364.641 130.664 363.561 131 362.673 131.696C361.809 132.368 361.377 133.304 361.377 134.48C361.377 136.976 363.609 137.72 365.385 138.176C366.609 138.488 367.569 138.848 367.569 139.496C367.569 140.192 367.017 140.528 365.913 140.528C364.689 140.528 363.921 140 363.561 138.968L360.873 140.48C361.761 142.376 363.441 143.336 365.913 143.336C367.281 143.336 368.433 143 369.345 142.352C370.281 141.68 370.737 140.72 370.737 139.496C370.761 136.928 368.481 136.088 366.729 135.728C365.505 135.416 364.545 135.056 364.545 134.408ZM374.952 134.408C374.952 133.808 375.552 133.424 376.344 133.424C377.232 133.424 377.88 133.832 378.264 134.648L380.904 133.208C379.968 131.576 378.288 130.664 376.344 130.664C375.048 130.664 373.968 131 373.08 131.696C372.216 132.368 371.784 133.304 371.784 134.48C371.784 136.976 374.016 137.72 375.792 138.176C377.016 138.488 377.976 138.848 377.976 139.496C377.976 140.192 377.424 140.528 376.32 140.528C375.096 140.528 374.328 140 373.968 138.968L371.28 140.48C372.168 142.376 373.848 143.336 376.32 143.336C377.688 143.336 378.84 143 379.752 142.352C380.688 141.68 381.144 140.72 381.144 139.496C381.168 136.928 378.888 136.088 377.136 135.728C375.912 135.416 374.952 135.056 374.952 134.408ZM386.234 142.712C387.026 141.92 387.026 140.624 386.234 139.832C385.442 139.04 384.146 139.04 383.354 139.832C382.562 140.624 382.562 141.92 383.354 142.712C384.146 143.504 385.442 143.504 386.234 142.712ZM140.966 162.2H137.654V179H147.374V175.832H140.966V162.2ZM159.335 177.512C160.559 176.288 161.183 174.776 161.183 173C161.183 171.224 160.559 169.736 159.335 168.512C158.111 167.288 156.599 166.664 154.823 166.664C153.047 166.664 151.535 167.288 150.311 168.512C149.087 169.736 148.487 171.224 148.487 173C148.487 174.776 149.087 176.288 150.311 177.512C151.535 178.736 153.047 179.336 154.823 179.336C156.599 179.336 158.111 178.736 159.335 177.512ZM152.495 175.376C151.895 174.752 151.583 173.96 151.583 173C151.583 172.04 151.895 171.248 152.495 170.624C153.119 170 153.887 169.688 154.823 169.688C155.759 169.688 156.527 170 157.151 170.624C157.775 171.248 158.087 172.04 158.087 173C158.087 173.96 157.775 174.752 157.151 175.376C156.527 176 155.759 176.312 154.823 176.312C153.887 176.312 153.119 176 152.495 175.376ZM174.365 174.392L172.181 167H169.253L167.069 174.368L165.029 167H161.741L165.557 179H168.509L170.717 171.728L172.925 179H175.877L179.693 167H176.405L174.365 174.392ZM194.345 166.664C192.665 166.664 191.369 167.24 190.457 168.416V167H187.361V183.8H190.457V177.584C191.369 178.76 192.665 179.336 194.345 179.336C195.953 179.336 197.345 178.736 198.473 177.512C199.625 176.288 200.201 174.776 200.201 173C200.201 171.224 199.625 169.736 198.473 168.512C197.345 167.288 195.953 166.664 194.345 166.664ZM191.393 175.448C190.769 174.8 190.457 173.984 190.457 173C190.457 172.016 190.769 171.2 191.393 170.576C192.017 169.928 192.809 169.616 193.769 169.616C194.729 169.616 195.521 169.928 196.145 170.576C196.793 171.2 197.105 172.016 197.105 173C197.105 173.984 196.793 174.8 196.145 175.448C195.521 176.072 194.729 176.384 193.769 176.384C192.809 176.384 192.017 176.072 191.393 175.448ZM205.481 167H202.385V179H205.481V173.264C205.481 172.112 205.841 171.296 206.585 170.792C207.329 170.288 208.193 170.096 209.129 170.216V166.76C207.497 166.76 206.057 167.528 205.481 169.064V167ZM221.163 177.512C222.387 176.288 223.011 174.776 223.011 173C223.011 171.224 222.387 169.736 221.163 168.512C219.939 167.288 218.427 166.664 216.651 166.664C214.875 166.664 213.363 167.288 212.139 168.512C210.915 169.736 210.315 171.224 210.315 173C210.315 174.776 210.915 176.288 212.139 177.512C213.363 178.736 214.875 179.336 216.651 179.336C218.427 179.336 219.939 178.736 221.163 177.512ZM214.323 175.376C213.723 174.752 213.411 173.96 213.411 173C213.411 172.04 213.723 171.248 214.323 170.624C214.947 170 215.715 169.688 216.651 169.688C217.587 169.688 218.355 170 218.979 170.624C219.603 171.248 219.915 172.04 219.915 173C219.915 173.96 219.603 174.752 218.979 175.376C218.355 176 217.587 176.312 216.651 176.312C215.715 176.312 214.947 176 214.323 175.376ZM230.901 179.336C233.229 179.336 235.269 178.112 236.325 176.216L233.637 174.68C233.157 175.664 232.125 176.264 230.877 176.264C229.941 176.264 229.173 175.952 228.573 175.352C227.973 174.728 227.661 173.936 227.661 173C227.661 171.08 229.029 169.712 230.877 169.712C232.101 169.712 233.133 170.336 233.613 171.32L236.277 169.76C235.293 167.864 233.229 166.664 230.901 166.664C229.101 166.664 227.589 167.264 226.365 168.488C225.165 169.712 224.565 171.2 224.565 173C224.565 174.8 225.165 176.288 226.365 177.512C227.589 178.736 229.101 179.336 230.901 179.336ZM249.721 174.272C249.793 173.816 249.841 173.408 249.841 173C249.841 171.2 249.265 169.712 248.113 168.488C246.985 167.264 245.521 166.664 243.769 166.664C241.921 166.664 240.385 167.264 239.209 168.488C238.033 169.688 237.433 171.2 237.433 173C237.433 174.824 238.033 176.336 239.233 177.536C240.433 178.736 242.017 179.336 244.009 179.336C246.313 179.336 248.065 178.472 249.241 176.768L246.745 175.328C246.145 176.12 245.233 176.528 244.057 176.528C242.209 176.528 241.081 175.784 240.673 174.272H249.721ZM240.625 171.872C240.985 170.336 242.113 169.448 243.769 169.448C245.185 169.448 246.385 170.24 246.745 171.872H240.625ZM254.389 170.408C254.389 169.808 254.989 169.424 255.781 169.424C256.669 169.424 257.317 169.832 257.701 170.648L260.341 169.208C259.405 167.576 257.725 166.664 255.781 166.664C254.485 166.664 253.405 167 252.517 167.696C251.653 168.368 251.221 169.304 251.221 170.48C251.221 172.976 253.453 173.72 255.229 174.176C256.453 174.488 257.413 174.848 257.413 175.496C257.413 176.192 256.861 176.528 255.757 176.528C254.533 176.528 253.765 176 253.405 174.968L250.717 176.48C251.605 178.376 253.285 179.336 255.757 179.336C257.125 179.336 258.277 179 259.189 178.352C260.125 177.68 260.581 176.72 260.581 175.496C260.605 172.928 258.325 172.088 256.573 171.728C255.349 171.416 254.389 171.056 254.389 170.408ZM264.795 170.408C264.795 169.808 265.395 169.424 266.187 169.424C267.075 169.424 267.723 169.832 268.107 170.648L270.747 169.208C269.811 167.576 268.131 166.664 266.187 166.664C264.891 166.664 263.811 167 262.923 167.696C262.059 168.368 261.627 169.304 261.627 170.48C261.627 172.976 263.859 173.72 265.635 174.176C266.859 174.488 267.819 174.848 267.819 175.496C267.819 176.192 267.267 176.528 266.163 176.528C264.939 176.528 264.171 176 263.811 174.968L261.123 176.48C262.011 178.376 263.691 179.336 266.163 179.336C267.531 179.336 268.683 179 269.595 178.352C270.531 177.68 270.987 176.72 270.987 175.496C271.011 172.928 268.731 172.088 266.979 171.728C265.755 171.416 264.795 171.056 264.795 170.408ZM274.632 165.944C275.688 165.944 276.552 165.104 276.552 164.096C276.552 163.088 275.688 162.224 274.632 162.224C273.6 162.224 272.736 163.088 272.736 164.096C272.736 165.104 273.6 165.944 274.632 165.944ZM276.192 179V167H273.096V179H276.192ZM285.697 166.664C284.065 166.664 282.865 167.216 282.121 168.344V167H279.025V179H282.121V172.52C282.121 170.528 283.153 169.544 284.761 169.544C286.201 169.544 287.137 170.408 287.137 172.016V179H290.233V171.632C290.233 170.072 289.801 168.872 288.937 167.984C288.097 167.096 287.017 166.664 285.697 166.664ZM302.069 168.488C301.157 167.264 299.885 166.664 298.229 166.664C296.549 166.664 295.133 167.264 293.981 168.464C292.829 169.664 292.253 171.104 292.253 172.808C292.253 174.512 292.829 175.976 293.957 177.176C295.109 178.352 296.525 178.952 298.229 178.952C299.885 178.952 301.157 178.352 302.069 177.128V178.424C302.069 180.32 300.869 181.376 298.925 181.376C297.437 181.376 296.381 180.824 295.781 179.696L293.141 181.208C294.197 183.128 296.237 184.136 298.829 184.136C300.557 184.136 302.021 183.656 303.245 182.672C304.469 181.688 305.093 180.272 305.093 178.424V167H302.069V168.488ZM302.069 172.808C302.069 174.728 300.653 176.096 298.709 176.096C296.765 176.096 295.349 174.728 295.349 172.808C295.349 171.872 295.661 171.08 296.285 170.48C296.933 169.856 297.725 169.544 298.709 169.544C299.693 169.544 300.485 169.856 301.109 170.48C301.757 171.08 302.069 171.872 302.069 172.808ZM316.756 170.408C316.756 169.808 317.356 169.424 318.148 169.424C319.036 169.424 319.684 169.832 320.068 170.648L322.708 169.208C321.772 167.576 320.092 166.664 318.148 166.664C316.852 166.664 315.772 167 314.884 167.696C314.02 168.368 313.588 169.304 313.588 170.48C313.588 172.976 315.82 173.72 317.596 174.176C318.82 174.488 319.78 174.848 319.78 175.496C319.78 176.192 319.228 176.528 318.124 176.528C316.9 176.528 316.132 176 315.772 174.968L313.084 176.48C313.972 178.376 315.652 179.336 318.124 179.336C319.492 179.336 320.644 179 321.556 178.352C322.492 177.68 322.948 176.72 322.948 175.496C322.972 172.928 320.692 172.088 318.94 171.728C317.716 171.416 316.756 171.056 316.756 170.408ZM332.041 166.664C330.361 166.664 329.065 167.24 328.153 168.416V167H325.057V183.8H328.153V177.584C329.065 178.76 330.361 179.336 332.041 179.336C333.649 179.336 335.041 178.736 336.169 177.512C337.321 176.288 337.897 174.776 337.897 173C337.897 171.224 337.321 169.736 336.169 168.512C335.041 167.288 333.649 166.664 332.041 166.664ZM329.089 175.448C328.465 174.8 328.153 173.984 328.153 173C328.153 172.016 328.465 171.2 329.089 170.576C329.713 169.928 330.505 169.616 331.465 169.616C332.425 169.616 333.217 169.928 333.841 170.576C334.489 171.2 334.801 172.016 334.801 173C334.801 173.984 334.489 174.8 333.841 175.448C333.217 176.072 332.425 176.384 331.465 176.384C330.505 176.384 329.713 176.072 329.089 175.448ZM351.744 174.272C351.816 173.816 351.864 173.408 351.864 173C351.864 171.2 351.288 169.712 350.136 168.488C349.008 167.264 347.544 166.664 345.792 166.664C343.944 166.664 342.408 167.264 341.232 168.488C340.056 169.688 339.456 171.2 339.456 173C339.456 174.824 340.056 176.336 341.256 177.536C342.456 178.736 344.04 179.336 346.032 179.336C348.336 179.336 350.088 178.472 351.264 176.768L348.768 175.328C348.168 176.12 347.256 176.528 346.08 176.528C344.232 176.528 343.104 175.784 342.696 174.272H351.744ZM342.648 171.872C343.008 170.336 344.136 169.448 345.792 169.448C347.208 169.448 348.408 170.24 348.768 171.872H342.648ZM365.689 174.272C365.761 173.816 365.809 173.408 365.809 173C365.809 171.2 365.233 169.712 364.081 168.488C362.953 167.264 361.489 166.664 359.737 166.664C357.889 166.664 356.353 167.264 355.177 168.488C354.001 169.688 353.401 171.2 353.401 173C353.401 174.824 354.001 176.336 355.201 177.536C356.401 178.736 357.985 179.336 359.977 179.336C362.281 179.336 364.033 178.472 365.209 176.768L362.713 175.328C362.113 176.12 361.201 176.528 360.025 176.528C358.177 176.528 357.049 175.784 356.641 174.272H365.689ZM356.593 171.872C356.953 170.336 358.081 169.448 359.737 169.448C361.153 169.448 362.353 170.24 362.713 171.872H356.593ZM377.067 168.416C376.155 167.24 374.859 166.664 373.179 166.664C371.571 166.664 370.179 167.288 369.027 168.512C367.899 169.736 367.323 171.224 367.323 173C367.323 174.776 367.899 176.288 369.027 177.512C370.179 178.736 371.571 179.336 373.179 179.336C374.859 179.336 376.155 178.76 377.067 177.584V179H380.163V162.2H377.067V168.416ZM371.355 175.448C370.731 174.8 370.419 173.984 370.419 173C370.419 172.016 370.731 171.2 371.355 170.576C372.003 169.928 372.795 169.616 373.755 169.616C374.715 169.616 375.507 169.928 376.131 170.576C376.755 171.2 377.067 172.016 377.067 173C377.067 173.984 376.755 174.8 376.131 175.448C375.507 176.072 374.715 176.384 373.755 176.384C372.795 176.384 372.003 176.072 371.355 175.448ZM386.234 178.712C387.026 177.92 387.026 176.624 386.234 175.832C385.442 175.04 384.146 175.04 383.354 175.832C382.562 176.624 382.562 177.92 383.354 178.712C384.146 179.504 385.442 179.504 386.234 178.712Z" fill="white"/>
<path d="M1223.11 691.872H1216.87V685.2H1213.56V702H1216.87V695.04H1223.11V702H1226.4V685.2H1223.11V691.872ZM1230.91 688.944C1231.97 688.944 1232.83 688.104 1232.83 687.096C1232.83 686.088 1231.97 685.224 1230.91 685.224C1229.88 685.224 1229.02 686.088 1229.02 687.096C1229.02 688.104 1229.88 688.944 1230.91 688.944ZM1232.47 702V690H1229.38V702H1232.47ZM1244.5 691.488C1243.59 690.264 1242.31 689.664 1240.66 689.664C1238.98 689.664 1237.56 690.264 1236.41 691.464C1235.26 692.664 1234.68 694.104 1234.68 695.808C1234.68 697.512 1235.26 698.976 1236.39 700.176C1237.54 701.352 1238.95 701.952 1240.66 701.952C1242.31 701.952 1243.59 701.352 1244.5 700.128V701.424C1244.5 703.32 1243.3 704.376 1241.35 704.376C1239.87 704.376 1238.81 703.824 1238.21 702.696L1235.57 704.208C1236.63 706.128 1238.67 707.136 1241.26 707.136C1242.99 707.136 1244.45 706.656 1245.67 705.672C1246.9 704.688 1247.52 703.272 1247.52 701.424V690H1244.5V691.488ZM1244.5 695.808C1244.5 697.728 1243.08 699.096 1241.14 699.096C1239.19 699.096 1237.78 697.728 1237.78 695.808C1237.78 694.872 1238.09 694.08 1238.71 693.48C1239.36 692.856 1240.15 692.544 1241.14 692.544C1242.12 692.544 1242.91 692.856 1243.54 693.48C1244.19 694.08 1244.5 694.872 1244.5 695.808ZM1257 689.664C1255.37 689.664 1254.17 690.216 1253.43 691.344V685.2H1250.33V702H1253.43V695.52C1253.43 693.528 1254.46 692.544 1256.07 692.544C1257.51 692.544 1258.44 693.408 1258.44 695.016V702H1261.54V694.632C1261.54 693.072 1261.11 691.872 1260.24 690.984C1259.4 690.096 1258.32 689.664 1257 689.664ZM1277.05 690H1274.33V686.64L1271.24 687.576V690H1269.15V692.976H1271.24V697.968C1271.24 701.256 1272.8 702.48 1277.05 702V699.192C1275.27 699.288 1274.33 699.264 1274.33 697.968V692.976H1277.05V690ZM1282.51 690H1279.42V702H1282.51V696.264C1282.51 695.112 1282.87 694.296 1283.62 693.792C1284.36 693.288 1285.22 693.096 1286.16 693.216V689.76C1284.53 689.76 1283.09 690.528 1282.51 692.064V690ZM1296.65 691.416C1295.71 690.24 1294.41 689.664 1292.73 689.664C1291.13 689.664 1289.76 690.288 1288.61 691.512C1287.48 692.736 1286.9 694.224 1286.9 696C1286.9 697.776 1287.48 699.288 1288.61 700.512C1289.76 701.736 1291.13 702.336 1292.73 702.336C1294.41 702.336 1295.71 701.76 1296.65 700.584V702H1299.74V690H1296.65V691.416ZM1290.93 698.448C1290.31 697.8 1290 696.984 1290 696C1290 695.016 1290.31 694.2 1290.93 693.576C1291.56 692.928 1292.35 692.616 1293.31 692.616C1294.27 692.616 1295.06 692.928 1295.69 693.576C1296.33 694.2 1296.65 695.016 1296.65 696C1296.65 696.984 1296.33 697.8 1295.69 698.448C1295.06 699.072 1294.27 699.384 1293.31 699.384C1292.35 699.384 1291.56 699.072 1290.93 698.448ZM1309.22 689.664C1307.59 689.664 1306.39 690.216 1305.64 691.344V690H1302.55V702H1305.64V695.52C1305.64 693.528 1306.68 692.544 1308.28 692.544C1309.72 692.544 1310.66 693.408 1310.66 695.016V702H1313.76V694.632C1313.76 693.072 1313.32 691.872 1312.46 690.984C1311.62 690.096 1310.54 689.664 1309.22 689.664ZM1319.26 693.408C1319.26 692.808 1319.86 692.424 1320.65 692.424C1321.54 692.424 1322.18 692.832 1322.57 693.648L1325.21 692.208C1324.27 690.576 1322.59 689.664 1320.65 689.664C1319.35 689.664 1318.27 690 1317.38 690.696C1316.52 691.368 1316.09 692.304 1316.09 693.48C1316.09 695.976 1318.32 696.72 1320.1 697.176C1321.32 697.488 1322.28 697.848 1322.28 698.496C1322.28 699.192 1321.73 699.528 1320.62 699.528C1319.4 699.528 1318.63 699 1318.27 697.968L1315.58 699.48C1316.47 701.376 1318.15 702.336 1320.62 702.336C1321.99 702.336 1323.14 702 1324.06 701.352C1324.99 700.68 1325.45 699.72 1325.45 698.496C1325.47 695.928 1323.19 695.088 1321.44 694.728C1320.22 694.416 1319.26 694.056 1319.26 693.408ZM1336.4 691.416C1335.46 690.24 1334.16 689.664 1332.48 689.664C1330.88 689.664 1329.51 690.288 1328.36 691.512C1327.23 692.736 1326.65 694.224 1326.65 696C1326.65 697.776 1327.23 699.288 1328.36 700.512C1329.51 701.736 1330.88 702.336 1332.48 702.336C1334.16 702.336 1335.46 701.76 1336.4 700.584V702H1339.49V690H1336.4V691.416ZM1330.68 698.448C1330.06 697.8 1329.75 696.984 1329.75 696C1329.75 695.016 1330.06 694.2 1330.68 693.576C1331.31 692.928 1332.1 692.616 1333.06 692.616C1334.02 692.616 1334.81 692.928 1335.44 693.576C1336.08 694.2 1336.4 695.016 1336.4 696C1336.4 696.984 1336.08 697.8 1335.44 698.448C1334.81 699.072 1334.02 699.384 1333.06 699.384C1332.1 699.384 1331.31 699.072 1330.68 698.448ZM1348.01 702.336C1350.34 702.336 1352.38 701.112 1353.43 699.216L1350.75 697.68C1350.27 698.664 1349.23 699.264 1347.99 699.264C1347.05 699.264 1346.28 698.952 1345.68 698.352C1345.08 697.728 1344.77 696.936 1344.77 696C1344.77 694.08 1346.14 692.712 1347.99 692.712C1349.21 692.712 1350.24 693.336 1350.72 694.32L1353.39 692.76C1352.4 690.864 1350.34 689.664 1348.01 689.664C1346.21 689.664 1344.7 690.264 1343.47 691.488C1342.27 692.712 1341.67 694.2 1341.67 696C1341.67 697.8 1342.27 699.288 1343.47 700.512C1344.7 701.736 1346.21 702.336 1348.01 702.336ZM1361.94 690H1359.22V686.64L1356.13 687.576V690H1354.04V692.976H1356.13V697.968C1356.13 701.256 1357.69 702.48 1361.94 702V699.192C1360.16 699.288 1359.22 699.264 1359.22 697.968V692.976H1361.94V690ZM1365.84 688.944C1366.9 688.944 1367.76 688.104 1367.76 687.096C1367.76 686.088 1366.9 685.224 1365.84 685.224C1364.81 685.224 1363.95 686.088 1363.95 687.096C1363.95 688.104 1364.81 688.944 1365.84 688.944ZM1367.4 702V690H1364.31V702H1367.4ZM1380.46 700.512C1381.68 699.288 1382.31 697.776 1382.31 696C1382.31 694.224 1381.68 692.736 1380.46 691.512C1379.24 690.288 1377.72 689.664 1375.95 689.664C1374.17 689.664 1372.66 690.288 1371.44 691.512C1370.21 692.736 1369.61 694.224 1369.61 696C1369.61 697.776 1370.21 699.288 1371.44 700.512C1372.66 701.736 1374.17 702.336 1375.95 702.336C1377.72 702.336 1379.24 701.736 1380.46 700.512ZM1373.62 698.376C1373.02 697.752 1372.71 696.96 1372.71 696C1372.71 695.04 1373.02 694.248 1373.62 693.624C1374.24 693 1375.01 692.688 1375.95 692.688C1376.88 692.688 1377.65 693 1378.28 693.624C1378.9 694.248 1379.21 695.04 1379.21 696C1379.21 696.96 1378.9 697.752 1378.28 698.376C1377.65 699 1376.88 699.312 1375.95 699.312C1375.01 699.312 1374.24 699 1373.62 698.376ZM1391.16 689.664C1389.53 689.664 1388.33 690.216 1387.58 691.344V690H1384.49V702H1387.58V695.52C1387.58 693.528 1388.61 692.544 1390.22 692.544C1391.66 692.544 1392.6 693.408 1392.6 695.016V702H1395.69V694.632C1395.69 693.072 1395.26 691.872 1394.4 690.984C1393.56 690.096 1392.48 689.664 1391.16 689.664ZM1410.79 684.864C1407.05 684.648 1405.15 686.496 1405.15 689.88V690H1403.43V692.976H1405.15V702H1408.25V692.976H1410.79V690H1408.25V689.88C1408.25 688.392 1409.09 687.72 1410.79 687.84V684.864ZM1423.88 697.272C1423.95 696.816 1424 696.408 1424 696C1424 694.2 1423.42 692.712 1422.27 691.488C1421.14 690.264 1419.68 689.664 1417.92 689.664C1416.08 689.664 1414.54 690.264 1413.36 691.488C1412.19 692.688 1411.59 694.2 1411.59 696C1411.59 697.824 1412.19 699.336 1413.39 700.536C1414.59 701.736 1416.17 702.336 1418.16 702.336C1420.47 702.336 1422.22 701.472 1423.4 699.768L1420.9 698.328C1420.3 699.12 1419.39 699.528 1418.21 699.528C1416.36 699.528 1415.24 698.784 1414.83 697.272H1423.88ZM1414.78 694.872C1415.14 693.336 1416.27 692.448 1417.92 692.448C1419.34 692.448 1420.54 693.24 1420.9 694.872H1414.78ZM1437.82 697.272C1437.89 696.816 1437.94 696.408 1437.94 696C1437.94 694.2 1437.37 692.712 1436.21 691.488C1435.09 690.264 1433.62 689.664 1431.87 689.664C1430.02 689.664 1428.49 690.264 1427.31 691.488C1426.13 692.688 1425.53 694.2 1425.53 696C1425.53 697.824 1426.13 699.336 1427.33 700.536C1428.53 701.736 1430.12 702.336 1432.11 702.336C1434.41 702.336 1436.17 701.472 1437.34 699.768L1434.85 698.328C1434.25 699.12 1433.33 699.528 1432.16 699.528C1430.31 699.528 1429.18 698.784 1428.77 697.272H1437.82ZM1428.73 694.872C1429.09 693.336 1430.21 692.448 1431.87 692.448C1433.29 692.448 1434.49 693.24 1434.85 694.872H1428.73ZM1442.49 693.408C1442.49 692.808 1443.09 692.424 1443.88 692.424C1444.77 692.424 1445.42 692.832 1445.8 693.648L1448.44 692.208C1447.51 690.576 1445.83 689.664 1443.88 689.664C1442.59 689.664 1441.51 690 1440.62 690.696C1439.75 691.368 1439.32 692.304 1439.32 693.48C1439.32 695.976 1441.55 696.72 1443.33 697.176C1444.55 697.488 1445.51 697.848 1445.51 698.496C1445.51 699.192 1444.96 699.528 1443.86 699.528C1442.63 699.528 1441.87 699 1441.51 697.968L1438.82 699.48C1439.71 701.376 1441.39 702.336 1443.86 702.336C1445.23 702.336 1446.38 702 1447.29 701.352C1448.23 700.68 1448.68 699.72 1448.68 698.496C1448.71 695.928 1446.43 695.088 1444.67 694.728C1443.45 694.416 1442.49 694.056 1442.49 693.408ZM1463.78 689.664C1462.1 689.664 1460.8 690.24 1459.89 691.416V685.2H1456.79V702H1459.89V700.584C1460.8 701.76 1462.1 702.336 1463.78 702.336C1465.38 702.336 1466.78 701.736 1467.9 700.512C1469.06 699.288 1469.63 697.776 1469.63 696C1469.63 694.224 1469.06 692.736 1467.9 691.512C1466.78 690.288 1465.38 689.664 1463.78 689.664ZM1460.82 698.448C1460.2 697.8 1459.89 696.984 1459.89 696C1459.89 695.016 1460.2 694.2 1460.82 693.576C1461.45 692.928 1462.24 692.616 1463.2 692.616C1464.16 692.616 1464.95 692.928 1465.58 693.576C1466.22 694.2 1466.54 695.016 1466.54 696C1466.54 696.984 1466.22 697.8 1465.58 698.448C1464.95 699.072 1464.16 699.384 1463.2 699.384C1462.24 699.384 1461.45 699.072 1460.82 698.448ZM1483.48 697.272C1483.55 696.816 1483.6 696.408 1483.6 696C1483.6 694.2 1483.02 692.712 1481.87 691.488C1480.74 690.264 1479.28 689.664 1477.53 689.664C1475.68 689.664 1474.14 690.264 1472.97 691.488C1471.79 692.688 1471.19 694.2 1471.19 696C1471.19 697.824 1471.79 699.336 1472.99 700.536C1474.19 701.736 1475.77 702.336 1477.77 702.336C1480.07 702.336 1481.82 701.472 1483 699.768L1480.5 698.328C1479.9 699.12 1478.99 699.528 1477.81 699.528C1475.97 699.528 1474.84 698.784 1474.43 697.272H1483.48ZM1474.38 694.872C1474.74 693.336 1475.87 692.448 1477.53 692.448C1478.94 692.448 1480.14 693.24 1480.5 694.872H1474.38ZM1492.27 690H1489.56V686.64L1486.46 687.576V690H1484.38V692.976H1486.46V697.968C1486.46 701.256 1488.02 702.48 1492.27 702V699.192C1490.5 699.288 1489.56 699.264 1489.56 697.968V692.976H1492.27V690ZM1506.11 697.392L1503.93 690H1501L1498.82 697.368L1496.78 690H1493.49L1497.31 702H1500.26L1502.47 694.728L1504.67 702H1507.63L1511.44 690H1508.15L1506.11 697.392ZM1524.78 697.272C1524.85 696.816 1524.9 696.408 1524.9 696C1524.9 694.2 1524.32 692.712 1523.17 691.488C1522.04 690.264 1520.58 689.664 1518.82 689.664C1516.98 689.664 1515.44 690.264 1514.26 691.488C1513.09 692.688 1512.49 694.2 1512.49 696C1512.49 697.824 1513.09 699.336 1514.29 700.536C1515.49 701.736 1517.07 702.336 1519.06 702.336C1521.37 702.336 1523.12 701.472 1524.3 699.768L1521.8 698.328C1521.2 699.12 1520.29 699.528 1519.11 699.528C1517.26 699.528 1516.14 698.784 1515.73 697.272H1524.78ZM1515.68 694.872C1516.04 693.336 1517.17 692.448 1518.82 692.448C1520.24 692.448 1521.44 693.24 1521.8 694.872H1515.68ZM1538.72 697.272C1538.79 696.816 1538.84 696.408 1538.84 696C1538.84 694.2 1538.26 692.712 1537.11 691.488C1535.98 690.264 1534.52 689.664 1532.77 689.664C1530.92 689.664 1529.38 690.264 1528.21 691.488C1527.03 692.688 1526.43 694.2 1526.43 696C1526.43 697.824 1527.03 699.336 1528.23 700.536C1529.43 701.736 1531.02 702.336 1533.01 702.336C1535.31 702.336 1537.06 701.472 1538.24 699.768L1535.74 698.328C1535.14 699.12 1534.23 699.528 1533.06 699.528C1531.21 699.528 1530.08 698.784 1529.67 697.272H1538.72ZM1529.62 694.872C1529.98 693.336 1531.11 692.448 1532.77 692.448C1534.18 692.448 1535.38 693.24 1535.74 694.872H1529.62ZM1547.67 689.664C1546.04 689.664 1544.84 690.216 1544.1 691.344V690H1541V702H1544.1V695.52C1544.1 693.528 1545.13 692.544 1546.74 692.544C1548.18 692.544 1549.11 693.408 1549.11 695.016V702H1552.21V694.632C1552.21 693.072 1551.78 691.872 1550.91 690.984C1550.07 690.096 1548.99 689.664 1547.67 689.664ZM1221.53 738.336C1224.6 738.336 1227.31 736.8 1228.75 734.376L1225.9 732.72C1225.1 734.184 1223.45 735.096 1221.53 735.096C1219.9 735.096 1218.58 734.592 1217.57 733.56C1216.58 732.528 1216.08 731.208 1216.08 729.6C1216.08 727.968 1216.58 726.648 1217.57 725.616C1218.58 724.584 1219.9 724.08 1221.53 724.08C1223.45 724.08 1225.06 724.968 1225.9 726.48L1228.75 724.824C1227.31 722.4 1224.58 720.864 1221.53 720.864C1219.01 720.864 1216.92 721.704 1215.26 723.384C1213.61 725.04 1212.79 727.128 1212.79 729.6C1212.79 732.072 1213.61 734.136 1215.26 735.816C1216.92 737.496 1219.01 738.336 1221.53 738.336ZM1233.93 726H1230.83V738H1233.93V732.264C1233.93 731.112 1234.29 730.296 1235.03 729.792C1235.77 729.288 1236.64 729.096 1237.57 729.216V725.76C1235.94 725.76 1234.5 726.528 1233.93 728.064V726ZM1244.8 734.064L1241.68 726H1238.3L1243.22 737.616C1242.64 739.248 1241.73 739.944 1240.07 739.92V742.8C1243.15 742.968 1245.16 741.456 1246.41 738L1250.78 726H1247.47L1244.8 734.064ZM1259.24 725.664C1257.56 725.664 1256.26 726.24 1255.35 727.416V726H1252.25V742.8H1255.35V736.584C1256.26 737.76 1257.56 738.336 1259.24 738.336C1260.84 738.336 1262.24 737.736 1263.36 736.512C1264.52 735.288 1265.09 733.776 1265.09 732C1265.09 730.224 1264.52 728.736 1263.36 727.512C1262.24 726.288 1260.84 725.664 1259.24 725.664ZM1256.28 734.448C1255.66 733.8 1255.35 732.984 1255.35 732C1255.35 731.016 1255.66 730.2 1256.28 729.576C1256.91 728.928 1257.7 728.616 1258.66 728.616C1259.62 728.616 1260.41 728.928 1261.04 729.576C1261.68 730.2 1262 731.016 1262 732C1262 732.984 1261.68 733.8 1261.04 734.448C1260.41 735.072 1259.62 735.384 1258.66 735.384C1257.7 735.384 1256.91 735.072 1256.28 734.448ZM1273.88 726H1271.17V722.64L1268.07 723.576V726H1265.99V728.976H1268.07V733.968C1268.07 737.256 1269.63 738.48 1273.88 738V735.192C1272.11 735.288 1271.17 735.264 1271.17 733.968V728.976H1273.88V726ZM1286.48 736.512C1287.7 735.288 1288.32 733.776 1288.32 732C1288.32 730.224 1287.7 728.736 1286.48 727.512C1285.25 726.288 1283.74 725.664 1281.96 725.664C1280.19 725.664 1278.68 726.288 1277.45 727.512C1276.23 728.736 1275.63 730.224 1275.63 732C1275.63 733.776 1276.23 735.288 1277.45 736.512C1278.68 737.736 1280.19 738.336 1281.96 738.336C1283.74 738.336 1285.25 737.736 1286.48 736.512ZM1279.64 734.376C1279.04 733.752 1278.72 732.96 1278.72 732C1278.72 731.04 1279.04 730.248 1279.64 729.624C1280.26 729 1281.03 728.688 1281.96 728.688C1282.9 728.688 1283.67 729 1284.29 729.624C1284.92 730.248 1285.23 731.04 1285.23 732C1285.23 732.96 1284.92 733.752 1284.29 734.376C1283.67 735 1282.9 735.312 1281.96 735.312C1281.03 735.312 1280.26 735 1279.64 734.376ZM1296.21 738.336C1298.54 738.336 1300.58 737.112 1301.64 735.216L1298.95 733.68C1298.47 734.664 1297.44 735.264 1296.19 735.264C1295.25 735.264 1294.49 734.952 1293.89 734.352C1293.29 733.728 1292.97 732.936 1292.97 732C1292.97 730.08 1294.34 728.712 1296.19 728.712C1297.41 728.712 1298.45 729.336 1298.93 730.32L1301.59 728.76C1300.61 726.864 1298.54 725.664 1296.21 725.664C1294.41 725.664 1292.9 726.264 1291.68 727.488C1290.48 728.712 1289.88 730.2 1289.88 732C1289.88 733.8 1290.48 735.288 1291.68 736.512C1292.9 737.736 1294.41 738.336 1296.21 738.336ZM1311.29 732.48C1311.29 734.472 1310.26 735.456 1308.65 735.456C1307.21 735.456 1306.27 734.592 1306.27 732.984V726H1303.18V733.368C1303.18 734.928 1303.61 736.128 1304.45 737.016C1305.31 737.904 1306.39 738.336 1307.71 738.336C1309.35 738.336 1310.55 737.784 1311.29 736.656V738H1314.39V726H1311.29V732.48ZM1320.32 726H1317.22V738H1320.32V732.264C1320.32 731.112 1320.68 730.296 1321.42 729.792C1322.16 729.288 1323.03 729.096 1323.96 729.216V725.76C1322.33 725.76 1320.89 726.528 1320.32 728.064V726ZM1328.87 726H1325.78V738H1328.87V732.264C1328.87 731.112 1329.23 730.296 1329.98 729.792C1330.72 729.288 1331.58 729.096 1332.52 729.216V725.76C1330.89 725.76 1329.45 726.528 1328.87 728.064V726ZM1345.99 733.272C1346.07 732.816 1346.11 732.408 1346.11 732C1346.11 730.2 1345.54 728.712 1344.39 727.488C1343.26 726.264 1341.79 725.664 1340.04 725.664C1338.19 725.664 1336.66 726.264 1335.48 727.488C1334.31 728.688 1333.71 730.2 1333.71 732C1333.71 733.824 1334.31 735.336 1335.51 736.536C1336.71 737.736 1338.29 738.336 1340.28 738.336C1342.59 738.336 1344.34 737.472 1345.51 735.768L1343.02 734.328C1342.42 735.12 1341.51 735.528 1340.33 735.528C1338.48 735.528 1337.35 734.784 1336.95 733.272H1345.99ZM1336.9 730.872C1337.26 729.336 1338.39 728.448 1340.04 728.448C1341.46 728.448 1342.66 729.24 1343.02 730.872H1336.9ZM1354.95 725.664C1353.32 725.664 1352.12 726.216 1351.37 727.344V726H1348.28V738H1351.37V731.52C1351.37 729.528 1352.4 728.544 1354.01 728.544C1355.45 728.544 1356.39 729.408 1356.39 731.016V738H1359.48V730.632C1359.48 729.072 1359.05 727.872 1358.19 726.984C1357.35 726.096 1356.27 725.664 1354.95 725.664ZM1367.84 738.336C1370.17 738.336 1372.21 737.112 1373.26 735.216L1370.57 733.68C1370.09 734.664 1369.06 735.264 1367.81 735.264C1366.88 735.264 1366.11 734.952 1365.51 734.352C1364.91 733.728 1364.6 732.936 1364.6 732C1364.6 730.08 1365.97 728.712 1367.81 728.712C1369.04 728.712 1370.07 729.336 1370.55 730.32L1373.21 728.76C1372.23 726.864 1370.17 725.664 1367.84 725.664C1366.04 725.664 1364.53 726.264 1363.3 727.488C1362.1 728.712 1361.5 730.2 1361.5 732C1361.5 733.8 1362.1 735.288 1363.3 736.512C1364.53 737.736 1366.04 738.336 1367.84 738.336ZM1380.15 734.064L1377.03 726H1373.65L1378.57 737.616C1377.99 739.248 1377.08 739.944 1375.43 739.92V742.8C1378.5 742.968 1380.51 741.456 1381.76 738L1386.13 726H1382.82L1380.15 734.064ZM1405.27 733.272C1405.34 732.816 1405.39 732.408 1405.39 732C1405.39 730.2 1404.81 728.712 1403.66 727.488C1402.53 726.264 1401.07 725.664 1399.32 725.664C1397.47 725.664 1395.93 726.264 1394.76 727.488C1393.58 728.688 1392.98 730.2 1392.98 732C1392.98 733.824 1393.58 735.336 1394.78 736.536C1395.98 737.736 1397.56 738.336 1399.56 738.336C1401.86 738.336 1403.61 737.472 1404.79 735.768L1402.29 734.328C1401.69 735.12 1400.78 735.528 1399.6 735.528C1397.76 735.528 1396.63 734.784 1396.22 733.272H1405.27ZM1396.17 730.872C1396.53 729.336 1397.66 728.448 1399.32 728.448C1400.73 728.448 1401.93 729.24 1402.29 730.872H1396.17ZM1413.54 731.856L1417.74 726H1414.19L1411.77 729.384L1409.34 726H1405.77L1409.97 731.88L1405.57 738H1409.15L1411.77 734.352L1414.36 738H1417.93L1413.54 731.856ZM1425.19 738.336C1427.52 738.336 1429.56 737.112 1430.61 735.216L1427.93 733.68C1427.45 734.664 1426.41 735.264 1425.17 735.264C1424.23 735.264 1423.46 734.952 1422.86 734.352C1422.26 733.728 1421.95 732.936 1421.95 732C1421.95 730.08 1423.32 728.712 1425.17 728.712C1426.39 728.712 1427.42 729.336 1427.9 730.32L1430.57 728.76C1429.58 726.864 1427.52 725.664 1425.19 725.664C1423.39 725.664 1421.88 726.264 1420.65 727.488C1419.45 728.712 1418.85 730.2 1418.85 732C1418.85 733.8 1419.45 735.288 1420.65 736.512C1421.88 737.736 1423.39 738.336 1425.19 738.336ZM1439.02 725.664C1437.39 725.664 1436.19 726.216 1435.44 727.344V721.2H1432.35V738H1435.44V731.52C1435.44 729.528 1436.47 728.544 1438.08 728.544C1439.52 728.544 1440.46 729.408 1440.46 731.016V738H1443.55V730.632C1443.55 729.072 1443.12 727.872 1442.26 726.984C1441.42 726.096 1440.34 725.664 1439.02 725.664ZM1455.32 727.416C1454.38 726.24 1453.09 725.664 1451.41 725.664C1449.8 725.664 1448.43 726.288 1447.28 727.512C1446.15 728.736 1445.57 730.224 1445.57 732C1445.57 733.776 1446.15 735.288 1447.28 736.512C1448.43 737.736 1449.8 738.336 1451.41 738.336C1453.09 738.336 1454.38 737.76 1455.32 736.584V738H1458.41V726H1455.32V727.416ZM1449.61 734.448C1448.98 733.8 1448.67 732.984 1448.67 732C1448.67 731.016 1448.98 730.2 1449.61 729.576C1450.23 728.928 1451.02 728.616 1451.98 728.616C1452.94 728.616 1453.73 728.928 1454.36 729.576C1455.01 730.2 1455.32 731.016 1455.32 732C1455.32 732.984 1455.01 733.8 1454.36 734.448C1453.73 735.072 1452.94 735.384 1451.98 735.384C1451.02 735.384 1450.23 735.072 1449.61 734.448ZM1467.89 725.664C1466.26 725.664 1465.06 726.216 1464.32 727.344V726H1461.22V738H1464.32V731.52C1464.32 729.528 1465.35 728.544 1466.96 728.544C1468.4 728.544 1469.33 729.408 1469.33 731.016V738H1472.43V730.632C1472.43 729.072 1472 727.872 1471.13 726.984C1470.29 726.096 1469.21 725.664 1467.89 725.664ZM1484.26 727.488C1483.35 726.264 1482.08 725.664 1480.42 725.664C1478.74 725.664 1477.33 726.264 1476.18 727.464C1475.02 728.664 1474.45 730.104 1474.45 731.808C1474.45 733.512 1475.02 734.976 1476.15 736.176C1477.3 737.352 1478.72 737.952 1480.42 737.952C1482.08 737.952 1483.35 737.352 1484.26 736.128V737.424C1484.26 739.32 1483.06 740.376 1481.12 740.376C1479.63 740.376 1478.58 739.824 1477.98 738.696L1475.34 740.208C1476.39 742.128 1478.43 743.136 1481.02 743.136C1482.75 743.136 1484.22 742.656 1485.44 741.672C1486.66 740.688 1487.29 739.272 1487.29 737.424V726H1484.26V727.488ZM1484.26 731.808C1484.26 733.728 1482.85 735.096 1480.9 735.096C1478.96 735.096 1477.54 733.728 1477.54 731.808C1477.54 730.872 1477.86 730.08 1478.48 729.48C1479.13 728.856 1479.92 728.544 1480.9 728.544C1481.89 728.544 1482.68 728.856 1483.3 729.48C1483.95 730.08 1484.26 730.872 1484.26 731.808ZM1501.76 733.272C1501.83 732.816 1501.88 732.408 1501.88 732C1501.88 730.2 1501.3 728.712 1500.15 727.488C1499.02 726.264 1497.56 725.664 1495.81 725.664C1493.96 725.664 1492.42 726.264 1491.25 727.488C1490.07 728.688 1489.47 730.2 1489.47 732C1489.47 733.824 1490.07 735.336 1491.27 736.536C1492.47 737.736 1494.06 738.336 1496.05 738.336C1498.35 738.336 1500.1 737.472 1501.28 735.768L1498.78 734.328C1498.18 735.12 1497.27 735.528 1496.1 735.528C1494.25 735.528 1493.12 734.784 1492.71 733.272H1501.76ZM1492.66 730.872C1493.02 729.336 1494.15 728.448 1495.81 728.448C1497.22 728.448 1498.42 729.24 1498.78 730.872H1492.66ZM1506.43 729.408C1506.43 728.808 1507.03 728.424 1507.82 728.424C1508.71 728.424 1509.36 728.832 1509.74 729.648L1512.38 728.208C1511.44 726.576 1509.76 725.664 1507.82 725.664C1506.52 725.664 1505.44 726 1504.56 726.696C1503.69 727.368 1503.26 728.304 1503.26 729.48C1503.26 731.976 1505.49 732.72 1507.27 733.176C1508.49 733.488 1509.45 733.848 1509.45 734.496C1509.45 735.192 1508.9 735.528 1507.8 735.528C1506.57 735.528 1505.8 735 1505.44 733.968L1502.76 735.48C1503.64 737.376 1505.32 738.336 1507.8 738.336C1509.16 738.336 1510.32 738 1511.23 737.352C1512.16 736.68 1512.62 735.72 1512.62 734.496C1512.64 731.928 1510.36 731.088 1508.61 730.728C1507.39 730.416 1506.43 730.056 1506.43 729.408ZM1517.71 737.712C1518.5 736.92 1518.5 735.624 1517.71 734.832C1516.92 734.04 1515.62 734.04 1514.83 734.832C1514.04 735.624 1514.04 736.92 1514.83 737.712C1515.62 738.504 1516.92 738.504 1517.71 737.712Z" fill="white"/>
<path d="M44.9038 685.2V702H51.5758C53.8798 702 55.7998 701.184 57.3358 699.576C58.8958 697.968 59.6638 695.976 59.6638 693.6C59.6638 691.224 58.8958 689.232 57.3358 687.624C55.7998 686.016 53.8798 685.2 51.5758 685.2H44.9038ZM48.2158 698.832V688.368H51.5758C53.0398 688.368 54.2158 688.848 55.1278 689.832C56.0398 690.792 56.4958 692.04 56.4958 693.6C56.4958 695.16 56.0398 696.408 55.1278 697.392C54.2158 698.352 53.0398 698.832 51.5758 698.832H48.2158ZM63.4051 688.944C64.4611 688.944 65.3251 688.104 65.3251 687.096C65.3251 686.088 64.4611 685.224 63.4051 685.224C62.3731 685.224 61.5091 686.088 61.5091 687.096C61.5091 688.104 62.3731 688.944 63.4051 688.944ZM64.9651 702V690H61.8691V702H64.9651ZM78.3588 690V689.64C78.3588 688.104 79.1988 687.6 80.9028 687.6C81.6948 687.6 82.6308 687.672 83.7348 687.792V684.96C82.7028 684.744 81.7668 684.624 80.9028 684.624C77.1348 684.624 75.2628 686.304 75.2628 689.64V690H71.7108V689.88C71.7108 688.392 72.5508 687.72 74.2548 687.84V684.864C70.5108 684.648 68.6148 686.496 68.6148 689.88V690H66.8868V692.976H68.6148V702H71.7108V692.976H75.2628V702H78.3588V692.976H81.8868V702H84.9828V690H78.3588ZM93.5264 702.336C95.8544 702.336 97.8944 701.112 98.9504 699.216L96.2624 697.68C95.7824 698.664 94.7504 699.264 93.5024 699.264C92.5664 699.264 91.7984 698.952 91.1984 698.352C90.5984 697.728 90.2864 696.936 90.2864 696C90.2864 694.08 91.6544 692.712 93.5024 692.712C94.7264 692.712 95.7584 693.336 96.2384 694.32L98.9024 692.76C97.9184 690.864 95.8544 689.664 93.5264 689.664C91.7264 689.664 90.2144 690.264 88.9904 691.488C87.7904 692.712 87.1904 694.2 87.1904 696C87.1904 697.8 87.7904 699.288 88.9904 700.512C90.2144 701.736 91.7264 702.336 93.5264 702.336ZM108.602 696.48C108.602 698.472 107.57 699.456 105.962 699.456C104.522 699.456 103.586 698.592 103.586 696.984V690H100.49V697.368C100.49 698.928 100.922 700.128 101.762 701.016C102.626 701.904 103.706 702.336 105.026 702.336C106.658 702.336 107.858 701.784 108.602 700.656V702H111.698V690H108.602V696.48ZM117.629 702V684.48H114.533V702H117.629ZM127.327 690H124.615V686.64L121.519 687.576V690H119.431V692.976H121.519V697.968C121.519 701.256 123.079 702.48 127.327 702V699.192C125.551 699.288 124.615 699.264 124.615 697.968V692.976H127.327V690ZM142.561 690H139.849V686.64L136.753 687.576V690H134.665V692.976H136.753V697.968C136.753 701.256 138.313 702.48 142.561 702V699.192C140.785 699.288 139.849 699.264 139.849 697.968V692.976H142.561V690ZM155.156 700.512C156.38 699.288 157.004 697.776 157.004 696C157.004 694.224 156.38 692.736 155.156 691.512C153.932 690.288 152.42 689.664 150.644 689.664C148.868 689.664 147.356 690.288 146.132 691.512C144.908 692.736 144.308 694.224 144.308 696C144.308 697.776 144.908 699.288 146.132 700.512C147.356 701.736 148.868 702.336 150.644 702.336C152.42 702.336 153.932 701.736 155.156 700.512ZM148.316 698.376C147.716 697.752 147.404 696.96 147.404 696C147.404 695.04 147.716 694.248 148.316 693.624C148.94 693 149.708 692.688 150.644 692.688C151.58 692.688 152.348 693 152.972 693.624C153.596 694.248 153.908 695.04 153.908 696C153.908 696.96 153.596 697.752 152.972 698.376C152.348 699 151.58 699.312 150.644 699.312C149.708 699.312 148.94 699 148.316 698.376ZM172.166 689.664C170.486 689.664 169.19 690.24 168.278 691.416V690H165.182V706.8H168.278V700.584C169.19 701.76 170.486 702.336 172.166 702.336C173.774 702.336 175.166 701.736 176.294 700.512C177.446 699.288 178.022 697.776 178.022 696C178.022 694.224 177.446 692.736 176.294 691.512C175.166 690.288 173.774 689.664 172.166 689.664ZM169.214 698.448C168.59 697.8 168.278 696.984 168.278 696C168.278 695.016 168.59 694.2 169.214 693.576C169.838 692.928 170.63 692.616 171.59 692.616C172.55 692.616 173.342 692.928 173.966 693.576C174.614 694.2 174.926 695.016 174.926 696C174.926 696.984 174.614 697.8 173.966 698.448C173.342 699.072 172.55 699.384 171.59 699.384C170.63 699.384 169.838 699.072 169.214 698.448ZM183.301 690H180.205V702H183.301V696.264C183.301 695.112 183.661 694.296 184.405 693.792C185.149 693.288 186.013 693.096 186.949 693.216V689.76C185.317 689.76 183.877 690.528 183.301 692.064V690ZM198.984 700.512C200.208 699.288 200.832 697.776 200.832 696C200.832 694.224 200.208 692.736 198.984 691.512C197.76 690.288 196.248 689.664 194.472 689.664C192.696 689.664 191.184 690.288 189.96 691.512C188.736 692.736 188.136 694.224 188.136 696C188.136 697.776 188.736 699.288 189.96 700.512C191.184 701.736 192.696 702.336 194.472 702.336C196.248 702.336 197.76 701.736 198.984 700.512ZM192.144 698.376C191.544 697.752 191.232 696.96 191.232 696C191.232 695.04 191.544 694.248 192.144 693.624C192.768 693 193.536 692.688 194.472 692.688C195.408 692.688 196.176 693 196.8 693.624C197.424 694.248 197.736 695.04 197.736 696C197.736 696.96 197.424 697.752 196.8 698.376C196.176 699 195.408 699.312 194.472 699.312C193.536 699.312 192.768 699 192.144 698.376ZM208.722 702.336C211.05 702.336 213.09 701.112 214.146 699.216L211.458 697.68C210.978 698.664 209.946 699.264 208.698 699.264C207.762 699.264 206.994 698.952 206.394 698.352C205.794 697.728 205.482 696.936 205.482 696C205.482 694.08 206.85 692.712 208.698 692.712C209.922 692.712 210.954 693.336 211.434 694.32L214.098 692.76C213.114 690.864 211.05 689.664 208.722 689.664C206.922 689.664 205.41 690.264 204.186 691.488C202.986 692.712 202.386 694.2 202.386 696C202.386 697.8 202.986 699.288 204.186 700.512C205.41 701.736 206.922 702.336 208.722 702.336ZM227.541 697.272C227.613 696.816 227.661 696.408 227.661 696C227.661 694.2 227.085 692.712 225.933 691.488C224.805 690.264 223.341 689.664 221.589 689.664C219.741 689.664 218.205 690.264 217.029 691.488C215.853 692.688 215.253 694.2 215.253 696C215.253 697.824 215.853 699.336 217.053 700.536C218.253 701.736 219.837 702.336 221.829 702.336C224.133 702.336 225.885 701.472 227.061 699.768L224.565 698.328C223.965 699.12 223.053 699.528 221.877 699.528C220.029 699.528 218.901 698.784 218.493 697.272H227.541ZM218.445 694.872C218.805 693.336 219.933 692.448 221.589 692.448C223.005 692.448 224.205 693.24 224.565 694.872H218.445ZM232.21 693.408C232.21 692.808 232.81 692.424 233.602 692.424C234.49 692.424 235.138 692.832 235.522 693.648L238.162 692.208C237.226 690.576 235.546 689.664 233.602 689.664C232.306 689.664 231.226 690 230.338 690.696C229.474 691.368 229.042 692.304 229.042 693.48C229.042 695.976 231.274 696.72 233.05 697.176C234.273 697.488 235.234 697.848 235.234 698.496C235.234 699.192 234.682 699.528 233.578 699.528C232.354 699.528 231.586 699 231.226 697.968L228.538 699.48C229.426 701.376 231.105 702.336 233.578 702.336C234.946 702.336 236.098 702 237.01 701.352C237.946 700.68 238.402 699.72 238.402 698.496C238.426 695.928 236.146 695.088 234.394 694.728C233.17 694.416 232.21 694.056 232.21 693.408ZM242.616 693.408C242.616 692.808 243.216 692.424 244.008 692.424C244.896 692.424 245.544 692.832 245.928 693.648L248.568 692.208C247.632 690.576 245.952 689.664 244.008 689.664C242.712 689.664 241.632 690 240.744 690.696C239.88 691.368 239.448 692.304 239.448 693.48C239.448 695.976 241.68 696.72 243.456 697.176C244.68 697.488 245.64 697.848 245.64 698.496C245.64 699.192 245.088 699.528 243.984 699.528C242.76 699.528 241.992 699 241.632 697.968L238.944 699.48C239.832 701.376 241.512 702.336 243.984 702.336C245.352 702.336 246.504 702 247.416 701.352C248.352 700.68 248.808 699.72 248.808 698.496C248.832 695.928 246.552 695.088 244.8 694.728C243.576 694.416 242.616 694.056 242.616 693.408ZM266.036 691.416C265.1 690.24 263.804 689.664 262.124 689.664C260.516 689.664 259.148 690.288 257.996 691.512C256.868 692.736 256.292 694.224 256.292 696C256.292 697.776 256.868 699.288 257.996 700.512C259.148 701.736 260.516 702.336 262.124 702.336C263.804 702.336 265.1 701.76 266.036 700.584V702H269.132V690H266.036V691.416ZM260.324 698.448C259.7 697.8 259.388 696.984 259.388 696C259.388 695.016 259.7 694.2 260.324 693.576C260.948 692.928 261.74 692.616 262.7 692.616C263.66 692.616 264.452 692.928 265.076 693.576C265.724 694.2 266.036 695.016 266.036 696C266.036 696.984 265.724 697.8 265.076 698.448C264.452 699.072 263.66 699.384 262.7 699.384C261.74 699.384 260.948 699.072 260.324 698.448ZM281.035 702V684.48H277.939V702H281.035ZM292.989 691.416C292.053 690.24 290.757 689.664 289.077 689.664C287.469 689.664 286.101 690.288 284.949 691.512C283.821 692.736 283.245 694.224 283.245 696C283.245 697.776 283.821 699.288 284.949 700.512C286.101 701.736 287.469 702.336 289.077 702.336C290.757 702.336 292.053 701.76 292.989 700.584V702H296.085V690H292.989V691.416ZM287.277 698.448C286.653 697.8 286.341 696.984 286.341 696C286.341 695.016 286.653 694.2 287.277 693.576C287.901 692.928 288.693 692.616 289.653 692.616C290.613 692.616 291.405 692.928 292.029 693.576C292.677 694.2 292.989 695.016 292.989 696C292.989 696.984 292.677 697.8 292.029 698.448C291.405 699.072 290.613 699.384 289.653 699.384C288.693 699.384 287.901 699.072 287.277 698.448ZM301.989 690H298.893V702H301.989V696.264C301.989 695.112 302.349 694.296 303.093 693.792C303.837 693.288 304.701 693.096 305.637 693.216V689.76C304.005 689.76 302.565 690.528 301.989 692.064V690ZM316.639 691.488C315.727 690.264 314.455 689.664 312.799 689.664C311.119 689.664 309.703 690.264 308.551 691.464C307.399 692.664 306.823 694.104 306.823 695.808C306.823 697.512 307.399 698.976 308.527 700.176C309.679 701.352 311.095 701.952 312.799 701.952C314.455 701.952 315.727 701.352 316.639 700.128V701.424C316.639 703.32 315.439 704.376 313.495 704.376C312.007 704.376 310.951 703.824 310.351 702.696L307.711 704.208C308.767 706.128 310.807 707.136 313.399 707.136C315.127 707.136 316.591 706.656 317.815 705.672C319.039 704.688 319.663 703.272 319.663 701.424V690H316.639V691.488ZM316.639 695.808C316.639 697.728 315.223 699.096 313.279 699.096C311.335 699.096 309.919 697.728 309.919 695.808C309.919 694.872 310.231 694.08 310.855 693.48C311.503 692.856 312.295 692.544 313.279 692.544C314.263 692.544 315.055 692.856 315.679 693.48C316.327 694.08 316.639 694.872 316.639 695.808ZM334.135 697.272C334.207 696.816 334.255 696.408 334.255 696C334.255 694.2 333.679 692.712 332.527 691.488C331.399 690.264 329.935 689.664 328.183 689.664C326.335 689.664 324.799 690.264 323.623 691.488C322.447 692.688 321.847 694.2 321.847 696C321.847 697.824 322.447 699.336 323.647 700.536C324.847 701.736 326.431 702.336 328.423 702.336C330.727 702.336 332.479 701.472 333.655 699.768L331.159 698.328C330.559 699.12 329.647 699.528 328.471 699.528C326.623 699.528 325.495 698.784 325.087 697.272H334.135ZM325.039 694.872C325.399 693.336 326.527 692.448 328.183 692.448C329.599 692.448 330.799 693.24 331.159 694.872H325.039ZM58.5802 725.664C56.9482 725.664 55.7482 726.216 55.0042 727.344V726H51.9082V738H55.0042V731.52C55.0042 729.528 56.0362 728.544 57.6442 728.544C59.0842 728.544 60.0202 729.408 60.0202 731.016V738H63.1162V730.632C63.1162 729.072 62.6842 727.872 61.8202 726.984C60.9802 726.096 59.9002 725.664 58.5802 725.664ZM73.6798 732.48C73.6798 734.472 72.6478 735.456 71.0398 735.456C69.5998 735.456 68.6638 734.592 68.6638 732.984V726H65.5678V733.368C65.5678 734.928 65.9998 736.128 66.8398 737.016C67.7038 737.904 68.7838 738.336 70.1038 738.336C71.7358 738.336 72.9358 737.784 73.6798 736.656V738H76.7758V726H73.6798V732.48ZM92.8833 725.664C91.2993 725.664 90.0993 726.24 89.3073 727.392C88.6113 726.24 87.5073 725.664 86.0433 725.664C84.5313 725.664 83.4273 726.192 82.7073 727.272V726H79.6113V738H82.7073V731.256C82.7073 729.504 83.5953 728.544 84.9633 728.544C86.2353 728.544 86.9793 729.384 86.9793 730.824V738H90.0753V731.256C90.0753 729.504 90.8913 728.544 92.3073 728.544C93.5793 728.544 94.3233 729.384 94.3233 730.824V738H97.4193V730.608C97.4193 727.608 95.6433 725.664 92.8833 725.664ZM107.033 725.664C105.353 725.664 104.057 726.24 103.145 727.416V721.2H100.049V738H103.145V736.584C104.057 737.76 105.353 738.336 107.033 738.336C108.641 738.336 110.033 737.736 111.161 736.512C112.313 735.288 112.889 733.776 112.889 732C112.889 730.224 112.313 728.736 111.161 727.512C110.033 726.288 108.641 725.664 107.033 725.664ZM104.081 734.448C103.457 733.8 103.145 732.984 103.145 732C103.145 731.016 103.457 730.2 104.081 729.576C104.705 728.928 105.497 728.616 106.457 728.616C107.417 728.616 108.209 728.928 108.833 729.576C109.481 730.2 109.793 731.016 109.793 732C109.793 732.984 109.481 733.8 108.833 734.448C108.209 735.072 107.417 735.384 106.457 735.384C105.497 735.384 104.705 735.072 104.081 734.448ZM126.736 733.272C126.808 732.816 126.856 732.408 126.856 732C126.856 730.2 126.28 728.712 125.128 727.488C124 726.264 122.536 725.664 120.784 725.664C118.936 725.664 117.4 726.264 116.224 727.488C115.048 728.688 114.448 730.2 114.448 732C114.448 733.824 115.048 735.336 116.248 736.536C117.448 737.736 119.032 738.336 121.024 738.336C123.328 738.336 125.08 737.472 126.256 735.768L123.76 734.328C123.16 735.12 122.248 735.528 121.072 735.528C119.224 735.528 118.096 734.784 117.688 733.272H126.736ZM117.64 730.872C118 729.336 119.128 728.448 120.784 728.448C122.2 728.448 123.4 729.24 123.76 730.872H117.64ZM132.114 726H129.018V738H132.114V732.264C132.114 731.112 132.474 730.296 133.218 729.792C133.962 729.288 134.826 729.096 135.762 729.216V725.76C134.13 725.76 132.69 726.528 132.114 728.064V726ZM153.796 736.512C155.02 735.288 155.644 733.776 155.644 732C155.644 730.224 155.02 728.736 153.796 727.512C152.572 726.288 151.06 725.664 149.284 725.664C147.508 725.664 145.996 726.288 144.772 727.512C143.548 728.736 142.948 730.224 142.948 732C142.948 733.776 143.548 735.288 144.772 736.512C145.996 737.736 147.508 738.336 149.284 738.336C151.06 738.336 152.572 737.736 153.796 736.512ZM146.956 734.376C146.356 733.752 146.044 732.96 146.044 732C146.044 731.04 146.356 730.248 146.956 729.624C147.58 729 148.348 728.688 149.284 728.688C150.22 728.688 150.988 729 151.612 729.624C152.236 730.248 152.548 731.04 152.548 732C152.548 732.96 152.236 733.752 151.612 734.376C150.988 735 150.22 735.312 149.284 735.312C148.348 735.312 147.58 735 146.956 734.376ZM163.903 720.864C160.159 720.648 158.263 722.496 158.263 725.88V726H156.535V728.976H158.263V738H161.359V728.976H163.903V726H161.359V725.88C161.359 724.392 162.199 723.72 163.903 723.84V720.864ZM178.186 726H175.474V722.64L172.378 723.576V726H170.29V728.976H172.378V733.968C172.378 737.256 173.938 738.48 178.186 738V735.192C176.41 735.288 175.474 735.264 175.474 733.968V728.976H178.186V726ZM183.653 726H180.557V738H183.653V732.264C183.653 731.112 184.013 730.296 184.757 729.792C185.501 729.288 186.365 729.096 187.301 729.216V725.76C185.669 725.76 184.229 726.528 183.653 728.064V726ZM197.786 727.416C196.85 726.24 195.554 725.664 193.874 725.664C192.266 725.664 190.898 726.288 189.746 727.512C188.618 728.736 188.042 730.224 188.042 732C188.042 733.776 188.618 735.288 189.746 736.512C190.898 737.736 192.266 738.336 193.874 738.336C195.554 738.336 196.85 737.76 197.786 736.584V738H200.882V726H197.786V727.416ZM192.074 734.448C191.45 733.8 191.138 732.984 191.138 732C191.138 731.016 191.45 730.2 192.074 729.576C192.698 728.928 193.49 728.616 194.45 728.616C195.41 728.616 196.202 728.928 196.826 729.576C197.474 730.2 197.786 731.016 197.786 732C197.786 732.984 197.474 733.8 196.826 734.448C196.202 735.072 195.41 735.384 194.45 735.384C193.49 735.384 192.698 735.072 192.074 734.448ZM210.361 725.664C208.729 725.664 207.529 726.216 206.785 727.344V726H203.689V738H206.785V731.52C206.785 729.528 207.817 728.544 209.425 728.544C210.865 728.544 211.801 729.408 211.801 731.016V738H214.897V730.632C214.897 729.072 214.465 727.872 213.601 726.984C212.761 726.096 211.681 725.664 210.361 725.664ZM220.397 729.408C220.397 728.808 220.997 728.424 221.789 728.424C222.677 728.424 223.325 728.832 223.709 729.648L226.349 728.208C225.413 726.576 223.733 725.664 221.789 725.664C220.493 725.664 219.413 726 218.525 726.696C217.661 727.368 217.229 728.304 217.229 729.48C217.229 731.976 219.461 732.72 221.237 733.176C222.461 733.488 223.421 733.848 223.421 734.496C223.421 735.192 222.869 735.528 221.765 735.528C220.541 735.528 219.773 735 219.413 733.968L216.725 735.48C217.613 737.376 219.293 738.336 221.765 738.336C223.133 738.336 224.285 738 225.197 737.352C226.133 736.68 226.589 735.72 226.589 734.496C226.613 731.928 224.333 731.088 222.581 730.728C221.357 730.416 220.397 730.056 220.397 729.408ZM237.536 727.416C236.6 726.24 235.304 725.664 233.624 725.664C232.016 725.664 230.648 726.288 229.496 727.512C228.368 728.736 227.792 730.224 227.792 732C227.792 733.776 228.368 735.288 229.496 736.512C230.648 737.736 232.016 738.336 233.624 738.336C235.304 738.336 236.6 737.76 237.536 736.584V738H240.632V726H237.536V727.416ZM231.824 734.448C231.2 733.8 230.888 732.984 230.888 732C230.888 731.016 231.2 730.2 231.824 729.576C232.448 728.928 233.24 728.616 234.2 728.616C235.16 728.616 235.952 728.928 236.576 729.576C237.224 730.2 237.536 731.016 237.536 732C237.536 732.984 237.224 733.8 236.576 734.448C235.952 735.072 235.16 735.384 234.2 735.384C233.24 735.384 232.448 735.072 231.824 734.448ZM249.151 738.336C251.479 738.336 253.519 737.112 254.575 735.216L251.887 733.68C251.407 734.664 250.375 735.264 249.127 735.264C248.191 735.264 247.423 734.952 246.823 734.352C246.223 733.728 245.911 732.936 245.911 732C245.911 730.08 247.279 728.712 249.127 728.712C250.351 728.712 251.383 729.336 251.863 730.32L254.527 728.76C253.543 726.864 251.479 725.664 249.151 725.664C247.351 725.664 245.839 726.264 244.615 727.488C243.415 728.712 242.815 730.2 242.815 732C242.815 733.8 243.415 735.288 244.615 736.512C245.839 737.736 247.351 738.336 249.151 738.336ZM263.077 726H260.365V722.64L257.269 723.576V726H255.181V728.976H257.269V733.968C257.269 737.256 258.829 738.48 263.077 738V735.192C261.301 735.288 260.365 735.264 260.365 733.968V728.976H263.077V726ZM266.983 724.944C268.039 724.944 268.903 724.104 268.903 723.096C268.903 722.088 268.039 721.224 266.983 721.224C265.951 721.224 265.087 722.088 265.087 723.096C265.087 724.104 265.951 724.944 266.983 724.944ZM268.543 738V726H265.447V738H268.543ZM281.601 736.512C282.825 735.288 283.449 733.776 283.449 732C283.449 730.224 282.825 728.736 281.601 727.512C280.377 726.288 278.865 725.664 277.089 725.664C275.313 725.664 273.801 726.288 272.577 727.512C271.353 728.736 270.753 730.224 270.753 732C270.753 733.776 271.353 735.288 272.577 736.512C273.801 737.736 275.313 738.336 277.089 738.336C278.865 738.336 280.377 737.736 281.601 736.512ZM274.761 734.376C274.161 733.752 273.849 732.96 273.849 732C273.849 731.04 274.161 730.248 274.761 729.624C275.385 729 276.153 728.688 277.089 728.688C278.025 728.688 278.793 729 279.417 729.624C280.041 730.248 280.353 731.04 280.353 732C280.353 732.96 280.041 733.752 279.417 734.376C278.793 735 278.025 735.312 277.089 735.312C276.153 735.312 275.385 735 274.761 734.376ZM292.299 725.664C290.667 725.664 289.467 726.216 288.723 727.344V726H285.627V738H288.723V731.52C288.723 729.528 289.755 728.544 291.363 728.544C292.803 728.544 293.739 729.408 293.739 731.016V738H296.835V730.632C296.835 729.072 296.403 727.872 295.539 726.984C294.699 726.096 293.619 725.664 292.299 725.664ZM302.335 729.408C302.335 728.808 302.935 728.424 303.727 728.424C304.615 728.424 305.263 728.832 305.647 729.648L308.287 728.208C307.351 726.576 305.671 725.664 303.727 725.664C302.431 725.664 301.351 726 300.463 726.696C299.599 727.368 299.167 728.304 299.167 729.48C299.167 731.976 301.399 732.72 303.175 733.176C304.398 733.488 305.359 733.848 305.359 734.496C305.359 735.192 304.807 735.528 303.703 735.528C302.479 735.528 301.711 735 301.351 733.968L298.663 735.48C299.551 737.376 301.23 738.336 303.703 738.336C305.071 738.336 306.223 738 307.135 737.352C308.071 736.68 308.527 735.72 308.527 734.496C308.551 731.928 306.271 731.088 304.519 730.728C303.295 730.416 302.335 730.056 302.335 729.408ZM318.171 724.944C319.227 724.944 320.091 724.104 320.091 723.096C320.091 722.088 319.227 721.224 318.171 721.224C317.139 721.224 316.275 722.088 316.275 723.096C316.275 724.104 317.139 724.944 318.171 724.944ZM319.731 738V726H316.635V738H319.731ZM329.236 725.664C327.604 725.664 326.404 726.216 325.66 727.344V726H322.564V738H325.66V731.52C325.66 729.528 326.692 728.544 328.3 728.544C329.74 728.544 330.676 729.408 330.676 731.016V738H333.772V730.632C333.772 729.072 333.34 727.872 332.476 726.984C331.636 726.096 330.556 725.664 329.236 725.664ZM247.116 765.408C247.116 764.808 247.716 764.424 248.508 764.424C249.396 764.424 250.044 764.832 250.428 765.648L253.068 764.208C252.132 762.576 250.452 761.664 248.508 761.664C247.212 761.664 246.132 762 245.244 762.696C244.38 763.368 243.948 764.304 243.948 765.48C243.948 767.976 246.18 768.72 247.956 769.176C249.18 769.488 250.14 769.848 250.14 770.496C250.14 771.192 249.588 771.528 248.484 771.528C247.26 771.528 246.492 771 246.132 769.968L243.444 771.48C244.332 773.376 246.012 774.336 248.484 774.336C249.852 774.336 251.004 774 251.916 773.352C252.852 772.68 253.308 771.72 253.308 770.496C253.332 767.928 251.052 767.088 249.3 766.728C248.076 766.416 247.116 766.056 247.116 765.408ZM267.08 769.272C267.152 768.816 267.2 768.408 267.2 768C267.2 766.2 266.624 764.712 265.472 763.488C264.344 762.264 262.88 761.664 261.128 761.664C259.28 761.664 257.744 762.264 256.568 763.488C255.392 764.688 254.792 766.2 254.792 768C254.792 769.824 255.392 771.336 256.592 772.536C257.792 773.736 259.376 774.336 261.368 774.336C263.672 774.336 265.424 773.472 266.6 771.768L264.104 770.328C263.504 771.12 262.592 771.528 261.416 771.528C259.568 771.528 258.44 770.784 258.032 769.272H267.08ZM257.984 766.872C258.344 765.336 259.472 764.448 261.128 764.448C262.544 764.448 263.744 765.24 264.104 766.872H257.984ZM275.073 774.336C277.401 774.336 279.441 773.112 280.497 771.216L277.809 769.68C277.329 770.664 276.297 771.264 275.049 771.264C274.113 771.264 273.345 770.952 272.745 770.352C272.145 769.728 271.833 768.936 271.833 768C271.833 766.08 273.201 764.712 275.049 764.712C276.273 764.712 277.305 765.336 277.785 766.32L280.449 764.76C279.465 762.864 277.401 761.664 275.073 761.664C273.273 761.664 271.761 762.264 270.537 763.488C269.337 764.712 268.737 766.2 268.737 768C268.737 769.8 269.337 771.288 270.537 772.512C271.761 773.736 273.273 774.336 275.073 774.336ZM292.453 772.512C293.677 771.288 294.301 769.776 294.301 768C294.301 766.224 293.677 764.736 292.453 763.512C291.229 762.288 289.717 761.664 287.941 761.664C286.165 761.664 284.653 762.288 283.429 763.512C282.205 764.736 281.604 766.224 281.604 768C281.604 769.776 282.205 771.288 283.429 772.512C284.653 773.736 286.165 774.336 287.941 774.336C289.717 774.336 291.229 773.736 292.453 772.512ZM285.613 770.376C285.013 769.752 284.701 768.96 284.701 768C284.701 767.04 285.013 766.248 285.613 765.624C286.237 765 287.005 764.688 287.941 764.688C288.877 764.688 289.645 765 290.269 765.624C290.893 766.248 291.205 767.04 291.205 768C291.205 768.96 290.893 769.752 290.269 770.376C289.645 771 288.877 771.312 287.941 771.312C287.005 771.312 286.237 771 285.613 770.376ZM303.151 761.664C301.519 761.664 300.319 762.216 299.575 763.344V762H296.479V774H299.575V767.52C299.575 765.528 300.607 764.544 302.215 764.544C303.655 764.544 304.591 765.408 304.591 767.016V774H307.687V766.632C307.687 765.072 307.255 763.872 306.391 762.984C305.551 762.096 304.471 761.664 303.151 761.664ZM319.426 763.416C318.514 762.24 317.218 761.664 315.538 761.664C313.93 761.664 312.538 762.288 311.386 763.512C310.258 764.736 309.682 766.224 309.682 768C309.682 769.776 310.258 771.288 311.386 772.512C312.538 773.736 313.93 774.336 315.538 774.336C317.218 774.336 318.514 773.76 319.426 772.584V774H322.522V757.2H319.426V763.416ZM313.714 770.448C313.09 769.8 312.778 768.984 312.778 768C312.778 767.016 313.09 766.2 313.714 765.576C314.362 764.928 315.154 764.616 316.114 764.616C317.074 764.616 317.866 764.928 318.49 765.576C319.114 766.2 319.426 767.016 319.426 768C319.426 768.984 319.114 769.8 318.49 770.448C317.866 771.072 317.074 771.384 316.114 771.384C315.154 771.384 314.362 771.072 313.714 770.448ZM328.116 765.408C328.116 764.808 328.716 764.424 329.508 764.424C330.396 764.424 331.044 764.832 331.428 765.648L334.068 764.208C333.132 762.576 331.452 761.664 329.508 761.664C328.212 761.664 327.132 762 326.244 762.696C325.38 763.368 324.948 764.304 324.948 765.48C324.948 767.976 327.18 768.72 328.956 769.176C330.18 769.488 331.14 769.848 331.14 770.496C331.14 771.192 330.588 771.528 329.484 771.528C328.26 771.528 327.492 771 327.132 769.968L324.444 771.48C325.332 773.376 327.012 774.336 329.484 774.336C330.852 774.336 332.004 774 332.916 773.352C333.852 772.68 334.308 771.72 334.308 770.496C334.332 767.928 332.052 767.088 330.3 766.728C329.076 766.416 328.116 766.056 328.116 765.408Z" fill="white"/>
<circle opacity="0.2" cx="777.5" cy="461.5" r="381" stroke="url(#paint0_linear_230_50)"/>
<g opacity="0.2">
<circle cx="777.5" cy="461.5" r="461" stroke="url(#paint1_linear_230_50)"/>
<circle cx="777.5" cy="461.5" r="461" stroke="url(#paint2_linear_230_50)"/>
</g>
<circle cx="1123.5" cy="153.5" r="7.5" fill="white"/>
<circle cx="1166.5" cy="709.5" r="7.5" fill="white"/>
<circle cx="388.5" cy="709.5" r="7.5" fill="white"/>
<circle cx="433.5" cy="153.5" r="7.5" fill="white"/>
<defs>
<linearGradient id="paint0_linear_230_50" x1="777.5" y1="80" x2="777.5" y2="843" gradientUnits="userSpaceOnUse">
<stop stop-color="white"/>
<stop offset="1" stop-color="white" stop-opacity="0"/>
</linearGradient>
<linearGradient id="paint1_linear_230_50" x1="1157" y1="787" x2="417.5" y2="128.5" gradientUnits="userSpaceOnUse">
<stop stop-color="white"/>
<stop offset="1" stop-color="white" stop-opacity="0"/>
</linearGradient>
<linearGradient id="paint2_linear_230_50" x1="1089.5" y1="825" x2="354" y2="138.5" gradientUnits="userSpaceOnUse">
<stop stop-color="white"/>
<stop offset="1" stop-color="white" stop-opacity="0"/>
</linearGradient>
</defs>
</svg>
