<svg width="493" height="218" viewBox="0 0 493 218" fill="none" xmlns="http://www.w3.org/2000/svg">
<rect width="493" height="218" rx="20" fill="#1E0042"/>
<mask id="mask0_248_3" style="mask-type:alpha" maskUnits="userSpaceOnUse" x="0" y="0" width="493" height="218">
<rect width="493" height="218" rx="20" fill="#1E0042"/>
</mask>
<g mask="url(#mask0_248_3)">
<g style="mix-blend-mode:overlay" opacity="0.7">
<path fill-rule="evenodd" clip-rule="evenodd" d="M0.489011 40.6014H-0.999996V40H493V40.6014H491.511V56.0362H493V56.6376H491.511V72.0725H493V72.6738H491.511V88.1087H493V88.7101H491.511V104.145H493V104.746H491.511V120.181H493V120.783H491.511V136.217H493V136.819H491.511V152.254H493V152.855H491.511V168.29H493V168.891H491.511V184.326H493V184.928H491.511V200.362H493V200.964H491.511V216.399L493 216.399V217H-1L-0.999992 216.399L0.489004 216.399L0.489005 200.964H-0.999996V200.362H0.489005L0.489006 184.928H-0.999996V184.326H0.489006L0.489006 168.891H-0.999996V168.29H0.489006L0.489007 152.855H-0.999996V152.254H0.489007L0.489007 136.819H-0.999996V136.217H0.489007L0.489008 120.783H-0.999996V120.181H0.489008L0.489009 104.746H-0.999996V104.145H0.489009L0.489009 88.7101H-0.999996V88.1087H0.489009L0.48901 72.6738H-0.999996V72.0725H0.48901L0.48901 56.6376H-0.999996V56.0362H0.48901L0.489011 40.6014ZM1.01454 40.6014L1.01454 56.0362H14.5032V40.6014H1.01454ZM15.0287 40.6014V56.0362H28.5174V40.6014H15.0287ZM29.0429 40.6014V56.0362H42.5316V40.6014H29.0429ZM43.0571 40.6014V56.0362H56.5457V40.6014H43.0571ZM57.0713 40.6014V56.0362H70.5599V40.6014H57.0713ZM71.0855 40.6014V56.0362H84.5741V40.6014H71.0855ZM85.0997 40.6014V56.0362H98.5883V40.6014H85.0997ZM99.1138 40.6014V56.0362H112.602V40.6014H99.1138ZM113.128 40.6014V56.0362H126.617V40.6014H113.128ZM127.142 40.6014V56.0362H140.631V40.6014H127.142ZM141.156 40.6014V56.0362H154.645V40.6014H141.156ZM155.171 40.6014V56.0362H168.659V40.6014H155.171ZM169.185 40.6014V56.0362H182.673V40.6014H169.185ZM183.199 40.6014V56.0362H196.688V40.6014H183.199ZM197.213 40.6014V56.0362H210.702V40.6014H197.213ZM211.227 40.6014V56.0362H224.716V40.6014H211.227ZM225.241 40.6014V56.0362H238.73V40.6014H225.241ZM239.256 40.6014V56.0362H252.744V40.6014H239.256ZM253.27 40.6014V56.0362H266.759V40.6014H253.27ZM267.284 40.6014V56.0362H280.773V40.6014H267.284ZM281.298 40.6014V56.0362H294.787V40.6014H281.298ZM295.312 40.6014V56.0362H308.801V40.6014H295.312ZM309.327 40.6014V56.0362H322.815V40.6014H309.327ZM323.341 40.6014V56.0362H336.829V40.6014H323.341ZM337.355 40.6014V56.0362H350.844V40.6014H337.355ZM351.369 40.6014V56.0362H364.858V40.6014H351.369ZM365.383 40.6014V56.0362H378.872V40.6014H365.383ZM379.397 40.6014V56.0362H392.886V40.6014H379.397ZM393.412 40.6014V56.0362H406.9V40.6014H393.412ZM407.426 40.6014V56.0362H420.915V40.6014H407.426ZM421.44 40.6014V56.0362H434.929V40.6014H421.44ZM435.454 40.6014V56.0362H448.943V40.6014H435.454ZM449.468 40.6014V56.0362H462.957V40.6014H449.468ZM463.483 40.6014V56.0362H476.971V40.6014H463.483ZM477.497 40.6014V56.0362H490.985V40.6014H477.497ZM490.985 56.6376H477.497V72.0725H490.985V56.6376ZM490.985 72.6738H477.497V88.1087H490.985V72.6738ZM490.985 88.7101H477.497V104.145H490.985V88.7101ZM490.985 104.746H477.497V120.181H490.985V104.746ZM490.985 120.783H477.497V136.217H490.985V120.783ZM490.985 136.819H477.497V152.254H490.985V136.819ZM490.985 152.855H477.497V168.29H490.985V152.855ZM490.985 168.891H477.497V184.326H490.985V168.891ZM490.985 184.928H477.497V200.362H490.985V184.928ZM490.985 200.964H477.497V216.399L490.985 216.399V200.964ZM476.971 216.399V200.964H463.483V216.399H476.971ZM462.957 216.399V200.964H449.468V216.399H462.957ZM448.943 216.399V200.964H435.454V216.399H448.943ZM434.929 216.399V200.964H421.44V216.399H434.929ZM420.915 216.399V200.964H407.426V216.399H420.915ZM406.9 216.399V200.964H393.412V216.399H406.9ZM392.886 216.399V200.964H379.397V216.399H392.886ZM378.872 216.399V200.964H365.383V216.399H378.872ZM364.858 216.399V200.964H351.369V216.399H364.858ZM350.844 216.399V200.964H337.355V216.399H350.844ZM336.829 216.399V200.964H323.341V216.399L336.829 216.399ZM322.815 216.399V200.964H309.327V216.399L322.815 216.399ZM308.801 216.399V200.964H295.312V216.399H308.801ZM294.787 216.399V200.964H281.298V216.399H294.787ZM280.773 216.399V200.964H267.284V216.399H280.773ZM266.759 216.399V200.964H253.27V216.399H266.759ZM252.744 216.399V200.964H239.256V216.399H252.744ZM238.73 216.399V200.964H225.241V216.399H238.73ZM224.716 216.399V200.964H211.227V216.399H224.716ZM210.702 216.399V200.964H197.213V216.399H210.702ZM196.688 216.399V200.964H183.199V216.399H196.688ZM182.673 216.399V200.964H169.185V216.399H182.673ZM168.659 216.399V200.964H155.171V216.399L168.659 216.399ZM154.645 216.399V200.964H141.156V216.399L154.645 216.399ZM140.631 216.399V200.964H127.142V216.399H140.631ZM126.617 216.399V200.964H113.128V216.399H126.617ZM112.602 216.399V200.964H99.1138V216.399H112.602ZM98.5883 216.399V200.964H85.0996V216.399H98.5883ZM84.5741 216.399V200.964H71.0855V216.399H84.5741ZM70.5599 216.399V200.964H57.0713V216.399H70.5599ZM56.5457 216.399V200.964H43.0571V216.399H56.5457ZM42.5316 216.399V200.964H29.0429V216.399H42.5316ZM28.5174 216.399V200.964H15.0287V216.399H28.5174ZM14.5032 216.399V200.964H1.01454L1.01454 216.399H14.5032ZM1.01454 200.362H14.5032L14.5032 184.928H1.01454L1.01454 200.362ZM1.01454 184.326H14.5032V168.891H1.01454L1.01454 184.326ZM1.01454 168.29H14.5032V152.855H1.01454L1.01454 168.29ZM1.01454 152.254H14.5032L14.5032 136.819H1.01454L1.01454 152.254ZM1.01454 136.217H14.5032V120.783H1.01454L1.01454 136.217ZM1.01454 120.181H14.5032L14.5032 104.746H1.01454L1.01454 120.181ZM1.01454 104.145H14.5032V88.7101H1.01454L1.01454 104.145ZM1.01454 88.1087H14.5032V72.6738H1.01454L1.01454 88.1087ZM1.01454 72.0725H14.5032L14.5032 56.6376H1.01454L1.01454 72.0725ZM15.0287 56.6376L15.0287 72.0725H28.5174V56.6376H15.0287ZM29.0429 56.6376V72.0725H42.5316V56.6376H29.0429ZM43.0571 56.6376V72.0725H56.5457V56.6376H43.0571ZM57.0713 56.6376V72.0725H70.5599V56.6376H57.0713ZM71.0855 56.6376V72.0725H84.5741V56.6376H71.0855ZM85.0997 56.6376V72.0725H98.5883V56.6376H85.0997ZM99.1138 56.6376V72.0725H112.602V56.6376H99.1138ZM113.128 56.6376V72.0725H126.617V56.6376H113.128ZM127.142 56.6376V72.0725H140.631V56.6376H127.142ZM141.156 56.6376V72.0725H154.645V56.6376H141.156ZM155.171 56.6376V72.0725H168.659V56.6376H155.171ZM169.185 56.6376V72.0725H182.673V56.6376H169.185ZM183.199 56.6376V72.0725H196.688V56.6376H183.199ZM197.213 56.6376V72.0725H210.702V56.6376H197.213ZM211.227 56.6376V72.0725H224.716V56.6376H211.227ZM225.241 56.6376V72.0725H238.73V56.6376H225.241ZM239.256 56.6376V72.0725H252.744V56.6376H239.256ZM253.27 56.6376V72.0725H266.759V56.6376H253.27ZM267.284 56.6376V72.0725H280.773V56.6376H267.284ZM281.298 56.6376V72.0725H294.787V56.6376H281.298ZM295.312 56.6376V72.0725H308.801V56.6376H295.312ZM309.327 56.6376V72.0725H322.815V56.6376H309.327ZM323.341 56.6376V72.0725H336.829V56.6376H323.341ZM337.355 56.6376V72.0725H350.844V56.6376H337.355ZM351.369 56.6376V72.0725H364.858V56.6376H351.369ZM365.383 56.6376V72.0725H378.872V56.6376H365.383ZM379.397 56.6376V72.0725H392.886V56.6376H379.397ZM393.412 56.6376V72.0725H406.9V56.6376H393.412ZM407.426 56.6376V72.0725H420.915V56.6376H407.426ZM421.44 56.6376V72.0725H434.929V56.6376H421.44ZM435.454 56.6376V72.0725H448.943V56.6376H435.454ZM449.468 56.6376V72.0725H462.957V56.6376H449.468ZM463.483 56.6376V72.0725H476.971V56.6376H463.483ZM476.971 72.6738H463.483V88.1087H476.971V72.6738ZM476.971 88.7101H463.483V104.145H476.971V88.7101ZM476.971 104.746H463.483V120.181H476.971V104.746ZM476.971 120.783H463.483V136.217H476.971V120.783ZM476.971 136.819H463.483V152.254H476.971V136.819ZM476.971 152.855H463.483V168.29H476.971V152.855ZM476.971 168.891H463.483V184.326H476.971V168.891ZM476.971 184.928H463.483V200.362H476.971V184.928ZM462.957 200.362V184.928H449.468V200.362H462.957ZM448.943 200.362V184.928H435.454V200.362H448.943ZM434.929 200.362V184.928H421.44V200.362H434.929ZM420.915 200.362V184.928H407.426V200.362H420.915ZM406.9 200.362V184.928H393.412V200.362H406.9ZM392.886 200.362V184.928H379.397V200.362H392.886ZM378.872 200.362V184.928H365.383V200.362H378.872ZM364.858 200.362V184.928H351.369V200.362H364.858ZM350.844 200.362V184.928H337.355V200.362H350.844ZM336.829 200.362V184.928H323.341V200.362H336.829ZM322.815 200.362V184.928H309.327V200.362H322.815ZM308.801 200.362V184.928H295.312V200.362H308.801ZM294.787 200.362V184.928H281.298V200.362H294.787ZM280.773 200.362V184.928H267.284V200.362H280.773ZM266.759 200.362V184.928H253.27V200.362H266.759ZM252.744 200.362V184.928H239.256V200.362H252.744ZM238.73 200.362V184.928H225.241V200.362H238.73ZM224.716 200.362V184.928H211.227V200.362H224.716ZM210.702 200.362V184.928H197.213V200.362H210.702ZM196.688 200.362V184.928H183.199V200.362H196.688ZM182.673 200.362V184.928H169.185V200.362H182.673ZM168.659 200.362V184.928H155.171V200.362H168.659ZM154.645 200.362V184.928H141.156V200.362H154.645ZM140.631 200.362V184.928H127.142V200.362H140.631ZM126.617 200.362V184.928H113.128V200.362H126.617ZM112.602 200.362V184.928H99.1138V200.362H112.602ZM98.5883 200.362V184.928H85.0996V200.362H98.5883ZM84.5741 200.362V184.928H71.0855V200.362H84.5741ZM70.5599 200.362V184.928H57.0713V200.362H70.5599ZM56.5457 200.362V184.928H43.0571V200.362H56.5457ZM42.5316 200.362V184.928H29.0429V200.362H42.5316ZM28.5174 200.362V184.928H15.0287L15.0287 200.362H28.5174ZM15.0287 184.326H28.5174L28.5174 168.891H15.0287V184.326ZM15.0287 168.29H28.5174V152.855H15.0287V168.29ZM15.0287 152.254H28.5174V136.819H15.0287L15.0287 152.254ZM15.0287 136.217H28.5174V120.783H15.0287V136.217ZM15.0287 120.181H28.5174V104.746H15.0287L15.0287 120.181ZM15.0287 104.145H28.5174V88.7101H15.0287V104.145ZM15.0287 88.1087H28.5174L28.5174 72.6738H15.0287V88.1087ZM29.0429 72.6738L29.0429 88.1087H42.5316L42.5316 72.6738H29.0429ZM43.0571 72.6738L43.0571 88.1087H56.5457V72.6738H43.0571ZM57.0713 72.6738V88.1087H70.5599V72.6738H57.0713ZM71.0855 72.6738V88.1087H84.5741V72.6738H71.0855ZM85.0997 72.6738V88.1087H98.5883V72.6738H85.0997ZM99.1138 72.6738V88.1087H112.602V72.6738H99.1138ZM113.128 72.6738V88.1087H126.617V72.6738H113.128ZM127.142 72.6738V88.1087H140.631V72.6738H127.142ZM141.156 72.6738V88.1087H154.645V72.6738H141.156ZM155.171 72.6738V88.1087H168.659V72.6738H155.171ZM169.185 72.6738V88.1087H182.673V72.6738H169.185ZM183.199 72.6738V88.1087H196.688V72.6738H183.199ZM197.213 72.6738V88.1087H210.702V72.6738H197.213ZM211.227 72.6738V88.1087H224.716V72.6738H211.227ZM225.241 72.6738V88.1087H238.73V72.6738H225.241ZM239.256 72.6738V88.1087H252.744V72.6738H239.256ZM253.27 72.6738V88.1087H266.759V72.6738H253.27ZM267.284 72.6738V88.1087H280.773V72.6738H267.284ZM281.298 72.6738V88.1087H294.787V72.6738H281.298ZM295.312 72.6738V88.1087H308.801V72.6738H295.312ZM309.327 72.6738V88.1087H322.815V72.6738H309.327ZM323.341 72.6738V88.1087H336.829V72.6738H323.341ZM337.355 72.6738V88.1087H350.844V72.6738H337.355ZM351.369 72.6738V88.1087H364.858V72.6738H351.369ZM365.383 72.6738V88.1087H378.872V72.6738H365.383ZM379.397 72.6738V88.1087H392.886V72.6738H379.397ZM393.412 72.6738V88.1087H406.9V72.6738H393.412ZM407.426 72.6738V88.1087H420.915V72.6738H407.426ZM421.44 72.6738V88.1087H434.929V72.6738H421.44ZM435.454 72.6738V88.1087H448.943V72.6738H435.454ZM449.468 72.6738V88.1087H462.957V72.6738H449.468ZM462.957 88.7101H449.468V104.145H462.957V88.7101ZM462.957 104.746H449.468V120.181H462.957V104.746ZM462.957 120.783H449.468V136.217H462.957V120.783ZM462.957 136.819H449.468V152.254H462.957V136.819ZM462.957 152.855H449.468V168.29H462.957V152.855ZM462.957 168.891H449.468V184.326H462.957V168.891ZM448.943 184.326V168.891H435.454V184.326H448.943ZM434.929 184.326V168.891H421.44V184.326H434.929ZM420.915 184.326V168.891H407.426V184.326H420.915ZM406.9 184.326V168.891H393.412V184.326H406.9ZM392.886 184.326V168.891H379.397V184.326H392.886ZM378.872 184.326V168.891H365.383V184.326H378.872ZM364.858 184.326V168.891H351.369V184.326H364.858ZM350.844 184.326V168.891H337.355V184.326H350.844ZM336.829 184.326V168.891H323.341V184.326H336.829ZM322.815 184.326V168.891H309.327V184.326H322.815ZM308.801 184.326V168.891H295.312V184.326H308.801ZM294.787 184.326V168.891H281.298V184.326H294.787ZM280.773 184.326V168.891H267.284V184.326H280.773ZM266.759 184.326V168.891H253.27V184.326H266.759ZM252.744 184.326V168.891H239.256V184.326H252.744ZM238.73 184.326V168.891H225.241V184.326H238.73ZM224.716 184.326V168.891H211.227V184.326H224.716ZM210.702 184.326V168.891H197.213V184.326H210.702ZM196.688 184.326V168.891H183.199V184.326H196.688ZM182.673 184.326V168.891H169.185V184.326H182.673ZM168.659 184.326V168.891H155.171V184.326H168.659ZM154.645 184.326V168.891H141.156V184.326H154.645ZM140.631 184.326V168.891H127.142V184.326H140.631ZM126.617 184.326V168.891H113.128V184.326H126.617ZM112.602 184.326V168.891H99.1138V184.326H112.602ZM98.5883 184.326V168.891H85.0996V184.326H98.5883ZM84.5741 184.326V168.891H71.0855V184.326H84.5741ZM70.5599 184.326V168.891H57.0713V184.326H70.5599ZM56.5457 184.326V168.891H43.0571L43.0571 184.326H56.5457ZM42.5316 184.326L42.5316 168.891H29.0429L29.0429 184.326H42.5316ZM29.0429 168.29H42.5316V152.855H29.0429V168.29ZM29.0429 152.254H42.5316V136.819H29.0429V152.254ZM29.0429 136.217H42.5316V120.783H29.0429V136.217ZM29.0429 120.181H42.5316V104.746H29.0429V120.181ZM29.0429 104.145H42.5316V88.7101H29.0429V104.145ZM43.0571 88.7101V104.145H56.5457V88.7101H43.0571ZM57.0713 88.7101V104.145H70.5599V88.7101H57.0713ZM71.0855 88.7101V104.145H84.5741V88.7101H71.0855ZM85.0997 88.7101V104.145H98.5883V88.7101H85.0997ZM99.1138 88.7101V104.145H112.602V88.7101H99.1138ZM113.128 88.7101V104.145H126.617V88.7101H113.128ZM127.142 88.7101V104.145H140.631V88.7101H127.142ZM141.156 88.7101V104.145H154.645V88.7101H141.156ZM155.171 88.7101V104.145H168.659V88.7101H155.171ZM169.185 88.7101V104.145H182.673V88.7101H169.185ZM183.199 88.7101V104.145H196.688V88.7101H183.199ZM197.213 88.7101V104.145H210.702V88.7101H197.213ZM211.227 88.7101V104.145H224.716V88.7101H211.227ZM225.241 88.7101V104.145H238.73V88.7101H225.241ZM239.256 88.7101V104.145H252.744V88.7101H239.256ZM253.27 88.7101V104.145H266.759V88.7101H253.27ZM267.284 88.7101V104.145H280.773V88.7101H267.284ZM281.298 88.7101V104.145H294.787V88.7101H281.298ZM295.312 88.7101V104.145H308.801V88.7101H295.312ZM309.327 88.7101V104.145H322.815V88.7101H309.327ZM323.341 88.7101V104.145H336.829V88.7101H323.341ZM337.355 88.7101V104.145H350.844V88.7101H337.355ZM351.369 88.7101V104.145H364.858V88.7101H351.369ZM365.383 88.7101V104.145H378.872V88.7101H365.383ZM379.397 88.7101V104.145H392.886V88.7101H379.397ZM393.412 88.7101V104.145H406.9V88.7101H393.412ZM407.426 88.7101V104.145H420.915V88.7101H407.426ZM421.44 88.7101V104.145H434.929V88.7101H421.44ZM435.454 88.7101V104.145H448.943V88.7101H435.454ZM448.943 104.746H435.454V120.181H448.943V104.746ZM448.943 120.783H435.454V136.217H448.943V120.783ZM448.943 136.819H435.454V152.254H448.943V136.819ZM448.943 152.855H435.454V168.29H448.943V152.855ZM434.929 168.29V152.855H421.44V168.29H434.929ZM420.915 168.29V152.855H407.426V168.29H420.915ZM406.9 168.29V152.855H393.412V168.29H406.9ZM392.886 168.29V152.855H379.397V168.29H392.886ZM378.872 168.29V152.855H365.383V168.29H378.872ZM364.858 168.29V152.855H351.369V168.29H364.858ZM350.844 168.29V152.855H337.355V168.29H350.844ZM336.829 168.29V152.855H323.341V168.29H336.829ZM322.815 168.29V152.855H309.327V168.29H322.815ZM308.801 168.29V152.855H295.312V168.29H308.801ZM294.787 168.29V152.855H281.298V168.29H294.787ZM280.773 168.29V152.855H267.284V168.29H280.773ZM266.759 168.29V152.855H253.27V168.29H266.759ZM252.744 168.29V152.855H239.256V168.29H252.744ZM238.73 168.29V152.855H225.241V168.29H238.73ZM224.716 168.29V152.855H211.227V168.29H224.716ZM210.702 168.29V152.855H197.213V168.29H210.702ZM196.688 168.29V152.855H183.199V168.29H196.688ZM182.673 168.29V152.855H169.185V168.29H182.673ZM168.659 168.29V152.855H155.171V168.29H168.659ZM154.645 168.29V152.855H141.156V168.29H154.645ZM140.631 168.29V152.855H127.142V168.29H140.631ZM126.617 168.29V152.855H113.128V168.29H126.617ZM112.602 168.29V152.855H99.1138V168.29H112.602ZM98.5883 168.29V152.855H85.0996V168.29H98.5883ZM84.5741 168.29V152.855H71.0855V168.29H84.5741ZM70.5599 168.29V152.855H57.0713V168.29H70.5599ZM56.5457 168.29V152.855H43.0571V168.29H56.5457ZM43.0571 152.254H56.5457V136.819H43.0571V152.254ZM43.0571 136.217H56.5457L56.5457 120.783H43.0571V136.217ZM43.0571 120.181H56.5457V104.746H43.0571V120.181ZM57.0713 104.746V120.181H70.5599V104.746H57.0713ZM71.0855 104.746V120.181H84.5741V104.746H71.0855ZM85.0997 104.746V120.181H98.5883V104.746H85.0997ZM99.1138 104.746V120.181H112.602V104.746H99.1138ZM113.128 104.746V120.181H126.617V104.746H113.128ZM127.142 104.746V120.181H140.631V104.746H127.142ZM141.156 104.746V120.181H154.645V104.746H141.156ZM155.171 104.746V120.181H168.659V104.746H155.171ZM169.185 104.746V120.181H182.673V104.746H169.185ZM183.199 104.746V120.181H196.688V104.746H183.199ZM197.213 104.746V120.181H210.702V104.746H197.213ZM211.227 104.746V120.181H224.716V104.746H211.227ZM225.241 104.746V120.181H238.73V104.746H225.241ZM239.256 104.746V120.181H252.744V104.746H239.256ZM253.27 104.746V120.181H266.759V104.746H253.27ZM267.284 104.746V120.181H280.773V104.746H267.284ZM281.298 104.746V120.181H294.787V104.746H281.298ZM295.312 104.746V120.181H308.801V104.746H295.312ZM309.327 104.746V120.181H322.815V104.746H309.327ZM323.341 104.746V120.181H336.829V104.746H323.341ZM337.355 104.746V120.181H350.844V104.746H337.355ZM351.369 104.746V120.181H364.858V104.746H351.369ZM365.383 104.746V120.181H378.872V104.746H365.383ZM379.397 104.746V120.181H392.886V104.746H379.397ZM393.412 104.746V120.181H406.9V104.746H393.412ZM407.426 104.746V120.181H420.915V104.746H407.426ZM421.44 104.746V120.181H434.929V104.746H421.44ZM434.929 120.783H421.44V136.217H434.929V120.783ZM434.929 136.819H421.44V152.254H434.929V136.819ZM420.915 152.254V136.819H407.426V152.254H420.915ZM406.9 152.254V136.819H393.412V152.254H406.9ZM392.886 152.254V136.819H379.397V152.254H392.886ZM378.872 152.254V136.819H365.383V152.254H378.872ZM364.858 152.254V136.819H351.369V152.254H364.858ZM350.844 152.254V136.819H337.355V152.254H350.844ZM336.829 152.254V136.819H323.341V152.254H336.829ZM322.815 152.254V136.819H309.327V152.254H322.815ZM308.801 152.254V136.819H295.312V152.254H308.801ZM294.787 152.254V136.819H281.298V152.254H294.787ZM280.773 152.254V136.819H267.284V152.254H280.773ZM266.759 152.254V136.819H253.27V152.254H266.759ZM252.744 152.254V136.819H239.256V152.254H252.744ZM238.73 152.254V136.819H225.241V152.254H238.73ZM224.716 152.254V136.819H211.227V152.254H224.716ZM210.702 152.254V136.819H197.213V152.254H210.702ZM196.688 152.254V136.819H183.199V152.254H196.688ZM182.673 152.254V136.819H169.185V152.254H182.673ZM168.659 152.254V136.819H155.171V152.254H168.659ZM154.645 152.254V136.819H141.156V152.254H154.645ZM140.631 152.254V136.819H127.142V152.254H140.631ZM126.617 152.254V136.819H113.128V152.254H126.617ZM112.602 152.254V136.819H99.1138V152.254H112.602ZM98.5883 152.254V136.819H85.0996V152.254H98.5883ZM84.5741 152.254V136.819H71.0855V152.254H84.5741ZM70.5599 152.254V136.819H57.0713V152.254H70.5599ZM57.0713 136.217H70.5599L70.5599 120.783H57.0713L57.0713 136.217ZM71.0855 120.783L71.0855 136.217H84.5741L84.5741 120.783H71.0855ZM85.0997 120.783L85.0996 136.217H98.5883L98.5883 120.783H85.0997ZM99.1138 120.783L99.1138 136.217H112.602L112.602 120.783H99.1138ZM113.128 120.783L113.128 136.217H126.617L126.617 120.783H113.128ZM127.142 120.783L127.142 136.217H140.631L140.631 120.783H127.142ZM141.156 120.783L141.156 136.217H154.645L154.645 120.783H141.156ZM155.171 120.783L155.171 136.217H168.659L168.659 120.783H155.171ZM169.185 120.783L169.185 136.217H182.673L182.673 120.783H169.185ZM183.199 120.783L183.199 136.217H196.688L196.688 120.783H183.199ZM197.213 120.783L197.213 136.217H210.702L210.702 120.783H197.213ZM211.227 120.783L211.227 136.217H224.716V120.783H211.227ZM225.241 120.783V136.217H238.73V120.783H225.241ZM239.256 120.783V136.217H252.744V120.783H239.256ZM253.27 120.783V136.217H266.759V120.783H253.27ZM267.284 120.783V136.217H280.773V120.783H267.284ZM281.298 120.783V136.217H294.787V120.783H281.298ZM295.312 120.783V136.217H308.801V120.783H295.312ZM309.327 120.783V136.217H322.815V120.783H309.327ZM323.341 120.783V136.217H336.829V120.783H323.341ZM337.355 120.783V136.217H350.844V120.783H337.355ZM351.369 120.783V136.217H364.858V120.783H351.369ZM365.383 120.783V136.217H378.872V120.783H365.383ZM379.397 120.783V136.217H392.886V120.783H379.397ZM393.412 120.783V136.217H406.9V120.783H393.412ZM407.426 120.783V136.217H420.915V120.783H407.426Z" fill="url(#paint0_linear_248_3)"/>
</g>
</g>
<defs>
<linearGradient id="paint0_linear_248_3" x1="246" y1="53.0294" x2="246" y2="217" gradientUnits="userSpaceOnUse">
<stop stop-color="white" stop-opacity="0"/>
<stop offset="0.740605" stop-color="white"/>
<stop offset="1" stop-color="white" stop-opacity="0"/>
</linearGradient>
</defs>
</svg>
