<svg width="365" height="218" viewBox="0 0 365 218" fill="none" xmlns="http://www.w3.org/2000/svg">
<rect width="365" height="218" rx="20" fill="#1E0042"/>
<g style="mix-blend-mode:overlay" opacity="0.6" clip-path="url(#clip0_251_13)">
<mask id="path-2-inside-1_251_13" fill="white">
<path d="M335.699 64.4575L334.98 63.2619L335.876 62.195C339.447 57.9387 338.266 53.252 336.171 50.5297C334.076 47.8074 329.901 45.5155 324.866 47.8516L323.608 48.4365L322.638 47.4469C320.746 45.5192 318.747 43.6578 316.692 41.9287L315.648 41.0274L316.12 39.7472C318.042 34.5418 315.331 30.5025 312.432 28.6263C309.614 26.787 304.944 26.0144 301.075 29.7888L300.071 30.7637L298.821 30.1346C274.336 17.8144 244.016 17.969 219.686 30.5503L218.373 31.2309L217.355 30.1567C213.32 25.893 208.403 26.7134 205.423 28.7146C202.173 30.8925 199.927 35.3364 202.232 40.4021L202.837 41.7264L201.731 42.6829C198.726 45.3027 195.901 48.1195 193.273 51.1146C193.191 51.1849 193.133 51.2777 193.105 51.3812C193.076 51.4847 193.08 51.5942 193.114 51.6959C193.185 51.8672 193.296 52.0187 193.439 52.1373C193.844 52.5052 194.198 52.5052 194.49 52.1741C197.043 49.2615 199.787 46.5209 202.704 43.9705L203.881 42.9441L205.146 43.8564C206.225 44.6204 207.457 45.1412 208.758 45.3826C210.058 45.624 211.396 45.5803 212.678 45.2543C213.979 44.9448 215.197 44.3567 216.247 43.5309C217.298 42.7051 218.155 41.6613 218.761 40.472L219.498 39.0004L221.066 39.4493C231.171 42.349 240.86 46.5316 249.896 51.8945L251.179 52.6597L250.781 54.0981C250.167 56.3401 250.413 58.7299 251.471 60.8008L252.175 62.1693L251.01 63.1736C243.807 69.3843 237.336 76.3906 231.719 84.0579L230.9 85.1616L229.568 84.7606C227.435 84.1582 225.157 84.3296 223.138 85.2442C221.119 86.1589 219.491 87.7576 218.543 89.7563L218.019 90.8894H216.769C205.225 90.9546 193.718 92.1871 182.425 94.5682L180.986 94.8735L180.278 93.597C179.443 92.0434 178.182 90.7595 176.641 89.8961L175.328 89.1604L175.697 87.7073C177.896 79.1472 181.398 70.9739 186.08 63.4716C186.152 63.3768 186.194 63.2622 186.199 63.1433C186.204 63.0243 186.173 62.9065 186.109 62.8057C186.012 62.6597 185.887 62.5346 185.741 62.4378C185.591 62.3328 185.414 62.2728 185.232 62.2649C185.161 62.2649 184.948 62.2649 184.726 62.6328C179.966 70.2639 176.404 78.5758 174.162 87.2805L173.793 88.7226L172.318 88.7484C166.649 88.844 163.602 92.8575 163.096 96.7938C162.591 100.73 164.506 105.428 169.95 106.947L171.392 107.348V108.845C171.293 121.521 173.92 134.071 179.097 145.648C184.274 157.225 191.88 167.561 201.402 175.957L202.409 176.844L201.944 178.102C200.071 183.153 202.631 187.141 205.393 189.024C208.156 190.908 212.737 191.809 216.721 188.288L217.743 187.383L218.945 188.023C244.075 201.348 275.295 201.352 300.425 188.023L301.698 187.347L302.723 188.358C306.781 192.364 311.598 191.478 314.486 189.502C317.374 187.527 319.99 183.307 317.684 178.028L317.116 176.73L318.179 175.788C327.949 167.165 335.675 156.484 340.8 144.518L340.837 144.441C340.857 144.407 340.873 144.372 340.885 144.334L340.941 144.184C351.977 118.697 349.974 88.1634 335.699 64.4575ZM210.524 43.9778C208.501 43.97 206.564 43.1624 205.138 41.7321C203.711 40.3017 202.912 38.3655 202.915 36.3481V36.2745C203.117 31.3339 206.894 28.7514 210.52 28.7514C214.146 28.7514 217.92 31.3265 218.126 36.2671V36.3407C218.131 38.3581 217.334 40.2952 215.908 41.7269C214.483 43.1586 212.547 43.9681 210.524 43.9778V43.9778ZM328.835 48.5248H328.909C330.908 48.5686 332.811 49.3914 334.209 50.8172C335.608 52.2429 336.391 54.1582 336.391 56.1527C336.391 58.1472 335.608 60.0624 334.209 61.4882C332.811 62.9139 330.908 63.7368 328.909 63.7806H328.835C323.903 63.5783 321.329 59.7891 321.332 56.1545C321.336 52.5199 323.911 48.7161 328.831 48.5248H328.835ZM307.555 28.722C309.577 28.7298 311.513 29.537 312.939 30.9667C314.365 32.3963 315.164 34.3316 315.161 36.3481V36.4216C314.955 41.3659 311.181 43.9484 307.555 43.9484C303.93 43.9484 300.152 41.3732 299.95 36.429V36.3591C299.945 34.3417 300.742 32.4046 302.167 30.9729C303.593 29.5412 305.529 28.7317 307.552 28.722H307.555ZM305.844 45.4052C307.175 45.6782 308.551 45.6448 309.867 45.3076C311.183 44.9704 312.405 44.3382 313.439 43.4591L314.719 42.3555L316.002 43.4591C317.795 44.9968 319.547 46.6265 321.203 48.304L322.361 49.4739L321.406 50.8093C320.669 51.8774 320.163 53.0862 319.918 54.3594C319.673 55.6326 319.696 56.9426 319.984 58.2067C320.272 59.4708 320.82 60.6616 321.593 61.7039C322.366 62.7462 323.347 63.6174 324.475 64.2625L325.854 65.024L325.404 66.5323C321.329 80.1597 315.548 93.2205 308.197 105.406L307.423 106.69L305.977 106.278C304.699 105.916 303.359 105.83 302.045 106.024L300.595 106.245L299.975 104.92C292.456 88.9585 281.672 74.7422 268.317 63.1846L267.147 62.1767L267.855 60.8082C268.913 58.7372 269.159 56.3475 268.545 54.1054L268.147 52.6671L269.43 51.9019C278.133 46.7362 287.444 42.6659 297.15 39.784L298.703 39.3205L299.441 40.7589C300.083 41.9685 300.993 43.0159 302.103 43.8211C303.213 44.6264 304.492 45.1681 305.844 45.4052V45.4052ZM311.008 115.166C311.008 118.8 308.426 122.586 303.513 122.792H303.476C301.476 122.752 299.572 121.934 298.17 120.511C296.768 119.088 295.981 117.175 295.976 115.18C295.972 113.185 296.751 111.268 298.147 109.839C299.542 108.411 301.443 107.584 303.443 107.536H303.516C308.448 107.734 311.023 111.52 311.019 115.158L311.008 115.166ZM250.641 50.4708C241.403 44.9951 231.491 40.7376 221.154 37.8048L219.786 37.437L219.731 36.017C219.709 35.3968 219.624 34.7804 219.476 34.1776L219.107 32.684L220.476 31.9777C244.201 19.7421 273.794 19.5251 297.711 31.4112L299.186 32.1469L298.714 33.7214C298.468 34.5678 298.344 35.4448 298.345 36.326V37.7975L296.947 38.2095C287.058 41.1263 277.572 45.2599 268.707 50.515L267.376 51.3059L266.295 50.2023C265.437 49.3217 264.409 48.624 263.273 48.1516C262.137 47.6792 260.916 47.442 259.685 47.4542C258.454 47.442 257.234 47.6792 256.097 48.1516C254.961 48.624 253.933 49.3217 253.075 50.2023L251.995 51.3059L250.641 50.4708ZM252.057 56.5776C252.054 54.5611 252.853 52.6258 254.279 51.1962C255.705 49.7665 257.641 48.9593 259.663 48.9515H259.737C264.669 49.1575 267.243 52.943 267.239 56.5776C267.236 60.2122 264.657 64.0013 259.744 64.2037H259.696C258.693 64.2032 257.699 64.0055 256.772 63.622C255.845 63.2385 255.003 62.6767 254.293 61.9685C253.584 61.2604 253.021 60.4198 252.638 59.4948C252.254 58.5698 252.057 57.5786 252.057 56.5776V56.5776ZM233.308 84.6318C238.798 77.1939 245.108 70.3946 252.12 64.3618L253.26 63.3796L254.503 64.2257C256.028 65.2537 257.826 65.8031 259.667 65.8031C261.507 65.8031 263.306 65.2537 264.831 64.2257L266.078 63.3796L267.217 64.3618C280.376 75.7376 291.009 89.7269 298.437 105.435L299.109 106.859L297.858 107.819C297.449 108.13 297.068 108.476 296.718 108.853L295.711 109.927L294.398 109.261C276.538 100.203 257.208 94.3776 237.307 92.0556L236.067 91.9121L235.673 90.7275C235.227 89.3887 234.481 88.1684 233.493 87.1591L232.323 85.9709L233.308 84.6318ZM226.92 86.004C228.942 86.0118 230.878 86.819 232.304 88.2487C233.729 89.6783 234.528 91.6136 234.526 93.6301V93.7037C234.319 98.6479 230.542 101.23 226.92 101.23C223.298 101.23 219.517 98.6553 219.314 93.711V93.6411C219.309 91.623 220.107 89.6855 221.533 88.2537C222.959 86.8218 224.896 86.0128 226.92 86.004V86.004ZM172.163 105.604C170.14 105.598 168.203 104.79 166.777 103.36C165.351 101.929 164.552 99.9921 164.557 97.9747C164.554 95.9582 165.353 94.0229 166.779 92.5933C168.205 91.1637 170.141 90.3564 172.163 90.3486H172.237C177.168 90.5546 179.743 94.3401 179.739 97.9747C179.736 101.609 177.157 105.398 172.244 105.601L172.163 105.604ZM201.985 174.338C184.907 159.079 172.978 132.136 172.978 108.82V107.245L174.516 106.91C174.793 106.848 181.384 105.262 181.384 98.0483V96.3818L183.033 96.1169C183.922 95.9771 204.869 92.6552 215.747 92.5338L217.591 92.5117L217.732 94.3511C217.903 96.493 218.816 98.5087 220.314 100.053L221.269 101.046L220.657 102.279C210.066 123.506 205.752 147.302 208.219 170.884L208.366 172.334L207.024 172.893C206.139 173.26 205.318 173.763 204.589 174.383L203.287 175.486L201.985 174.338ZM210.517 189.054C208.517 189.01 206.615 188.187 205.216 186.761C203.818 185.335 203.035 183.42 203.035 181.426C203.035 179.431 203.818 177.516 205.216 176.09C206.615 174.664 208.517 173.841 210.517 173.798C212.53 173.834 214.449 174.65 215.869 176.074C217.289 177.497 218.097 179.416 218.122 181.424C218.124 183.438 217.326 185.372 215.902 186.8C214.478 188.229 212.544 189.036 210.524 189.046L210.517 189.054ZM211.516 172.242L209.938 172.072L209.786 170.483C207.42 147.453 211.602 124.224 221.852 103.452L222.589 101.951L224.19 102.448C225.433 102.813 226.739 102.917 228.025 102.752C229.31 102.587 230.547 102.157 231.657 101.49C232.767 100.822 233.726 99.9321 234.472 98.8754C235.219 97.8188 235.737 96.6188 235.994 95.3517L236.337 93.5491L238.159 93.7736C257.45 96.1474 276.181 101.846 293.517 110.615L294.926 111.325L294.531 112.848C294.194 114.177 294.155 115.564 294.417 116.91C294.678 118.256 295.233 119.528 296.043 120.636L296.932 121.839L295.988 123.027C276.438 147.774 250.336 166.573 220.634 177.3L219.159 177.837L218.318 176.505C217.583 175.326 216.59 174.329 215.412 173.589C214.234 172.849 212.903 172.386 211.52 172.234L211.516 172.242ZM309.289 189.532C307.265 189.523 305.327 188.713 303.901 187.279C302.476 185.846 301.679 183.906 301.687 181.887V181.814C301.894 176.869 305.667 174.287 309.293 174.287C312.919 174.287 316.696 176.862 316.899 181.806V181.887C316.903 183.905 316.105 185.843 314.679 187.275C313.253 188.707 311.316 189.516 309.293 189.524L309.289 189.532ZM338.591 145.431C333.602 156.465 326.344 166.33 317.286 174.386L316.087 175.457L314.8 174.493C314.065 173.943 313.252 173.507 312.387 173.198L310.938 172.676L311.1 171.149C311.635 166.1 311.865 161.024 311.79 155.948C311.79 155.547 311.642 155.415 311.487 155.33C311.328 155.247 311.151 155.203 310.971 155.203C310.791 155.203 310.614 155.247 310.455 155.33C310.307 155.419 310.171 155.558 310.174 155.959C310.251 160.996 310.022 166.033 309.488 171.042L309.33 172.514L307.854 172.749C306.574 172.962 305.353 173.442 304.272 174.159C303.191 174.877 302.275 175.814 301.584 176.91C300.872 178.006 300.401 179.239 300.201 180.529C300 181.819 300.076 183.137 300.422 184.396L300.857 185.93L299.441 186.666C287.197 192.992 273.615 196.307 259.826 196.334C246.037 196.361 232.441 193.099 220.173 186.821L218.657 186.041L219.218 184.437C219.621 183.267 219.79 182.029 219.716 180.795L219.62 179.323L221.007 178.823C251.032 168.031 277.427 149.071 297.205 124.09L298.172 122.873L299.577 123.531C300.944 124.167 302.446 124.459 303.952 124.381L305.534 124.3L305.947 125.827C307.202 130.453 308.187 135.147 308.898 139.887C308.968 140.376 309.267 140.582 309.809 140.505C310.602 140.387 310.521 139.832 310.495 139.651C309.768 134.775 308.754 129.945 307.46 125.187L307.091 123.781L308.271 123.027C308.815 122.689 309.321 122.296 309.783 121.854L310.93 120.75L312.244 121.64C321.596 127.968 330.292 135.211 338.204 143.26L339.144 144.217L338.591 145.431ZM339.856 142.602L337.709 140.475C330.123 132.959 321.849 126.165 312.996 120.183L311.779 119.363L312.225 117.969C312.736 116.342 312.79 114.608 312.383 112.953C311.975 111.298 311.121 109.786 309.912 108.581L308.806 107.503L309.599 106.186C317.042 93.8385 322.888 80.6013 326.998 66.7898L327.415 65.3845H328.89C330 65.3912 331.102 65.1929 332.14 64.7996L333.678 64.222L334.519 65.631C347.499 87.5013 349.952 115.909 340.922 139.773L339.856 142.602Z"/>
</mask>
<path d="M335.699 64.4575L334.98 63.2619L335.876 62.195C339.447 57.9387 338.266 53.252 336.171 50.5297C334.076 47.8074 329.901 45.5155 324.866 47.8516L323.608 48.4365L322.638 47.4469C320.746 45.5192 318.747 43.6578 316.692 41.9287L315.648 41.0274L316.12 39.7472C318.042 34.5418 315.331 30.5025 312.432 28.6263C309.614 26.787 304.944 26.0144 301.075 29.7888L300.071 30.7637L298.821 30.1346C274.336 17.8144 244.016 17.969 219.686 30.5503L218.373 31.2309L217.355 30.1567C213.32 25.893 208.403 26.7134 205.423 28.7146C202.173 30.8925 199.927 35.3364 202.232 40.4021L202.837 41.7264L201.731 42.6829C198.726 45.3027 195.901 48.1195 193.273 51.1146C193.191 51.1849 193.133 51.2777 193.105 51.3812C193.076 51.4847 193.08 51.5942 193.114 51.6959C193.185 51.8672 193.296 52.0187 193.439 52.1373C193.844 52.5052 194.198 52.5052 194.49 52.1741C197.043 49.2615 199.787 46.5209 202.704 43.9705L203.881 42.9441L205.146 43.8564C206.225 44.6204 207.457 45.1412 208.758 45.3826C210.058 45.624 211.396 45.5803 212.678 45.2543C213.979 44.9448 215.197 44.3567 216.247 43.5309C217.298 42.7051 218.155 41.6613 218.761 40.472L219.498 39.0004L221.066 39.4493C231.171 42.349 240.86 46.5316 249.896 51.8945L251.179 52.6597L250.781 54.0981C250.167 56.3401 250.413 58.7299 251.471 60.8008L252.175 62.1693L251.01 63.1736C243.807 69.3843 237.336 76.3906 231.719 84.0579L230.9 85.1616L229.568 84.7606C227.435 84.1582 225.157 84.3296 223.138 85.2442C221.119 86.1589 219.491 87.7576 218.543 89.7563L218.019 90.8894H216.769C205.225 90.9546 193.718 92.1871 182.425 94.5682L180.986 94.8735L180.278 93.597C179.443 92.0434 178.182 90.7595 176.641 89.8961L175.328 89.1604L175.697 87.7073C177.896 79.1472 181.398 70.9739 186.08 63.4716C186.152 63.3768 186.194 63.2622 186.199 63.1433C186.204 63.0243 186.173 62.9065 186.109 62.8057C186.012 62.6597 185.887 62.5346 185.741 62.4378C185.591 62.3328 185.414 62.2728 185.232 62.2649C185.161 62.2649 184.948 62.2649 184.726 62.6328C179.966 70.2639 176.404 78.5758 174.162 87.2805L173.793 88.7226L172.318 88.7484C166.649 88.844 163.602 92.8575 163.096 96.7938C162.591 100.73 164.506 105.428 169.95 106.947L171.392 107.348V108.845C171.293 121.521 173.92 134.071 179.097 145.648C184.274 157.225 191.88 167.561 201.402 175.957L202.409 176.844L201.944 178.102C200.071 183.153 202.631 187.141 205.393 189.024C208.156 190.908 212.737 191.809 216.721 188.288L217.743 187.383L218.945 188.023C244.075 201.348 275.295 201.352 300.425 188.023L301.698 187.347L302.723 188.358C306.781 192.364 311.598 191.478 314.486 189.502C317.374 187.527 319.99 183.307 317.684 178.028L317.116 176.73L318.179 175.788C327.949 167.165 335.675 156.484 340.8 144.518L340.837 144.441C340.857 144.407 340.873 144.372 340.885 144.334L340.941 144.184C351.977 118.697 349.974 88.1634 335.699 64.4575ZM210.524 43.9778C208.501 43.97 206.564 43.1624 205.138 41.7321C203.711 40.3017 202.912 38.3655 202.915 36.3481V36.2745C203.117 31.3339 206.894 28.7514 210.52 28.7514C214.146 28.7514 217.92 31.3265 218.126 36.2671V36.3407C218.131 38.3581 217.334 40.2952 215.908 41.7269C214.483 43.1586 212.547 43.9681 210.524 43.9778V43.9778ZM328.835 48.5248H328.909C330.908 48.5686 332.811 49.3914 334.209 50.8172C335.608 52.2429 336.391 54.1582 336.391 56.1527C336.391 58.1472 335.608 60.0624 334.209 61.4882C332.811 62.9139 330.908 63.7368 328.909 63.7806H328.835C323.903 63.5783 321.329 59.7891 321.332 56.1545C321.336 52.5199 323.911 48.7161 328.831 48.5248H328.835ZM307.555 28.722C309.577 28.7298 311.513 29.537 312.939 30.9667C314.365 32.3963 315.164 34.3316 315.161 36.3481V36.4216C314.955 41.3659 311.181 43.9484 307.555 43.9484C303.93 43.9484 300.152 41.3732 299.95 36.429V36.3591C299.945 34.3417 300.742 32.4046 302.167 30.9729C303.593 29.5412 305.529 28.7317 307.552 28.722H307.555ZM305.844 45.4052C307.175 45.6782 308.551 45.6448 309.867 45.3076C311.183 44.9704 312.405 44.3382 313.439 43.4591L314.719 42.3555L316.002 43.4591C317.795 44.9968 319.547 46.6265 321.203 48.304L322.361 49.4739L321.406 50.8093C320.669 51.8774 320.163 53.0862 319.918 54.3594C319.673 55.6326 319.696 56.9426 319.984 58.2067C320.272 59.4708 320.82 60.6616 321.593 61.7039C322.366 62.7462 323.347 63.6174 324.475 64.2625L325.854 65.024L325.404 66.5323C321.329 80.1597 315.548 93.2205 308.197 105.406L307.423 106.69L305.977 106.278C304.699 105.916 303.359 105.83 302.045 106.024L300.595 106.245L299.975 104.92C292.456 88.9585 281.672 74.7422 268.317 63.1846L267.147 62.1767L267.855 60.8082C268.913 58.7372 269.159 56.3475 268.545 54.1054L268.147 52.6671L269.43 51.9019C278.133 46.7362 287.444 42.6659 297.15 39.784L298.703 39.3205L299.441 40.7589C300.083 41.9685 300.993 43.0159 302.103 43.8211C303.213 44.6264 304.492 45.1681 305.844 45.4052V45.4052ZM311.008 115.166C311.008 118.8 308.426 122.586 303.513 122.792H303.476C301.476 122.752 299.572 121.934 298.17 120.511C296.768 119.088 295.981 117.175 295.976 115.18C295.972 113.185 296.751 111.268 298.147 109.839C299.542 108.411 301.443 107.584 303.443 107.536H303.516C308.448 107.734 311.023 111.52 311.019 115.158L311.008 115.166ZM250.641 50.4708C241.403 44.9951 231.491 40.7376 221.154 37.8048L219.786 37.437L219.731 36.017C219.709 35.3968 219.624 34.7804 219.476 34.1776L219.107 32.684L220.476 31.9777C244.201 19.7421 273.794 19.5251 297.711 31.4112L299.186 32.1469L298.714 33.7214C298.468 34.5678 298.344 35.4448 298.345 36.326V37.7975L296.947 38.2095C287.058 41.1263 277.572 45.2599 268.707 50.515L267.376 51.3059L266.295 50.2023C265.437 49.3217 264.409 48.624 263.273 48.1516C262.137 47.6792 260.916 47.442 259.685 47.4542C258.454 47.442 257.234 47.6792 256.097 48.1516C254.961 48.624 253.933 49.3217 253.075 50.2023L251.995 51.3059L250.641 50.4708ZM252.057 56.5776C252.054 54.5611 252.853 52.6258 254.279 51.1962C255.705 49.7665 257.641 48.9593 259.663 48.9515H259.737C264.669 49.1575 267.243 52.943 267.239 56.5776C267.236 60.2122 264.657 64.0013 259.744 64.2037H259.696C258.693 64.2032 257.699 64.0055 256.772 63.622C255.845 63.2385 255.003 62.6767 254.293 61.9685C253.584 61.2604 253.021 60.4198 252.638 59.4948C252.254 58.5698 252.057 57.5786 252.057 56.5776V56.5776ZM233.308 84.6318C238.798 77.1939 245.108 70.3946 252.12 64.3618L253.26 63.3796L254.503 64.2257C256.028 65.2537 257.826 65.8031 259.667 65.8031C261.507 65.8031 263.306 65.2537 264.831 64.2257L266.078 63.3796L267.217 64.3618C280.376 75.7376 291.009 89.7269 298.437 105.435L299.109 106.859L297.858 107.819C297.449 108.13 297.068 108.476 296.718 108.853L295.711 109.927L294.398 109.261C276.538 100.203 257.208 94.3776 237.307 92.0556L236.067 91.9121L235.673 90.7275C235.227 89.3887 234.481 88.1684 233.493 87.1591L232.323 85.9709L233.308 84.6318ZM226.92 86.004C228.942 86.0118 230.878 86.819 232.304 88.2487C233.729 89.6783 234.528 91.6136 234.526 93.6301V93.7037C234.319 98.6479 230.542 101.23 226.92 101.23C223.298 101.23 219.517 98.6553 219.314 93.711V93.6411C219.309 91.623 220.107 89.6855 221.533 88.2537C222.959 86.8218 224.896 86.0128 226.92 86.004V86.004ZM172.163 105.604C170.14 105.598 168.203 104.79 166.777 103.36C165.351 101.929 164.552 99.9921 164.557 97.9747C164.554 95.9582 165.353 94.0229 166.779 92.5933C168.205 91.1637 170.141 90.3564 172.163 90.3486H172.237C177.168 90.5546 179.743 94.3401 179.739 97.9747C179.736 101.609 177.157 105.398 172.244 105.601L172.163 105.604ZM201.985 174.338C184.907 159.079 172.978 132.136 172.978 108.82V107.245L174.516 106.91C174.793 106.848 181.384 105.262 181.384 98.0483V96.3818L183.033 96.1169C183.922 95.9771 204.869 92.6552 215.747 92.5338L217.591 92.5117L217.732 94.3511C217.903 96.493 218.816 98.5087 220.314 100.053L221.269 101.046L220.657 102.279C210.066 123.506 205.752 147.302 208.219 170.884L208.366 172.334L207.024 172.893C206.139 173.26 205.318 173.763 204.589 174.383L203.287 175.486L201.985 174.338ZM210.517 189.054C208.517 189.01 206.615 188.187 205.216 186.761C203.818 185.335 203.035 183.42 203.035 181.426C203.035 179.431 203.818 177.516 205.216 176.09C206.615 174.664 208.517 173.841 210.517 173.798C212.53 173.834 214.449 174.65 215.869 176.074C217.289 177.497 218.097 179.416 218.122 181.424C218.124 183.438 217.326 185.372 215.902 186.8C214.478 188.229 212.544 189.036 210.524 189.046L210.517 189.054ZM211.516 172.242L209.938 172.072L209.786 170.483C207.42 147.453 211.602 124.224 221.852 103.452L222.589 101.951L224.19 102.448C225.433 102.813 226.739 102.917 228.025 102.752C229.31 102.587 230.547 102.157 231.657 101.49C232.767 100.822 233.726 99.9321 234.472 98.8754C235.219 97.8188 235.737 96.6188 235.994 95.3517L236.337 93.5491L238.159 93.7736C257.45 96.1474 276.181 101.846 293.517 110.615L294.926 111.325L294.531 112.848C294.194 114.177 294.155 115.564 294.417 116.91C294.678 118.256 295.233 119.528 296.043 120.636L296.932 121.839L295.988 123.027C276.438 147.774 250.336 166.573 220.634 177.3L219.159 177.837L218.318 176.505C217.583 175.326 216.59 174.329 215.412 173.589C214.234 172.849 212.903 172.386 211.52 172.234L211.516 172.242ZM309.289 189.532C307.265 189.523 305.327 188.713 303.901 187.279C302.476 185.846 301.679 183.906 301.687 181.887V181.814C301.894 176.869 305.667 174.287 309.293 174.287C312.919 174.287 316.696 176.862 316.899 181.806V181.887C316.903 183.905 316.105 185.843 314.679 187.275C313.253 188.707 311.316 189.516 309.293 189.524L309.289 189.532ZM338.591 145.431C333.602 156.465 326.344 166.33 317.286 174.386L316.087 175.457L314.8 174.493C314.065 173.943 313.252 173.507 312.387 173.198L310.938 172.676L311.1 171.149C311.635 166.1 311.865 161.024 311.79 155.948C311.79 155.547 311.642 155.415 311.487 155.33C311.328 155.247 311.151 155.203 310.971 155.203C310.791 155.203 310.614 155.247 310.455 155.33C310.307 155.419 310.171 155.558 310.174 155.959C310.251 160.996 310.022 166.033 309.488 171.042L309.33 172.514L307.854 172.749C306.574 172.962 305.353 173.442 304.272 174.159C303.191 174.877 302.275 175.814 301.584 176.91C300.872 178.006 300.401 179.239 300.201 180.529C300 181.819 300.076 183.137 300.422 184.396L300.857 185.93L299.441 186.666C287.197 192.992 273.615 196.307 259.826 196.334C246.037 196.361 232.441 193.099 220.173 186.821L218.657 186.041L219.218 184.437C219.621 183.267 219.79 182.029 219.716 180.795L219.62 179.323L221.007 178.823C251.032 168.031 277.427 149.071 297.205 124.09L298.172 122.873L299.577 123.531C300.944 124.167 302.446 124.459 303.952 124.381L305.534 124.3L305.947 125.827C307.202 130.453 308.187 135.147 308.898 139.887C308.968 140.376 309.267 140.582 309.809 140.505C310.602 140.387 310.521 139.832 310.495 139.651C309.768 134.775 308.754 129.945 307.46 125.187L307.091 123.781L308.271 123.027C308.815 122.689 309.321 122.296 309.783 121.854L310.93 120.75L312.244 121.64C321.596 127.968 330.292 135.211 338.204 143.26L339.144 144.217L338.591 145.431ZM339.856 142.602L337.709 140.475C330.123 132.959 321.849 126.165 312.996 120.183L311.779 119.363L312.225 117.969C312.736 116.342 312.79 114.608 312.383 112.953C311.975 111.298 311.121 109.786 309.912 108.581L308.806 107.503L309.599 106.186C317.042 93.8385 322.888 80.6013 326.998 66.7898L327.415 65.3845H328.89C330 65.3912 331.102 65.1929 332.14 64.7996L333.678 64.222L334.519 65.631C347.499 87.5013 349.952 115.909 340.922 139.773L339.856 142.602Z" fill="white" stroke="#FFFBFB" stroke-width="2" mask="url(#path-2-inside-1_251_13)"/>
</g>
<defs>
<clipPath id="clip0_251_13">
<rect width="185" height="177" fill="white" transform="translate(163 21)"/>
</clipPath>
</defs>
</svg>
