<svg width="180" height="60" viewBox="0 0 180 60" fill="none" xmlns="http://www.w3.org/2000/svg">
<rect width="180" height="60" rx="8" fill="url(#paint0_linear_276_2121)"/>
<path d="M52.2618 21.0178C52.2618 21.0178 49.7669 18.3816 44.1023 18V18.8324C44.1023 18.8324 47.2092 18.6523 51.0552 22.4309C48.1521 20.3463 44.0108 19.0404 39.4107 19.0404C34.8107 19.0404 30.6693 20.3461 27.7662 22.4309C31.6122 18.6523 34.7191 18.8324 34.7191 18.8324V18C29.0545 18.3816 26.5596 21.0178 26.5596 21.0178C22.2432 26.5673 22 38.7076 22 38.7076C26.0659 43.5982 31.1746 42.9742 31.1746 42.9742L33.0511 40.2687C30.6312 39.6153 28.903 38.1152 27.8643 36.947C30.7621 38.9913 34.8619 40.2687 39.4107 40.2687C43.9595 40.2687 48.0593 38.9914 50.9571 36.947C49.9184 38.115 48.1903 39.6153 45.7703 40.2687L47.6468 42.9742C47.6468 42.9742 52.7555 43.5986 56.8214 38.7076C56.8218 38.7074 56.5784 26.5673 52.2618 21.0178ZM33.9896 35.2736C32.3582 35.2736 31.0357 33.8712 31.0357 32.1409C31.0357 30.4108 32.3582 29.0082 33.9896 29.0082C35.621 29.0082 36.9435 30.4108 36.9435 32.1409C36.9435 33.871 35.621 35.2736 33.9896 35.2736ZM44.8322 35.2736C43.2008 35.2736 41.8783 33.8712 41.8783 32.1409C41.8783 30.4108 43.2008 29.0082 44.8322 29.0082C46.4636 29.0082 47.7861 30.4108 47.7861 32.1409C47.7861 33.871 46.4638 35.2736 44.8322 35.2736Z" fill="white"/>
<path d="M69.3742 23V37H74.9342C76.8542 37 78.4542 36.32 79.7342 34.98C81.0342 33.64 81.6742 31.98 81.6742 30C81.6742 28.02 81.0342 26.36 79.7342 25.02C78.4542 23.68 76.8542 23 74.9342 23H69.3742ZM72.1342 34.36V25.64H74.9342C76.1542 25.64 77.1342 26.04 77.8942 26.86C78.6542 27.66 79.0342 28.7 79.0342 30C79.0342 31.3 78.6542 32.34 77.8942 33.16C77.1342 33.96 76.1542 34.36 74.9342 34.36H72.1342ZM83.632 37H86.392V23H83.632V37ZM93.5488 37.28C95.0488 37.28 96.2688 36.9 97.2088 36.14C98.1488 35.38 98.6288 34.36 98.6288 33.06C98.6288 32.26 98.4088 31.56 98.1088 31.08C97.8488 30.6 97.2088 30.1 96.7888 29.84C96.5888 29.7 96.2888 29.56 95.9088 29.42C95.5288 29.26 95.2288 29.14 95.0088 29.08L94.0488 28.76C93.0088 28.44 92.3088 28.14 91.9288 27.88C91.5688 27.6 91.3888 27.24 91.3888 26.8C91.3888 25.98 92.0888 25.4 93.2288 25.4C94.4488 25.4 95.3488 26 95.9088 27.2L98.2288 25.86C97.2688 23.88 95.4888 22.72 93.2288 22.72C91.9688 22.72 90.8688 23.1 89.9688 23.86C89.0688 24.6 88.6288 25.62 88.6288 26.88C88.6288 28.16 89.0888 29.12 89.9488 29.76C90.8288 30.38 91.5888 30.68 92.8488 31.06C93.9888 31.38 94.7688 31.68 95.2088 31.96C95.6488 32.22 95.8688 32.6 95.8688 33.1C95.8688 33.96 95.1688 34.58 93.6288 34.58C92.0288 34.58 90.9488 33.86 90.4087 32.44L88.0488 33.82C88.8288 35.96 90.7688 37.28 93.5488 37.28ZM106.971 37.28C109.531 37.28 111.791 36 112.991 33.98L110.611 32.6C109.951 33.82 108.571 34.58 106.971 34.58C105.611 34.58 104.511 34.16 103.671 33.3C102.851 32.44 102.431 31.34 102.431 30C102.431 28.64 102.851 27.54 103.671 26.68C104.511 25.82 105.611 25.4 106.971 25.4C108.571 25.4 109.911 26.14 110.611 27.4L112.991 26.02C111.791 24 109.511 22.72 106.971 22.72C104.871 22.72 103.131 23.42 101.751 24.82C100.371 26.2 99.6912 27.94 99.6912 30C99.6912 32.06 100.371 33.78 101.751 35.18C103.131 36.58 104.871 37.28 106.971 37.28ZM126.623 35.18C128.043 33.76 128.743 32.04 128.743 30C128.743 27.96 128.043 26.24 126.623 24.84C125.203 23.42 123.483 22.72 121.463 22.72C119.443 22.72 117.723 23.42 116.303 24.84C114.903 26.24 114.203 27.96 114.203 30C114.203 32.04 114.903 33.76 116.303 35.18C117.723 36.58 119.443 37.28 121.463 37.28C123.483 37.28 125.203 36.58 126.623 35.18ZM118.243 33.3C117.383 32.44 116.943 31.34 116.943 30C116.943 28.66 117.383 27.56 118.243 26.7C119.103 25.84 120.183 25.4 121.463 25.4C122.743 25.4 123.823 25.84 124.683 26.7C125.543 27.56 125.983 28.66 125.983 30C125.983 31.34 125.543 32.44 124.683 33.3C123.823 34.16 122.743 34.58 121.463 34.58C120.183 34.58 119.103 34.16 118.243 33.3ZM141.343 37L138.243 31.72C139.863 30.98 140.943 29.38 140.943 27.64C140.943 26.36 140.483 25.26 139.583 24.36C138.683 23.46 137.583 23 136.283 23H130.683V37H133.443V32.14H135.543L138.363 37H141.343ZM136.283 25.58C137.323 25.58 138.183 26.5 138.183 27.64C138.183 28.78 137.323 29.72 136.283 29.72H133.443V25.58H136.283ZM142.968 23V37H148.528C150.448 37 152.048 36.32 153.328 34.98C154.628 33.64 155.268 31.98 155.268 30C155.268 28.02 154.628 26.36 153.328 25.02C152.048 23.68 150.448 23 148.528 23H142.968ZM145.728 34.36V25.64H148.528C149.748 25.64 150.728 26.04 151.488 26.86C152.248 27.66 152.628 28.7 152.628 30C152.628 31.3 152.248 32.34 151.488 33.16C150.728 33.96 149.748 34.36 148.528 34.36H145.728Z" fill="white"/>
<defs>
<linearGradient id="paint0_linear_276_2121" x1="-58.5" y1="-21.5" x2="176" y2="60" gradientUnits="userSpaceOnUse">
<stop stop-color="#E5C2FF"/>
<stop offset="0.392797" stop-color="#D7B8F2"/>
<stop offset="1" stop-color="#4D58FF"/>
</linearGradient>
</defs>
</svg>
