<svg width="180" height="60" viewBox="0 0 180 60" fill="none" xmlns="http://www.w3.org/2000/svg">
<rect width="180" height="60" rx="8" fill="url(#paint0_linear_276_2122)"/>
<path d="M68.26 23V25.64H72.02V37H74.78V25.64H78.56V23H68.26ZM86.1608 37L88.7808 27.76L91.4208 37H94.5608L98.4808 23H95.5808L92.9008 33.38L89.9608 23H87.6008L84.6808 33.38L82.0008 23H79.1008L83.0208 37H86.1608ZM100.081 37H102.841V23H100.081V37ZM104.393 23V25.64H108.153V37H110.913V25.64H114.693V23H104.393ZM115.194 23V25.64H118.954V37H121.714V25.64H125.494V23H115.194ZM129.794 31.22H135.094V28.62H129.794V25.64H135.594V23H127.034V37H135.694V34.36H129.794V31.22ZM148.3 37L145.2 31.72C146.82 30.98 147.9 29.38 147.9 27.64C147.9 26.36 147.44 25.26 146.54 24.36C145.64 23.46 144.54 23 143.24 23H137.64V37H140.4V32.14H142.5L145.32 37H148.3ZM143.24 25.58C144.28 25.58 145.14 26.5 145.14 27.64C145.14 28.78 144.28 29.72 143.24 29.72H140.4V25.58H143.24Z" fill="white"/>
<path d="M58 20.957C56.8375 21.4562 55.6362 21.8018 54.3575 21.9555C55.675 21.1874 56.6825 19.9585 57.1475 18.4608C55.9075 19.1905 54.5513 19.6897 53.1175 19.9969C51.955 18.768 50.2887 18 48.4675 18C44.9412 18 42.1125 20.8418 42.1125 24.298C42.1125 24.7972 42.1512 25.2581 42.2675 25.7189C36.9975 25.4885 32.3475 22.9539 29.2088 19.1521C26.9613 23.1459 29.48 26.4485 31.1463 27.5622C30.1388 27.5622 29.1313 27.255 28.2788 26.7942C28.2788 29.9048 30.4875 32.4777 33.355 33.0538C32.735 33.2458 31.34 33.361 30.4875 33.169C31.3012 35.6651 33.665 37.5084 36.4163 37.5469C34.2463 39.2366 31.0687 40.5806 27 40.1582C29.8287 41.9631 33.1612 43 36.765 43C48.4675 43 54.8225 33.3994 54.8225 25.1045C54.8225 24.8356 54.8225 24.5668 54.7837 24.298C56.1012 23.3379 57.1862 22.2243 58 20.957Z" fill="white"/>
<defs>
<linearGradient id="paint0_linear_276_2122" x1="-58.5" y1="-21.5" x2="176" y2="60" gradientUnits="userSpaceOnUse">
<stop stop-color="#E5C2FF"/>
<stop offset="0.392797" stop-color="#D7B8F2"/>
<stop offset="1" stop-color="#4D58FF"/>
</linearGradient>
</defs>
</svg>
