<svg width="180" height="60" viewBox="0 0 180 60" fill="none" xmlns="http://www.w3.org/2000/svg">
<rect width="180" height="60" rx="8" fill="url(#paint0_linear_276_2123)"/>
<path d="M60.2591 23V25.64H64.0191V37H66.7791V25.64H70.5591V23H60.2591ZM74.8599 31.22H80.1599V28.62H74.8599V25.64H80.6599V23H72.0999V37H80.7599V34.36H74.8599V31.22ZM85.4654 23H82.7054V37H90.8054V34.36H85.4654V23ZM95.1334 31.22H100.433V28.62H95.1334V25.64H100.933V23H92.3734V37H101.033V34.36H95.1334V31.22ZM109.699 29.48V31.92H113.939C113.439 33.58 111.999 34.58 109.859 34.58C108.419 34.58 107.259 34.16 106.379 33.3C105.519 32.44 105.079 31.34 105.079 30.02C105.079 28.68 105.499 27.58 106.359 26.72C107.219 25.84 108.319 25.4 109.659 25.4C111.319 25.4 112.759 26.2 113.419 27.34L115.779 25.98C114.579 24 112.299 22.72 109.679 22.72C107.599 22.72 105.859 23.42 104.439 24.84C103.039 26.26 102.339 27.98 102.339 30.02C102.339 32.04 103.039 33.76 104.459 35.18C105.879 36.58 107.679 37.28 109.839 37.28C111.859 37.28 113.519 36.66 114.799 35.42C116.079 34.18 116.719 32.56 116.719 30.56V29.48H109.699ZM129.342 37L126.242 31.72C127.862 30.98 128.942 29.38 128.942 27.64C128.942 26.36 128.482 25.26 127.582 24.36C126.682 23.46 125.582 23 124.282 23H118.682V37H121.442V32.14H123.542L126.362 37H129.342ZM124.282 25.58C125.322 25.58 126.182 26.5 126.182 27.64C126.182 28.78 125.322 29.72 124.282 29.72H121.442V25.58H124.282ZM142.967 37L138.047 23H134.627L129.727 37H132.707L133.547 34.48H139.127L139.967 37H142.967ZM136.347 26.18L138.267 31.9H134.427L136.347 26.18ZM155.186 23L151.186 29.62L147.166 23H144.326V37H147.086V27.94L151.026 34.42H151.346L155.286 27.92V37H158.026V23H155.186Z" fill="white"/>
<path d="M31.7714 33.4767L31.2752 40.4566C31.9852 40.4566 32.2927 40.1516 32.6614 39.7854L35.9901 36.6042L42.8876 41.6554C44.1526 42.3604 45.0438 41.9891 45.3851 40.4916L49.9126 19.2767L49.9138 19.2755C50.3151 17.4055 49.2376 16.6743 48.0051 17.133L21.3927 27.3217C19.5765 28.0267 19.604 29.0392 21.084 29.4979L27.8877 31.6142L43.6913 21.7255C44.4351 21.233 45.1113 21.5055 44.5551 21.998L31.7714 33.4767Z" fill="white"/>
<defs>
<linearGradient id="paint0_linear_276_2123" x1="-58.5" y1="-21.5" x2="176" y2="60" gradientUnits="userSpaceOnUse">
<stop stop-color="#E5C2FF"/>
<stop offset="0.392797" stop-color="#D7B8F2"/>
<stop offset="1" stop-color="#4D58FF"/>
</linearGradient>
</defs>
</svg>
