<svg width="201" height="33" viewBox="0 0 201 33" fill="none" xmlns="http://www.w3.org/2000/svg">
<path d="M13.6641 0.1875V33H4.28906V9.5625H0.773438L4.28906 0.1875H13.6641ZM32.4141 33C27.8828 33 24.0156 31.3984 20.8125 28.1953C17.6094 24.9922 16.0078 21.125 16.0078 16.5938C16.0078 12.0625 17.6094 8.19531 20.8125 4.99219C24.0156 1.78906 27.8828 0.1875 32.4141 0.1875C36.9453 0.1875 40.8125 1.78906 44.0156 4.99219C47.2188 8.19531 48.8203 12.0625 48.8203 16.5938C48.8203 21.125 47.2188 24.9922 44.0156 28.1953C40.8125 31.3984 36.9453 33 32.4141 33ZM32.4141 23.625C34.3516 23.625 36.0078 22.9375 37.3828 21.5625C38.7578 20.1875 39.4453 18.5312 39.4453 16.5938C39.4453 14.6562 38.7578 13 37.3828 11.625C36.0078 10.25 34.3516 9.5625 32.4141 9.5625C30.4766 9.5625 28.8203 10.25 27.4453 11.625C26.0703 13 25.3828 14.6562 25.3828 16.5938C25.3828 18.5312 26.0703 20.1875 27.4453 21.5625C28.8203 22.9375 30.4766 23.625 32.4141 23.625ZM67.5703 33C63.0391 33 59.1719 31.3984 55.9688 28.1953C52.7656 24.9922 51.1641 21.125 51.1641 16.5938C51.1641 12.0625 52.7656 8.19531 55.9688 4.99219C59.1719 1.78906 63.0391 0.1875 67.5703 0.1875C72.1016 0.1875 75.9688 1.78906 79.1719 4.99219C82.375 8.19531 83.9766 12.0625 83.9766 16.5938C83.9766 21.125 82.375 24.9922 79.1719 28.1953C75.9688 31.3984 72.1016 33 67.5703 33ZM67.5703 23.625C69.5078 23.625 71.1641 22.9375 72.5391 21.5625C73.9141 20.1875 74.6016 18.5312 74.6016 16.5938C74.6016 14.6562 73.9141 13 72.5391 11.625C71.1641 10.25 69.5078 9.5625 67.5703 9.5625C65.6328 9.5625 63.9766 10.25 62.6016 11.625C61.2266 13 60.5391 14.6562 60.5391 16.5938C60.5391 18.5312 61.2266 20.1875 62.6016 21.5625C63.9766 22.9375 65.6328 23.625 67.5703 23.625ZM91.0078 33C89.7109 33 88.6016 32.5469 87.6797 31.6406C86.7734 30.7188 86.3203 29.6094 86.3203 28.3125C86.3203 27.0156 86.7734 25.9141 87.6797 25.0078C88.6016 24.0859 89.7109 23.625 91.0078 23.625C92.3047 23.625 93.4062 24.0859 94.3125 25.0078C95.2344 25.9141 95.6953 27.0156 95.6953 28.3125C95.6953 29.6094 95.2344 30.7188 94.3125 31.6406C93.4062 32.5469 92.3047 33 91.0078 33ZM114.445 33C109.914 33 106.047 31.3984 102.844 28.1953C99.6406 24.9922 98.0391 21.125 98.0391 16.5938C98.0391 12.0625 99.6406 8.19531 102.844 4.99219C106.047 1.78906 109.914 0.1875 114.445 0.1875C118.977 0.1875 122.844 1.78906 126.047 4.99219C129.25 8.19531 130.852 12.0625 130.852 16.5938C130.852 21.125 129.25 24.9922 126.047 28.1953C122.844 31.3984 118.977 33 114.445 33ZM114.445 23.625C116.383 23.625 118.039 22.9375 119.414 21.5625C120.789 20.1875 121.477 18.5312 121.477 16.5938C121.477 14.6562 120.789 13 119.414 11.625C118.039 10.25 116.383 9.5625 114.445 9.5625C112.508 9.5625 110.852 10.25 109.477 11.625C108.102 13 107.414 14.6562 107.414 16.5938C107.414 18.5312 108.102 20.1875 109.477 21.5625C110.852 22.9375 112.508 23.625 114.445 23.625ZM148.664 33C144.133 33 140.266 31.3984 137.062 28.1953C133.859 24.9922 132.258 21.125 132.258 16.5938C132.258 12.0625 133.859 8.19531 137.062 4.99219C140.266 1.78906 144.133 0.1875 148.664 0.1875C153.195 0.1875 157.062 1.78906 160.266 4.99219C163.469 8.19531 165.07 12.0625 165.07 16.5938C165.07 21.125 163.469 24.9922 160.266 28.1953C157.062 31.3984 153.195 33 148.664 33ZM148.664 23.625C150.602 23.625 152.258 22.9375 153.633 21.5625C155.008 20.1875 155.695 18.5312 155.695 16.5938C155.695 14.6562 155.008 13 153.633 11.625C152.258 10.25 150.602 9.5625 148.664 9.5625C146.727 9.5625 145.07 10.25 143.695 11.625C142.32 13 141.633 14.6562 141.633 16.5938C141.633 18.5312 142.32 20.1875 143.695 21.5625C145.07 22.9375 146.727 23.625 148.664 23.625ZM183.82 33C179.289 33 175.422 31.3984 172.219 28.1953C169.016 24.9922 167.414 21.125 167.414 16.5938C167.414 12.0625 169.016 8.19531 172.219 4.99219C175.422 1.78906 179.289 0.1875 183.82 0.1875C188.352 0.1875 192.219 1.78906 195.422 4.99219C198.625 8.19531 200.227 12.0625 200.227 16.5938C200.227 21.125 198.625 24.9922 195.422 28.1953C192.219 31.3984 188.352 33 183.82 33ZM183.82 23.625C185.758 23.625 187.414 22.9375 188.789 21.5625C190.164 20.1875 190.852 18.5312 190.852 16.5938C190.852 14.6562 190.164 13 188.789 11.625C187.414 10.25 185.758 9.5625 183.82 9.5625C181.883 9.5625 180.227 10.25 178.852 11.625C177.477 13 176.789 14.6562 176.789 16.5938C176.789 18.5312 177.477 20.1875 178.852 21.5625C180.227 22.9375 181.883 23.625 183.82 23.625Z" fill="url(#paint0_linear_73_1801)"/>
<defs>
<linearGradient id="paint0_linear_73_1801" x1="-49.5" y1="-46.4231" x2="267.862" y2="55.6813" gradientUnits="userSpaceOnUse">
<stop stop-color="#2A49F9"/>
<stop offset="1" stop-color="#00FFFB"/>
</linearGradient>
</defs>
</svg>
