<svg width="210" height="70" viewBox="0 0 210 70" fill="none" xmlns="http://www.w3.org/2000/svg">
<g filter="url(#filter0_f_73_1833)">
<rect x="5" y="5" width="200" height="60" rx="6" fill="#5BCDDA"/>
</g>
<rect x="5.5" y="5.5" width="199" height="59" rx="5.5" fill="white" stroke="url(#paint0_linear_73_1833)"/>
<path d="M68.9574 22.386H71.8824C71.7394 22.971 71.4924 23.465 71.1414 23.777C70.6604 24.232 69.9974 24.544 69.0094 24.544C67.2934 24.544 65.8374 23.283 65.8374 21.346C65.8374 19.409 67.2804 18.148 68.9834 18.148C70.0234 18.148 70.7254 18.499 71.3364 19.136L72.5454 17.953C71.7004 17.03 70.5044 16.484 68.9964 16.484C66.2924 16.484 64.0824 18.538 64.0824 21.346C64.0824 24.154 66.2924 26.208 68.9964 26.208C70.4914 26.208 71.6484 25.701 72.4804 24.817C73.2604 23.985 73.6114 22.906 73.6114 21.71C73.6114 21.411 73.5724 21.099 73.5204 20.891H68.9574V22.386ZM80.7039 18.356V16.692H74.8019V26H80.7039V24.336H76.5569V22.178H80.2879V20.514H76.5569V18.356H80.7039ZM85.7885 26V18.356H88.3885V16.692H81.4335V18.356H84.0335V26H85.7885ZM91.973 26H93.728V16.692H91.973V26ZM99.0749 26V18.356H101.675V16.692H94.7199V18.356H97.3199V26H99.0749ZM109.413 26.208C112.182 26.208 114.275 24.063 114.275 21.346C114.275 18.629 112.182 16.484 109.413 16.484C106.644 16.484 104.551 18.629 104.551 21.346C104.551 24.063 106.644 26.208 109.413 26.208ZM109.413 24.544C107.684 24.544 106.306 23.257 106.306 21.346C106.306 19.435 107.684 18.148 109.413 18.148C111.142 18.148 112.52 19.435 112.52 21.346C112.52 23.257 111.142 24.544 109.413 24.544ZM115.435 26H117.164V21.203L117.06 19.409H117.164L121.116 26H122.962V16.692H121.22V21.138L121.324 22.932H121.22L117.476 16.692H115.435V26Z" fill="#100A12"/>
<path d="M74.3134 44.772H80.1634C79.8774 45.942 79.3834 46.93 78.6814 47.554C77.7194 48.464 76.3934 49.088 74.4174 49.088C70.9854 49.088 68.0734 46.566 68.0734 42.692C68.0734 38.818 70.9594 36.296 74.3654 36.296C76.4454 36.296 77.8494 36.998 79.0714 38.272L81.4894 35.906C79.7994 34.06 77.4074 32.968 74.3914 32.968C68.9834 32.968 64.5634 37.076 64.5634 42.692C64.5634 48.308 68.9834 52.416 74.3914 52.416C77.3814 52.416 79.6954 51.402 81.3594 49.634C82.9194 47.97 83.6214 45.812 83.6214 43.42C83.6214 42.822 83.5434 42.198 83.4394 41.782H74.3134V44.772ZM90.7113 38.844C86.7853 38.844 83.9513 41.678 83.9513 45.63C83.9513 49.582 86.7853 52.416 90.7113 52.416C94.6373 52.416 97.4713 49.582 97.4713 45.63C97.4713 41.678 94.6373 38.844 90.7113 38.844ZM90.7113 49.27C88.9433 49.27 87.3573 47.918 87.3573 45.63C87.3573 43.342 88.9433 41.99 90.7113 41.99C92.4793 41.99 94.0653 43.342 94.0653 45.63C94.0653 47.918 92.4793 49.27 90.7113 49.27ZM104.392 38.844C100.466 38.844 97.6318 41.678 97.6318 45.63C97.6318 49.582 100.466 52.416 104.392 52.416C108.318 52.416 111.152 49.582 111.152 45.63C111.152 41.678 108.318 38.844 104.392 38.844ZM104.392 49.27C102.624 49.27 101.038 47.918 101.038 45.63C101.038 43.342 102.624 41.99 104.392 41.99C106.16 41.99 107.746 43.342 107.746 45.63C107.746 47.918 106.16 49.27 104.392 49.27ZM117.916 58.032C121.92 58.032 124.65 55.38 124.65 51.09V39.26H121.4V40.638H121.192C120.386 39.52 119.086 38.844 117.318 38.844C114.302 38.844 111.312 41.444 111.312 45.5C111.312 49.53 114.302 52.13 117.318 52.13C119.086 52.13 120.386 51.454 121.192 50.336H121.4V51.22C121.4 53.612 120.074 55.016 117.916 55.016C116.564 55.016 115.368 54.236 114.874 52.884L111.624 54.184C112.248 55.952 114.354 58.032 117.916 58.032ZM118.046 49.062C116.382 49.062 114.718 47.788 114.718 45.5C114.718 43.212 116.382 41.912 118.046 41.912C119.736 41.912 121.4 43.186 121.4 45.5C121.4 47.788 119.736 49.062 118.046 49.062ZM129.66 52V33.384H126.254V52H129.66ZM140.379 47.528C139.781 48.594 138.793 49.4 137.233 49.4C135.647 49.4 134.061 48.49 133.775 46.41H143.369C143.369 46.306 143.369 46.202 143.395 46.124C143.395 46.046 143.395 45.942 143.421 45.838V45.526C143.421 41.704 141.159 38.844 137.051 38.844C133.203 38.844 130.421 41.964 130.421 45.63C130.421 49.556 133.307 52.416 137.181 52.416C140.067 52.416 142.043 51.012 143.213 48.932L140.379 47.528ZM133.957 43.992C134.399 42.51 135.595 41.626 137.051 41.626C139.105 41.626 140.041 43.056 140.119 43.992H133.957ZM152.635 52V45.162H155.677C159.213 45.162 162.021 42.77 162.021 39.26C162.021 35.802 159.213 33.384 155.677 33.384H149.125V52H152.635ZM152.635 41.834V36.712H155.729C157.601 36.712 158.511 37.908 158.511 39.26C158.511 40.612 157.575 41.834 155.729 41.834H152.635ZM166.329 52V33.384H162.923V52H166.329ZM175.67 52H179.024V44.356C179.024 40.716 176.892 38.844 172.94 38.844C170.6 38.844 168.754 39.702 167.402 41.392L169.872 43.082C170.678 42.094 171.692 41.6 172.862 41.6C174.448 41.6 175.67 42.588 175.67 43.94V44.33C174.968 44.044 173.954 43.732 172.29 43.732C169.3 43.732 167.09 45.422 167.09 48.048C167.09 50.622 169.196 52.416 171.848 52.416C173.616 52.416 174.656 51.61 175.462 50.648H175.67V52ZM175.67 46.826C175.67 48.36 174.422 49.764 172.602 49.764C171.484 49.764 170.496 49.088 170.496 48.048C170.496 47.008 171.406 46.202 173.044 46.202C174.058 46.202 174.864 46.436 175.67 46.826ZM181.349 57.616H185.015L192.997 39.26H189.201L186.107 46.982H185.925L182.701 39.26H178.827L184.183 51.376L181.349 57.616Z" fill="#100A12"/>
<path d="M51.9717 32.1511L45.5364 28.4342L38.9482 35.0224L45.5359 41.6102L51.9935 37.881C53.0005 37.2692 53.6014 36.2004 53.6014 35.0224C53.6014 33.8444 53.0001 32.7757 51.9717 32.1511Z" fill="#FFCE00"/>
<path d="M38.9482 35.0224L21.0032 16.9482C20.379 17.5724 20 18.4193 20 19.3555V50.6342C20 51.5704 20.379 52.4173 21.0032 53.042L38.9482 35.0224Z" fill="url(#paint1_linear_73_1833)"/>
<path d="M38.9481 35.0224L45.5363 28.4342L45.5468 28.4237L36.7194 23.3412L25.0829 16.5022C24.0351 15.8557 22.7644 15.8334 21.6943 16.4352C21.4492 16.591 21.2259 16.7473 21.0031 16.9477L38.9481 35.0224Z" fill="#00F076"/>
<path d="M21.0031 53.0415C21.2259 53.242 21.4492 53.3983 21.6943 53.5541C22.2291 53.8438 22.7868 54.0001 23.3439 54.0001C23.9458 54.0001 24.5253 53.822 25.0606 53.5099L36.7189 46.7036L45.5463 41.6211L45.5359 41.6107L38.9481 35.0225L21.0031 53.0415Z" fill="#F63448"/>
<defs>
<filter id="filter0_f_73_1833" x="0" y="0" width="210" height="70" filterUnits="userSpaceOnUse" color-interpolation-filters="sRGB">
<feFlood flood-opacity="0" result="BackgroundImageFix"/>
<feBlend mode="normal" in="SourceGraphic" in2="BackgroundImageFix" result="shape"/>
<feGaussianBlur stdDeviation="2.5" result="effect1_foregroundBlur_73_1833"/>
</filter>
<linearGradient id="paint0_linear_73_1833" x1="11" y1="4.99999" x2="181.5" y2="72.5" gradientUnits="userSpaceOnUse">
<stop stop-color="#5BCDDA"/>
<stop offset="1" stop-color="#2E72D2"/>
</linearGradient>
<linearGradient id="paint1_linear_73_1833" x1="11.9801" y1="44.0184" x2="30.0267" y2="25.9713" gradientUnits="userSpaceOnUse">
<stop stop-color="#00E2FF"/>
<stop offset="1" stop-color="#00C5FF"/>
</linearGradient>
</defs>
</svg>
