<svg width="260" height="131" viewBox="0 0 260 131" fill="none" xmlns="http://www.w3.org/2000/svg">
<path d="M90.6288 19.352H76.5488V2.2H66.3088V47H76.5488V29.208H90.6288V47H100.869V2.2H90.6288V19.352ZM117.071 10.584C119.311 8.344 119.311 4.952 117.071 2.776C114.831 0.599998 111.375 0.599998 109.071 2.776C106.895 4.952 106.895 8.344 109.071 10.584C111.375 12.696 114.831 12.696 117.071 10.584ZM117.839 47V15H108.239V47H117.839ZM148.352 18.264C146.112 15.512 143.04 14.104 139.008 14.104C134.528 14.104 130.752 15.704 127.744 18.904C124.736 22.04 123.264 25.88 123.264 30.36C123.264 34.84 124.736 38.68 127.744 41.88C130.752 45.016 134.528 46.616 139.008 46.616C143.04 46.616 146.112 45.208 148.352 42.456V45.4C148.352 49.816 145.664 52.248 141.12 52.248C137.728 52.248 135.296 50.904 133.824 48.216L125.632 52.952C128.512 58.136 133.568 60.696 140.8 60.696C145.472 60.696 149.504 59.416 152.768 56.792C156.032 54.232 157.696 50.456 157.696 45.4V15H148.352V18.264ZM135.04 35.736C133.568 34.392 132.864 32.6 132.864 30.36C132.864 28.12 133.568 26.328 135.04 24.984C136.512 23.64 138.368 22.936 140.608 22.936C142.848 22.936 144.704 23.64 146.176 24.984C147.648 26.328 148.352 28.12 148.352 30.36C148.352 32.6 147.648 34.392 146.176 35.736C144.704 37.08 142.848 37.784 140.608 37.784C138.368 37.784 136.512 37.08 135.04 35.736ZM183.491 14.104C179.331 14.104 176.259 15.384 174.339 18.008V2.2H164.739V47H174.339V29.528C174.339 25.176 176.643 22.936 180.291 22.936C183.555 22.936 185.859 24.984 185.859 28.76V47H195.459V27.352C195.459 23.192 194.307 19.992 192.003 17.624C189.763 15.256 186.883 14.104 183.491 14.104ZM18.5825 117.896C23.5105 117.896 27.5425 116.68 30.6145 114.248C33.6865 111.752 35.2225 108.424 35.2225 104.136C35.2225 100.488 33.7505 97.544 32.1505 95.816C31.3825 94.92 30.2305 94.088 28.6945 93.32C27.2225 92.488 25.9425 91.912 24.9825 91.592L20.8225 90.248C17.5585 89.288 15.3825 88.392 14.2945 87.56C13.2705 86.728 12.7585 85.768 12.7585 84.68C12.7585 82.824 14.4865 81.288 17.5585 81.288C21.4625 81.288 23.7025 83.08 25.3025 86.472L33.9425 81.416C30.6785 74.824 24.9185 71.304 17.5585 71.304C13.4625 71.304 9.9425 72.52 6.9345 75.016C3.9905 77.512 2.5185 80.776 2.5185 84.936C2.5185 89.032 3.9905 92.232 6.6145 94.344C9.3665 96.392 11.9265 97.544 15.7025 98.568C19.2865 99.528 21.7185 100.424 22.9985 101.192C24.3425 101.896 24.9825 102.92 24.9825 104.264C24.9825 106.696 22.9345 107.912 18.9025 107.912C14.4225 107.912 11.2865 105.864 9.4945 101.704L0.6625 106.824C3.2225 113.672 9.4305 117.896 18.5825 117.896ZM71.316 104.84C71.572 103.624 71.7 102.344 71.7 101C71.7 96.2 70.164 92.168 67.028 88.968C63.956 85.704 60.116 84.104 55.444 84.104C50.452 84.104 46.356 85.704 43.156 88.968C40.02 92.168 38.42 96.2 38.42 101C38.42 105.864 40.02 109.896 43.22 113.096C46.484 116.296 50.772 117.896 56.148 117.896C62.292 117.896 66.964 115.72 70.1 111.304L62.42 106.888C60.948 108.488 58.9 109.32 56.276 109.32C52.244 109.32 49.684 107.848 48.596 104.84H71.316ZM48.404 97.672C49.364 94.28 51.668 92.616 55.38 92.616C58.964 92.616 61.204 94.28 62.164 97.672H48.404ZM92.505 117.896C98.713 117.896 104.153 114.696 106.969 109.64L98.585 104.84C97.497 107.208 95.385 108.424 92.377 108.424C88.217 108.424 85.145 105.352 85.145 101C85.145 96.648 88.217 93.576 92.377 93.576C95.385 93.576 97.433 94.792 98.585 97.16L106.969 92.296C104.153 87.368 98.649 84.104 92.505 84.104C87.641 84.104 83.609 85.704 80.345 88.968C77.145 92.232 75.545 96.2 75.545 101C75.545 105.8 77.145 109.768 80.345 113.032C83.609 116.296 87.641 117.896 92.505 117.896ZM131.817 102.472C131.817 106.824 129.513 109.064 125.865 109.064C122.601 109.064 120.297 107.016 120.297 103.24V85H110.697V104.648C110.697 108.808 111.849 112.008 114.089 114.376C116.393 116.744 119.273 117.896 122.665 117.896C126.825 117.896 129.897 116.616 131.817 113.992V117H141.417V85H131.817V102.472ZM158.058 85H148.458V117H158.058V102.536C158.058 99.656 159.082 97.608 161.066 96.456C163.114 95.24 165.29 94.856 167.658 95.24V84.36C163.306 84.36 159.274 86.6 158.058 90.696V85ZM180.977 80.584C183.217 78.344 183.217 74.952 180.977 72.776C178.737 70.6 175.281 70.6 172.977 72.776C170.801 74.952 170.801 78.344 172.977 80.584C175.281 82.696 178.737 82.696 180.977 80.584ZM181.745 117V85H172.145V117H181.745ZM207.522 85H200.93V76.04L191.33 78.92V85H186.21V94.216H191.33V105.544C191.33 110.216 192.482 113.416 194.85 115.272C197.218 117.064 201.442 117.64 207.522 117V108.296C202.85 108.552 200.93 108.104 200.93 105.544V94.216H207.522V85ZM227.727 104.584L220.623 85H210.062L222.799 115.528C221.327 119.432 219.215 120.84 214.799 120.84V129.8C223.823 130.248 229.455 126.088 233.039 116.04L243.983 85H233.743L227.727 104.584ZM257.248 94.344C259.616 91.976 259.616 88.136 257.248 85.768C254.88 83.4 251.04 83.4 248.672 85.768C246.304 88.136 246.304 91.976 248.672 94.344C251.04 96.712 254.88 96.712 257.248 94.344ZM257.248 116.104C259.616 113.736 259.616 109.896 257.248 107.528C254.88 105.16 251.04 105.16 248.672 107.528C246.304 109.896 246.304 113.736 248.672 116.104C251.04 118.472 254.88 118.472 257.248 116.104Z" fill="url(#paint0_linear_73_1791)"/>
<defs>
<linearGradient id="paint0_linear_73_1791" x1="-25.5" y1="-16.5" x2="233.115" y2="-124.122" gradientUnits="userSpaceOnUse">
<stop stop-color="#00FFFB"/>
<stop offset="1" stop-color="#EEEEEE"/>
</linearGradient>
</defs>
</svg>
