<svg width="40" height="33" viewBox="0 0 40 33" fill="none" xmlns="http://www.w3.org/2000/svg">
<path d="M40 3.81547C38.5 4.45964 36.95 4.9056 35.3 5.10381C37 4.11278 38.3 2.52713 38.9 0.594619C37.3 1.5361 35.55 2.18027 33.7 2.57668C32.2 0.991032 30.05 0 27.7 0C23.15 0 19.5 3.66682 19.5 8.12646C19.5 8.77063 19.55 9.36524 19.7 9.95986C12.9 9.66255 6.9 6.39215 2.85 1.48655C-0.0499997 6.63991 3.2 10.9013 5.35 12.3383C4.05 12.3383 2.75 11.9419 1.65 11.3473C1.65 15.361 4.5 18.6809 8.2 19.4242C7.4 19.672 5.6 19.8206 4.5 19.5729C5.55 22.7937 8.6 25.1722 12.15 25.2217C9.35 27.402 5.25 29.1363 0 28.5912C3.65 30.9202 7.95 32.2581 12.6 32.2581C27.7 32.2581 35.9 19.8702 35.9 9.16704C35.9 8.82018 35.9 8.47332 35.85 8.12646C37.55 6.88767 38.95 5.45067 40 3.81547Z" fill="white"/>
</svg>
