<svg width="210" height="206" viewBox="0 0 210 206" fill="none" xmlns="http://www.w3.org/2000/svg">
<g filter="url(#filter0_f_261_4)">
<ellipse cx="105.147" cy="102.704" rx="54.1934" ry="52.6596" transform="rotate(-3.3141 105.147 102.704)" fill="#7DB1EF"/>
</g>
<path d="M127.404 66.5881C131.633 69.0301 135.047 74.9317 135.024 79.7931L134.685 198.232C134.663 203.093 131.226 205.038 127.02 202.596L82.1589 176.706C77.9306 174.264 74.5163 168.362 74.5389 163.501L74.878 45.062C74.878 40.2005 78.315 38.2333 82.5433 40.6754L127.404 66.5881ZM131 196.106L131.339 77.645C131.339 75.1352 129.575 72.0826 127.404 70.8164L82.5433 44.9263C80.3726 43.6601 78.5863 44.6776 78.5637 47.1875L78.2245 165.649C78.2245 168.158 79.9882 171.211 82.1589 172.477L127.02 198.367C129.213 199.634 131 198.616 131 196.106Z" fill="url(#paint0_linear_261_4)"/>
<path d="M127.404 70.8165C129.598 72.0827 131.361 75.1353 131.339 77.6451L131 196.106C131 198.616 129.213 199.634 127.02 198.367L82.1815 172.477C80.0108 171.211 78.2245 168.159 78.2471 165.649L78.5863 47.1876C78.5863 44.6777 80.3726 43.6602 82.5659 44.9264L127.404 70.8165Z" fill="url(#paint1_linear_261_4)"/>
<path d="M142.983 74.7962C142.983 74.7736 142.983 74.7509 142.983 74.7283C142.983 74.6831 142.983 74.6379 142.983 74.5927C142.983 74.5474 142.983 74.4796 142.983 74.4344C142.983 74.3892 142.983 74.3439 142.983 74.2987C142.983 74.2535 142.983 74.2083 142.961 74.1631C142.961 74.1404 142.961 74.0952 142.961 74.0726C142.961 74.0048 142.938 73.9369 142.938 73.8691C142.938 73.8239 142.938 73.7787 142.916 73.756C142.916 73.7334 142.916 73.7334 142.916 73.7108C142.893 73.5752 142.87 73.4621 142.87 73.3264C142.87 73.3038 142.87 73.2812 142.87 73.2812C142.848 73.1682 142.825 73.0777 142.825 72.9646C142.825 72.942 142.825 72.9194 142.803 72.8968C142.803 72.8516 142.78 72.7838 142.78 72.7385C142.757 72.6707 142.757 72.6029 142.735 72.5576C142.735 72.5124 142.712 72.4898 142.712 72.4446C142.69 72.3994 142.69 72.3315 142.667 72.2863C142.667 72.2411 142.644 72.1959 142.644 72.1506C142.622 72.1054 142.622 72.0376 142.599 71.9924C142.576 71.9471 142.576 71.8793 142.554 71.8341C142.554 71.8115 142.531 71.7889 142.531 71.7436C142.509 71.6758 142.486 71.5854 142.463 71.5175C142.441 71.4723 142.441 71.4271 142.418 71.3818C142.418 71.3592 142.418 71.3592 142.396 71.3366C142.35 71.201 142.305 71.0653 142.26 70.9522C142.26 70.9296 142.26 70.9296 142.237 70.907C142.192 70.794 142.169 70.6809 142.124 70.5678C142.124 70.5452 142.102 70.5226 142.102 70.5226C142.079 70.4774 142.079 70.4322 142.056 70.3869C142.034 70.3191 142.011 70.2513 141.989 70.2061C141.966 70.1608 141.966 70.1156 141.943 70.093C141.921 70.0478 141.898 70.0026 141.876 69.9573C141.853 69.9121 141.853 69.8895 141.83 69.8443C141.808 69.7764 141.762 69.7086 141.74 69.6408C141.717 69.5955 141.717 69.5729 141.695 69.5277C141.695 69.5051 141.672 69.5051 141.672 69.4825C141.627 69.3694 141.559 69.2338 141.514 69.1207C141.514 69.1207 141.514 69.1207 141.514 69.0981C141.491 69.0529 141.469 69.0303 141.469 68.985C141.423 68.8946 141.378 68.8041 141.333 68.7137C141.333 68.6911 141.31 68.6911 141.31 68.6685C141.265 68.6006 141.242 68.5102 141.197 68.4424C141.175 68.3745 141.129 68.3293 141.107 68.2615L141.084 68.2389C140.971 68.0354 140.858 67.8545 140.745 67.651C140.745 67.6284 140.722 67.6284 140.722 67.6057C140.7 67.5605 140.655 67.5153 140.632 67.4475C140.587 67.357 140.541 67.2892 140.496 67.2214C140.451 67.1535 140.406 67.0857 140.361 67.0178C140.315 66.95 140.27 66.8596 140.202 66.7917C140.18 66.7691 140.18 66.7465 140.157 66.7239C140.134 66.7013 140.134 66.6787 140.112 66.6561C139.976 66.4526 139.818 66.2491 139.682 66.0456C139.569 65.9099 139.479 65.7742 139.366 65.6386C139.366 65.6386 139.366 65.6159 139.343 65.6159C139.253 65.5255 139.185 65.4124 139.094 65.322C139.072 65.2994 139.072 65.2768 139.049 65.2542C138.959 65.1411 138.846 65.028 138.755 64.915C138.755 64.915 138.755 64.915 138.733 64.8924C138.71 64.8472 138.665 64.8245 138.642 64.8019C138.574 64.7341 138.506 64.6663 138.461 64.5984C138.439 64.5758 138.439 64.5758 138.416 64.5532C138.371 64.508 138.326 64.4628 138.28 64.4175C138.235 64.3723 138.19 64.3045 138.145 64.2593C138.122 64.2366 138.099 64.214 138.099 64.214C138.054 64.1688 138.009 64.1236 137.964 64.0784C137.919 64.0331 137.873 63.9879 137.851 63.9653C137.828 63.9427 137.805 63.9201 137.783 63.8975C137.738 63.8523 137.67 63.807 137.625 63.7618C137.579 63.7392 137.557 63.694 137.512 63.6714C137.489 63.6488 137.444 63.6261 137.421 63.6035C137.376 63.5583 137.308 63.5131 137.263 63.4679C137.24 63.4452 137.195 63.4226 137.172 63.3774C137.127 63.3548 137.105 63.3096 137.059 63.287C137.014 63.2417 136.946 63.1965 136.901 63.1513C136.878 63.1287 136.856 63.1061 136.811 63.0835C136.765 63.0382 136.72 63.0156 136.675 62.993C136.63 62.9478 136.584 62.9252 136.539 62.88C136.517 62.8574 136.494 62.8573 136.471 62.8347C136.404 62.7895 136.358 62.7443 136.291 62.6991C136.245 62.6765 136.2 62.6312 136.177 62.6086L136.155 62.586C136.042 62.5182 135.929 62.4503 135.838 62.3825C135.838 62.3825 135.816 62.3825 135.816 62.3599C135.725 62.2921 135.612 62.2468 135.522 62.179C135.499 62.1564 135.477 62.1564 135.454 62.1338L129.191 65.5255L135.363 61.9303L90.5024 36.0402C90.412 35.995 90.3441 35.9498 90.2537 35.9046C90.2311 35.8819 90.1859 35.8819 90.1632 35.8593C90.118 35.8367 90.0728 35.8141 90.0502 35.7915C90.0276 35.7689 89.9823 35.7463 89.9597 35.7463C89.9145 35.7237 89.8467 35.701 89.8015 35.6784C89.7562 35.6558 89.7336 35.6332 89.6884 35.6332C89.6658 35.6332 89.6658 35.6106 89.6432 35.6106C89.5301 35.5654 89.4397 35.5202 89.3266 35.4749C89.2136 35.4297 89.1231 35.3845 89.0101 35.3619C88.9874 35.3619 88.9874 35.3619 88.9648 35.3393C88.9196 35.3167 88.897 35.3167 88.8518 35.294C88.8066 35.2714 88.7387 35.2488 88.6935 35.2488C88.6709 35.2488 88.6483 35.2262 88.6257 35.2262C88.6031 35.2262 88.5578 35.2036 88.5126 35.2036C88.4674 35.2036 88.4448 35.181 88.3995 35.181C88.3543 35.181 88.3317 35.1584 88.2865 35.1584C88.2413 35.1584 88.196 35.1358 88.1508 35.1358C88.1282 35.1358 88.1056 35.1358 88.083 35.1132C88.0378 35.1132 87.9925 35.0905 87.9473 35.0905C87.9021 35.0905 87.8343 35.0679 87.789 35.0679C87.7664 35.0679 87.7438 35.0679 87.7438 35.0679C87.6986 35.0679 87.6534 35.0679 87.6082 35.0453C87.5629 35.0453 87.4951 35.0227 87.4499 35.0227C87.4273 35.0227 87.4273 35.0227 87.4046 35.0227C87.3594 35.0227 87.3368 35.0227 87.2916 35.0227C87.2238 35.0227 87.1559 35.0227 87.0881 35.0227C87.0655 35.0227 87.0429 35.0227 87.0429 35.0227C87.0203 35.0227 86.9976 35.0227 86.9524 35.0227C86.862 35.0227 86.7941 35.0227 86.7037 35.0453C86.6811 35.0453 86.6585 35.0453 86.6359 35.0453C86.6132 35.0453 86.5906 35.0453 86.5906 35.0453C86.4776 35.0679 86.3419 35.0679 86.2289 35.0905H86.2062C86.1836 35.0905 86.161 35.1132 86.1384 35.1132C86.0706 35.1358 86.0027 35.1358 85.9123 35.1584C85.8671 35.1584 85.8445 35.181 85.7992 35.181C85.754 35.2036 85.7088 35.2036 85.6636 35.2262C85.641 35.2262 85.641 35.2262 85.641 35.2488C85.5731 35.2714 85.5053 35.294 85.4375 35.3393C85.4148 35.3619 85.3696 35.3619 85.347 35.3845C85.2566 35.4071 85.1661 35.4523 85.0757 35.5202L77.1165 40.1555C77.2069 40.1103 77.2973 40.0424 77.4104 39.9972C77.433 39.9746 77.4782 39.9746 77.5008 39.952C77.5687 39.9294 77.6365 39.8842 77.7044 39.8615C77.7496 39.8389 77.8174 39.8163 77.8626 39.8163C77.9079 39.8163 77.9305 39.7937 77.9757 39.7937C78.0435 39.7711 78.1114 39.7485 78.2018 39.7485C78.2244 39.7485 78.247 39.7259 78.2696 39.7259C78.2922 39.7259 78.2922 39.7259 78.3149 39.7259C78.4279 39.7033 78.541 39.6807 78.6766 39.6807C78.7219 39.6807 78.7671 39.6807 78.8123 39.6807C78.9028 39.6807 78.9706 39.6807 79.061 39.658C79.1063 39.658 79.1515 39.658 79.1967 39.658C79.2645 39.658 79.3324 39.658 79.4002 39.658C79.4454 39.658 79.5133 39.658 79.5585 39.658C79.6037 39.658 79.6715 39.658 79.7168 39.6807C79.7846 39.6807 79.8298 39.7033 79.8977 39.7033C79.9429 39.7033 80.0107 39.7259 80.0559 39.7259C80.1238 39.7259 80.1916 39.7485 80.2594 39.7711C80.3047 39.7711 80.3499 39.7937 80.3951 39.7937C80.4629 39.8163 80.5308 39.8163 80.5986 39.8389C80.6438 39.8615 80.6891 39.8615 80.7343 39.8842C80.8021 39.9068 80.8926 39.9294 80.9604 39.952C81.0056 39.9746 81.0282 39.9746 81.0735 39.9972C81.1865 40.0424 81.2996 40.0877 81.4126 40.1329C81.5257 40.1781 81.6387 40.2233 81.7744 40.2912C81.8196 40.3138 81.8422 40.3364 81.8875 40.3364C81.9779 40.3816 82.0457 40.4268 82.1362 40.4494C82.1814 40.4721 82.2266 40.4947 82.2719 40.5173C82.3849 40.5851 82.498 40.6303 82.611 40.6982L127.472 66.5882C127.608 66.6561 127.721 66.7465 127.856 66.8143C127.856 66.8143 127.879 66.8143 127.879 66.837C127.992 66.9048 128.128 66.9952 128.241 67.0857C128.286 67.1083 128.331 67.1535 128.354 67.1761C128.444 67.2214 128.512 67.2892 128.58 67.357C128.625 67.4022 128.67 67.4249 128.716 67.4701C128.784 67.5153 128.851 67.5831 128.919 67.6284C128.964 67.6736 129.032 67.7188 129.077 67.764C129.145 67.8092 129.213 67.8771 129.281 67.9449C129.326 67.9901 129.394 68.0354 129.439 68.0806C129.507 68.1484 129.575 68.1936 129.643 68.2615C129.688 68.3067 129.756 68.3519 129.801 68.3971C129.869 68.465 129.937 68.5328 130.005 68.578C130.05 68.6233 130.095 68.6685 130.14 68.7137C130.208 68.7815 130.276 68.8494 130.344 68.9172C130.389 68.9624 130.434 69.0077 130.479 69.0529C130.547 69.1433 130.638 69.2112 130.705 69.3016C130.728 69.3468 130.773 69.3694 130.796 69.4147C130.909 69.5277 130.999 69.6634 131.113 69.7764C131.135 69.7991 131.135 69.8217 131.158 69.8443C131.248 69.9573 131.339 70.0478 131.406 70.1608C131.52 70.2965 131.633 70.4322 131.723 70.5905C131.881 70.794 132.017 70.9975 132.153 71.201C132.175 71.2462 132.22 71.2914 132.243 71.3592C132.288 71.4271 132.334 71.5175 132.401 71.5854C132.447 71.6532 132.492 71.721 132.537 71.7889C132.582 71.8567 132.627 71.9471 132.673 72.015C132.718 72.0828 132.741 72.1506 132.786 72.2185C132.899 72.422 133.012 72.6029 133.125 72.8064C133.17 72.8742 133.193 72.942 133.238 73.0325C133.283 73.1003 133.328 73.1908 133.351 73.2586C133.396 73.3717 133.464 73.4847 133.509 73.5978C133.532 73.643 133.555 73.6656 133.555 73.7108C133.622 73.8465 133.69 74.0048 133.758 74.1404C133.781 74.1857 133.781 74.2083 133.803 74.2535C133.848 74.3666 133.894 74.457 133.939 74.5701C133.962 74.6153 133.984 74.6605 134.007 74.7057C134.052 74.8188 134.097 74.9092 134.12 75.0223C134.142 75.0675 134.142 75.1127 134.165 75.158C134.21 75.2936 134.255 75.4293 134.301 75.565C134.301 75.5876 134.301 75.5876 134.323 75.6102C134.369 75.7459 134.414 75.9041 134.459 76.0398C134.482 76.085 134.482 76.1302 134.504 76.1755C134.527 76.2659 134.572 76.379 134.595 76.4694C134.617 76.5146 134.617 76.5825 134.64 76.6277C134.662 76.7181 134.685 76.8086 134.708 76.9216C134.73 76.9669 134.73 77.0347 134.753 77.0799C134.776 77.1704 134.798 77.2834 134.821 77.3739C134.821 77.4191 134.843 77.4869 134.843 77.5322C134.866 77.6678 134.889 77.7809 134.911 77.9165C134.911 77.9392 134.911 77.9618 134.911 77.9618C134.934 78.0974 134.956 78.2557 134.979 78.3914C134.979 78.4366 134.979 78.4818 135.002 78.5044C135.024 78.6175 135.024 78.7079 135.024 78.821C135.024 78.8662 135.024 78.9114 135.047 78.9793C135.047 79.0697 135.07 79.1828 135.07 79.2732C135.07 79.3185 135.07 79.3637 135.07 79.4089C135.07 79.5446 135.07 79.6802 135.07 79.8159L134.685 198.232C134.685 198.368 134.685 198.503 134.685 198.661C134.685 198.707 134.685 198.729 134.685 198.775C134.685 198.865 134.662 198.955 134.662 199.046C134.662 199.091 134.662 199.159 134.64 199.204C134.64 199.272 134.617 199.362 134.617 199.43C134.617 199.475 134.595 199.543 134.595 199.589C134.595 199.656 134.572 199.724 134.549 199.792C134.527 199.86 134.527 199.905 134.504 199.973C134.482 200.041 134.482 200.086 134.459 200.154C134.436 200.222 134.414 200.29 134.414 200.357C134.391 200.403 134.391 200.47 134.369 200.516C134.346 200.606 134.323 200.674 134.278 200.764C134.255 200.81 134.255 200.855 134.233 200.9C134.188 201.036 134.12 201.171 134.075 201.284C134.029 201.375 133.984 201.465 133.939 201.556C133.894 201.646 133.848 201.737 133.781 201.804C133.713 201.918 133.622 202.031 133.532 202.144C133.509 202.166 133.487 202.189 133.464 202.211C133.374 202.302 133.283 202.415 133.193 202.505L133.17 202.528C133.08 202.618 132.967 202.709 132.854 202.799C132.831 202.822 132.808 202.845 132.786 202.867C132.673 202.958 132.56 203.025 132.447 203.093L140.406 198.458C140.519 198.39 140.632 198.322 140.745 198.232C140.768 198.209 140.79 198.187 140.813 198.164C140.926 198.074 141.016 197.983 141.129 197.893L141.152 197.87C141.242 197.78 141.333 197.689 141.423 197.576C141.446 197.554 141.469 197.531 141.491 197.508C141.582 197.395 141.672 197.282 141.74 197.169C141.785 197.079 141.83 197.011 141.898 196.92C141.943 196.83 141.989 196.74 142.034 196.649C142.034 196.649 142.034 196.649 142.034 196.626C142.102 196.491 142.147 196.378 142.192 196.242C142.192 196.219 142.192 196.219 142.215 196.219C142.237 196.197 142.237 196.152 142.237 196.129C142.26 196.039 142.283 195.971 142.328 195.88C142.328 195.858 142.35 195.835 142.35 195.812C142.35 195.79 142.373 195.745 142.373 195.722C142.396 195.654 142.418 195.586 142.418 195.518C142.418 195.496 142.441 195.473 142.441 195.428C142.441 195.405 142.463 195.36 142.463 195.338C142.486 195.27 142.486 195.225 142.509 195.157C142.509 195.134 142.531 195.089 142.531 195.066C142.531 195.021 142.531 194.998 142.554 194.953C142.554 194.908 142.576 194.84 142.576 194.795C142.576 194.772 142.576 194.75 142.599 194.704C142.599 194.659 142.599 194.614 142.622 194.569C142.622 194.524 142.644 194.456 142.644 194.411C142.644 194.388 142.644 194.365 142.644 194.343C142.644 194.275 142.644 194.207 142.667 194.117C142.667 194.071 142.667 194.049 142.667 194.004V193.981C142.667 193.868 142.667 193.732 142.667 193.619V193.597L143.006 75.1353C143.006 75.0449 142.983 74.9318 142.983 74.7962Z" fill="url(#paint2_linear_261_4)"/>
<defs>
<filter id="filter0_f_261_4" x="0.957153" y="0.0379639" width="208.38" height="205.333" filterUnits="userSpaceOnUse" color-interpolation-filters="sRGB">
<feFlood flood-opacity="0" result="BackgroundImageFix"/>
<feBlend mode="normal" in="SourceGraphic" in2="BackgroundImageFix" result="shape"/>
<feGaussianBlur stdDeviation="25" result="effect1_foregroundBlur_261_4"/>
</filter>
<linearGradient id="paint0_linear_261_4" x1="74.5389" y1="121.643" x2="135.028" y2="121.643" gradientUnits="userSpaceOnUse">
<stop stop-color="#FCF8FF"/>
<stop offset="0.2909" stop-color="#D7B8F2"/>
<stop offset="1" stop-color="#4D58FF"/>
</linearGradient>
<linearGradient id="paint1_linear_261_4" x1="78.2289" y1="121.644" x2="131.338" y2="121.644" gradientUnits="userSpaceOnUse">
<stop stop-color="#D3CFFF"/>
<stop offset="1" stop-color="white"/>
</linearGradient>
<linearGradient id="paint2_linear_261_4" x1="77.1055" y1="119.07" x2="142.996" y2="119.07" gradientUnits="userSpaceOnUse">
<stop stop-color="#FCF8FF"/>
<stop offset="0.2909" stop-color="#D7B8F2"/>
<stop offset="1" stop-color="#4D58FF"/>
</linearGradient>
</defs>
</svg>
