<svg width="249" height="251" viewBox="0 0 249 251" fill="none" xmlns="http://www.w3.org/2000/svg">
<g filter="url(#filter0_f_261_6)">
<ellipse cx="144.147" cy="147.704" rx="54.1934" ry="52.6596" transform="rotate(-3.3141 144.147 147.704)" fill="#7DB1EF"/>
</g>
<path d="M217.514 77.6672C220.235 77.6672 220.93 79.9272 218.961 82.6508L127.237 212.513C125.268 215.237 121.504 217.497 118.724 217.497H62.2652C59.5436 217.497 58.8487 215.237 60.8175 212.513L152.542 82.6508C154.511 79.9272 158.275 77.6672 161.054 77.6672H217.514Z" fill="url(#paint0_linear_261_6)"/>
<path d="M206.316 87.7977C208.647 87.7977 209.242 89.7286 207.556 92.0556L129.015 203.008C127.33 205.335 124.107 207.265 121.727 207.265H73.3826C71.0522 207.265 70.4572 205.335 72.143 203.008L150.683 92.0556C152.369 89.7286 155.592 87.7977 157.972 87.7977H206.316Z" fill="url(#paint1_linear_261_6)"/>
<g clip-path="url(#clip0_261_6)">
<path opacity="0.349" d="M210.147 82.142C210.029 82.142 210.005 82.0491 210.076 81.933L210.621 81.1665C210.716 81.0503 210.882 80.9574 211 80.9574H213.559C213.677 80.9574 213.701 81.0503 213.63 81.1665L213.085 81.933C212.99 82.0491 212.825 82.142 212.706 82.142H210.147ZM213.82 80.7716H211.024C210.858 80.7716 210.645 80.8877 210.55 81.0503L209.839 82.0259C209.721 82.1652 209.768 82.3046 209.934 82.3046H212.73C212.872 82.3046 213.109 82.1884 213.204 82.0259L213.914 81.0503C214.009 80.911 213.962 80.7716 213.82 80.7716Z" fill="black"/>
<path opacity="0.349" d="M209.91 82.3046C209.745 82.3046 209.721 82.1884 209.816 82.0259L210.526 81.0503C210.645 80.911 210.858 80.7716 211 80.7716H213.796C213.938 80.7716 213.986 80.8877 213.891 81.0503L213.18 82.0259C213.062 82.1652 212.848 82.3046 212.706 82.3046H209.91ZM213.938 80.609H211.142C210.905 80.609 210.55 80.7948 210.384 81.0503L209.673 82.0259C209.508 82.2581 209.555 82.4672 209.816 82.4672H212.611C212.848 82.4672 213.204 82.2813 213.37 82.0259L214.08 81.0503C214.246 80.8181 214.175 80.609 213.938 80.609Z" fill="white"/>
<path opacity="0.4" d="M214.104 81.2129L213.63 81.8632C213.796 81.8168 213.986 81.6774 214.08 81.5381C214.175 81.3987 214.199 81.2826 214.104 81.2129Z" fill="black"/>
<path d="M213.583 80.9341H211.024C210.905 80.9341 210.74 81.0271 210.645 81.1432L210.076 81.9329C209.981 82.049 210.029 82.1419 210.147 82.1419H212.706C212.825 82.1419 212.99 82.049 213.085 81.9329L213.63 81.1664C213.725 81.0503 213.701 80.9341 213.583 80.9341Z" fill="black"/>
<path d="M207.66 81.8633C207.517 81.8633 207.375 81.9097 207.186 82.0026L207.138 82.0491V82.0955L207.233 82.4207L207.257 82.4439L207.304 82.4207L207.873 82.0955L207.92 82.0491V82.0026C207.896 81.9097 207.802 81.8633 207.66 81.8633ZM208.11 81.2361C207.825 81.2361 207.446 81.3523 207.067 81.5613L207.02 81.6078L206.996 81.6542L207.044 81.84L207.067 81.8633C207.091 81.8633 207.091 81.8633 207.115 81.84C207.352 81.7007 207.612 81.631 207.825 81.631C208.039 81.631 208.181 81.7007 208.228 81.84L208.252 81.8633C208.252 81.8633 208.276 81.8633 208.299 81.84L208.631 81.6542L208.678 81.6078V81.5613C208.631 81.3523 208.418 81.2361 208.11 81.2361ZM208.56 80.609C208.11 80.609 207.541 80.7716 206.949 81.0968L206.901 81.1432L206.878 81.1897L206.925 81.3755C206.925 81.3755 206.925 81.3987 206.949 81.3987C206.972 81.3987 206.972 81.3987 206.996 81.3755C207.446 81.12 207.896 80.9806 208.276 80.9806C208.655 80.9806 208.892 81.12 208.986 81.3755L209.01 81.3987C209.034 81.3987 209.034 81.3987 209.057 81.3755L209.389 81.1897L209.437 81.1432V81.0968C209.365 80.7716 209.034 80.609 208.56 80.609Z" fill="black"/>
<path d="M203.111 81.7703H202.945C202.85 81.7703 202.731 81.84 202.66 81.9329L202.423 82.2581C202.352 82.351 202.376 82.4207 202.471 82.4207H202.637C202.731 82.4207 202.85 82.351 202.921 82.2581L203.158 81.9329C203.229 81.84 203.205 81.7703 203.111 81.7703ZM204.129 81.4451H203.964C203.869 81.4451 203.75 81.5148 203.679 81.6077L203.205 82.2581C203.134 82.351 203.158 82.4207 203.253 82.4207H203.419C203.513 82.4207 203.632 82.351 203.703 82.2581L204.177 81.6077C204.248 81.5148 204.224 81.4451 204.129 81.4451ZM205.172 81.0503H205.006C204.911 81.0503 204.793 81.12 204.722 81.2129L203.964 82.2581C203.892 82.351 203.916 82.4207 204.011 82.4207H204.177C204.272 82.4207 204.39 82.351 204.461 82.2581L205.219 81.2129C205.29 81.12 205.267 81.0503 205.172 81.0503ZM206.238 80.6786H206.072C205.977 80.6786 205.859 80.7483 205.788 80.8412L204.769 82.2581C204.698 82.351 204.722 82.4207 204.816 82.4207H204.982C205.077 82.4207 205.196 82.351 205.267 82.2581L206.285 80.8412C206.356 80.7483 206.333 80.6786 206.238 80.6786Z" fill="black"/>
<path d="M160.014 81.5381C159.8 81.5381 159.777 81.3987 159.919 81.1897C160.061 81.0038 160.322 80.8413 160.511 80.8413C160.701 80.8413 160.748 80.9806 160.606 81.1897C160.464 81.3755 160.203 81.5381 160.014 81.5381ZM160.677 80.5858C160.298 80.5858 159.848 80.8413 159.587 81.1897C159.35 81.5148 159.421 81.7703 159.753 81.7703C159.966 81.7703 160.203 81.6774 160.393 81.5148H160.416C160.132 81.9097 159.8 82.142 159.54 82.142C159.398 82.142 159.327 82.0491 159.374 81.9329H159.066C158.924 82.2116 159.019 82.3975 159.35 82.3975C159.8 82.3975 160.322 82.0491 160.748 81.4684C160.914 81.2593 160.985 81.0735 161.009 80.9109C161.056 80.7019 160.938 80.5858 160.677 80.5858Z" fill="black"/>
<path d="M160.89 82.0026C160.772 82.0026 160.63 82.0955 160.559 82.1884C160.464 82.3046 160.488 82.3975 160.606 82.3975C160.724 82.3975 160.867 82.3278 160.938 82.2117C161.009 82.0955 161.009 82.0026 160.89 82.0026ZM161.53 81.12C161.412 81.12 161.269 81.2129 161.198 81.3058C161.127 81.4219 161.151 81.4916 161.269 81.4916C161.388 81.4916 161.53 81.3987 161.601 81.3058C161.672 81.1897 161.648 81.12 161.53 81.12Z" fill="black"/>
<path d="M161.814 81.7935C162.288 81.4219 162.691 81.1432 163.023 80.8877H163.046L162.383 81.7935H161.814ZM163.52 80.6322H163.07C162.43 81.0967 161.885 81.4684 161.53 81.7703L161.34 82.049H162.217L161.98 82.3742H162.288L162.525 82.049H162.762L162.928 81.7703H162.691L163.52 80.6322Z" fill="black"/>
<path d="M164.752 80.6322H164.444L163.757 80.9574L163.544 81.2361L164.184 80.9342H164.207L163.188 82.3742H163.496L164.752 80.6322Z" fill="black"/>
</g>
<path d="M220.814 73.0314C226.142 73.0314 227.416 77.3196 223.652 82.6509L131.869 212.513C128.105 217.845 120.751 222.133 115.424 222.133H58.9645C53.637 222.133 52.3631 217.845 56.127 212.513L147.909 82.6509C151.673 77.3196 159.028 73.0314 164.355 73.0314H220.814ZM127.237 212.513L218.961 82.6509C220.93 79.9273 220.235 77.6673 217.514 77.6673H161.054C158.333 77.6673 154.511 79.9273 152.542 82.6509L60.8175 212.513C58.8486 215.237 59.5435 217.497 62.2652 217.497H118.724C121.446 217.497 125.268 215.237 127.237 212.513Z" fill="url(#paint2_linear_261_6)"/>
<path d="M232.917 87.2288V87.1708C232.917 87.1129 232.917 87.0549 232.917 86.997C232.917 86.939 232.917 86.8811 232.917 86.8231C232.917 86.8231 232.917 86.8231 232.917 86.7652C232.917 86.7072 232.917 86.5913 232.859 86.5334C232.859 86.4754 232.859 86.4754 232.859 86.4175C232.859 86.3016 232.801 86.1857 232.801 86.0698V86.0118C232.801 85.8959 232.743 85.838 232.743 85.7801C232.743 85.7801 232.743 85.7801 232.743 85.7221C232.743 85.6642 232.685 85.6642 232.685 85.6062C232.685 85.5483 232.627 85.4903 232.627 85.4324C232.627 85.4324 232.627 85.3744 232.569 85.3744C232.569 85.3165 232.512 85.2585 232.512 85.2585C232.512 85.2006 232.454 85.2006 232.454 85.1426C232.454 85.0847 232.396 85.0847 232.396 85.0267L225.099 74.7698C225.157 74.8278 225.215 74.9437 225.273 75.0016C225.273 75.0596 225.331 75.1175 225.331 75.1175C225.389 75.1755 225.389 75.2914 225.447 75.3493C225.447 75.4073 225.505 75.4073 225.505 75.4652C225.563 75.5811 225.563 75.6391 225.621 75.755V75.8129C225.678 75.9288 225.679 76.0447 225.736 76.2185C225.736 76.2765 225.736 76.2765 225.736 76.3344C225.736 76.4503 225.736 76.5083 225.794 76.6242C225.794 76.6821 225.794 76.7401 225.794 76.798C225.794 76.9139 225.794 76.9719 225.794 77.0878C225.794 77.1457 225.794 77.2037 225.794 77.3196C225.794 77.3775 225.794 77.4934 225.794 77.5514C225.794 77.6093 225.794 77.7252 225.794 77.7832C225.794 77.8411 225.794 77.957 225.736 78.015C225.736 78.1308 225.679 78.1888 225.679 78.3047C225.679 78.3626 225.621 78.4785 225.621 78.5365C225.563 78.7103 225.563 78.8262 225.505 79.0001C225.505 79.058 225.505 79.058 225.447 79.116V79.1739C225.389 79.2898 225.331 79.4637 225.273 79.5796C225.273 79.6375 225.215 79.6955 225.215 79.6955C225.157 79.8114 225.099 79.9273 225.099 80.0432C225.042 80.1011 225.042 80.217 224.984 80.2749C224.926 80.3908 224.868 80.5067 224.81 80.5647C224.752 80.6226 224.752 80.7385 224.694 80.7965C224.578 80.9703 224.52 81.1442 224.405 81.318L224.347 81.376C224.231 81.5498 224.173 81.6657 224.057 81.8396C223.999 81.8975 223.999 81.9555 223.941 81.9555C223.825 82.1293 223.71 82.3031 223.594 82.477L131.869 212.513C131.753 212.687 131.638 212.861 131.464 213.035C131.406 213.093 131.348 213.151 131.348 213.209C131.232 213.325 131.174 213.441 131.059 213.556C131.001 213.614 130.943 213.672 130.885 213.73C130.827 213.846 130.711 213.962 130.653 214.02C130.595 214.078 130.537 214.136 130.48 214.252C130.422 214.368 130.306 214.426 130.248 214.542C130.19 214.6 130.132 214.715 130.016 214.773C129.958 214.831 129.843 214.947 129.785 215.005C129.727 215.063 129.669 215.179 129.553 215.237C129.495 215.295 129.379 215.411 129.321 215.469C129.263 215.527 129.206 215.585 129.148 215.643C128.974 215.816 128.8 215.99 128.626 216.106C128.569 216.164 128.569 216.164 128.511 216.222C128.337 216.396 128.163 216.57 127.932 216.686C127.874 216.744 127.816 216.744 127.758 216.802C127.642 216.918 127.468 217.033 127.353 217.149C127.295 217.207 127.179 217.265 127.121 217.323C127.005 217.381 126.889 217.497 126.773 217.555C126.716 217.613 126.6 217.671 126.542 217.729C126.426 217.787 126.31 217.903 126.252 217.961C126.194 218.019 126.079 218.076 126.021 218.134C125.905 218.192 125.789 218.25 125.731 218.366C125.673 218.424 125.557 218.482 125.5 218.54C125.384 218.598 125.268 218.656 125.21 218.772C125.152 218.83 125.036 218.888 124.978 218.946C124.863 219.004 124.747 219.062 124.689 219.12C124.631 219.178 124.515 219.235 124.457 219.293C124.341 219.351 124.226 219.409 124.11 219.467C124.052 219.525 123.936 219.583 123.878 219.583C123.762 219.641 123.647 219.699 123.531 219.757C123.473 219.815 123.357 219.815 123.299 219.873C123.183 219.931 123.01 220.047 122.894 220.105C122.836 220.105 122.778 220.163 122.72 220.163C122.488 220.279 122.315 220.336 122.083 220.452C122.025 220.452 121.967 220.51 121.967 220.51C121.793 220.568 121.62 220.626 121.504 220.742C121.446 220.8 121.388 220.8 121.272 220.8C121.099 220.858 120.983 220.916 120.809 220.974C120.751 220.974 120.693 221.032 120.577 221.032C120.404 221.09 120.172 221.148 119.998 221.264C119.94 221.264 119.94 221.264 119.883 221.322C119.651 221.38 119.361 221.495 119.13 221.553C119.072 221.553 118.956 221.611 118.898 221.611C118.782 221.611 118.724 221.669 118.609 221.669C118.493 221.669 118.435 221.727 118.319 221.727C118.203 221.727 118.145 221.785 118.03 221.785C117.972 221.785 117.856 221.843 117.798 221.843C117.682 221.843 117.566 221.901 117.45 221.901C117.393 221.901 117.277 221.901 117.219 221.959C117.103 221.959 116.987 222.017 116.871 222.017C116.813 222.017 116.698 222.017 116.64 222.017C116.524 222.017 116.408 222.017 116.292 222.075C116.234 222.075 116.177 222.075 116.119 222.075C115.945 222.075 115.771 222.075 115.597 222.075H58.9645C56.8798 222.075 55.4322 221.437 54.6794 220.336L61.8019 230.42C62.6126 231.521 64.0603 232.158 66.087 232.158H122.546C122.72 232.158 122.894 232.158 123.067 232.158C123.125 232.158 123.183 232.158 123.241 232.158C123.357 232.158 123.473 232.158 123.589 232.1C123.647 232.1 123.762 232.1 123.82 232.1C123.936 232.1 124.052 232.042 124.168 232.042C124.226 232.042 124.341 232.042 124.399 231.984C124.515 231.984 124.631 231.926 124.747 231.926C124.805 231.926 124.805 231.926 124.863 231.926C124.92 231.926 124.92 231.926 124.978 231.926C125.094 231.926 125.152 231.868 125.268 231.868C125.384 231.868 125.442 231.81 125.557 231.81C125.673 231.81 125.731 231.752 125.847 231.752C125.905 231.752 125.963 231.752 126.021 231.694H126.079C126.31 231.636 126.6 231.521 126.831 231.463C126.889 231.463 126.889 231.463 126.947 231.405C127.121 231.347 127.353 231.289 127.526 231.173C127.584 231.173 127.584 231.173 127.642 231.115C127.7 231.115 127.7 231.057 127.758 231.057C127.932 230.999 128.047 230.941 128.221 230.883C128.279 230.883 128.337 230.825 128.337 230.825H128.395C128.569 230.767 128.742 230.709 128.858 230.593C128.916 230.593 128.916 230.535 128.974 230.535C129.206 230.419 129.379 230.362 129.611 230.246C129.669 230.246 129.727 230.188 129.785 230.188C129.9 230.13 130.074 230.072 130.19 229.956H130.248C130.306 229.898 130.364 229.898 130.422 229.84C130.537 229.782 130.653 229.724 130.769 229.666C130.769 229.666 130.827 229.666 130.827 229.608C130.885 229.55 130.943 229.55 131.001 229.492C131.117 229.434 131.232 229.376 131.348 229.318L131.406 229.261C131.464 229.203 131.522 229.203 131.58 229.145C131.696 229.087 131.811 229.029 131.869 228.971C131.927 228.971 131.927 228.913 131.985 228.913C132.043 228.855 132.101 228.855 132.159 228.797C132.275 228.739 132.39 228.681 132.448 228.565C132.506 228.565 132.506 228.507 132.564 228.507C132.622 228.449 132.68 228.449 132.68 228.391C132.796 228.333 132.912 228.275 132.97 228.16C133.027 228.102 133.027 228.102 133.085 228.044C133.143 228.044 133.143 227.986 133.201 227.986C133.317 227.928 133.433 227.812 133.491 227.754C133.549 227.696 133.607 227.696 133.607 227.638C133.664 227.638 133.664 227.58 133.722 227.58C133.838 227.522 133.954 227.406 134.07 227.348C134.128 227.29 134.186 227.29 134.243 227.232L134.301 227.174C134.417 227.058 134.591 226.943 134.707 226.827C134.765 226.769 134.765 226.769 134.823 226.711C134.996 226.537 135.228 226.363 135.402 226.247C135.402 226.247 135.402 226.247 135.46 226.247L135.517 226.189C135.691 226.015 135.865 225.842 136.039 225.726C136.097 225.726 136.096 225.668 136.154 225.668C136.212 225.668 136.212 225.61 136.27 225.61C136.328 225.552 136.444 225.436 136.502 225.378C136.56 225.32 136.676 225.204 136.733 225.146C136.791 225.088 136.907 224.972 136.965 224.914C137.023 224.856 137.081 224.798 137.081 224.741L137.139 224.683C137.197 224.567 137.313 224.509 137.37 224.393C137.428 224.335 137.486 224.277 137.544 224.161C137.602 224.045 137.718 223.987 137.776 223.871C137.834 223.813 137.892 223.755 137.95 223.697C138.065 223.582 138.123 223.466 138.239 223.35C138.297 223.292 138.355 223.234 138.355 223.176C138.471 223.002 138.586 222.828 138.76 222.654L230.774 92.7918C230.89 92.618 231.006 92.4441 231.122 92.2703C231.18 92.2123 231.18 92.1544 231.238 92.1544C231.353 91.9805 231.411 91.8646 231.527 91.6908L231.585 91.6328C231.643 91.459 231.759 91.3431 231.817 91.1693C231.817 91.1693 231.817 91.1113 231.875 91.1113C231.932 91.0534 231.932 90.9375 231.99 90.8795C232.048 90.7636 232.106 90.6477 232.164 90.5898C232.222 90.5318 232.222 90.4159 232.28 90.358C232.338 90.3 232.338 90.2421 232.396 90.1262C232.396 90.0682 232.454 90.0682 232.454 90.0103C232.454 89.9523 232.512 89.8944 232.512 89.8944C232.569 89.7785 232.627 89.6047 232.685 89.4888V89.4308C232.685 89.3729 232.685 89.3729 232.685 89.3149C232.743 89.1411 232.801 89.0252 232.801 88.8513V88.7934C232.801 88.7354 232.801 88.6775 232.859 88.6195C232.859 88.5036 232.917 88.4457 232.917 88.3298V88.2718C232.917 88.2139 232.917 88.1559 232.917 88.098C232.917 88.04 232.917 87.9241 232.917 87.8662V87.8082C232.917 87.7503 232.917 87.6924 232.917 87.6344C232.917 87.3447 232.917 87.2867 232.917 87.2288Z" fill="url(#paint3_linear_261_6)"/>
<path d="M170.939 112.883H154.658C151.024 112.883 145.988 115.826 143.435 119.458L109.033 168.08C106.457 171.712 107.331 174.655 110.964 174.655H127.246C130.879 174.655 135.916 171.712 138.468 168.08L172.871 119.458C175.424 115.826 174.573 112.883 170.939 112.883Z" fill="url(#paint4_linear_261_6)"/>
<mask id="mask0_261_6" style="mask-type:alpha" maskUnits="userSpaceOnUse" x="95" y="103" width="66" height="72">
<path d="M147.406 105.201L131.885 104.103L105.859 105.201C103.089 110.374 97.299 120.973 96.2956 121.976C95.2922 122.98 96.7137 137.341 97.5498 144.396L104.291 165.405L121.537 173.557C132.512 160.336 154.462 133.547 154.462 132.167C154.462 130.787 158.015 123.126 159.792 119.468L154.462 110.845L147.406 105.201Z" fill="#C4C4C4" stroke="black"/>
</mask>
<g mask="url(#mask0_261_6)">
<path d="M148.703 118.16C160.372 129.828 161.653 147.5 151.536 157.618C141.418 167.735 123.747 166.454 112.078 154.785C100.386 143.094 99.1273 125.444 109.245 115.327C119.362 105.209 137.012 106.468 148.703 118.16ZM114.843 151.997C124.758 161.912 139.755 162.991 148.321 154.403C156.909 145.814 155.83 130.818 145.915 120.925C136.022 111.01 121.026 109.931 112.437 118.519C103.849 127.108 104.928 142.104 114.843 151.997Z" fill="#F9D216"/>
<path d="M148.703 118.16C160.372 129.828 161.653 147.5 151.536 157.618C141.418 167.735 123.747 166.454 112.078 154.785C100.386 143.094 99.1273 125.444 109.245 115.327C119.362 105.209 137.012 106.468 148.703 118.16ZM114.843 151.997C124.758 161.912 139.755 162.991 148.321 154.403C156.909 145.814 155.83 130.818 145.915 120.925C136.022 111.01 121.026 109.931 112.437 118.519C103.849 127.108 104.928 142.104 114.843 151.997Z" fill="url(#paint5_linear_261_6)"/>
<path d="M145.915 120.925C155.83 130.84 156.909 145.837 148.321 154.403C139.732 162.991 124.736 161.912 114.843 151.997C104.928 142.104 103.849 127.108 112.437 118.519C121.026 109.931 136.022 111.01 145.915 120.925ZM128.828 147.275C130.491 147.186 131.908 146.578 133.055 145.432C133.797 144.69 134.291 143.858 134.538 142.914C134.673 142.352 134.741 141.767 134.718 141.138C134.718 140.53 134.561 139.744 134.269 138.799C133.976 137.855 133.549 136.731 132.987 135.427C132.313 133.92 131.975 132.819 131.93 132.167C131.885 131.492 132.088 130.908 132.582 130.435C133.1 129.918 133.774 129.694 134.583 129.806C135.393 129.918 136.135 130.301 136.809 130.975C137.911 132.077 138.271 133.516 137.866 135.269L141.238 136.439C141.531 135.09 141.576 133.92 141.396 132.954C141.216 131.964 140.721 130.953 139.934 129.918L141.913 127.94L139.867 125.894L137.888 127.872C137.124 127.378 136.36 127.018 135.618 126.771C134.876 126.523 134.156 126.389 133.482 126.411C132.807 126.411 132.155 126.523 131.571 126.771C130.964 127.018 130.424 127.378 129.952 127.85C128.918 128.884 128.423 130.121 128.446 131.627C128.423 132.594 128.873 134.123 129.795 136.214C130.244 137.225 130.559 138.102 130.784 138.822C131.009 139.541 131.144 140.126 131.188 140.553C131.256 141.43 130.964 142.194 130.289 142.869C129.547 143.611 128.648 143.948 127.614 143.836C126.557 143.746 125.613 143.273 124.758 142.397C123.881 141.52 123.387 140.598 123.274 139.654C123.207 138.709 123.499 137.563 124.174 136.169L121.138 134.078C120.082 135.899 119.587 137.563 119.7 139.069C119.812 140.575 120.509 142.172 121.813 143.925L119.789 145.949L121.835 147.995L123.926 145.904C125.545 146.893 127.186 147.365 128.828 147.275Z" fill="url(#paint6_linear_261_6)"/>
<path d="M151.536 157.618L148.838 160.316C138.72 170.433 121.048 169.152 109.38 157.483C97.6883 145.792 96.4293 128.142 106.547 118.025L109.245 115.327C99.1273 125.444 100.386 143.094 112.078 154.785C123.746 166.454 141.418 167.713 151.536 157.618Z" fill="url(#paint7_linear_261_6)"/>
</g>
<path d="M141.89 127.917L139.912 129.896C140.699 130.93 141.193 131.964 141.373 132.931C141.553 133.92 141.508 135.067 141.216 136.416L137.843 135.247C138.248 133.493 137.888 132.054 136.787 130.953C136.112 130.278 135.348 129.873 134.561 129.784C133.752 129.694 133.1 129.896 132.56 130.413C132.088 130.885 131.863 131.47 131.908 132.144C131.953 132.819 132.313 133.898 132.965 135.404C133.527 136.708 133.954 137.833 134.246 138.777C134.538 139.721 134.673 140.486 134.696 141.115C134.718 141.745 134.651 142.329 134.516 142.891C134.269 143.836 133.774 144.69 133.032 145.409C131.885 146.556 130.491 147.163 128.805 147.253C127.141 147.343 125.523 146.871 123.904 145.859L121.813 147.95L119.767 145.904L121.79 143.881C120.486 142.149 119.767 140.531 119.677 139.024C119.565 137.518 120.059 135.876 121.116 134.033L124.151 136.124C123.477 137.495 123.184 138.664 123.252 139.609C123.364 140.553 123.859 141.475 124.736 142.352C125.59 143.206 126.557 143.678 127.591 143.791C128.625 143.881 129.525 143.566 130.267 142.824C130.941 142.149 131.233 141.385 131.166 140.508C131.121 140.081 130.986 139.496 130.761 138.777C130.536 138.057 130.199 137.203 129.772 136.169C128.85 134.078 128.4 132.549 128.423 131.582C128.4 130.098 128.895 128.839 129.929 127.805C130.424 127.31 130.964 126.951 131.548 126.726C132.155 126.478 132.785 126.366 133.459 126.366C134.134 126.366 134.853 126.478 135.595 126.726C136.337 126.973 137.102 127.333 137.866 127.827L139.844 125.849L141.89 127.917Z" fill="white"/>
<path d="M164.746 118.527H151.547C150.345 118.527 148.666 119.508 147.796 120.693L116.506 164.336C115.656 165.522 115.947 166.502 117.148 166.502H130.348C131.55 166.502 133.229 165.542 134.099 164.336L165.389 120.693C166.238 119.508 165.948 118.527 164.746 118.527Z" fill="url(#paint8_linear_261_6)"/>
<mask id="mask1_261_6" style="mask-type:alpha" maskUnits="userSpaceOnUse" x="116" y="118" width="50" height="49">
<path d="M164.746 118.527H151.547C150.345 118.527 148.666 119.508 147.796 120.693L116.506 164.336C115.656 165.522 115.947 166.502 117.148 166.502H130.348C131.55 166.502 133.229 165.542 134.099 164.336L165.389 120.693C166.238 119.508 165.948 118.527 164.746 118.527Z" fill="url(#paint9_linear_261_6)"/>
</mask>
<g mask="url(#mask1_261_6)">
<path d="M148.703 118.16C160.372 129.828 161.654 147.5 151.536 157.618C141.419 167.735 123.747 166.454 112.078 154.785C100.387 143.094 99.1275 125.444 109.245 115.327C119.362 105.209 137.012 106.468 148.703 118.16ZM114.843 151.997C124.758 161.912 139.755 162.991 148.321 154.403C156.91 145.814 155.83 130.818 145.915 120.925C136.023 111.01 121.026 109.931 112.438 118.519C103.849 127.108 104.928 142.104 114.843 151.997Z" fill="#F9D216"/>
<path d="M148.703 118.16C160.372 129.828 161.654 147.5 151.536 157.618C141.419 167.735 123.747 166.454 112.078 154.785C100.387 143.094 99.1275 125.444 109.245 115.327C119.362 105.209 137.012 106.468 148.703 118.16ZM114.843 151.997C124.758 161.912 139.755 162.991 148.321 154.403C156.91 145.814 155.83 130.818 145.915 120.925C136.023 111.01 121.026 109.931 112.438 118.519C103.849 127.108 104.928 142.104 114.843 151.997Z" fill="url(#paint10_linear_261_6)"/>
<path d="M145.915 120.925C155.83 130.84 156.909 145.837 148.321 154.403C139.732 162.991 124.736 161.912 114.843 151.997C104.928 142.104 103.849 127.108 112.438 118.519C121.026 109.931 136.023 111.01 145.915 120.925ZM128.828 147.275C130.492 147.186 131.908 146.578 133.055 145.432C133.797 144.69 134.291 143.858 134.539 142.914C134.674 142.352 134.741 141.767 134.718 141.138C134.718 140.53 134.561 139.744 134.269 138.799C133.977 137.855 133.549 136.731 132.987 135.427C132.313 133.92 131.976 132.819 131.931 132.167C131.886 131.492 132.088 130.908 132.583 130.435C133.1 129.918 133.774 129.694 134.584 129.806C135.393 129.918 136.135 130.301 136.809 130.975C137.911 132.077 138.271 133.516 137.866 135.269L141.239 136.439C141.531 135.09 141.576 133.92 141.396 132.954C141.216 131.964 140.722 130.953 139.935 129.918L141.913 127.94L139.867 125.894L137.889 127.872C137.124 127.378 136.36 127.018 135.618 126.771C134.876 126.523 134.156 126.389 133.482 126.411C132.807 126.411 132.155 126.523 131.571 126.771C130.964 127.018 130.424 127.378 129.952 127.85C128.918 128.884 128.423 130.121 128.446 131.627C128.423 132.594 128.873 134.123 129.795 136.214C130.244 137.225 130.559 138.102 130.784 138.822C131.009 139.541 131.144 140.126 131.189 140.553C131.256 141.43 130.964 142.194 130.289 142.869C129.547 143.611 128.648 143.948 127.614 143.836C126.557 143.746 125.613 143.273 124.758 142.397C123.882 141.52 123.387 140.598 123.274 139.654C123.207 138.709 123.499 137.563 124.174 136.169L121.139 134.078C120.082 135.899 119.587 137.563 119.7 139.069C119.812 140.575 120.509 142.172 121.813 143.925L119.79 145.949L121.836 147.995L123.927 145.904C125.545 146.893 127.187 147.365 128.828 147.275Z" fill="url(#paint11_linear_261_6)"/>
<path d="M141.891 127.917L139.912 129.896C140.699 130.93 141.194 131.964 141.374 132.931C141.553 133.92 141.508 135.067 141.216 136.416L137.844 135.247C138.248 133.493 137.889 132.054 136.787 130.953C136.113 130.278 135.348 129.873 134.561 129.784C133.752 129.694 133.1 129.896 132.56 130.413C132.088 130.885 131.863 131.47 131.908 132.144C131.953 132.819 132.313 133.898 132.965 135.404C133.527 136.708 133.954 137.833 134.246 138.777C134.539 139.721 134.674 140.486 134.696 141.115C134.719 141.745 134.651 142.329 134.516 142.891C134.269 143.836 133.774 144.69 133.032 145.409C131.886 146.556 130.492 147.163 128.805 147.253C127.142 147.343 125.523 146.871 123.904 145.859L121.813 147.95L119.767 145.904L121.791 143.881C120.487 142.149 119.767 140.531 119.677 139.024C119.565 137.518 120.059 135.876 121.116 134.033L124.151 136.124C123.477 137.495 123.185 138.664 123.252 139.609C123.364 140.553 123.859 141.475 124.736 142.352C125.59 143.206 126.557 143.678 127.591 143.791C128.626 143.881 129.525 143.566 130.267 142.824C130.941 142.149 131.234 141.385 131.166 140.508C131.121 140.081 130.986 139.496 130.761 138.777C130.537 138.057 130.199 137.203 129.772 136.169C128.85 134.078 128.401 132.549 128.423 131.582C128.401 130.098 128.895 128.839 129.93 127.805C130.424 127.31 130.964 126.951 131.548 126.726C132.155 126.478 132.785 126.366 133.459 126.366C134.134 126.366 134.853 126.478 135.595 126.726C136.337 126.973 137.102 127.333 137.866 127.827L139.845 125.849L141.891 127.917Z" fill="white"/>
<path d="M151.536 157.618L148.838 160.316C138.721 170.433 121.049 169.152 109.38 157.483C97.6886 145.792 96.4295 128.142 106.547 118.025L109.245 115.327C99.1275 125.444 100.387 143.094 112.078 154.785C123.747 166.454 141.419 167.713 151.536 157.618Z" fill="url(#paint12_linear_261_6)"/>
</g>
<path opacity="0.8" d="M24.1066 168.186C24.1066 168.186 105.163 166.775 106.417 166.775C107.671 166.775 122.566 166.305 128.366 166.775C134.167 167.245 136.828 160.437 137.617 159.563C138.405 158.689 165.837 120.524 165.837 119.584C165.837 118.643 165.21 118.486 165.21 118.486L156.274 21.7516C156.274 21.7516 93.3264 39.7467 69.5652 69.5272C44.6609 100.804 24.1066 168.186 24.1066 168.186Z" fill="url(#paint13_linear_261_6)"/>
<defs>
<filter id="filter0_f_261_6" x="39.9571" y="45.0378" width="208.38" height="205.333" filterUnits="userSpaceOnUse" color-interpolation-filters="sRGB">
<feFlood flood-opacity="0" result="BackgroundImageFix"/>
<feBlend mode="normal" in="SourceGraphic" in2="BackgroundImageFix" result="shape"/>
<feGaussianBlur stdDeviation="25" result="effect1_foregroundBlur_261_6"/>
</filter>
<linearGradient id="paint0_linear_261_6" x1="59.674" y1="147.589" x2="220.088" y2="147.589" gradientUnits="userSpaceOnUse">
<stop stop-color="#D3CFFF"/>
<stop offset="1" stop-color="white"/>
</linearGradient>
<linearGradient id="paint1_linear_261_6" x1="71.1639" y1="147.538" x2="208.521" y2="147.538" gradientUnits="userSpaceOnUse">
<stop stop-color="#D3CFFF"/>
<stop offset="1" stop-color="white"/>
</linearGradient>
<linearGradient id="paint2_linear_261_6" x1="53.9639" y1="147.587" x2="225.825" y2="147.587" gradientUnits="userSpaceOnUse">
<stop stop-color="#FCF8FF"/>
<stop offset="0.2909" stop-color="#D7B8F2"/>
<stop offset="1" stop-color="#4D58FF"/>
</linearGradient>
<linearGradient id="paint3_linear_261_6" x1="54.6498" y1="153.475" x2="232.889" y2="153.475" gradientUnits="userSpaceOnUse">
<stop stop-color="#FCF8FF"/>
<stop offset="0.2909" stop-color="#D7B8F2"/>
<stop offset="1" stop-color="#4D58FF"/>
</linearGradient>
<linearGradient id="paint4_linear_261_6" x1="107.546" y1="143.791" x2="174.341" y2="143.791" gradientUnits="userSpaceOnUse">
<stop stop-color="#FCF8FF"/>
<stop offset="0.2909" stop-color="#D7B8F2"/>
<stop offset="1" stop-color="#4D58FF"/>
</linearGradient>
<linearGradient id="paint5_linear_261_6" x1="144.849" y1="174.07" x2="132.46" y2="120.638" gradientUnits="userSpaceOnUse">
<stop stop-color="#7773EA"/>
<stop offset="0.7308" stop-color="#FFAAB6"/>
<stop offset="1" stop-color="#FFEFD1"/>
</linearGradient>
<linearGradient id="paint6_linear_261_6" x1="127.919" y1="108.248" x2="130.378" y2="158.537" gradientUnits="userSpaceOnUse">
<stop stop-color="#7773EA"/>
<stop offset="0.7308" stop-color="#FFAAB6"/>
<stop offset="1" stop-color="#FFEFD1"/>
</linearGradient>
<linearGradient id="paint7_linear_261_6" x1="138.757" y1="107.07" x2="129.555" y2="147.044" gradientUnits="userSpaceOnUse">
<stop stop-color="#DB9BC4"/>
<stop offset="1" stop-color="#4D58FF"/>
</linearGradient>
<linearGradient id="paint8_linear_261_6" x1="116.959" y1="163.994" x2="165.875" y2="118.527" gradientUnits="userSpaceOnUse">
<stop stop-color="#7773EA"/>
<stop offset="1" stop-color="#FDFDFD" stop-opacity="0.59"/>
</linearGradient>
<linearGradient id="paint9_linear_261_6" x1="116.959" y1="163.994" x2="165.875" y2="118.527" gradientUnits="userSpaceOnUse">
<stop stop-color="#7773EA"/>
<stop offset="1" stop-color="#FDFDFD" stop-opacity="0.59"/>
</linearGradient>
<linearGradient id="paint10_linear_261_6" x1="144.849" y1="174.07" x2="132.46" y2="120.638" gradientUnits="userSpaceOnUse">
<stop stop-color="#7773EA"/>
<stop offset="0.7308" stop-color="#FFAAB6"/>
<stop offset="1" stop-color="#FFEFD1"/>
</linearGradient>
<linearGradient id="paint11_linear_261_6" x1="127.919" y1="108.248" x2="130.378" y2="158.537" gradientUnits="userSpaceOnUse">
<stop stop-color="#7773EA"/>
<stop offset="0.7308" stop-color="#FFAAB6"/>
<stop offset="1" stop-color="#FFEFD1"/>
</linearGradient>
<linearGradient id="paint12_linear_261_6" x1="138.757" y1="107.07" x2="129.555" y2="147.044" gradientUnits="userSpaceOnUse">
<stop stop-color="#DB9BC4"/>
<stop offset="1" stop-color="#4D58FF"/>
</linearGradient>
<linearGradient id="paint13_linear_261_6" x1="147" y1="151" x2="86" y2="94.5" gradientUnits="userSpaceOnUse">
<stop stop-color="white" stop-opacity="0.85"/>
<stop offset="0.395833" stop-color="#FBFBFB" stop-opacity="0.04"/>
<stop offset="1" stop-color="#FCFCFC" stop-opacity="0"/>
</linearGradient>
<clipPath id="clip0_261_6">
<rect width="56.1279" height="1.88138" fill="white" transform="translate(158.663 80.5858)"/>
</clipPath>
</defs>
</svg>
