<svg width="107" height="158" viewBox="0 0 107 158" fill="none" xmlns="http://www.w3.org/2000/svg">
<path d="M0 68.3018C40.6145 67.0124 63.3855 66.2894 104 65V158H0.530612L0 68.3018Z" fill="url(#paint0_linear_247_2)"/>
<path d="M101.589 67.4305L58.8843 92.252C55.3383 94.3333 49.5184 94.3333 45.9339 92.252L2.95891 67.4305C1.14741 66.3898 0.260925 65.0023 0.260925 63.6533V67.0836C0.260925 68.4326 1.14741 69.8201 2.95891 70.8608L45.9339 95.6822C49.5184 97.7635 55.3383 97.7635 58.8843 95.6822L101.589 70.8608C103.362 69.8201 104.249 68.4711 104.249 67.1222V63.6919C104.249 65.0409 103.362 66.3898 101.589 67.4305Z" fill="url(#paint1_linear_247_2)"/>
<path d="M101.551 59.9144C105.135 61.9957 105.174 65.3489 101.59 67.4302L58.8843 92.2517C55.3384 94.333 49.5185 94.333 45.934 92.2517L2.95898 67.4302C-0.625485 65.3489 -0.664028 61.9957 2.92044 59.9144L45.6257 35.093C49.1716 33.0117 54.9915 33.0117 58.576 35.093L101.551 59.9144Z" fill="url(#paint2_linear_247_2)"/>
<path d="M101.589 52.0135L58.8843 76.835C55.3383 78.9163 49.5184 78.9163 45.9339 76.835L2.95891 52.0135C1.14741 50.9729 0.260925 49.5853 0.260925 48.2363V51.6666C0.260925 53.0156 1.14741 54.4032 2.95891 55.4438L45.9339 80.2653C49.5184 82.3466 55.3383 82.3466 58.8843 80.2653L101.589 55.4438C103.362 54.4032 104.249 53.0542 104.249 51.7052V48.2749C104.249 49.6239 103.362 50.9729 101.589 52.0135Z" fill="url(#paint3_linear_247_2)"/>
<path d="M101.551 44.4974C105.135 46.5787 105.174 49.9319 101.59 52.0132L58.8843 76.8347C55.3384 78.916 49.5185 78.916 45.934 76.8347L2.95898 52.0132C-0.625485 49.9319 -0.664028 46.5787 2.92044 44.4974L45.6257 19.676C49.1716 17.5947 54.9915 17.5947 58.576 19.676L101.551 44.4974Z" fill="url(#paint4_linear_247_2)"/>
<path d="M103.517 33.8983L60.8115 58.7197C57.2656 60.801 51.4457 60.801 47.8612 58.7197L4.88616 33.8983C3.07465 32.8576 2.18817 31.4701 2.18817 30.1211V33.5514C2.18817 34.9004 3.07465 36.2879 4.88616 37.3286L47.8612 62.15C51.4457 64.2313 57.2656 64.2313 60.8115 62.15L103.517 37.3286C105.29 36.2879 106.176 34.9389 106.176 33.5899V30.1596C106.176 31.5086 105.29 32.8576 103.517 33.8983Z" fill="url(#paint5_linear_247_2)"/>
<path d="M103.478 26.3824C107.063 28.4637 107.101 31.8169 103.517 33.8982L60.8115 58.7197C57.2656 60.801 51.4456 60.801 47.8612 58.7197L4.88613 33.8982C1.30167 31.8169 1.26313 28.4637 4.84759 26.3824L47.5528 1.56098C51.0987 -0.520325 56.9187 -0.520325 60.5032 1.56098L103.478 26.3824Z" fill="url(#paint6_linear_247_2)"/>
<defs>
<linearGradient id="paint0_linear_247_2" x1="52.2653" y1="62.7988" x2="51.6027" y2="157.995" gradientUnits="userSpaceOnUse">
<stop stop-color="white" stop-opacity="0.37"/>
<stop offset="1" stop-color="#190137" stop-opacity="0"/>
</linearGradient>
<linearGradient id="paint1_linear_247_2" x1="0.260925" y1="80.4422" x2="104.268" y2="80.4422" gradientUnits="userSpaceOnUse">
<stop stop-color="#FCF8FF"/>
<stop offset="0.2909" stop-color="#D7B8F2"/>
<stop offset="1" stop-color="#4D58FF"/>
</linearGradient>
<linearGradient id="paint2_linear_247_2" x1="64.7007" y1="41.1325" x2="42.4415" y2="81.4885" gradientUnits="userSpaceOnUse">
<stop stop-color="#D3CFFF"/>
<stop offset="1" stop-color="white"/>
</linearGradient>
<linearGradient id="paint3_linear_247_2" x1="0.260925" y1="65.0252" x2="104.268" y2="65.0252" gradientUnits="userSpaceOnUse">
<stop stop-color="#FCF8FF"/>
<stop offset="0.2909" stop-color="#D7B8F2"/>
<stop offset="1" stop-color="#4D58FF"/>
</linearGradient>
<linearGradient id="paint4_linear_247_2" x1="64.7007" y1="25.7155" x2="42.4415" y2="66.0715" gradientUnits="userSpaceOnUse">
<stop stop-color="#D3CFFF"/>
<stop offset="1" stop-color="white"/>
</linearGradient>
<linearGradient id="paint5_linear_247_2" x1="2.18817" y1="46.91" x2="106.195" y2="46.91" gradientUnits="userSpaceOnUse">
<stop stop-color="#FCF8FF"/>
<stop offset="0.2909" stop-color="#D7B8F2"/>
<stop offset="1" stop-color="#4D58FF"/>
</linearGradient>
<linearGradient id="paint6_linear_247_2" x1="66.6278" y1="7.60049" x2="44.3687" y2="47.9566" gradientUnits="userSpaceOnUse">
<stop stop-color="#D3CFFF"/>
<stop offset="1" stop-color="white"/>
</linearGradient>
</defs>
</svg>
