<svg width="40" height="29" viewBox="0 0 40 29" fill="none" xmlns="http://www.w3.org/2000/svg">
<path d="M34.7623 3.46665C34.7623 3.46665 31.8964 0.438294 25.3893 0V0.956214C25.3893 0.956214 28.9583 0.749267 33.3762 5.08984C30.0414 2.69519 25.2842 1.1951 20 1.1951C14.7158 1.1951 9.95855 2.69497 6.62378 5.08984C11.0417 0.749267 14.6107 0.956214 14.6107 0.956214V0C8.1036 0.438294 5.23773 3.46665 5.23773 3.46665C0.279343 9.84142 0 23.7872 0 23.7872C4.6706 29.4052 10.539 28.6883 10.539 28.6883L12.6946 25.5805C9.91477 24.8299 7.9296 23.1067 6.73645 21.7647C10.0652 24.113 14.7747 25.5805 20 25.5805C25.2253 25.5805 29.9348 24.1133 33.2636 21.7647C32.0704 23.1065 30.0852 24.8299 27.3054 25.5805L29.461 28.6883C29.461 28.6883 35.3294 29.4056 40 23.7872C40.0004 23.787 39.7209 9.84142 34.7623 3.46665ZM13.7727 19.8426C11.8986 19.8426 10.3795 18.2316 10.3795 16.2439C10.3795 14.2565 11.8986 12.6453 13.7727 12.6453C15.6467 12.6453 17.1659 14.2565 17.1659 16.2439C17.1659 18.2313 15.6467 19.8426 13.7727 19.8426ZM26.2278 19.8426C24.3537 19.8426 22.8345 18.2316 22.8345 16.2439C22.8345 14.2565 24.3537 12.6453 26.2278 12.6453C28.1018 12.6453 29.621 14.2565 29.621 16.2439C29.621 18.2313 28.102 19.8426 26.2278 19.8426Z" fill="white"/>
</svg>
