<svg width="265" height="57" viewBox="0 0 265 57" fill="none" xmlns="http://www.w3.org/2000/svg">
<path d="M14.5312 6.28125V0H27.0312V6.25H37.9688V18.75H16.0938C14.0104 18.75 12.9688 19.2292 12.9688 20.1875C12.9688 21.3125 14.0104 21.875 16.0938 21.875H25.4688C35.8854 21.875 41.0938 26.5208 41.0938 35.8125C41.0938 44.7917 36.4062 49.5104 27.0312 49.9688V56.25H14.5312V50H3.59375V37.5H25.4688C27.5521 37.5 28.5938 36.9375 28.5938 35.8125C28.5938 34.8542 27.5521 34.375 25.4688 34.375H16.0938C5.67708 34.375 0.46875 29.6458 0.46875 20.1875C0.46875 11.375 5.15625 6.73958 14.5312 6.28125ZM66.0938 50C60.0521 50 54.8958 47.8646 50.625 43.5938C46.3542 39.3229 44.2188 34.1667 44.2188 28.125C44.2188 22.0833 46.3542 16.9271 50.625 12.6562C54.8958 8.38542 60.0521 6.25 66.0938 6.25C72.1354 6.25 77.2917 8.38542 81.5625 12.6562C85.8333 16.9271 87.9688 22.0833 87.9688 28.125C87.9688 34.1667 85.8333 39.3229 81.5625 43.5938C77.2917 47.8646 72.1354 50 66.0938 50ZM66.0938 37.5C68.6771 37.5 70.8854 36.5833 72.7188 34.75C74.5521 32.9167 75.4688 30.7083 75.4688 28.125C75.4688 25.5417 74.5521 23.3333 72.7188 21.5C70.8854 19.6667 68.6771 18.75 66.0938 18.75C63.5104 18.75 61.3021 19.6667 59.4688 21.5C57.6354 23.3333 56.7188 25.5417 56.7188 28.125C56.7188 30.7083 57.6354 32.9167 59.4688 34.75C61.3021 36.5833 63.5104 37.5 66.0938 37.5ZM97.3438 50C95.6146 50 94.1354 49.3958 92.9062 48.1875C91.6979 46.9583 91.0938 45.4792 91.0938 43.75C91.0938 42.0208 91.6979 40.5521 92.9062 39.3438C94.1354 38.1146 95.6146 37.5 97.3438 37.5C99.0729 37.5 100.542 38.1146 101.75 39.3438C102.979 40.5521 103.594 42.0208 103.594 43.75C103.594 45.4792 102.979 46.9583 101.75 48.1875C100.542 49.3958 99.0729 50 97.3438 50ZM128.594 50C122.552 50 117.396 47.8646 113.125 43.5938C108.854 39.3229 106.719 34.1667 106.719 28.125C106.719 22.0833 108.854 16.9271 113.125 12.6562C117.396 8.38542 122.552 6.25 128.594 6.25C134.635 6.25 139.792 8.38542 144.062 12.6562C148.333 16.9271 150.469 22.0833 150.469 28.125C150.469 34.1667 148.333 39.3229 144.062 43.5938C139.792 47.8646 134.635 50 128.594 50ZM128.594 37.5C131.177 37.5 133.385 36.5833 135.219 34.75C137.052 32.9167 137.969 30.7083 137.969 28.125C137.969 25.5417 137.052 23.3333 135.219 21.5C133.385 19.6667 131.177 18.75 128.594 18.75C126.01 18.75 123.802 19.6667 121.969 21.5C120.135 23.3333 119.219 25.5417 119.219 28.125C119.219 30.7083 120.135 32.9167 121.969 34.75C123.802 36.5833 126.01 37.5 128.594 37.5ZM175.469 50C169.427 50 164.271 47.8646 160 43.5938C155.729 39.3229 153.594 34.1667 153.594 28.125C153.594 22.0833 155.729 16.9271 160 12.6562C164.271 8.38542 169.427 6.25 175.469 6.25C181.51 6.25 186.667 8.38542 190.938 12.6562C195.208 16.9271 197.344 22.0833 197.344 28.125C197.344 34.1667 195.208 39.3229 190.938 43.5938C186.667 47.8646 181.51 50 175.469 50ZM175.469 37.5C178.052 37.5 180.26 36.5833 182.094 34.75C183.927 32.9167 184.844 30.7083 184.844 28.125C184.844 25.5417 183.927 23.3333 182.094 21.5C180.26 19.6667 178.052 18.75 175.469 18.75C172.885 18.75 170.677 19.6667 168.844 21.5C167.01 23.3333 166.094 25.5417 166.094 28.125C166.094 30.7083 167.01 32.9167 168.844 34.75C170.677 36.5833 172.885 37.5 175.469 37.5ZM222.344 50C216.302 50 211.146 47.8646 206.875 43.5938C202.604 39.3229 200.469 34.1667 200.469 28.125C200.469 22.0833 202.604 16.9271 206.875 12.6562C211.146 8.38542 216.302 6.25 222.344 6.25C228.385 6.25 233.542 8.38542 237.812 12.6562C242.083 16.9271 244.219 22.0833 244.219 28.125C244.219 34.1667 242.083 39.3229 237.812 43.5938C233.542 47.8646 228.385 50 222.344 50ZM222.344 37.5C224.927 37.5 227.135 36.5833 228.969 34.75C230.802 32.9167 231.719 30.7083 231.719 28.125C231.719 25.5417 230.802 23.3333 228.969 21.5C227.135 19.6667 224.927 18.75 222.344 18.75C219.76 18.75 217.552 19.6667 215.719 21.5C213.885 23.3333 212.969 25.5417 212.969 28.125C212.969 30.7083 213.885 32.9167 215.719 34.75C217.552 36.5833 219.76 37.5 222.344 37.5ZM264.531 6.25V50H252.031V18.75H247.344L252.031 6.25H264.531Z" fill="url(#paint0_linear_73_1798)"/>
<defs>
<linearGradient id="paint0_linear_73_1798" x1="-23.5" y1="-16.4782" x2="161.932" y2="-164.381" gradientUnits="userSpaceOnUse">
<stop stop-color="#FFAAAF"/>
<stop offset="1" stop-color="#2B00FE"/>
</linearGradient>
</defs>
</svg>
