<svg width="602" height="634" viewBox="0 0 602 634" fill="none" xmlns="http://www.w3.org/2000/svg">
<path opacity="0.1" d="M534.538 312.065C534.517 317.782 531.448 323.053 526.486 325.893L423.411 384.888C418.45 387.727 412.352 387.704 407.412 384.828L304.778 325.066C299.838 322.19 296.808 316.897 296.829 311.18L297.271 192.424C297.292 186.708 300.36 181.438 305.32 178.598L408.383 119.59C413.344 116.75 419.444 116.772 424.384 119.649L527.018 179.41C531.957 182.286 534.987 187.579 534.967 193.295L534.538 312.065Z" fill="#95FFFF"/>
<path opacity="0.1" d="M295.744 312.065C295.723 317.782 292.654 323.053 287.692 325.893L184.617 384.888C179.656 387.727 173.557 387.704 168.618 384.828L65.9834 325.066C61.0434 322.19 58.0133 316.897 58.0346 311.18L58.4763 192.424C58.4976 186.708 61.5661 181.438 66.5263 178.598L169.589 119.59C174.55 116.75 180.649 116.772 185.59 119.649L288.224 179.41C293.163 182.286 296.193 187.579 296.173 193.295L295.744 312.065Z" fill="#95FFFF"/>
<path opacity="0.1" d="M534.538 443.813C534.517 449.53 531.448 454.802 526.486 457.642L423.411 516.636C418.45 519.476 412.352 519.453 407.412 516.577L304.778 456.815C299.838 453.939 296.808 448.645 296.829 442.929L297.271 324.172C297.292 318.457 300.36 313.187 305.32 310.347L408.383 251.339C413.344 248.498 419.444 248.521 424.384 251.397L527.018 311.159C531.957 314.035 534.987 319.328 534.967 325.043L534.538 443.813Z" fill="#95FFFF"/>
<path opacity="0.1" d="M415.141 516.55C415.12 522.267 412.051 527.538 407.089 530.378L304.014 589.373C299.053 592.212 292.955 592.189 288.015 589.313L185.381 529.551C180.441 526.675 177.411 521.381 177.432 515.665L177.874 396.909C177.895 391.193 180.963 385.923 185.924 383.083L288.986 324.075C293.947 321.235 300.047 321.257 304.987 324.134L407.621 383.895C412.56 386.771 415.59 392.064 415.57 397.78L415.141 516.55Z" fill="#95FFFF"/>
<path opacity="0.1" d="M295.744 443.813C295.723 449.53 292.654 454.802 287.692 457.642L184.617 516.636C179.656 519.476 173.557 519.453 168.618 516.577L65.9834 456.815C61.0434 453.939 58.0133 448.645 58.0346 442.929L58.4763 324.172C58.4976 318.457 61.5661 313.187 66.5263 310.347L169.589 251.339C174.55 248.498 180.649 248.521 185.59 251.397L288.224 311.159C293.163 314.035 296.193 319.328 296.173 325.043L295.744 443.813Z" fill="#95FFFF"/>
<path d="M419.258 376.567C419.238 382.284 416.168 387.555 411.206 390.395L308.131 449.39C303.17 452.229 297.072 452.206 292.132 449.33L189.498 389.568C184.558 386.692 181.528 381.399 181.549 375.682L181.991 256.926C182.012 251.21 185.081 245.94 190.041 243.1L293.103 184.092C298.064 181.252 304.164 181.274 309.104 184.151L411.738 243.912C416.678 246.788 419.708 252.081 419.687 257.797L419.258 376.567Z" fill="url(#paint0_linear_254_4)"/>
<path d="M419.258 376.567C419.238 382.284 416.168 387.555 411.206 390.395L308.131 449.39C303.17 452.229 297.072 452.206 292.132 449.33L189.498 389.568C184.558 386.692 181.528 381.399 181.549 375.682L181.991 256.926C182.012 251.21 185.081 245.94 190.041 243.1L293.103 184.092C298.064 181.252 304.164 181.274 309.104 184.151L411.738 243.912C416.678 246.788 419.708 252.081 419.687 257.797L419.258 376.567Z" fill="url(#paint1_linear_254_4)"/>
<path opacity="0.1" d="M390.436 359.29C390.415 365.012 387.339 370.288 382.37 373.126L308.865 415.099C303.912 417.928 297.827 417.905 292.894 415.04L219.704 372.521C214.756 369.647 211.72 364.349 211.742 358.626L212.056 274.199C212.078 268.478 215.152 263.203 220.12 260.366L293.615 218.383C298.569 215.553 304.655 215.576 309.589 218.441L382.778 260.96C387.726 263.834 390.762 269.131 390.741 274.853L390.436 359.29Z" fill="white"/>
<g opacity="0.7">
<path opacity="0.5" d="M300.846 317.426L211.707 265.962" stroke="url(#paint2_linear_254_4)" stroke-width="0.6"/>
<path opacity="0.5" d="M300.912 316.74V419.669" stroke="url(#paint3_linear_254_4)" stroke-width="0.6"/>
<path opacity="0.5" d="M300.912 317.426L390.05 265.962" stroke="url(#paint4_linear_254_4)" stroke-width="0.6"/>
</g>
<g style="mix-blend-mode:overlay">
<path d="M300.292 449.861V316.74L184.326 249.493C181.582 253.336 181.353 261.616 181.582 265.276L182.268 367.518C181.17 382.34 187.757 388.79 191.188 390.162L280.393 441.627C291.372 449.312 298.234 450.319 300.292 449.861Z" fill="url(#paint5_linear_254_4)"/>
</g>
<g style="mix-blend-mode:overlay">
<path d="M300.912 317.426L184.946 250.866C186.043 247.023 189.978 243.318 191.807 241.945L287.188 187.736C298.716 179.502 310.29 184.305 314.636 187.736L407.271 241.259C411.663 242.357 414.591 247.206 415.506 249.493L300.912 317.426Z" fill="url(#paint6_linear_254_4)"/>
</g>
<circle opacity="0.1" cx="102.093" cy="422.83" r="5" transform="rotate(60 102.093 422.83)" fill="#95FFFF"/>
<circle opacity="0.1" cx="6.83027" cy="477.83" r="5" transform="rotate(60 6.83027 477.83)" fill="#95FFFF"/>
<path opacity="0.1" d="M97.7629 425.33L11.1604 475.33" stroke="#95FFFF"/>
<circle opacity="0.1" cx="484.83" cy="422.83" r="5" transform="rotate(-60 484.83 422.83)" fill="#95FFFF"/>
<circle opacity="0.1" cx="580.093" cy="477.83" r="5" transform="rotate(-60 580.093 477.83)" fill="#95FFFF"/>
<path opacity="0.1" d="M489.16 425.33L575.763 475.33" stroke="#95FFFF"/>
<circle opacity="0.1" cx="482.83" cy="209.83" r="5" transform="rotate(-120 482.83 209.83)" fill="#95FFFF"/>
<circle opacity="0.1" cx="578.093" cy="154.83" r="5" transform="rotate(-120 578.093 154.83)" fill="#95FFFF"/>
<path opacity="0.1" d="M487.16 207.33L573.763 157.33" stroke="#95FFFF"/>
<circle opacity="0.1" cx="6.708" cy="159.708" r="5" transform="rotate(-63.4463 6.708 159.708)" fill="#95FFFF"/>
<circle opacity="0.1" cx="105.105" cy="208.882" r="5" transform="rotate(-63.4463 105.105 208.882)" fill="#95FFFF"/>
<path opacity="0.1" d="M11.1807 161.943L100.632 206.647" stroke="#95FFFF"/>
<path d="M252.42 299.4V319H260.26C262.976 319 265.216 318.076 267.036 316.2C268.856 314.324 269.78 311.972 269.78 309.2C269.78 306.428 268.856 304.104 267.036 302.228C265.216 300.352 262.976 299.4 260.26 299.4H252.42ZM256.9 314.688V303.712H260.26C261.8 303.712 263.06 304.216 264.012 305.224C264.992 306.204 265.468 307.548 265.468 309.2C265.468 310.852 264.992 312.196 264.012 313.204C263.06 314.184 261.8 314.688 260.26 314.688H256.9ZM276.022 303.068C277.002 302.088 277.002 300.604 276.022 299.652C275.042 298.7 273.53 298.7 272.522 299.652C271.57 300.604 271.57 302.088 272.522 303.068C273.53 303.992 275.042 303.992 276.022 303.068ZM276.358 319V305H272.158V319H276.358ZM292.368 305V304.72C292.368 303.18 293.264 302.76 294.972 302.76C295.952 302.76 297.128 302.844 298.472 302.984V299.12C297.212 298.868 296.064 298.728 294.972 298.728C290.436 298.728 288.168 300.716 288.168 304.72V305H284.528C284.528 303.544 285.396 302.9 287.132 303.04V299.008C282.624 298.756 280.328 300.968 280.328 305H278.452V309.032H280.328V319H284.528V309.032H288.168V319H292.368V309.032H295.952V319H300.152V305H292.368ZM309.941 319.392C312.657 319.392 315.037 317.992 316.269 315.78L312.601 313.68C312.125 314.716 311.201 315.248 309.885 315.248C308.065 315.248 306.721 313.904 306.721 312C306.721 310.096 308.065 308.752 309.885 308.752C311.201 308.752 312.097 309.284 312.601 310.32L316.269 308.192C315.037 306.036 312.629 304.608 309.941 304.608C307.813 304.608 306.049 305.308 304.621 306.736C303.221 308.164 302.521 309.9 302.521 312C302.521 314.1 303.221 315.836 304.621 317.264C306.049 318.692 307.813 319.392 309.941 319.392ZM327.14 312.644C327.14 314.548 326.132 315.528 324.536 315.528C323.108 315.528 322.1 314.632 322.1 312.98V305H317.9V313.596C317.9 315.416 318.404 316.816 319.384 317.852C320.392 318.888 321.652 319.392 323.136 319.392C324.956 319.392 326.3 318.832 327.14 317.684V319H331.34V305H327.14V312.644ZM338.62 319V298.56H334.42V319H338.62ZM349.898 305H347.014V301.08L342.814 302.34V305H340.574V309.032H342.814V313.988C342.814 316.032 343.318 317.432 344.354 318.244C345.39 319.028 347.238 319.28 349.898 319V315.192C347.854 315.304 347.014 315.108 347.014 313.988V309.032H349.898V305ZM254.265 327.008C249.757 326.756 247.461 328.968 247.461 333H245.585V337.032H247.461V347H251.661V337.032H254.265V333H251.661C251.661 331.544 252.529 330.9 254.265 331.04V327.008ZM267.791 345.264C269.219 343.836 269.947 342.072 269.947 340C269.947 337.928 269.219 336.192 267.791 334.764C266.363 333.336 264.599 332.608 262.527 332.608C260.455 332.608 258.691 333.336 257.263 334.764C255.835 336.192 255.107 337.928 255.107 340C255.107 342.072 255.835 343.836 257.263 345.264C258.691 346.692 260.455 347.392 262.527 347.392C264.599 347.392 266.363 346.692 267.791 345.264ZM260.231 342.38C259.615 341.764 259.307 340.98 259.307 340C259.307 339.02 259.615 338.236 260.231 337.62C260.847 337.004 261.603 336.696 262.527 336.696C263.451 336.696 264.207 337.004 264.823 337.62C265.439 338.236 265.747 339.02 265.747 340C265.747 340.98 265.439 341.764 264.823 342.38C264.207 342.996 263.451 343.304 262.527 343.304C261.603 343.304 260.847 342.996 260.231 342.38ZM276.523 333H272.323V347H276.523V340.672C276.523 339.412 276.971 338.516 277.839 338.012C278.735 337.48 279.687 337.312 280.723 337.48V332.72C278.819 332.72 277.055 333.7 276.523 335.492V333ZM298.73 340.644C298.73 342.548 297.722 343.528 296.126 343.528C294.698 343.528 293.69 342.632 293.69 340.98V333H289.49V341.596C289.49 343.416 289.994 344.816 290.974 345.852C291.982 346.888 293.242 347.392 294.726 347.392C296.546 347.392 297.89 346.832 298.73 345.684V347H302.93V333H298.73V340.644ZM309.849 337.088C309.849 336.556 310.241 336.304 311.025 336.304C311.837 336.304 312.453 336.724 312.901 337.536L316.485 335.604C315.337 333.672 313.349 332.608 311.025 332.608C309.485 332.608 308.169 333 307.105 333.812C306.069 334.624 305.537 335.744 305.537 337.2C305.537 340.056 308.057 341.008 309.989 341.54C311.333 341.876 312.425 342.212 312.425 342.772C312.425 343.36 311.921 343.64 310.913 343.64C309.709 343.64 308.897 343.08 308.533 341.988L304.893 344.06C305.957 346.272 307.973 347.392 310.913 347.392C312.565 347.392 313.937 347 315.057 346.244C316.177 345.46 316.737 344.312 316.737 342.8C316.765 339.748 314.217 338.74 312.285 338.32C310.941 337.956 309.849 337.648 309.849 337.088ZM332.663 341.68C332.775 341.148 332.831 340.588 332.831 340C332.831 337.9 332.159 336.136 330.787 334.736C329.443 333.308 327.763 332.608 325.719 332.608C323.535 332.608 321.743 333.308 320.343 334.736C318.971 336.136 318.271 337.9 318.271 340C318.271 342.128 318.971 343.892 320.371 345.292C321.799 346.692 323.675 347.392 326.027 347.392C328.715 347.392 330.759 346.44 332.131 344.508L328.771 342.576C328.127 343.276 327.231 343.64 326.083 343.64C324.319 343.64 323.199 342.996 322.723 341.68H332.663ZM322.639 338.544C323.059 337.06 324.067 336.332 325.691 336.332C327.259 336.332 328.239 337.06 328.659 338.544H322.639ZM339.413 333H335.213V347H339.413V340.672C339.413 339.412 339.861 338.516 340.729 338.012C341.625 337.48 342.577 337.312 343.613 337.48V332.72C341.709 332.72 339.945 333.7 339.413 335.492V333ZM349.142 337.088C349.142 336.556 349.534 336.304 350.318 336.304C351.13 336.304 351.746 336.724 352.194 337.536L355.778 335.604C354.63 333.672 352.642 332.608 350.318 332.608C348.778 332.608 347.462 333 346.398 333.812C345.362 334.624 344.83 335.744 344.83 337.2C344.83 340.056 347.35 341.008 349.282 341.54C350.626 341.876 351.718 342.212 351.718 342.772C351.718 343.36 351.214 343.64 350.206 343.64C349.002 343.64 348.19 343.08 347.826 341.988L344.186 344.06C345.25 346.272 347.266 347.392 350.206 347.392C351.858 347.392 353.23 347 354.35 346.244C355.47 345.46 356.03 344.312 356.03 342.8C356.058 339.748 353.51 338.74 351.578 338.32C350.234 337.956 349.142 337.648 349.142 337.088Z" fill="white"/>
<defs>
<linearGradient id="paint0_linear_254_4" x1="300.617" y1="179.502" x2="300.617" y2="453.978" gradientUnits="userSpaceOnUse">
<stop stop-color="#00FFFB"/>
<stop offset="1" stop-color="#3338C2"/>
</linearGradient>
<linearGradient id="paint1_linear_254_4" x1="181.475" y1="316.759" x2="419.684" y2="316.759" gradientUnits="userSpaceOnUse">
<stop stop-color="#FCF8FF"/>
<stop offset="0.2909" stop-color="#D7B8F2"/>
<stop offset="1" stop-color="#4D58FF"/>
</linearGradient>
<linearGradient id="paint2_linear_254_4" x1="300.596" y1="317.859" x2="211.457" y2="266.395" gradientUnits="userSpaceOnUse">
<stop stop-color="white"/>
<stop offset="1" stop-color="white" stop-opacity="0"/>
</linearGradient>
<linearGradient id="paint3_linear_254_4" x1="301.412" y1="316.74" x2="301.412" y2="419.669" gradientUnits="userSpaceOnUse">
<stop stop-color="white"/>
<stop offset="1" stop-color="white" stop-opacity="0"/>
</linearGradient>
<linearGradient id="paint4_linear_254_4" x1="300.662" y1="316.993" x2="389.8" y2="265.529" gradientUnits="userSpaceOnUse">
<stop stop-color="white"/>
<stop offset="1" stop-color="white" stop-opacity="0"/>
</linearGradient>
<linearGradient id="paint5_linear_254_4" x1="296.795" y1="390.849" x2="154.753" y2="268.021" gradientUnits="userSpaceOnUse">
<stop offset="0.0662505"/>
<stop offset="1" stop-color="#30A2C7" stop-opacity="0"/>
</linearGradient>
<linearGradient id="paint6_linear_254_4" x1="300.912" y1="313.995" x2="300.912" y2="183.619" gradientUnits="userSpaceOnUse">
<stop/>
<stop offset="1" stop-color="white" stop-opacity="0"/>
</linearGradient>
</defs>
</svg>
