<svg width="1482" height="1321" viewBox="0 0 1482 1321" fill="none" xmlns="http://www.w3.org/2000/svg">
<g filter="url(#filter0_f_261_2)">
<ellipse cx="740.982" cy="663.3" rx="353.959" ry="239.187" transform="rotate(21.4939 740.982 663.3)" fill="#B32DD8"/>
</g>
<g filter="url(#filter1_f_261_2)">
<ellipse cx="754.86" cy="676.568" rx="241.787" ry="235.688" fill="#7DB1EF"/>
</g>
<g filter="url(#filter2_f_261_2)">
<ellipse cx="754.424" cy="676.568" rx="148.993" ry="145.944" fill="white" fill-opacity="0.8"/>
</g>
<path d="M921.656 719.418L764.914 810.388C751.899 818.015 730.538 818.015 717.382 810.388L559.65 719.418C553.001 715.604 549.748 710.518 549.748 705.574V718.146C549.748 723.09 553.001 728.176 559.65 731.99L717.382 822.959C730.538 830.587 751.899 830.587 764.914 822.959L921.656 731.99C928.163 728.176 931.417 723.232 931.417 718.288V705.716C931.417 710.66 928.163 715.604 921.656 719.418Z" fill="url(#paint0_linear_261_2)"/>
<path d="M921.515 691.873C934.671 699.5 934.812 711.79 921.656 719.418L764.914 810.388C751.9 818.016 730.539 818.016 717.382 810.388L559.65 719.418C546.494 711.79 546.353 699.5 559.509 691.873L716.251 600.903C729.265 593.275 750.626 593.275 763.783 600.903L921.515 691.873Z" fill="url(#paint1_linear_261_2)"/>
<path d="M871.159 686.418L756.243 753.21C746.701 758.81 731.041 758.81 721.395 753.21L605.753 686.418C600.879 683.617 598.493 679.884 598.493 676.254V685.484C598.493 689.114 600.879 692.848 605.753 695.648L721.395 762.44C731.041 768.041 746.701 768.041 756.243 762.44L871.159 695.648C875.93 692.848 878.315 689.218 878.315 685.588V676.357C878.315 679.987 875.93 683.617 871.159 686.418Z" fill="url(#paint2_linear_261_2)"/>
<path d="M871.055 666.193C880.701 671.794 880.804 680.817 871.159 686.418L756.243 753.21C746.701 758.81 731.041 758.81 721.395 753.21L605.753 686.418C596.108 680.817 596.004 671.794 605.65 666.193L720.565 599.401C730.107 593.801 745.768 593.801 755.414 599.401L871.055 666.193Z" fill="url(#paint3_linear_261_2)"/>
<path d="M871.159 644.932L756.243 711.724C746.701 717.325 731.041 717.325 721.395 711.724L605.753 644.932C600.879 642.132 598.493 638.398 598.493 634.768V643.999C598.493 647.629 600.879 651.362 605.753 654.163L721.395 720.955C731.041 726.555 746.701 726.555 756.243 720.955L871.159 654.163C875.93 651.362 878.315 647.732 878.315 644.102V634.872C878.315 638.502 875.93 642.132 871.159 644.932Z" fill="url(#paint4_linear_261_2)"/>
<path d="M871.055 624.708C880.701 630.308 880.804 639.331 871.159 644.932L756.243 711.724C746.701 717.325 731.041 717.325 721.395 711.724L605.753 644.932C596.108 639.331 596.004 630.308 605.65 624.708L720.565 557.915C730.107 552.315 745.768 552.315 755.414 557.915L871.055 624.708Z" fill="url(#paint5_linear_261_2)"/>
<path d="M876.345 596.186L761.429 662.978C751.887 668.579 736.226 668.579 726.581 662.978L610.939 596.186C606.065 593.386 603.679 589.652 603.679 586.022V595.253C603.679 598.883 606.065 602.616 610.939 605.417L726.581 672.209C736.226 677.809 751.887 677.809 761.429 672.209L876.345 605.417C881.116 602.616 883.501 598.986 883.501 595.356V586.126C883.501 589.756 881.116 593.386 876.345 596.186Z" fill="url(#paint6_linear_261_2)"/>
<path d="M876.241 575.962C885.886 581.562 885.99 590.586 876.345 596.186L761.429 662.978C751.887 668.579 736.226 668.579 726.581 662.978L610.939 596.186C601.294 590.586 601.19 581.562 610.836 575.962L725.751 509.17C735.293 503.569 750.954 503.569 760.599 509.17L876.241 575.962Z" fill="url(#paint7_linear_261_2)"/>
<path d="M808.644 575.648L752.421 608.398C747.753 611.144 740.091 611.144 735.372 608.398L678.794 575.648C676.409 574.275 675.242 572.445 675.242 570.665V575.191C675.242 576.971 676.409 578.801 678.794 580.174L735.372 612.924C740.091 615.67 747.753 615.67 752.421 612.924L808.644 580.174C810.978 578.801 812.145 577.022 812.145 575.242V570.716C812.145 572.496 810.978 574.275 808.644 575.648Z" fill="url(#paint8_linear_261_2)"/>
<path d="M808.593 565.732C813.312 568.478 813.363 572.902 808.643 575.648L752.421 608.397C747.753 611.143 740.09 611.143 735.371 608.397L678.794 575.648C674.074 572.902 674.024 568.478 678.743 565.732L734.965 532.982C739.634 530.236 747.296 530.236 752.015 532.982L808.593 565.732Z" fill="url(#paint9_linear_261_2)"/>
<path d="M789.943 94.6306C802.61 101.946 812.839 119.626 812.771 134.19L811.755 489.005C811.687 503.568 801.391 509.394 788.792 502.078L654.398 424.517C641.731 417.202 631.503 399.522 631.57 384.958L632.586 30.1435C632.586 15.5797 642.883 9.68649 655.55 17.0023L789.943 94.6306ZM800.714 482.637L801.73 127.755C801.73 120.236 796.446 111.091 789.943 107.298L655.55 29.7371C649.047 25.9437 643.696 28.992 643.628 36.511L642.612 391.393C642.612 398.912 647.895 408.057 654.398 411.85L788.792 489.411C795.362 493.204 800.714 490.156 800.714 482.637Z" fill="url(#paint10_linear_261_2)"/>
<path d="M789.943 107.298C796.514 111.091 801.797 120.236 801.73 127.755L800.714 482.637C800.714 490.156 795.362 493.205 788.792 489.411L654.466 411.851C647.963 408.057 642.612 398.912 642.68 391.393L643.696 36.5112C643.696 28.9922 649.047 25.9439 655.618 29.7373L789.943 107.298Z" fill="url(#paint11_linear_261_2)"/>
<path d="M836.615 119.22C836.615 119.152 836.615 119.085 836.615 119.017C836.615 118.881 836.615 118.746 836.615 118.61C836.615 118.475 836.615 118.272 836.615 118.136C836.615 118.001 836.615 117.865 836.615 117.73C836.615 117.594 836.615 117.459 836.547 117.323C836.547 117.256 836.547 117.12 836.547 117.052C836.547 116.849 836.479 116.646 836.479 116.443C836.479 116.307 836.479 116.172 836.412 116.104C836.412 116.036 836.412 116.036 836.412 115.969C836.344 115.562 836.276 115.223 836.276 114.817C836.276 114.749 836.276 114.682 836.276 114.682C836.208 114.343 836.141 114.072 836.141 113.733C836.141 113.665 836.141 113.598 836.073 113.53C836.073 113.394 836.005 113.191 836.005 113.056C835.938 112.853 835.938 112.649 835.87 112.514C835.87 112.378 835.802 112.311 835.802 112.175C835.734 112.04 835.734 111.836 835.667 111.701C835.667 111.566 835.599 111.43 835.599 111.295C835.531 111.159 835.531 110.956 835.463 110.82C835.396 110.685 835.396 110.482 835.328 110.346C835.328 110.278 835.26 110.211 835.26 110.075C835.192 109.872 835.125 109.601 835.057 109.398C834.989 109.262 834.989 109.127 834.921 108.991C834.921 108.924 834.921 108.924 834.854 108.856C834.718 108.45 834.583 108.043 834.447 107.704C834.447 107.637 834.447 107.637 834.38 107.569C834.244 107.23 834.176 106.892 834.041 106.553C834.041 106.485 833.973 106.417 833.973 106.417C833.905 106.282 833.905 106.146 833.838 106.011C833.77 105.808 833.702 105.605 833.634 105.469C833.567 105.334 833.567 105.198 833.499 105.13C833.431 104.995 833.363 104.859 833.296 104.724C833.228 104.588 833.228 104.521 833.16 104.385C833.093 104.182 832.957 103.979 832.889 103.776C832.822 103.64 832.822 103.572 832.754 103.437C832.754 103.369 832.686 103.369 832.686 103.301C832.551 102.963 832.347 102.556 832.212 102.218C832.212 102.218 832.212 102.218 832.212 102.15C832.144 102.014 832.076 101.947 832.076 101.811C831.941 101.54 831.805 101.269 831.67 100.998C831.67 100.931 831.602 100.931 831.602 100.863C831.467 100.66 831.399 100.389 831.264 100.185C831.196 99.9822 831.06 99.8468 830.993 99.6435L830.925 99.5758C830.586 98.9662 830.247 98.4242 829.909 97.8146C829.909 97.7469 829.841 97.7469 829.841 97.6791C829.773 97.5436 829.638 97.4082 829.57 97.205C829.435 96.934 829.299 96.7308 829.164 96.5276C829.028 96.3244 828.893 96.1211 828.757 95.9179C828.622 95.7147 828.486 95.4438 828.283 95.2405C828.215 95.1728 828.215 95.1051 828.148 95.0373C828.08 94.9696 828.08 94.9018 828.012 94.8341C827.606 94.2245 827.132 93.6148 826.725 93.0052C826.386 92.5987 826.115 92.1923 825.777 91.7859C825.777 91.7859 825.777 91.7181 825.709 91.7181C825.438 91.4472 825.235 91.1085 824.964 90.8375C824.896 90.7698 824.896 90.7021 824.828 90.6343C824.557 90.2956 824.219 89.9569 823.948 89.6182C823.948 89.6182 823.948 89.6182 823.88 89.5505C823.812 89.415 823.677 89.3473 823.609 89.2795C823.406 89.0763 823.203 88.8731 823.067 88.6699C822.999 88.6022 822.999 88.6022 822.932 88.5344C822.796 88.3989 822.661 88.2635 822.525 88.128C822.39 87.9925 822.254 87.7893 822.119 87.6538C822.051 87.5861 821.983 87.5183 821.983 87.5183C821.848 87.3829 821.712 87.2474 821.577 87.1119C821.441 86.9764 821.306 86.841 821.238 86.7732C821.171 86.7055 821.103 86.6377 821.035 86.57C820.9 86.4345 820.696 86.2991 820.561 86.1636C820.425 86.0958 820.358 85.9604 820.222 85.8926C820.154 85.8249 820.019 85.7571 819.951 85.6894C819.816 85.5539 819.613 85.4185 819.477 85.283C819.409 85.2152 819.274 85.1475 819.206 85.012C819.071 84.9443 819.003 84.8088 818.867 84.7411C818.732 84.6056 818.529 84.4701 818.393 84.3346C818.325 84.2669 818.258 84.1992 818.122 84.1314C817.987 83.9959 817.851 83.9282 817.716 83.8605C817.58 83.725 817.445 83.6573 817.309 83.5218C817.242 83.454 817.174 83.454 817.106 83.3863C816.903 83.2508 816.768 83.1153 816.564 82.9799C816.429 82.9121 816.293 82.7766 816.226 82.7089L816.158 82.6412C815.819 82.438 815.48 82.2347 815.21 82.0315C815.21 82.0315 815.142 82.0315 815.142 81.9638C814.871 81.7606 814.532 81.6251 814.261 81.4219C814.193 81.3541 814.126 81.3541 814.058 81.2864L795.294 91.4472L813.787 80.6768L679.394 3.11611C679.123 2.98063 678.92 2.84515 678.649 2.70967C678.581 2.64194 678.445 2.64194 678.378 2.5742C678.242 2.50646 678.107 2.43872 678.039 2.37098C677.971 2.30324 677.836 2.2355 677.768 2.2355C677.633 2.16777 677.429 2.10003 677.294 2.03229C677.158 1.96455 677.091 1.89681 676.955 1.89681C676.887 1.89681 676.887 1.82907 676.82 1.82907C676.481 1.6936 676.21 1.55812 675.871 1.42264C675.533 1.28717 675.262 1.15169 674.923 1.08395C674.855 1.08395 674.855 1.08395 674.787 1.01621C674.652 0.948472 674.584 0.948472 674.449 0.880734C674.313 0.812995 674.11 0.745257 673.975 0.745257C673.907 0.745257 673.839 0.677518 673.771 0.677518C673.704 0.677518 673.568 0.60978 673.433 0.60978C673.297 0.60978 673.23 0.542041 673.094 0.542041C672.959 0.542041 672.891 0.474302 672.755 0.474302C672.62 0.474302 672.484 0.406564 672.349 0.406564C672.281 0.406564 672.213 0.406564 672.146 0.338825C672.01 0.338825 671.875 0.271087 671.739 0.271087C671.604 0.271087 671.401 0.203348 671.265 0.203348C671.197 0.203348 671.13 0.203348 671.13 0.203348C670.994 0.203348 670.859 0.203348 670.723 0.13561C670.588 0.13561 670.384 0.0678711 670.249 0.0678711C670.181 0.0678711 670.181 0.0678711 670.114 0.0678711C669.978 0.0678711 669.91 0.0678711 669.775 0.0678711C669.572 0.0678711 669.368 0.0678711 669.165 0.0678711C669.097 0.0678711 669.03 0.0678711 669.03 0.0678711C668.962 0.0678711 668.894 0.0678711 668.759 0.0678711C668.488 0.0678711 668.285 0.0678711 668.014 0.13561C667.946 0.13561 667.878 0.13561 667.81 0.13561C667.743 0.13561 667.675 0.13561 667.675 0.13561C667.336 0.203348 666.93 0.203348 666.591 0.271087H666.523C666.456 0.271087 666.388 0.338825 666.32 0.338825C666.117 0.406564 665.914 0.406564 665.643 0.474302C665.507 0.474302 665.44 0.542041 665.304 0.542041C665.169 0.60978 665.033 0.60978 664.898 0.677518C664.83 0.677518 664.83 0.677518 664.83 0.745257C664.627 0.812995 664.423 0.880734 664.22 1.01621C664.153 1.08395 664.017 1.08395 663.949 1.15169C663.678 1.21943 663.407 1.3549 663.136 1.55812L639.292 15.4445C639.563 15.309 639.834 15.1058 640.173 14.9704C640.241 14.9026 640.376 14.9026 640.444 14.8349C640.647 14.7671 640.85 14.6317 641.054 14.5639C641.189 14.4962 641.392 14.4284 641.528 14.4284C641.663 14.4284 641.731 14.3607 641.867 14.3607C642.07 14.293 642.273 14.2252 642.544 14.2252C642.612 14.2252 642.679 14.1575 642.747 14.1575C642.815 14.1575 642.815 14.1575 642.883 14.1575C643.221 14.0898 643.56 14.022 643.966 14.022C644.102 14.022 644.237 14.022 644.373 14.022C644.644 14.022 644.847 14.022 645.118 13.9543C645.253 13.9543 645.389 13.9543 645.524 13.9543C645.728 13.9543 645.931 13.9543 646.134 13.9543C646.27 13.9543 646.473 13.9543 646.608 13.9543C646.744 13.9543 646.947 13.9543 647.082 14.022C647.286 14.022 647.421 14.0898 647.624 14.0898C647.76 14.0898 647.963 14.1575 648.098 14.1575C648.302 14.1575 648.505 14.2252 648.708 14.293C648.844 14.293 648.979 14.3607 649.115 14.3607C649.318 14.4284 649.521 14.4284 649.724 14.4962C649.86 14.5639 649.995 14.5639 650.131 14.6317C650.334 14.6994 650.605 14.7671 650.808 14.8349C650.944 14.9026 651.011 14.9026 651.147 14.9704C651.485 15.1058 651.824 15.2413 652.163 15.3768C652.502 15.5123 652.84 15.6477 653.247 15.851C653.382 15.9187 653.45 15.9864 653.585 15.9864C653.856 16.1219 654.059 16.2574 654.33 16.3251C654.466 16.3929 654.601 16.4606 654.737 16.5283C655.076 16.7316 655.414 16.867 655.753 17.0702L790.146 94.6309C790.553 94.8341 790.891 95.1051 791.298 95.3083C791.298 95.3083 791.366 95.3083 791.366 95.376C791.704 95.5792 792.111 95.8502 792.449 96.1211C792.585 96.1889 792.72 96.3244 792.788 96.3921C793.059 96.5276 793.262 96.7308 793.465 96.934C793.601 97.0695 793.736 97.1372 793.872 97.2727C794.075 97.4082 794.278 97.6114 794.482 97.7469C794.617 97.8823 794.82 98.0178 794.956 98.1533C795.159 98.2888 795.362 98.492 795.565 98.6952C795.701 98.8307 795.904 98.9662 796.04 99.1016C796.243 99.3049 796.446 99.4403 796.649 99.6435C796.785 99.779 796.988 99.9145 797.123 100.05C797.327 100.253 797.53 100.456 797.733 100.592C797.868 100.727 798.004 100.863 798.139 100.998C798.343 101.202 798.546 101.405 798.749 101.608C798.885 101.743 799.02 101.879 799.155 102.014C799.359 102.285 799.63 102.489 799.833 102.76C799.901 102.895 800.036 102.963 800.104 103.098C800.443 103.437 800.713 103.843 801.052 104.182C801.12 104.25 801.12 104.318 801.188 104.385C801.459 104.724 801.73 104.995 801.933 105.334C802.271 105.74 802.61 106.146 802.881 106.621C803.355 107.23 803.762 107.84 804.168 108.45C804.236 108.585 804.371 108.721 804.439 108.924C804.575 109.127 804.71 109.398 804.913 109.601C805.049 109.804 805.184 110.008 805.32 110.211C805.455 110.414 805.591 110.685 805.726 110.888C805.862 111.091 805.929 111.295 806.065 111.498C806.404 112.107 806.742 112.649 807.081 113.259C807.216 113.462 807.284 113.665 807.42 113.936C807.555 114.14 807.691 114.411 807.758 114.614C807.894 114.952 808.097 115.291 808.232 115.63C808.3 115.765 808.368 115.833 808.368 115.969C808.571 116.375 808.774 116.849 808.978 117.256C809.045 117.391 809.045 117.459 809.113 117.594C809.249 117.933 809.384 118.204 809.52 118.543C809.587 118.678 809.655 118.814 809.723 118.949C809.858 119.288 809.994 119.559 810.061 119.897C810.129 120.033 810.129 120.168 810.197 120.304C810.332 120.71 810.468 121.117 810.603 121.523C810.603 121.591 810.603 121.591 810.671 121.659C810.807 122.065 810.942 122.539 811.077 122.946C811.145 123.081 811.145 123.217 811.213 123.352C811.281 123.623 811.416 123.962 811.484 124.233C811.552 124.368 811.552 124.571 811.619 124.707C811.687 124.978 811.755 125.249 811.823 125.587C811.89 125.723 811.89 125.926 811.958 126.062C812.026 126.333 812.094 126.671 812.161 126.942C812.161 127.078 812.229 127.281 812.229 127.416C812.297 127.823 812.365 128.161 812.432 128.568C812.432 128.636 812.432 128.703 812.432 128.703C812.5 129.11 812.568 129.584 812.635 129.99C812.635 130.126 812.635 130.261 812.703 130.329C812.771 130.668 812.771 130.939 812.771 131.277C812.771 131.413 812.771 131.548 812.839 131.752C812.839 132.023 812.906 132.361 812.906 132.632C812.906 132.768 812.906 132.903 812.906 133.039C812.906 133.445 812.906 133.852 812.906 134.258L811.755 489.005C811.755 489.411 811.755 489.818 811.755 490.292C811.755 490.427 811.755 490.495 811.755 490.631C811.755 490.901 811.687 491.172 811.687 491.443C811.687 491.579 811.687 491.782 811.619 491.918C811.619 492.121 811.552 492.392 811.552 492.595C811.552 492.73 811.484 492.934 811.484 493.069C811.484 493.272 811.416 493.476 811.348 493.679C811.281 493.882 811.281 494.017 811.213 494.221C811.145 494.424 811.145 494.559 811.077 494.763C811.01 494.966 810.942 495.169 810.942 495.372C810.874 495.508 810.874 495.711 810.807 495.846C810.739 496.117 810.671 496.321 810.536 496.591C810.468 496.727 810.468 496.862 810.4 496.998C810.265 497.404 810.061 497.811 809.926 498.15C809.79 498.42 809.655 498.691 809.52 498.962C809.384 499.233 809.249 499.504 809.045 499.707C808.842 500.046 808.571 500.385 808.3 500.724C808.232 500.791 808.165 500.859 808.097 500.927C807.826 501.198 807.555 501.536 807.284 501.807L807.216 501.875C806.945 502.146 806.607 502.417 806.268 502.688C806.2 502.756 806.133 502.823 806.065 502.891C805.726 503.162 805.387 503.365 805.049 503.569L828.893 489.682C829.231 489.479 829.57 489.276 829.909 489.005C829.977 488.937 830.044 488.869 830.112 488.802C830.451 488.531 830.722 488.26 831.06 487.989L831.128 487.921C831.399 487.65 831.67 487.379 831.941 487.04C832.009 486.973 832.076 486.905 832.144 486.837C832.415 486.498 832.686 486.16 832.889 485.821C833.025 485.55 833.16 485.347 833.363 485.076C833.499 484.805 833.634 484.534 833.77 484.263C833.77 484.263 833.77 484.263 833.77 484.195C833.973 483.789 834.109 483.45 834.244 483.044C834.244 482.976 834.244 482.976 834.312 482.976C834.38 482.908 834.38 482.773 834.38 482.705C834.447 482.434 834.515 482.231 834.65 481.96C834.65 481.892 834.718 481.825 834.718 481.757C834.718 481.689 834.786 481.554 834.786 481.486C834.854 481.283 834.921 481.079 834.921 480.876C834.921 480.808 834.989 480.741 834.989 480.605C834.989 480.537 835.057 480.402 835.057 480.334C835.125 480.131 835.125 479.996 835.192 479.792C835.192 479.725 835.26 479.589 835.26 479.521C835.26 479.386 835.26 479.318 835.328 479.183C835.328 479.047 835.396 478.844 835.396 478.709C835.396 478.641 835.396 478.573 835.463 478.438C835.463 478.302 835.463 478.167 835.531 478.031C835.531 477.896 835.599 477.692 835.599 477.557C835.599 477.489 835.599 477.422 835.599 477.354C835.599 477.151 835.599 476.947 835.667 476.676C835.667 476.541 835.667 476.473 835.667 476.338V476.27C835.667 475.931 835.667 475.525 835.667 475.186V475.118L836.683 120.236C836.683 119.965 836.615 119.626 836.615 119.22Z" fill="url(#paint12_linear_261_2)"/>
<g filter="url(#filter3_b_261_2)">
<path d="M706.047 123.684L705.814 228.198C705.814 237.256 699.511 240.739 691.575 236.327L554.088 157.36C546.385 152.715 540.083 142.032 540.083 132.974L540.316 28.4598C540.316 19.4019 546.619 15.9181 554.555 20.3309L691.808 99.297C699.745 103.942 706.047 114.858 706.047 123.684Z" fill="url(#paint13_linear_261_2)"/>
<path d="M699.745 94.8842L562.492 15.9181C558.523 13.5956 555.022 13.3633 552.454 14.9891L544.518 19.6341C547.086 18.0084 550.587 18.2406 554.555 20.5632L691.808 99.5293C699.745 103.942 706.047 114.858 705.814 123.916L705.58 228.43C705.58 232.843 703.946 236.094 701.379 237.488L709.082 233.075C711.649 231.681 713.283 228.43 713.283 224.017L713.517 119.503C713.75 110.213 707.448 99.297 699.745 94.8842Z" fill="url(#paint14_linear_261_2)"/>
<path d="M706.047 123.684L705.814 228.198C704.413 203.811 703.946 179.657 703.48 155.27L703.246 146.212V137.154V128.096V125.774V124.613C703.246 124.148 703.246 123.916 703.246 123.451C703.246 122.755 703.246 122.058 703.013 121.593C703.013 120.897 702.779 120.2 702.546 119.735C701.846 117.18 700.912 114.626 699.511 112.071C698.111 109.748 696.477 107.426 694.61 105.568C693.676 104.639 692.509 103.71 691.575 103.013C690.641 102.316 689.241 101.619 687.84 100.923L679.904 96.2777C658.662 84.2005 637.654 71.891 616.88 59.1171C595.871 46.5754 575.097 33.8015 554.555 20.563L691.808 99.5292C699.745 103.942 706.047 114.858 706.047 123.684Z" fill="url(#paint15_radial_261_2)"/>
<path d="M556.89 100.458L558.757 101.619V95.3486L559.457 95.5808V102.084L561.325 103.013V129.722L559.457 128.793V134.367L558.757 133.903V128.329L556.89 127.167V100.458Z" fill="url(#paint16_linear_261_2)"/>
<path d="M582.099 116.484L583.967 117.645V111.374L584.667 111.606V117.877L586.768 119.039V140.87L584.667 139.709V145.283L583.967 145.051V139.477L582.099 138.316V116.484Z" fill="url(#paint17_linear_261_2)"/>
<path d="M661.93 137.851L663.798 139.012V132.741L664.498 132.974V139.477L666.365 140.406V162.238L664.498 161.309V166.883L663.798 166.418V160.844L661.93 159.683V137.851Z" fill="url(#paint18_linear_261_2)"/>
<path d="M623.882 96.9742L625.749 98.1355V91.8646L626.45 92.0969V98.6L628.317 99.529V121.361L626.45 120.2V125.774L625.749 125.541V119.967L623.882 118.806V96.9742Z" fill="url(#paint19_linear_261_2)"/>
<path d="M592.37 107.194L594.237 108.123V101.852L594.938 102.316V108.587L596.805 109.748V146.677L594.938 145.515V151.089L594.237 150.857V145.051L592.37 144.122V107.194Z" fill="url(#paint20_linear_261_2)"/>
<path d="M643.023 109.748L645.124 110.91V104.639L645.824 104.871V111.374L647.691 112.303V149.231L645.824 148.302V153.876L645.124 153.412V147.838L643.023 146.677V109.748Z" fill="url(#paint21_linear_261_2)"/>
<path d="M613.612 95.3486L615.479 96.5099V90.239L616.179 90.4713V96.7421L618.047 97.9034V145.051L616.179 144.122V149.696L615.479 149.231V143.657L613.612 142.728V95.3486Z" fill="url(#paint22_linear_261_2)"/>
<path d="M564.826 109.284L566.693 110.445V103.942L567.394 104.407V110.677L569.261 111.839V129.954L567.394 128.793V134.367L566.693 134.135V128.561L564.826 127.4V109.284Z" fill="url(#paint23_linear_261_2)"/>
<path d="M602.641 117.413L604.508 118.574V112.303L605.208 112.536V119.039L607.076 119.968V138.083L605.208 137.154V142.728L604.508 142.264V136.69L602.641 135.529V117.413Z" fill="url(#paint24_linear_261_2)"/>
<path d="M633.452 112.071L635.32 113V106.729L636.02 107.193V113.464L637.887 114.393V132.509L636.02 131.58V137.154L635.32 136.69V131.116L633.452 130.187V112.071Z" fill="url(#paint25_linear_261_2)"/>
<path d="M573.463 122.522L575.33 123.451V117.18L576.03 117.645V123.916L577.898 125.077V144.586L576.03 143.657V149.231L575.33 148.767V143.193L573.463 142.264V122.522Z" fill="url(#paint26_linear_261_2)"/>
<path d="M652.827 135.993L654.927 137.154V130.883L655.628 131.116V137.387L657.495 138.548V177.102L655.628 176.173V181.747L654.927 181.282V175.708L652.827 174.547V135.993Z" fill="url(#paint27_linear_261_2)"/>
<path d="M582.566 67.4784L555.489 52.1496V48.6658L582.566 64.2268V67.4784Z" fill="url(#paint28_linear_261_2)"/>
<path d="M597.272 83.9681L555.489 60.2782V56.7944L597.272 80.4843V83.9681Z" fill="url(#paint29_linear_261_2)"/>
<path d="M695.076 135.761L680.604 127.632V124.612L695.076 132.741V135.761Z" fill="url(#paint30_linear_261_2)"/>
<path d="M695.076 149.231L680.604 141.102V138.315L695.076 146.444V149.231Z" fill="url(#paint31_linear_261_2)"/>
<path d="M695.076 162.005L680.604 153.877V150.857L695.076 158.986V162.005Z" fill="url(#paint32_linear_261_2)"/>
<path d="M695.076 175.476L680.604 167.347V164.328L695.076 172.457V175.476Z" fill="url(#paint33_linear_261_2)"/>
<path d="M695.076 188.25L680.604 180.121V177.102L695.076 185.231V188.25Z" fill="url(#paint34_linear_261_2)"/>
<path d="M695.076 201.721L680.604 193.592V190.572L695.076 198.701V201.721Z" fill="url(#paint35_linear_261_2)"/>
</g>
<g clip-path="url(#clip0_261_2)" filter="url(#filter4_b_261_2)">
<path d="M838.916 374.63L838.704 469.3C838.704 477.505 832.981 480.661 825.774 476.663L700.923 405.135C693.928 400.928 688.205 391.25 688.205 383.046L688.417 288.376C688.417 280.171 694.14 277.015 701.347 281.013L825.986 352.541C833.193 356.748 838.916 366.636 838.916 374.63Z" fill="url(#paint36_linear_261_2)"/>
<path d="M833.193 348.544L708.554 277.015C704.95 274.912 701.771 274.701 699.439 276.174L692.232 280.381C694.564 278.909 697.743 279.119 701.347 281.223L825.986 352.751C833.193 356.748 838.916 366.636 838.704 374.841L838.492 469.511C838.492 473.508 837.008 476.453 834.676 477.715L841.671 473.718C844.003 472.456 845.487 469.511 845.487 465.513L845.699 370.844C845.911 362.429 840.188 352.541 833.193 348.544Z" fill="url(#paint37_linear_261_2)"/>
<path d="M838.916 374.63L838.704 469.3C837.432 447.211 837.008 425.331 836.584 403.242L836.372 395.037V386.832V378.628V376.524V375.472C836.372 375.051 836.372 374.841 836.372 374.42C836.372 373.789 836.372 373.158 836.16 372.737C836.16 372.106 835.948 371.475 835.736 371.054C835.1 368.74 834.253 366.426 832.981 364.112C831.709 362.008 830.225 359.904 828.529 358.221C827.681 357.379 826.622 356.538 825.774 355.907C824.926 355.276 823.654 354.645 822.382 354.013L815.175 349.806C795.886 338.866 776.808 327.716 757.943 316.146C738.866 304.785 720 293.214 701.347 281.223L825.986 352.751C833.193 356.748 838.916 366.636 838.916 374.63Z" fill="url(#paint38_radial_261_2)"/>
<path d="M787.619 418.178C781.26 420.703 772.569 419.651 762.819 413.971C743.529 402.821 727.844 377.996 727.844 358.852C727.844 339.708 743.529 333.186 762.819 344.336V379.048L787.619 418.178Z" fill="url(#paint39_linear_261_2)"/>
<path d="M805.849 403.873L763.031 379.048V336.552C786.559 350.227 805.849 380.521 805.849 403.873Z" fill="url(#paint40_linear_261_2)"/>
<path d="M798.006 399.455C798.006 409.132 793.978 415.444 787.619 418.178L763.031 379.048L798.006 399.455Z" fill="url(#paint41_linear_261_2)"/>
<path d="M822.17 378.628V402.19C821.535 401.98 820.899 401.769 820.263 401.348C819.627 400.928 818.991 400.507 818.355 399.876V376.314L822.17 378.628Z" fill="url(#paint42_linear_261_2)"/>
<path d="M822.17 402.19V450.787L818.355 448.473V399.876C818.991 400.507 819.627 400.928 820.263 401.348C820.899 401.769 821.535 401.979 822.17 402.19Z" fill="url(#paint43_linear_261_2)"/>
<path d="M822.17 397.772V401.98C821.535 401.769 820.899 401.559 820.263 401.138C819.627 400.717 818.991 400.297 818.355 399.665V395.458L822.17 397.772Z" fill="#4646BC"/>
<path d="M825.35 399.245C825.35 401.348 824.078 402.4 822.17 402.19C821.534 401.979 820.899 401.769 820.263 401.348C819.627 400.928 818.991 400.507 818.355 399.876C816.447 397.982 815.175 395.247 815.175 393.144C815.175 391.04 816.447 389.988 818.355 390.198C818.991 390.409 819.627 390.619 820.263 391.04C820.899 391.461 821.534 391.881 822.17 392.513C824.078 394.406 825.35 397.141 825.35 399.245Z" fill="white"/>
<path d="M822.806 397.772C822.806 399.245 821.746 399.665 820.263 398.824C818.779 397.982 817.719 396.089 817.719 394.827C817.719 393.354 818.779 392.933 820.263 393.775C821.534 394.406 822.806 396.299 822.806 397.772Z" fill="url(#paint44_linear_261_2)"/>
<path d="M740.138 414.602L734.626 411.446C733.99 411.026 733.354 410.184 733.354 409.343V403.873C733.354 403.242 733.99 403.031 734.626 403.242L740.138 406.397C740.773 406.818 741.409 407.66 741.409 408.501V414.181C741.409 414.813 740.985 415.023 740.138 414.602Z" fill="url(#paint45_linear_261_2)"/>
<path d="M756.883 424.279L751.372 421.124C750.736 420.703 750.1 419.862 750.1 419.02V413.55C750.1 412.919 750.736 412.709 751.372 412.919L756.883 416.075C757.519 416.496 758.155 417.337 758.155 418.179V423.648C758.155 424.49 757.519 424.7 756.883 424.279Z" fill="url(#paint46_linear_261_2)"/>
<path d="M774.053 434.167L768.33 431.012C767.694 430.591 767.058 429.749 767.058 428.908V423.438C767.058 422.807 767.694 422.597 768.33 422.807L773.841 425.963C774.477 426.383 775.113 427.225 775.113 428.066V433.536C775.325 434.378 774.689 434.588 774.053 434.167Z" fill="url(#paint47_linear_261_2)"/>
<path d="M791.434 444.265L785.711 441.11C785.075 440.689 784.439 439.847 784.439 439.006V433.536C784.439 432.905 785.075 432.695 785.711 432.905L791.223 436.061C791.858 436.481 792.494 437.323 792.494 438.164V443.634C792.706 444.476 792.07 444.686 791.434 444.265Z" fill="url(#paint48_linear_261_2)"/>
<path d="M730.175 325.402L699.863 307.73V303.102L730.175 320.774V325.402Z" fill="url(#paint49_linear_261_2)"/>
</g>
<path opacity="0.8" d="M441.626 304.472L632.162 572.203L728.651 627.85C732.023 629.799 735.849 630.825 739.745 630.825C743.64 630.825 747.467 629.799 750.839 627.85L847.328 572.203L1027.14 310.979C1027.14 310.979 862.765 200.091 736.929 207.75C604.884 215.917 441.626 304.472 441.626 304.472Z" fill="url(#paint50_linear_261_2)"/>
<defs>
<filter id="filter0_f_261_2" x="0.0932617" y="5.67371" width="1481.78" height="1315.25" filterUnits="userSpaceOnUse" color-interpolation-filters="sRGB">
<feFlood flood-opacity="0" result="BackgroundImageFix"/>
<feBlend mode="normal" in="SourceGraphic" in2="BackgroundImageFix" result="shape"/>
<feGaussianBlur stdDeviation="200" result="effect1_foregroundBlur_261_2"/>
</filter>
<filter id="filter1_f_261_2" x="363.073" y="290.88" width="783.574" height="771.376" filterUnits="userSpaceOnUse" color-interpolation-filters="sRGB">
<feFlood flood-opacity="0" result="BackgroundImageFix"/>
<feBlend mode="normal" in="SourceGraphic" in2="BackgroundImageFix" result="shape"/>
<feGaussianBlur stdDeviation="75" result="effect1_foregroundBlur_261_2"/>
</filter>
<filter id="filter2_f_261_2" x="525.431" y="450.625" width="457.986" height="451.887" filterUnits="userSpaceOnUse" color-interpolation-filters="sRGB">
<feFlood flood-opacity="0" result="BackgroundImageFix"/>
<feBlend mode="normal" in="SourceGraphic" in2="BackgroundImageFix" result="shape"/>
<feGaussianBlur stdDeviation="40" result="effect1_foregroundBlur_261_2"/>
</filter>
<filter id="filter3_b_261_2" x="530.083" y="3.94086" width="193.44" height="244.289" filterUnits="userSpaceOnUse" color-interpolation-filters="sRGB">
<feFlood flood-opacity="0" result="BackgroundImageFix"/>
<feGaussianBlur in="BackgroundImage" stdDeviation="5"/>
<feComposite in2="SourceAlpha" operator="in" result="effect1_backgroundBlur_261_2"/>
<feBlend mode="normal" in="SourceGraphic" in2="effect1_backgroundBlur_261_2" result="shape"/>
</filter>
<filter id="filter4_b_261_2" x="678.205" y="265.332" width="177.706" height="223.014" filterUnits="userSpaceOnUse" color-interpolation-filters="sRGB">
<feFlood flood-opacity="0" result="BackgroundImageFix"/>
<feGaussianBlur in="BackgroundImage" stdDeviation="5"/>
<feComposite in2="SourceAlpha" operator="in" result="effect1_backgroundBlur_261_2"/>
<feBlend mode="normal" in="SourceGraphic" in2="effect1_backgroundBlur_261_2" result="shape"/>
</filter>
<linearGradient id="paint0_linear_261_2" x1="549.748" y1="767.105" x2="931.486" y2="767.105" gradientUnits="userSpaceOnUse">
<stop stop-color="#FCF8FF"/>
<stop offset="0.2909" stop-color="#D7B8F2"/>
<stop offset="1" stop-color="#4D58FF"/>
</linearGradient>
<linearGradient id="paint1_linear_261_2" x1="786.262" y1="623.037" x2="704.746" y2="771.042" gradientUnits="userSpaceOnUse">
<stop stop-color="#D3CFFF"/>
<stop offset="1" stop-color="white"/>
</linearGradient>
<linearGradient id="paint2_linear_261_2" x1="598.493" y1="721.431" x2="878.366" y2="721.431" gradientUnits="userSpaceOnUse">
<stop stop-color="#FCF8FF"/>
<stop offset="0.2909" stop-color="#D7B8F2"/>
<stop offset="1" stop-color="#4D58FF"/>
</linearGradient>
<linearGradient id="paint3_linear_261_2" x1="771.894" y1="615.653" x2="711.997" y2="724.247" gradientUnits="userSpaceOnUse">
<stop stop-color="#D3CFFF"/>
<stop offset="1" stop-color="white"/>
</linearGradient>
<linearGradient id="paint4_linear_261_2" x1="598.493" y1="679.945" x2="878.366" y2="679.945" gradientUnits="userSpaceOnUse">
<stop stop-color="#FCF8FF"/>
<stop offset="0.2909" stop-color="#D7B8F2"/>
<stop offset="1" stop-color="#4D58FF"/>
</linearGradient>
<linearGradient id="paint5_linear_261_2" x1="771.894" y1="574.167" x2="711.997" y2="682.762" gradientUnits="userSpaceOnUse">
<stop stop-color="#D3CFFF"/>
<stop offset="1" stop-color="white"/>
</linearGradient>
<linearGradient id="paint6_linear_261_2" x1="603.679" y1="631.199" x2="883.551" y2="631.199" gradientUnits="userSpaceOnUse">
<stop stop-color="#FCF8FF"/>
<stop offset="0.2909" stop-color="#D7B8F2"/>
<stop offset="1" stop-color="#4D58FF"/>
</linearGradient>
<linearGradient id="paint7_linear_261_2" x1="777.08" y1="525.421" x2="717.183" y2="634.016" gradientUnits="userSpaceOnUse">
<stop stop-color="#D3CFFF"/>
<stop offset="1" stop-color="white"/>
</linearGradient>
<linearGradient id="paint8_linear_261_2" x1="675.242" y1="592.816" x2="812.17" y2="592.816" gradientUnits="userSpaceOnUse">
<stop stop-color="#FCF8FF"/>
<stop offset="0.2909" stop-color="#D7B8F2"/>
<stop offset="1" stop-color="#4D58FF"/>
</linearGradient>
<linearGradient id="paint9_linear_261_2" x1="760.078" y1="540.951" x2="730.676" y2="594.142" gradientUnits="userSpaceOnUse">
<stop stop-color="#D3CFFF"/>
<stop offset="1" stop-color="white"/>
</linearGradient>
<linearGradient id="paint10_linear_261_2" x1="631.57" y1="259.563" x2="812.781" y2="259.563" gradientUnits="userSpaceOnUse">
<stop stop-color="#FCF8FF"/>
<stop offset="0.2909" stop-color="#D7B8F2"/>
<stop offset="1" stop-color="#4D58FF"/>
</linearGradient>
<linearGradient id="paint11_linear_261_2" x1="642.625" y1="259.567" x2="801.727" y2="259.567" gradientUnits="userSpaceOnUse">
<stop stop-color="#D3CFFF"/>
<stop offset="1" stop-color="white"/>
</linearGradient>
<linearGradient id="paint12_linear_261_2" x1="639.26" y1="251.853" x2="836.652" y2="251.853" gradientUnits="userSpaceOnUse">
<stop stop-color="#FCF8FF"/>
<stop offset="0.2909" stop-color="#D7B8F2"/>
<stop offset="1" stop-color="#4D58FF"/>
</linearGradient>
<linearGradient id="paint13_linear_261_2" x1="583.685" y1="28.1887" x2="688.521" y2="297.629" gradientUnits="userSpaceOnUse">
<stop stop-color="#E4C8ED"/>
<stop offset="0.3293" stop-color="#6363EA"/>
<stop offset="1" stop-color="#4D58FF" stop-opacity="0"/>
</linearGradient>
<linearGradient id="paint14_linear_261_2" x1="620.86" y1="151.614" x2="702.698" y2="-141.762" gradientUnits="userSpaceOnUse">
<stop stop-color="#E4C8ED"/>
<stop offset="0.3293" stop-color="#6363EA"/>
<stop offset="1" stop-color="#4D58FF" stop-opacity="0"/>
</linearGradient>
<radialGradient id="paint15_radial_261_2" cx="0" cy="0" r="1" gradientUnits="userSpaceOnUse" gradientTransform="translate(714.441 94.9408) scale(228.229 227.085)">
<stop stop-color="#E4C8ED"/>
<stop offset="0.3293" stop-color="#6363EA"/>
<stop offset="1" stop-color="#4D58FF" stop-opacity="0"/>
</radialGradient>
<linearGradient id="paint16_linear_261_2" x1="562.415" y1="210.022" x2="558.943" y2="106.716" gradientUnits="userSpaceOnUse">
<stop stop-color="#2A67E7"/>
<stop offset="1" stop-color="#9AFFFF"/>
</linearGradient>
<linearGradient id="paint17_linear_261_2" x1="587.155" y1="209.191" x2="583.682" y2="105.885" gradientUnits="userSpaceOnUse">
<stop stop-color="#2A67E7"/>
<stop offset="1" stop-color="#9AFFFF"/>
</linearGradient>
<linearGradient id="paint18_linear_261_2" x1="665.974" y1="206.542" x2="662.501" y2="103.235" gradientUnits="userSpaceOnUse">
<stop stop-color="#2A67E7"/>
<stop offset="1" stop-color="#9AFFFF"/>
</linearGradient>
<linearGradient id="paint19_linear_261_2" x1="629.393" y1="207.771" x2="625.92" y2="104.465" gradientUnits="userSpaceOnUse">
<stop stop-color="#2A67E7"/>
<stop offset="1" stop-color="#9AFFFF"/>
</linearGradient>
<linearGradient id="paint20_linear_261_2" x1="597.41" y1="208.846" x2="593.937" y2="105.54" gradientUnits="userSpaceOnUse">
<stop stop-color="#2A67E7"/>
<stop offset="1" stop-color="#9AFFFF"/>
</linearGradient>
<linearGradient id="paint21_linear_261_2" x1="648.002" y1="207.145" x2="644.529" y2="103.84" gradientUnits="userSpaceOnUse">
<stop stop-color="#2A67E7"/>
<stop offset="1" stop-color="#9AFFFF"/>
</linearGradient>
<linearGradient id="paint22_linear_261_2" x1="618.824" y1="208.126" x2="615.351" y2="104.82" gradientUnits="userSpaceOnUse">
<stop stop-color="#2A67E7"/>
<stop offset="1" stop-color="#9AFFFF"/>
</linearGradient>
<linearGradient id="paint23_linear_261_2" x1="568.591" y1="88.622" x2="563.902" y2="180.499" gradientUnits="userSpaceOnUse">
<stop stop-color="white"/>
<stop offset="0.1971" stop-color="#E7AE82"/>
<stop offset="0.7098" stop-color="#FF4F9C"/>
<stop offset="1" stop-color="#4D58FF"/>
</linearGradient>
<linearGradient id="paint24_linear_261_2" x1="606.751" y1="90.5692" x2="602.063" y2="182.447" gradientUnits="userSpaceOnUse">
<stop stop-color="white"/>
<stop offset="0.1971" stop-color="#E7AE82"/>
<stop offset="0.7098" stop-color="#FF4F9C"/>
<stop offset="1" stop-color="#4D58FF"/>
</linearGradient>
<linearGradient id="paint25_linear_261_2" x1="637.175" y1="92.1214" x2="632.486" y2="183.999" gradientUnits="userSpaceOnUse">
<stop stop-color="white"/>
<stop offset="0.1971" stop-color="#E7AE82"/>
<stop offset="0.7098" stop-color="#FF4F9C"/>
<stop offset="1" stop-color="#4D58FF"/>
</linearGradient>
<linearGradient id="paint26_linear_261_2" x1="577.999" y1="89.1019" x2="573.311" y2="180.98" gradientUnits="userSpaceOnUse">
<stop stop-color="white"/>
<stop offset="0.1971" stop-color="#E7AE82"/>
<stop offset="0.7098" stop-color="#FF4F9C"/>
<stop offset="1" stop-color="#4D58FF"/>
</linearGradient>
<linearGradient id="paint27_linear_261_2" x1="658.439" y1="93.2061" x2="653.75" y2="185.084" gradientUnits="userSpaceOnUse">
<stop stop-color="white"/>
<stop offset="0.1971" stop-color="#E7AE82"/>
<stop offset="0.7098" stop-color="#FF4F9C"/>
<stop offset="1" stop-color="#4D58FF"/>
</linearGradient>
<linearGradient id="paint28_linear_261_2" x1="569.586" y1="41.9553" x2="567.85" y2="91.5146" gradientUnits="userSpaceOnUse">
<stop stop-color="#6363EA"/>
<stop offset="1" stop-color="#4D58FF" stop-opacity="0.2"/>
</linearGradient>
<linearGradient id="paint29_linear_261_2" x1="577.35" y1="42.2273" x2="575.614" y2="91.7866" gradientUnits="userSpaceOnUse">
<stop stop-color="#6363EA"/>
<stop offset="1" stop-color="#4D58FF" stop-opacity="0.2"/>
</linearGradient>
<linearGradient id="paint30_linear_261_2" x1="687.974" y1="132.322" x2="694.224" y2="265.993" gradientUnits="userSpaceOnUse">
<stop stop-color="#E4C8ED"/>
<stop offset="0.7476" stop-color="#565EFE" stop-opacity="0.3"/>
</linearGradient>
<linearGradient id="paint31_linear_261_2" x1="687.337" y1="132.352" x2="693.588" y2="266.024" gradientUnits="userSpaceOnUse">
<stop stop-color="#E4C8ED"/>
<stop offset="0.7476" stop-color="#565EFE" stop-opacity="0.3"/>
</linearGradient>
<linearGradient id="paint32_linear_261_2" x1="686.74" y1="132.38" x2="692.99" y2="266.051" gradientUnits="userSpaceOnUse">
<stop stop-color="#E4C8ED"/>
<stop offset="0.7476" stop-color="#565EFE" stop-opacity="0.3"/>
</linearGradient>
<linearGradient id="paint33_linear_261_2" x1="686.103" y1="132.41" x2="692.354" y2="266.081" gradientUnits="userSpaceOnUse">
<stop stop-color="#E4C8ED"/>
<stop offset="0.7476" stop-color="#565EFE" stop-opacity="0.3"/>
</linearGradient>
<linearGradient id="paint34_linear_261_2" x1="685.504" y1="132.438" x2="691.755" y2="266.109" gradientUnits="userSpaceOnUse">
<stop stop-color="#E4C8ED"/>
<stop offset="0.7476" stop-color="#565EFE" stop-opacity="0.3"/>
</linearGradient>
<linearGradient id="paint35_linear_261_2" x1="684.868" y1="132.467" x2="691.119" y2="266.139" gradientUnits="userSpaceOnUse">
<stop stop-color="#E4C8ED"/>
<stop offset="0.7476" stop-color="#565EFE" stop-opacity="0.3"/>
</linearGradient>
<linearGradient id="paint36_linear_261_2" x1="727.799" y1="288.13" x2="822.585" y2="532.353" gradientUnits="userSpaceOnUse">
<stop stop-color="#E4C8ED"/>
<stop offset="0.3293" stop-color="#6363EA"/>
<stop offset="1" stop-color="#4D58FF" stop-opacity="0"/>
</linearGradient>
<linearGradient id="paint37_linear_261_2" x1="761.558" y1="399.931" x2="835.528" y2="134.091" gradientUnits="userSpaceOnUse">
<stop stop-color="#E4C8ED"/>
<stop offset="0.3293" stop-color="#6363EA"/>
<stop offset="1" stop-color="#4D58FF" stop-opacity="0"/>
</linearGradient>
<radialGradient id="paint38_radial_261_2" cx="0" cy="0" r="1" gradientUnits="userSpaceOnUse" gradientTransform="translate(846.538 348.595) scale(207.253 205.695)">
<stop stop-color="#E4C8ED"/>
<stop offset="0.3293" stop-color="#6363EA"/>
<stop offset="1" stop-color="#4D58FF" stop-opacity="0"/>
</radialGradient>
<linearGradient id="paint39_linear_261_2" x1="761.225" y1="436.415" x2="752.517" y2="313.352" gradientUnits="userSpaceOnUse">
<stop stop-color="#6363EA"/>
<stop offset="1" stop-color="#4D58FF" stop-opacity="0.2"/>
</linearGradient>
<linearGradient id="paint40_linear_261_2" x1="789.652" y1="337.402" x2="778.588" y2="407.846" gradientUnits="userSpaceOnUse">
<stop stop-color="white"/>
<stop offset="0.1971" stop-color="#E7AE82"/>
<stop offset="0.7098" stop-color="#FF4F9C"/>
<stop offset="1" stop-color="#4D58FF"/>
</linearGradient>
<linearGradient id="paint41_linear_261_2" x1="771.696" y1="409.336" x2="785.861" y2="382.219" gradientUnits="userSpaceOnUse">
<stop stop-color="#2A67E7"/>
<stop offset="1" stop-color="#9AFFFF"/>
</linearGradient>
<linearGradient id="paint42_linear_261_2" x1="819.254" y1="359.416" x2="821.607" y2="439.319" gradientUnits="userSpaceOnUse">
<stop stop-color="#6363EA"/>
<stop offset="1" stop-color="#4D58FF" stop-opacity="0.2"/>
</linearGradient>
<linearGradient id="paint43_linear_261_2" x1="825.048" y1="369.119" x2="815.869" y2="476.062" gradientUnits="userSpaceOnUse">
<stop stop-color="white"/>
<stop offset="0.1971" stop-color="#E7AE82"/>
<stop offset="0.7098" stop-color="#FF4F9C"/>
<stop offset="1" stop-color="#4D58FF"/>
</linearGradient>
<linearGradient id="paint44_linear_261_2" x1="820.279" y1="393.628" x2="818.985" y2="419.117" gradientUnits="userSpaceOnUse">
<stop stop-color="#6363EA"/>
<stop offset="1" stop-color="#4D58FF" stop-opacity="0.2"/>
</linearGradient>
<linearGradient id="paint45_linear_261_2" x1="746.486" y1="388.129" x2="712.049" y2="468.694" gradientUnits="userSpaceOnUse">
<stop stop-color="#E4C8ED"/>
<stop offset="0.7524" stop-color="#6363EA"/>
</linearGradient>
<linearGradient id="paint46_linear_261_2" x1="764.05" y1="395.637" x2="729.614" y2="476.202" gradientUnits="userSpaceOnUse">
<stop stop-color="#E4C8ED"/>
<stop offset="0.7524" stop-color="#6363EA"/>
</linearGradient>
<linearGradient id="paint47_linear_261_2" x1="782.113" y1="403.357" x2="747.676" y2="483.922" gradientUnits="userSpaceOnUse">
<stop stop-color="#E4C8ED"/>
<stop offset="0.7524" stop-color="#6363EA"/>
</linearGradient>
<linearGradient id="paint48_linear_261_2" x1="800.505" y1="411.219" x2="766.069" y2="491.784" gradientUnits="userSpaceOnUse">
<stop stop-color="#E4C8ED"/>
<stop offset="0.7524" stop-color="#6363EA"/>
</linearGradient>
<linearGradient id="paint49_linear_261_2" x1="699.883" y1="314.26" x2="730.273" y2="314.26" gradientUnits="userSpaceOnUse">
<stop stop-color="#E4C8ED"/>
<stop offset="0.7476" stop-color="#565EFE" stop-opacity="0.3"/>
</linearGradient>
<linearGradient id="paint50_linear_261_2" x1="731.365" y1="232.727" x2="745.549" y2="582.1" gradientUnits="userSpaceOnUse">
<stop stop-color="#F1EBF9" stop-opacity="0"/>
<stop offset="0.28" stop-color="#F3EFFA" stop-opacity="0"/>
<stop offset="0.3" stop-color="#F3F0FA" stop-opacity="0"/>
<stop offset="0.38" stop-color="#F1F3FB" stop-opacity="0.04"/>
<stop offset="0.5" stop-color="#ECFAFD" stop-opacity="0.13"/>
<stop offset="0.57" stop-color="#E9FFFF" stop-opacity="0.2"/>
<stop offset="0.64" stop-color="#E9FFFF" stop-opacity="0.3"/>
<stop offset="0.78" stop-color="#E8FFFF" stop-opacity="0.56"/>
<stop offset="0.98" stop-color="#E6FFFF" stop-opacity="0.96"/>
<stop offset="1" stop-color="#E6FFFF"/>
</linearGradient>
<clipPath id="clip0_261_2">
<rect width="157.706" height="203.014" fill="white" transform="translate(688.205 275.332)"/>
</clipPath>
</defs>
</svg>
