<svg width="210" height="70" viewBox="0 0 210 70" fill="none" xmlns="http://www.w3.org/2000/svg">
<g filter="url(#filter0_f_206_368)">
<rect x="5" y="5" width="200" height="60" rx="6" fill="#5BCDDA"/>
</g>
<rect x="5.5" y="5.5" width="199" height="59" rx="5.5" fill="white" stroke="url(#paint0_linear_206_368)"/>
<path d="M47.5848 36.45C46.4719 30.849 51.7882 27.5641 51.7882 27.5641C51.7882 27.5641 49.7169 24.5674 46.2358 23.7965C42.7564 23.0238 41.015 23.9891 39.277 24.7131C37.5373 25.4389 36.6693 25.4389 36.6693 25.4389C34.1587 25.4389 32.3235 22.7808 27.5403 23.9909C24.2449 24.8225 20.7759 28.6266 20.1492 33.1668C19.5224 37.7088 20.8749 43.5042 23.4827 47.9958C26.0905 52.4909 28.7469 54.1802 30.6324 54.2288C32.5179 54.2757 34.4 52.8781 36.6693 52.5378C38.9403 52.2009 40.3379 53.3608 42.5654 53.9875C44.7842 54.6126 45.5621 54.0327 48.1178 51.8589C50.6804 49.6851 53 43.4505 53 43.4505C53 43.4505 48.6977 42.0545 47.5848 36.45Z" fill="#0E0910"/>
<path d="M42.6581 20.1727C45.1237 17.6602 44.2885 13.7708 44.2885 13.7708C44.2885 13.7708 40.8262 14.3785 38.5064 16.792C36.1884 19.2073 36.5721 23.0221 36.5721 23.0221C36.5721 23.0221 40.1924 22.6835 42.6581 20.1727Z" fill="#0E0910"/>
<path d="M70.6016 24.8027H66.749L66.0166 27H63.6802L67.6499 16.3359H69.686L73.6777 27H71.3413L70.6016 24.8027ZM67.3423 23.0229H70.0083L68.668 19.0312L67.3423 23.0229ZM77.2848 24.4146L78.7569 19.0752H80.9688L78.2955 27H76.274L73.6007 19.0752H75.8126L77.2848 24.4146ZM86.5314 27C86.4338 26.8096 86.363 26.5728 86.319 26.2896C85.8063 26.8608 85.1398 27.1465 84.3195 27.1465C83.5432 27.1465 82.8986 26.9219 82.3859 26.4727C81.8781 26.0234 81.6242 25.457 81.6242 24.7734C81.6242 23.9336 81.9343 23.2891 82.5544 22.8398C83.1794 22.3906 84.0803 22.1636 85.257 22.1587H86.2312V21.7046C86.2312 21.3384 86.1359 21.0454 85.9455 20.8257C85.76 20.606 85.4646 20.4961 85.0593 20.4961C84.7028 20.4961 84.4221 20.5815 84.217 20.7524C84.0168 20.9233 83.9167 21.1577 83.9167 21.4556H81.8C81.8 20.9966 81.9416 20.5718 82.2248 20.1812C82.508 19.7905 82.9084 19.4854 83.426 19.2656C83.9436 19.041 84.5246 18.9287 85.1691 18.9287C86.1457 18.9287 86.9196 19.1753 87.4909 19.6685C88.0671 20.1567 88.3552 20.8452 88.3552 21.7339V25.1689C88.3601 25.9209 88.465 26.4897 88.6701 26.8755V27H86.5314ZM84.781 25.5278C85.0935 25.5278 85.3815 25.4595 85.6452 25.3228C85.9089 25.1812 86.1042 24.9932 86.2312 24.7588V23.3965H85.4401C84.3806 23.3965 83.8166 23.7627 83.7482 24.4951L83.7409 24.6196C83.7409 24.8833 83.8337 25.1006 84.0192 25.2715C84.2048 25.4424 84.4587 25.5278 84.781 25.5278ZM92.365 27H90.241V19.0752H92.365V27ZM90.1165 17.0244C90.1165 16.707 90.2215 16.4458 90.4314 16.2407C90.6463 16.0356 90.9368 15.9331 91.303 15.9331C91.6644 15.9331 91.9524 16.0356 92.1673 16.2407C92.3821 16.4458 92.4896 16.707 92.4896 17.0244C92.4896 17.3467 92.3797 17.6104 92.16 17.8154C91.9451 18.0205 91.6595 18.123 91.303 18.123C90.9466 18.123 90.6585 18.0205 90.4388 17.8154C90.2239 17.6104 90.1165 17.3467 90.1165 17.0244ZM96.4994 27H94.3754V15.75H96.4994V27ZM102.992 27C102.895 26.8096 102.824 26.5728 102.78 26.2896C102.267 26.8608 101.601 27.1465 100.78 27.1465C100.004 27.1465 99.3594 26.9219 98.8467 26.4727C98.3389 26.0234 98.085 25.457 98.085 24.7734C98.085 23.9336 98.395 23.2891 99.0151 22.8398C99.6401 22.3906 100.541 22.1636 101.718 22.1587H102.692V21.7046C102.692 21.3384 102.597 21.0454 102.406 20.8257C102.221 20.606 101.925 20.4961 101.52 20.4961C101.164 20.4961 100.883 20.5815 100.678 20.7524C100.478 20.9233 100.377 21.1577 100.377 21.4556H98.2607C98.2607 20.9966 98.4023 20.5718 98.6855 20.1812C98.9688 19.7905 99.3691 19.4854 99.8867 19.2656C100.404 19.041 100.985 18.9287 101.63 18.9287C102.606 18.9287 103.38 19.1753 103.952 19.6685C104.528 20.1567 104.816 20.8452 104.816 21.7339V25.1689C104.821 25.9209 104.926 26.4897 105.131 26.8755V27H102.992ZM101.242 25.5278C101.554 25.5278 101.842 25.4595 102.106 25.3228C102.37 25.1812 102.565 24.9932 102.692 24.7588V23.3965H101.901C100.841 23.3965 100.277 23.7627 100.209 24.4951L100.202 24.6196C100.202 24.8833 100.294 25.1006 100.48 25.2715C100.666 25.4424 100.919 25.5278 101.242 25.5278ZM113.733 23.1108C113.733 24.3804 113.462 25.3716 112.92 26.0845C112.378 26.7925 111.621 27.1465 110.65 27.1465C109.79 27.1465 109.104 26.8169 108.591 26.1577L108.496 27H106.592V15.75H108.709V19.7856C109.197 19.2144 109.839 18.9287 110.635 18.9287C111.602 18.9287 112.358 19.2852 112.905 19.998C113.457 20.7061 113.733 21.7046 113.733 22.9937V23.1108ZM111.616 22.957C111.616 22.1562 111.489 21.5728 111.235 21.2065C110.982 20.8354 110.603 20.6499 110.1 20.6499C109.426 20.6499 108.963 20.9258 108.709 21.4775V24.605C108.967 25.1616 109.436 25.4399 110.115 25.4399C110.798 25.4399 111.248 25.103 111.463 24.4292C111.565 24.1069 111.616 23.6162 111.616 22.957ZM117.428 27H115.304V15.75H117.428V27ZM122.976 27.1465C121.814 27.1465 120.867 26.79 120.134 26.0771C119.407 25.3643 119.043 24.4146 119.043 23.228V23.0229C119.043 22.2271 119.197 21.5166 119.504 20.8916C119.812 20.2617 120.246 19.7783 120.808 19.4414C121.374 19.0996 122.019 18.9287 122.742 18.9287C123.825 18.9287 124.678 19.2705 125.298 19.9541C125.923 20.6377 126.235 21.6069 126.235 22.8618V23.7261H121.189C121.257 24.2437 121.462 24.6587 121.804 24.9712C122.151 25.2837 122.588 25.4399 123.115 25.4399C123.93 25.4399 124.568 25.1445 125.027 24.5537L126.067 25.7183C125.749 26.1675 125.32 26.519 124.778 26.7729C124.236 27.022 123.635 27.1465 122.976 27.1465ZM122.734 20.6426C122.314 20.6426 121.972 20.7842 121.709 21.0674C121.45 21.3506 121.284 21.7559 121.211 22.2832H124.155V22.1147C124.145 21.646 124.018 21.2847 123.774 21.0308C123.53 20.772 123.183 20.6426 122.734 20.6426ZM131.149 22.9644C131.149 22.1782 131.301 21.4775 131.604 20.8623C131.906 20.2471 132.341 19.771 132.907 19.4341C133.479 19.0972 134.14 18.9287 134.892 18.9287C135.961 18.9287 136.833 19.2559 137.507 19.9102C138.186 20.5645 138.564 21.4531 138.642 22.5762L138.657 23.1182C138.657 24.334 138.317 25.3105 137.639 26.0479C136.96 26.7803 136.049 27.1465 134.907 27.1465C133.764 27.1465 132.851 26.7803 132.167 26.0479C131.489 25.3154 131.149 24.3193 131.149 23.0596V22.9644ZM133.266 23.1182C133.266 23.8701 133.408 24.4463 133.691 24.8467C133.974 25.2422 134.379 25.4399 134.907 25.4399C135.419 25.4399 135.82 25.2446 136.108 24.854C136.396 24.4585 136.54 23.8286 136.54 22.9644C136.54 22.2271 136.396 21.6558 136.108 21.2505C135.82 20.8452 135.415 20.6426 134.892 20.6426C134.375 20.6426 133.974 20.8452 133.691 21.2505C133.408 21.6509 133.266 22.2734 133.266 23.1182ZM142.059 19.0752L142.125 19.9907C142.691 19.2827 143.45 18.9287 144.402 18.9287C145.242 18.9287 145.867 19.1753 146.277 19.6685C146.688 20.1616 146.898 20.8989 146.907 21.8804V27H144.791V21.9316C144.791 21.4824 144.693 21.1577 144.498 20.9575C144.302 20.7524 143.978 20.6499 143.524 20.6499C142.928 20.6499 142.481 20.9038 142.183 21.4116V27H140.067V19.0752H142.059ZM155.088 17.127V19.0752H156.443V20.6279H155.088V24.583C155.088 24.876 155.144 25.0859 155.257 25.2129C155.369 25.3398 155.584 25.4033 155.901 25.4033C156.136 25.4033 156.343 25.3862 156.524 25.3521V26.9561C156.109 27.083 155.681 27.1465 155.242 27.1465C153.758 27.1465 153.001 26.397 152.971 24.8979V20.6279H151.814V19.0752H152.971V17.127H155.088ZM159.838 19.9395C160.399 19.2656 161.105 18.9287 161.954 18.9287C163.673 18.9287 164.545 19.9272 164.569 21.9243V27H162.453V21.9829C162.453 21.5288 162.355 21.1943 162.16 20.9795C161.964 20.7598 161.64 20.6499 161.185 20.6499C160.565 20.6499 160.116 20.8892 159.838 21.3677V27H157.721V15.75H159.838V19.9395ZM169.963 27.1465C168.801 27.1465 167.854 26.79 167.122 26.0771C166.394 25.3643 166.03 24.4146 166.03 23.228V23.0229C166.03 22.2271 166.184 21.5166 166.492 20.8916C166.799 20.2617 167.234 19.7783 167.795 19.4414C168.362 19.0996 169.006 18.9287 169.729 18.9287C170.813 18.9287 171.665 19.2705 172.285 19.9541C172.91 20.6377 173.223 21.6069 173.223 22.8618V23.7261H168.176C168.245 24.2437 168.45 24.6587 168.792 24.9712C169.138 25.2837 169.575 25.4399 170.103 25.4399C170.918 25.4399 171.555 25.1445 172.014 24.5537L173.054 25.7183C172.737 26.1675 172.307 26.519 171.765 26.7729C171.223 27.022 170.623 27.1465 169.963 27.1465ZM169.722 20.6426C169.302 20.6426 168.96 20.7842 168.696 21.0674C168.438 21.3506 168.271 21.7559 168.198 22.2832H171.143V22.1147C171.133 21.646 171.006 21.2847 170.762 21.0308C170.518 20.772 170.171 20.6426 169.722 20.6426Z" fill="#0E0910"/>
<path d="M76.6445 48.8984H69.4531L68.0859 53H63.7246L71.1348 33.0938H74.9355L82.3867 53H78.0254L76.6445 48.8984ZM70.5605 45.5762H75.5371L73.0352 38.125L70.5605 45.5762ZM96.0865 45.7402C96.0865 48.0189 95.567 49.8464 94.5279 51.2227C93.4979 52.5898 92.1034 53.2734 90.3443 53.2734C88.8495 53.2734 87.6418 52.7539 86.7213 51.7148V58.6875H82.7701V38.207H86.4341L86.5709 39.6562C87.5279 38.5078 88.7766 37.9336 90.317 37.9336C92.1399 37.9336 93.5572 38.6081 94.5689 39.957C95.5806 41.306 96.0865 43.1654 96.0865 45.5352V45.7402ZM92.1353 45.4531C92.1353 44.0768 91.8892 43.015 91.397 42.2676C90.914 41.5202 90.2076 41.1465 89.2779 41.1465C88.0383 41.1465 87.1861 41.6204 86.7213 42.5684V48.625C87.2043 49.6003 88.0657 50.0879 89.3052 50.0879C91.192 50.0879 92.1353 48.543 92.1353 45.4531ZM111.304 45.7402C111.304 48.0189 110.784 49.8464 109.745 51.2227C108.715 52.5898 107.321 53.2734 105.562 53.2734C104.067 53.2734 102.859 52.7539 101.939 51.7148V58.6875H97.9874V38.207H101.651L101.788 39.6562C102.745 38.5078 103.994 37.9336 105.534 37.9336C107.357 37.9336 108.775 38.6081 109.786 39.957C110.798 41.306 111.304 43.1654 111.304 45.5352V45.7402ZM107.353 45.4531C107.353 44.0768 107.107 43.015 106.614 42.2676C106.131 41.5202 105.425 41.1465 104.495 41.1465C103.256 41.1465 102.403 41.6204 101.939 42.5684V48.625C102.422 49.6003 103.283 50.0879 104.523 50.0879C106.409 50.0879 107.353 48.543 107.353 45.4531ZM130.199 47.7773C130.199 47.0026 129.926 46.4102 129.379 46C128.832 45.5807 127.848 45.1432 126.426 44.6875C125.004 44.2227 123.878 43.7669 123.049 43.3203C120.789 42.099 119.658 40.4538 119.658 38.3848C119.658 37.3092 119.959 36.3522 120.561 35.5137C121.171 34.666 122.042 34.0052 123.172 33.5312C124.311 33.0573 125.587 32.8203 127 32.8203C128.422 32.8203 129.689 33.0801 130.801 33.5996C131.913 34.11 132.774 34.8346 133.385 35.7734C134.005 36.7122 134.315 37.7786 134.315 38.9727H130.213C130.213 38.0612 129.926 37.3548 129.352 36.8535C128.778 36.3431 127.971 36.0879 126.932 36.0879C125.929 36.0879 125.15 36.3021 124.594 36.7305C124.038 37.1497 123.76 37.7057 123.76 38.3984C123.76 39.0456 124.084 39.5879 124.731 40.0254C125.387 40.4629 126.349 40.873 127.615 41.2559C129.949 41.9577 131.649 42.8281 132.715 43.8672C133.781 44.9062 134.315 46.2005 134.315 47.75C134.315 49.4727 133.663 50.8262 132.36 51.8105C131.056 52.7858 129.302 53.2734 127.096 53.2734C125.565 53.2734 124.17 52.9954 122.912 52.4395C121.655 51.8743 120.693 51.1042 120.028 50.1289C119.371 49.1536 119.043 48.0234 119.043 46.7383H123.158C123.158 48.9349 124.471 50.0332 127.096 50.0332C128.071 50.0332 128.832 49.8372 129.379 49.4453C129.926 49.0443 130.199 48.4883 130.199 47.7773ZM141.014 34.5703V38.207H143.544V41.1055H141.014V48.4883C141.014 49.0352 141.119 49.4271 141.329 49.6641C141.539 49.901 141.94 50.0195 142.532 50.0195C142.97 50.0195 143.357 49.9876 143.694 49.9238V52.918C142.919 53.1549 142.122 53.2734 141.302 53.2734C138.531 53.2734 137.118 51.8743 137.063 49.0762V41.1055H134.903V38.207H137.063V34.5703H141.014ZM144.16 45.4668C144.16 43.9993 144.442 42.6914 145.007 41.543C145.572 40.3945 146.383 39.5059 147.441 38.877C148.507 38.248 149.742 37.9336 151.146 37.9336C153.142 37.9336 154.769 38.5443 156.027 39.7656C157.294 40.987 158 42.6458 158.146 44.7422L158.173 45.7539C158.173 48.0234 157.54 49.8464 156.273 51.2227C155.006 52.5898 153.306 53.2734 151.173 53.2734C149.04 53.2734 147.336 52.5898 146.06 51.2227C144.793 49.8555 144.16 47.9961 144.16 45.6445V45.4668ZM148.111 45.7539C148.111 47.1576 148.375 48.2331 148.904 48.9805C149.432 49.7188 150.189 50.0879 151.173 50.0879C152.13 50.0879 152.878 49.7233 153.415 48.9941C153.953 48.2559 154.222 47.0801 154.222 45.4668C154.222 44.0905 153.953 43.0241 153.415 42.2676C152.878 41.5111 152.121 41.1328 151.146 41.1328C150.18 41.1328 149.432 41.5111 148.904 42.2676C148.375 43.015 148.111 44.1771 148.111 45.7539ZM168.359 41.9121C167.822 41.8392 167.348 41.8027 166.937 41.8027C165.443 41.8027 164.463 42.3086 163.998 43.3203V53H160.047V38.207H163.779L163.889 39.9707C164.682 38.6126 165.78 37.9336 167.184 37.9336C167.621 37.9336 168.031 37.9928 168.414 38.1113L168.359 41.9121ZM176.249 53.2734C174.079 53.2734 172.311 52.6081 170.944 51.2773C169.586 49.9466 168.907 48.1738 168.907 45.959V45.5762C168.907 44.0905 169.194 42.7643 169.768 41.5977C170.342 40.4219 171.153 39.5195 172.202 38.8906C173.259 38.2526 174.462 37.9336 175.811 37.9336C177.834 37.9336 179.425 38.5716 180.582 39.8477C181.749 41.1237 182.332 42.9329 182.332 45.2754V46.8887H172.913C173.04 47.8548 173.423 48.6296 174.061 49.2129C174.708 49.7962 175.524 50.0879 176.508 50.0879C178.03 50.0879 179.22 49.5365 180.077 48.4336L182.018 50.6074C181.426 51.446 180.624 52.1022 179.612 52.5762C178.6 53.041 177.479 53.2734 176.249 53.2734ZM175.797 41.1328C175.013 41.1328 174.375 41.3971 173.883 41.9258C173.4 42.4544 173.09 43.2109 172.954 44.1953H178.45V43.8809C178.431 43.0059 178.194 42.3314 177.739 41.8574C177.283 41.3743 176.636 41.1328 175.797 41.1328Z" fill="#0E0910"/>
<defs>
<filter id="filter0_f_206_368" x="0" y="0" width="210" height="70" filterUnits="userSpaceOnUse" color-interpolation-filters="sRGB">
<feFlood flood-opacity="0" result="BackgroundImageFix"/>
<feBlend mode="normal" in="SourceGraphic" in2="BackgroundImageFix" result="shape"/>
<feGaussianBlur stdDeviation="2.5" result="effect1_foregroundBlur_206_368"/>
</filter>
<linearGradient id="paint0_linear_206_368" x1="11" y1="4.99999" x2="181.5" y2="72.5" gradientUnits="userSpaceOnUse">
<stop stop-color="#5BCDDA"/>
<stop offset="1" stop-color="#2E72D2"/>
</linearGradient>
</defs>
</svg>
