<svg width="1255" height="1112" viewBox="0 0 1255 1112" fill="none" xmlns="http://www.w3.org/2000/svg">
<g filter="url(#filter0_f_273_2)">
<ellipse cx="606.948" cy="555.979" rx="214.035" ry="144.634" transform="rotate(21.4939 606.948 555.979)" fill="#B32DD8"/>
</g>
<g filter="url(#filter1_f_273_2)">
<ellipse cx="615.34" cy="564.002" rx="146.206" ry="142.518" fill="#7DB1EF"/>
</g>
<g filter="url(#filter2_f_273_2)">
<ellipse cx="615.077" cy="564.002" rx="90.0946" ry="88.2505" fill="white" fill-opacity="0.8"/>
</g>
<g filter="url(#filter3_f_273_2)">
<path d="M805.062 737.892C808.955 740.082 808.955 743.731 805.143 746.002L623.866 851.358C620.054 853.548 613.728 853.548 609.916 851.358L530.511 805.533C526.617 803.344 526.617 799.694 530.43 797.423L711.706 692.067C715.518 689.797 721.764 689.878 725.657 692.067L805.062 737.892Z" fill="#6363EA"/>
</g>
<g filter="url(#filter4_f_273_2)">
<path d="M711.315 307.319C715.208 309.509 715.208 313.159 711.396 315.43L530.119 420.785C526.307 422.975 519.981 422.975 516.169 420.785L436.764 374.961C432.87 372.771 432.87 369.121 436.683 366.85L617.959 261.495C621.771 259.224 628.017 259.305 631.91 261.495L711.315 307.319Z" fill="#6363EA"/>
</g>
<path d="M607.921 779.922C590.46 779.922 572.853 775.993 559.612 768.28L210.388 566.14C206.896 564.102 204.858 560.609 204.858 556.535C204.858 552.605 206.896 548.967 210.388 546.93C221.156 540.526 232.069 534.123 242.545 528.011L557.138 345.226C583.621 329.8 626.983 329.8 653.757 345.226L970.532 528.156C981.3 534.414 992.649 540.672 1004.29 547.075C1007.78 548.967 1009.82 552.46 1009.97 556.389C1009.97 560.318 1008.07 563.957 1004.58 565.849L656.085 768.425C642.843 776.138 625.382 779.922 607.921 779.922ZM605.447 335.912C588.423 335.912 571.253 339.696 558.302 347.263L243.564 530.194C233.087 536.306 222.174 542.709 211.406 549.113C208.642 550.713 207.041 553.624 207.041 556.68C207.041 559.882 208.642 562.647 211.406 564.248L560.63 766.388C586.677 781.378 629.02 781.378 654.921 766.388L1003.27 563.957C1005.89 562.356 1007.49 559.591 1007.49 556.535C1007.49 553.479 1005.75 550.713 1002.98 549.258C991.34 543 979.99 536.597 969.222 530.339L652.593 347.263C639.497 339.696 622.472 335.912 605.447 335.912Z" fill="url(#paint0_linear_273_2)"/>
<path d="M766.513 728.885C770.035 730.866 770.035 734.168 766.586 736.223L602.574 831.548C599.125 833.53 593.401 833.53 589.952 831.548L518.109 790.087C514.587 788.105 514.587 784.803 518.036 782.748L682.048 687.423C685.497 685.368 691.148 685.441 694.67 687.423L766.513 728.885Z" fill="url(#paint1_linear_273_2)"/>
<path d="M772.122 725.648C778.873 729.537 778.947 735.848 772.195 739.811L608.183 835.063C601.432 838.952 590.571 838.952 583.746 835.063L511.977 793.601C505.226 789.712 505.152 783.401 511.904 779.438L675.843 684.186C682.594 680.296 693.455 680.296 700.279 684.186L772.122 725.648ZM602.312 831.687L766.251 736.362C769.7 734.38 769.7 731.078 766.178 729.023L694.409 687.561C690.886 685.58 685.236 685.58 681.787 687.561L517.774 782.887C514.325 784.868 514.325 788.17 517.848 790.225L589.69 831.687C593.139 833.668 598.863 833.668 602.312 831.687Z" fill="url(#paint2_linear_273_2)"/>
<path d="M777.112 733.646C777.112 733.72 777.112 733.72 777.112 733.793C777.112 733.94 777.039 734.087 776.965 734.307C776.892 734.454 776.892 734.674 776.819 734.821C776.745 735.041 776.598 735.334 776.525 735.554C776.525 735.628 776.452 735.628 776.452 735.701C776.305 735.995 776.158 736.215 775.938 736.508C775.938 736.582 775.865 736.582 775.865 736.655C775.718 736.875 775.498 737.095 775.277 737.389C775.204 737.462 775.204 737.462 775.131 737.536C774.911 737.756 774.69 738.049 774.397 738.27C774.25 738.416 774.03 738.563 773.883 738.71C773.736 738.857 773.59 738.93 773.37 739.077C773.149 739.224 772.929 739.37 772.782 739.517C772.562 739.664 772.342 739.811 772.122 739.957L608.183 835.063C607.816 835.283 607.449 835.503 607.009 835.65C606.935 835.723 606.789 835.723 606.715 835.796C606.348 835.943 605.981 836.09 605.614 836.237C605.541 836.237 605.541 836.31 605.468 836.31C605.101 836.457 604.66 836.604 604.22 836.75C603.927 836.824 603.633 836.897 603.34 836.971C603.119 837.044 602.899 837.117 602.679 837.117C602.386 837.191 602.019 837.264 601.725 837.337C601.505 837.411 601.285 837.411 601.065 837.484C600.991 837.484 600.845 837.484 600.771 837.558C600.404 837.631 599.964 837.704 599.597 837.704C599.45 837.704 599.377 837.704 599.23 837.778C599.01 837.778 598.79 837.851 598.57 837.851C598.203 837.851 597.762 837.925 597.396 837.925C597.175 837.925 596.882 837.925 596.662 837.925C596.368 837.925 596.001 837.925 595.708 837.925C595.414 837.925 595.194 837.925 594.9 837.925C594.607 837.925 594.313 837.925 594.02 837.851C593.726 837.851 593.506 837.778 593.213 837.778C592.919 837.778 592.626 837.704 592.332 837.704C592.039 837.704 591.818 837.631 591.525 837.631C591.231 837.558 590.938 837.558 590.644 837.484C590.424 837.411 590.131 837.411 589.91 837.337C589.543 837.264 589.177 837.191 588.81 837.044C588.589 836.971 588.369 836.897 588.149 836.824C588.002 836.824 587.929 836.75 587.782 836.677C587.415 836.53 587.048 836.457 586.755 836.31C586.682 836.237 586.535 836.237 586.461 836.237C586.168 836.09 585.874 836.017 585.507 835.87C585.361 835.796 585.214 835.723 585.067 835.65C584.627 835.429 584.186 835.209 583.82 834.989L511.977 793.601C508.601 791.619 506.84 789.051 506.913 786.483L506.84 801.233C506.84 803.801 508.528 806.37 511.904 808.351L583.746 849.813C584.186 850.033 584.553 850.253 584.994 850.473C585.14 850.547 585.287 850.62 585.434 850.693C585.728 850.84 585.948 850.913 586.241 851.06C586.315 851.06 586.315 851.06 586.388 851.134C586.461 851.207 586.608 851.207 586.682 851.207C587.048 851.354 587.342 851.427 587.709 851.574C587.856 851.647 587.929 851.647 588.076 851.721C588.149 851.721 588.223 851.794 588.296 851.794C588.443 851.867 588.589 851.867 588.736 851.867C589.103 851.941 589.47 852.014 589.837 852.161C589.91 852.161 590.057 852.234 590.131 852.234C590.277 852.234 590.424 852.308 590.571 852.308C590.864 852.381 591.158 852.454 591.451 852.454C591.598 852.454 591.672 852.528 591.818 852.528C591.965 852.528 592.112 852.528 592.259 852.601C592.552 852.601 592.846 852.675 593.139 852.675C593.286 852.675 593.433 852.675 593.58 852.748C593.726 852.748 593.873 852.748 593.946 852.748C594.24 852.748 594.534 852.748 594.827 852.821C594.974 852.821 595.121 852.821 595.267 852.821C595.414 852.821 595.488 852.821 595.634 852.821C595.928 852.821 596.295 852.821 596.588 852.821C596.735 852.821 596.882 852.821 597.029 852.821C597.102 852.821 597.249 852.821 597.322 852.821C597.689 852.821 598.129 852.748 598.496 852.748C598.643 852.748 598.79 852.748 598.937 852.748C599.01 852.748 599.083 852.748 599.157 852.748C599.303 852.748 599.377 852.748 599.524 852.675C599.891 852.601 600.331 852.601 600.698 852.528C600.771 852.528 600.918 852.528 600.991 852.454C601.065 852.454 601.065 852.454 601.138 852.454C601.358 852.454 601.505 852.381 601.725 852.308C602.019 852.234 602.386 852.161 602.679 852.088C602.899 852.014 603.119 851.941 603.34 851.941C603.633 851.867 603.927 851.794 604.22 851.721C604.294 851.721 604.367 851.721 604.44 851.647C604.807 851.501 605.174 851.427 605.468 851.28C605.541 851.28 605.541 851.207 605.614 851.207C605.981 851.06 606.348 850.913 606.715 850.767C606.789 850.693 606.935 850.693 607.009 850.62C607.376 850.4 607.816 850.253 608.183 850.033L772.122 754.561C772.195 754.487 772.269 754.487 772.342 754.414C772.489 754.341 772.636 754.194 772.782 754.12C773.003 753.974 773.223 753.827 773.37 753.68C773.516 753.533 773.663 753.46 773.883 753.313C774.03 753.166 774.25 753.02 774.397 752.873L774.47 752.8C774.69 752.579 774.911 752.359 775.057 752.139C775.131 752.066 775.131 752.066 775.204 751.992C775.351 751.846 775.424 751.699 775.571 751.625C775.644 751.552 775.718 751.405 775.791 751.332C775.791 751.258 775.865 751.258 775.865 751.185C776.011 750.965 776.158 750.818 776.232 750.598C776.305 750.525 776.305 750.451 776.305 750.378C776.305 750.304 776.378 750.304 776.378 750.231C776.452 750.011 776.598 749.791 776.672 749.571V749.497C776.745 749.35 776.745 749.13 776.819 748.984C776.819 748.837 776.892 748.763 776.892 748.617C776.892 748.543 776.892 748.543 776.892 748.47C776.892 748.396 776.892 748.396 776.892 748.323C776.965 748.103 776.965 747.809 776.965 747.589C776.965 747.516 776.965 747.516 776.965 747.442L777.039 732.692C777.185 733.059 777.185 733.353 777.112 733.646Z" fill="url(#paint3_linear_273_2)"/>
<path d="M668.889 296.65C672.34 298.591 672.34 301.826 668.961 303.839L508.283 397.226C504.904 399.167 499.297 399.167 495.918 397.226L425.536 356.608C422.085 354.667 422.085 351.431 425.464 349.418L586.142 256.031C589.521 254.018 595.056 254.09 598.507 256.031L668.889 296.65Z" fill="url(#paint4_linear_273_2)"/>
<path d="M674.64 293.343C681.255 297.153 681.326 303.336 674.712 307.218L514.035 400.533C507.421 404.344 496.781 404.344 490.095 400.533L419.785 359.914C413.171 356.104 413.099 349.922 419.713 346.039L580.319 252.724C586.933 248.914 597.573 248.914 604.259 252.724L674.64 293.343ZM508.283 397.226L668.889 303.839C672.268 301.898 672.268 298.663 668.817 296.65L598.507 256.031C595.056 254.09 589.521 254.09 586.142 256.031L425.464 349.418C422.085 351.359 422.085 354.594 425.536 356.607L495.918 397.226C499.297 399.167 504.904 399.167 508.283 397.226Z" fill="url(#paint5_linear_273_2)"/>
<path d="M679.529 301.179C679.529 301.251 679.529 301.251 679.529 301.323C679.529 301.467 679.457 301.61 679.385 301.826C679.313 301.97 679.313 302.186 679.241 302.329C679.17 302.545 679.026 302.833 678.954 303.048C678.954 303.12 678.882 303.12 678.882 303.192C678.738 303.48 678.594 303.695 678.379 303.983C678.379 304.055 678.307 304.055 678.307 304.127C678.163 304.342 677.947 304.558 677.732 304.846C677.66 304.917 677.66 304.917 677.588 304.989C677.372 305.205 677.157 305.493 676.869 305.708C676.725 305.852 676.51 305.996 676.366 306.14C676.222 306.283 676.078 306.355 675.863 306.499C675.647 306.643 675.431 306.787 675.287 306.93C675.072 307.074 674.856 307.218 674.64 307.362L514.035 400.533C513.675 400.749 513.316 400.965 512.884 401.108C512.812 401.18 512.669 401.18 512.597 401.252C512.237 401.396 511.878 401.54 511.518 401.684C511.446 401.684 511.446 401.755 511.375 401.755C511.015 401.899 510.584 402.043 510.152 402.187C509.865 402.259 509.577 402.331 509.29 402.403C509.074 402.474 508.858 402.546 508.643 402.546C508.355 402.618 507.996 402.69 507.708 402.762C507.492 402.834 507.277 402.834 507.061 402.906C506.989 402.906 506.845 402.906 506.773 402.978C506.414 403.05 505.983 403.121 505.623 403.121C505.479 403.121 505.408 403.121 505.264 403.193C505.048 403.193 504.832 403.265 504.617 403.265C504.257 403.265 503.826 403.337 503.466 403.337C503.251 403.337 502.963 403.337 502.748 403.337C502.46 403.337 502.101 403.337 501.813 403.337C501.525 403.337 501.31 403.337 501.022 403.337C500.735 403.337 500.447 403.337 500.159 403.265C499.872 403.265 499.656 403.193 499.369 403.193C499.081 403.193 498.794 403.121 498.506 403.121C498.218 403.121 498.003 403.05 497.715 403.05C497.428 402.978 497.14 402.978 496.852 402.906C496.637 402.834 496.349 402.834 496.134 402.762C495.774 402.69 495.415 402.618 495.055 402.474C494.839 402.403 494.624 402.331 494.408 402.259C494.264 402.259 494.192 402.187 494.049 402.115C493.689 401.971 493.33 401.899 493.042 401.755C492.97 401.684 492.827 401.684 492.755 401.684C492.467 401.54 492.179 401.468 491.82 401.324C491.676 401.252 491.532 401.18 491.389 401.108C490.957 400.893 490.526 400.677 490.167 400.461L419.785 359.915C416.478 357.973 414.752 355.457 414.824 352.941L414.752 367.391C414.752 369.907 416.406 372.424 419.713 374.365L490.095 414.984C490.526 415.199 490.885 415.415 491.317 415.631C491.461 415.702 491.604 415.774 491.748 415.846C492.036 415.99 492.251 416.062 492.539 416.206C492.611 416.206 492.611 416.206 492.683 416.278C492.755 416.349 492.898 416.349 492.97 416.349C493.33 416.493 493.617 416.565 493.977 416.709C494.121 416.781 494.192 416.781 494.336 416.853C494.408 416.853 494.48 416.925 494.552 416.925C494.696 416.996 494.839 416.996 494.983 416.996C495.343 417.068 495.702 417.14 496.062 417.284C496.134 417.284 496.277 417.356 496.349 417.356C496.493 417.356 496.637 417.428 496.781 417.428C497.068 417.5 497.356 417.572 497.643 417.572C497.787 417.572 497.859 417.644 498.003 417.644C498.146 417.644 498.29 417.644 498.434 417.715C498.722 417.715 499.009 417.787 499.297 417.787C499.441 417.787 499.584 417.787 499.728 417.859C499.872 417.859 500.016 417.859 500.088 417.859C500.375 417.859 500.663 417.859 500.95 417.931C501.094 417.931 501.238 417.931 501.382 417.931C501.525 417.931 501.597 417.931 501.741 417.931C502.029 417.931 502.388 417.931 502.676 417.931C502.819 417.931 502.963 417.931 503.107 417.931C503.179 417.931 503.323 417.931 503.395 417.931C503.754 417.931 504.185 417.859 504.545 417.859C504.689 417.859 504.832 417.859 504.976 417.859C505.048 417.859 505.12 417.859 505.192 417.859C505.336 417.859 505.408 417.859 505.551 417.787C505.911 417.715 506.342 417.715 506.702 417.644C506.773 417.644 506.917 417.644 506.989 417.572C507.061 417.572 507.061 417.572 507.133 417.572C507.349 417.572 507.492 417.5 507.708 417.428C507.996 417.356 508.355 417.284 508.643 417.212C508.858 417.14 509.074 417.068 509.29 417.068C509.577 416.996 509.865 416.925 510.152 416.853C510.224 416.853 510.296 416.853 510.368 416.781C510.728 416.637 511.087 416.565 511.375 416.421C511.446 416.421 511.446 416.349 511.518 416.349C511.878 416.206 512.237 416.062 512.597 415.918C512.669 415.846 512.812 415.846 512.884 415.774C513.244 415.559 513.675 415.415 514.035 415.199L674.64 321.668C674.712 321.596 674.784 321.596 674.856 321.524C675 321.453 675.144 321.309 675.287 321.237C675.503 321.093 675.719 320.949 675.863 320.806C676.006 320.662 676.15 320.59 676.366 320.446C676.51 320.302 676.725 320.158 676.869 320.015L676.941 319.943C677.157 319.727 677.372 319.511 677.516 319.296C677.588 319.224 677.588 319.224 677.66 319.152C677.804 319.008 677.876 318.864 678.019 318.793C678.091 318.721 678.163 318.577 678.235 318.505C678.235 318.433 678.307 318.433 678.307 318.361C678.451 318.146 678.594 318.002 678.666 317.786C678.738 317.714 678.738 317.642 678.738 317.57C678.738 317.498 678.81 317.498 678.81 317.427C678.882 317.211 679.026 316.995 679.098 316.78V316.708C679.17 316.564 679.17 316.348 679.241 316.204C679.241 316.061 679.313 315.989 679.313 315.845C679.313 315.773 679.313 315.773 679.313 315.701C679.313 315.629 679.313 315.629 679.313 315.557C679.385 315.342 679.385 315.054 679.385 314.839C679.385 314.767 679.385 314.767 679.385 314.695L679.457 300.245C679.601 300.604 679.601 300.892 679.529 301.179Z" fill="url(#paint6_linear_273_2)"/>
<path d="M612.92 442.554C593.699 442.554 578.132 424.814 578.132 402.918C578.132 381.022 593.746 363.297 612.92 363.297C632.094 363.297 647.708 381.038 647.708 402.918C647.708 424.798 632.094 442.554 612.92 442.554Z" fill="url(#paint7_linear_273_2)"/>
<path d="M578.18 402.918C578.18 382.687 591.498 365.989 608.705 363.608C607.293 363.403 605.869 363.299 604.442 363.297C585.222 363.297 569.654 381.038 569.654 402.918C569.654 424.798 585.268 442.554 604.442 442.554C605.868 442.545 607.292 442.441 608.705 442.243C591.53 439.847 578.18 423.164 578.18 402.918Z" fill="url(#paint8_linear_273_2)"/>
<path opacity="0.6" d="M614.31 434.509C629.832 434.509 642.415 420.372 642.415 402.934C642.415 385.495 629.832 371.358 614.31 371.358C598.788 371.358 586.205 385.495 586.205 402.934C586.205 420.372 598.788 434.509 614.31 434.509Z" stroke="url(#paint9_linear_273_2)" stroke-width="1.08" stroke-miterlimit="10"/>
<path opacity="0.6" d="M614.528 431.723C628.627 431.723 640.057 418.882 640.057 403.042C640.057 387.202 628.627 374.361 614.528 374.361C600.429 374.361 589 387.202 589 403.042C589 418.882 600.429 431.723 614.528 431.723Z" stroke="url(#paint10_linear_273_2)" stroke-width="0.32" stroke-miterlimit="10"/>
<path d="M618.116 410.228C618.116 409.174 617.854 408.347 617.332 407.747C616.81 407.147 615.892 406.58 614.58 406.047C613.267 405.513 612.055 404.973 610.943 404.426C609.831 403.879 608.874 403.245 608.07 402.525C607.266 401.805 606.65 400.971 606.221 400.024C605.793 399.077 605.579 397.93 605.579 396.583C605.579 394.329 606.342 392.475 607.869 391.021C609.396 389.553 611.432 388.7 613.977 388.46V384.238H617.171V388.54C619.622 388.9 621.545 389.907 622.938 391.561C624.344 393.202 625.047 395.289 625.047 397.823H618.256C618.256 396.436 617.988 395.369 617.453 394.622C616.917 393.875 616.153 393.502 615.162 393.502C614.278 393.502 613.588 393.782 613.093 394.342C612.611 394.889 612.369 395.649 612.369 396.623C612.369 397.61 612.651 398.397 613.213 398.984C613.776 399.557 614.68 400.111 615.926 400.644C617.171 401.165 618.343 401.712 619.442 402.285C620.553 402.845 621.511 403.486 622.315 404.206C623.118 404.926 623.748 405.766 624.203 406.727C624.659 407.687 624.886 408.841 624.886 410.188C624.886 412.469 624.156 414.33 622.696 415.77C621.25 417.211 619.274 418.051 616.769 418.291V422.313H613.575V418.271C610.655 417.965 608.411 416.971 606.844 415.29C605.291 413.596 604.514 411.369 604.514 408.608H611.285C611.285 410.128 611.619 411.289 612.289 412.089C612.972 412.876 613.937 413.269 615.182 413.269C616.093 413.269 616.81 413.003 617.332 412.469C617.854 411.922 618.116 411.175 618.116 410.228Z" fill="white"/>
<path d="M683.393 562.145L620.622 598.629C615.41 601.689 606.855 601.689 601.587 598.629L538.419 562.145C535.756 560.616 534.453 558.576 534.453 556.593V561.635C534.453 563.618 535.756 565.658 538.419 567.187L601.587 603.672C606.855 606.731 615.41 606.731 620.622 603.672L683.393 567.187C685.999 565.658 687.302 563.675 687.302 561.692V556.65C687.302 558.633 685.999 560.616 683.393 562.145Z" fill="url(#paint11_linear_273_2)"/>
<path d="M683.336 551.098C688.605 554.157 688.661 559.086 683.393 562.145L620.622 598.629C615.41 601.689 606.855 601.689 601.586 598.629L538.419 562.145C533.15 559.086 533.094 554.157 538.362 551.098L601.133 514.614C606.345 511.555 614.9 511.555 620.168 514.614L683.336 551.098Z" fill="url(#paint12_linear_273_2)"/>
<path d="M683.393 539.484L620.622 575.968C615.41 579.028 606.855 579.028 601.587 575.968L538.419 539.484C535.756 537.955 534.453 535.915 534.453 533.932V538.974C534.453 540.957 535.756 542.997 538.419 544.526L601.587 581.01C606.855 584.07 615.41 584.07 620.622 581.01L683.393 544.526C685.999 542.997 687.302 541.014 687.302 539.031V533.989C687.302 535.972 685.999 537.955 683.393 539.484Z" fill="url(#paint13_linear_273_2)"/>
<path d="M683.336 528.437C688.605 531.496 688.661 536.425 683.393 539.484L620.622 575.968C615.41 579.028 606.855 579.028 601.586 575.968L538.419 539.484C533.15 536.425 533.094 531.496 538.362 528.437L601.133 491.953C606.345 488.894 614.9 488.894 620.168 491.953L683.336 528.437Z" fill="url(#paint14_linear_273_2)"/>
<path d="M686.225 512.858L623.454 549.342C618.242 552.401 609.688 552.401 604.419 549.342L541.252 512.858C538.589 511.328 537.286 509.288 537.286 507.306V512.348C537.286 514.331 538.589 516.37 541.252 517.9L604.419 554.384C609.688 557.443 618.242 557.443 623.454 554.384L686.225 517.9C688.831 516.37 690.134 514.387 690.134 512.404V507.362C690.134 509.345 688.831 511.328 686.225 512.858Z" fill="url(#paint15_linear_273_2)"/>
<path d="M686.168 501.81C691.437 504.87 691.494 509.798 686.225 512.858L623.454 549.342C618.242 552.401 609.688 552.401 604.419 549.342L541.251 512.858C535.983 509.798 535.926 504.87 541.195 501.81L603.966 465.326C609.178 462.267 617.732 462.267 623.001 465.326L686.168 501.81Z" fill="url(#paint16_linear_273_2)"/>
<path d="M649.245 501.639L618.534 519.528C615.984 521.028 611.799 521.028 609.221 519.528L578.316 501.639C577.013 500.889 576.376 499.889 576.376 498.917V501.389C576.376 502.362 577.013 503.362 578.316 504.112L609.221 522C611.799 523.5 615.984 523.5 618.534 522L649.245 504.112C650.52 503.362 651.157 502.389 651.157 501.417V498.945C651.157 499.917 650.52 500.889 649.245 501.639Z" fill="url(#paint17_linear_273_2)"/>
<path d="M649.217 496.222C651.794 497.722 651.822 500.139 649.244 501.639L618.534 519.528C615.984 521.028 611.798 521.028 609.221 519.528L578.316 501.639C575.738 500.139 575.711 497.722 578.288 496.222L608.999 478.333C611.549 476.833 615.734 476.833 618.312 478.333L649.217 496.222Z" fill="url(#paint18_linear_273_2)"/>
<path opacity="0.8" d="M448.767 353.513L552.844 499.757L605.549 530.153C607.391 531.218 609.482 531.778 611.609 531.778C613.737 531.778 615.828 531.218 617.669 530.153L670.375 499.757L768.596 357.067C768.596 357.067 678.807 296.497 610.071 300.68C537.944 305.142 448.767 353.513 448.767 353.513Z" fill="url(#paint19_linear_273_2)"/>
<path d="M683.551 705.536L683.468 742.869C683.468 746.104 681.228 747.349 678.408 745.773L629.626 717.566C626.805 715.989 624.565 712.09 624.648 708.855L624.731 671.522C624.731 668.286 626.971 667.042 629.792 668.618L678.574 696.825C681.311 698.484 683.551 702.301 683.551 705.536Z" fill="url(#paint20_linear_273_2)"/>
<path d="M681.311 695.249L632.53 667.042C631.119 666.212 629.875 666.129 628.962 666.71L626.225 668.286C627.137 667.788 628.382 667.788 629.792 668.618L678.574 696.825C681.394 698.401 683.634 702.301 683.551 705.536L683.468 742.869C683.468 744.445 682.888 745.607 681.975 746.105L684.713 744.528C685.625 744.03 686.206 742.869 686.206 741.293L686.289 703.96C686.289 700.724 684.049 696.825 681.311 695.249Z" fill="url(#paint21_linear_273_2)"/>
<path d="M683.551 705.536L683.468 742.869C682.971 734.158 682.805 725.53 682.639 716.819L682.556 713.583V710.348V707.112V706.283V705.868C682.556 705.702 682.556 705.619 682.556 705.453C682.556 705.204 682.556 704.955 682.473 704.789C682.473 704.541 682.39 704.292 682.307 704.126C682.058 703.213 681.726 702.301 681.228 701.388C680.731 700.558 680.15 699.729 679.486 699.065C679.154 698.733 678.74 698.401 678.408 698.152C678.076 697.904 677.578 697.655 677.08 697.406L674.26 695.747C666.71 691.433 659.244 687.036 651.86 682.473C644.476 677.993 637.093 673.43 629.792 668.701L678.574 696.908C681.311 698.484 683.551 702.301 683.551 705.536Z" fill="url(#paint22_radial_273_2)"/>
<path d="M638.503 709.518L633.359 706.532V695.995L638.503 698.982V709.518Z" fill="url(#paint23_linear_273_2)"/>
<path d="M643.564 712.505L638.503 709.518V693.921L643.564 696.908V712.505Z" fill="url(#paint24_linear_273_2)"/>
<path d="M648.707 715.492L643.564 712.505V702.798L648.707 705.785V715.492Z" fill="url(#paint25_linear_273_2)"/>
<path d="M653.851 718.478L648.707 715.492V703.794L653.851 706.781V718.478Z" fill="url(#paint26_linear_273_2)"/>
<path d="M658.995 721.465L653.851 718.478V695.498L658.995 698.401V721.465Z" fill="url(#paint27_linear_273_2)"/>
<path d="M664.138 724.451L658.995 721.465V702.798L664.138 705.785V724.451Z" fill="url(#paint28_linear_273_2)"/>
<path d="M669.282 727.438L664.138 724.451V709.269L669.282 712.256V727.438Z" fill="url(#paint29_linear_273_2)"/>
<path d="M674.343 730.425L669.282 727.438V706.2L674.343 709.186V730.425Z" fill="url(#paint30_linear_273_2)"/>
<path d="M674.757 737.062L633.359 713.003V711.592L674.757 735.651V737.062Z" fill="url(#paint31_linear_273_2)"/>
<path d="M642.568 685.625L633.359 680.233V679.071L642.568 684.381V685.625Z" fill="url(#paint32_linear_273_2)"/>
<path d="M647.878 691.432L633.359 682.97V681.809L647.878 690.271V691.432Z" fill="url(#paint33_linear_273_2)"/>
<g filter="url(#filter5_f_273_2)">
<path d="M375.623 660.542C372.182 662.637 366.421 662.712 362.754 660.766L190.293 566.118C186.626 564.098 186.477 560.806 189.919 558.636L260.774 515.315C264.215 513.22 269.977 513.145 273.643 515.091L446.179 609.739C449.846 611.759 449.995 615.051 446.553 617.221L375.623 660.542Z" fill="#6363EA"/>
</g>
<path d="M332.704 650.614C329.262 652.709 323.501 652.783 319.834 650.838L147.373 556.19C143.707 554.17 143.557 550.878 146.999 548.708L217.854 505.387C221.296 503.292 227.057 503.217 230.723 505.162L403.259 599.81C406.926 601.831 407.075 605.123 403.634 607.293L332.704 650.614Z" fill="url(#paint34_linear_273_2)"/>
<path d="M414.483 604.599C414.483 604.674 414.483 604.674 414.483 604.749C414.483 604.898 414.408 605.048 414.333 605.198C414.258 605.347 414.258 605.572 414.183 605.721C414.108 605.946 414.034 606.245 413.884 606.47C413.884 606.544 413.809 606.544 413.809 606.619C413.659 606.919 413.51 607.143 413.36 607.442C413.211 607.667 412.986 607.966 412.762 608.19C412.687 608.265 412.612 608.34 412.612 608.415C412.388 608.639 412.163 608.939 411.864 609.163C411.639 609.313 411.415 609.537 411.19 609.687C411.116 609.762 410.966 609.837 410.891 609.986C410.517 610.285 410.143 610.51 409.769 610.734L338.914 654.056C338.54 654.28 338.091 654.504 337.717 654.729C337.642 654.804 337.492 654.804 337.417 654.879C337.118 655.028 336.819 655.178 336.445 655.328C336.295 655.402 336.22 655.402 336.07 655.477C335.622 655.627 335.247 655.776 334.799 655.926C334.724 655.926 334.649 656.001 334.574 656.001C334.125 656.151 333.676 656.3 333.227 656.375C333.003 656.45 332.853 656.45 332.629 656.525C332.255 656.599 331.955 656.674 331.581 656.749C331.132 656.824 330.609 656.899 330.16 656.974C330.01 656.974 329.935 656.974 329.786 657.048C329.486 657.123 329.187 657.123 328.813 657.123C328.439 657.123 328.065 657.198 327.691 657.198C327.466 657.198 327.242 657.198 326.942 657.198C326.643 657.198 326.269 657.198 325.97 657.198C325.745 657.198 325.446 657.198 325.221 657.198C324.922 657.198 324.623 657.198 324.324 657.123C324.024 657.123 323.8 657.123 323.501 657.048C323.201 657.048 322.902 656.974 322.603 656.974C322.303 656.974 322.079 656.899 321.78 656.899C321.48 656.824 321.106 656.824 320.807 656.749C320.583 656.674 320.358 656.674 320.134 656.599C319.535 656.45 318.937 656.3 318.413 656.151C317.964 656.001 317.515 655.851 317.066 655.702C316.916 655.627 316.842 655.627 316.692 655.552C316.393 655.402 316.019 655.328 315.719 655.178C315.57 655.103 315.42 655.028 315.27 655.028C314.821 654.804 314.447 654.654 313.998 654.43L141.537 559.707C137.871 557.687 136 554.993 136 552.299V567.338C136 570.032 137.871 572.725 141.537 574.746L313.998 669.394C314.372 669.618 314.821 669.843 315.27 669.992C315.42 670.067 315.57 670.142 315.644 670.142C315.869 670.217 316.019 670.292 316.243 670.366C316.393 670.441 316.542 670.441 316.617 670.516C316.767 670.591 316.842 670.591 316.991 670.666C317.44 670.815 317.889 670.965 318.338 671.115C318.937 671.264 319.46 671.414 320.059 671.564C320.134 671.564 320.134 671.564 320.208 671.564C320.433 671.638 320.583 671.638 320.807 671.638C321.106 671.713 321.48 671.788 321.78 671.788C321.855 671.788 321.929 671.788 321.929 671.788C322.154 671.788 322.303 671.863 322.528 671.863C322.827 671.863 323.126 671.938 323.426 671.938C323.501 671.938 323.575 671.938 323.65 671.938C323.875 671.938 324.024 671.938 324.249 671.938C324.548 671.938 324.847 672.013 325.147 672.013C325.221 672.013 325.296 672.013 325.371 672.013C325.521 672.013 325.745 672.013 325.895 672.013C326.194 672.013 326.568 672.013 326.868 672.013C326.942 672.013 327.092 672.013 327.167 672.013C327.316 672.013 327.466 672.013 327.616 672.013C327.99 672.013 328.364 671.938 328.738 671.938C328.888 671.938 328.963 671.938 329.112 671.938C329.337 671.938 329.486 671.863 329.711 671.863C329.86 671.863 329.935 671.863 330.085 671.788C330.534 671.713 330.983 671.638 331.432 671.564H331.506C331.88 671.489 332.18 671.414 332.554 671.339C332.778 671.264 332.928 671.264 333.152 671.189C333.601 671.04 334.05 670.965 334.499 670.815C334.574 670.815 334.649 670.815 334.724 670.741C334.724 670.741 334.724 670.741 334.799 670.741C335.247 670.591 335.696 670.441 336.07 670.292C336.22 670.217 336.295 670.217 336.445 670.142C336.744 669.992 337.118 669.843 337.417 669.693C337.492 669.618 337.642 669.618 337.717 669.543C338.091 669.319 338.465 669.169 338.839 668.945C338.839 668.945 338.914 668.945 338.914 668.87L409.769 625.549C410.143 625.324 410.517 625.025 410.891 624.801C411.041 624.726 411.116 624.651 411.19 624.501C411.415 624.352 411.639 624.127 411.864 623.978C412.088 623.753 412.388 623.529 412.612 623.229C412.687 623.155 412.762 623.08 412.762 623.005C412.836 622.93 412.911 622.855 412.986 622.781C413.136 622.631 413.211 622.481 413.36 622.257C413.51 622.107 413.585 621.883 413.66 621.733C413.734 621.658 413.734 621.509 413.809 621.434C413.809 621.359 413.884 621.359 413.884 621.284C413.959 621.06 414.034 620.91 414.108 620.686C414.108 620.611 414.108 620.611 414.183 620.536C414.258 620.386 414.258 620.162 414.333 620.012C414.333 619.937 414.408 619.788 414.408 619.713C414.408 619.638 414.408 619.638 414.408 619.563C414.408 619.488 414.408 619.488 414.408 619.414C414.408 619.189 414.483 618.965 414.483 618.665C414.483 618.591 414.483 618.591 414.483 618.516L414.557 603.477C414.557 604.001 414.557 604.3 414.483 604.599Z" fill="url(#paint35_linear_273_2)"/>
<path d="M338.914 654.055C332.255 658.17 321.106 658.32 314.073 654.429L141.537 559.706C134.504 555.816 134.13 549.381 140.789 545.266L211.644 501.945C218.303 497.83 229.451 497.68 236.484 501.571L409.096 596.294C416.129 600.184 416.503 606.619 409.844 610.734L338.914 654.055ZM147.373 556.19L319.834 650.838C323.501 652.858 329.262 652.783 332.704 650.614L403.559 607.292C407.001 605.197 406.851 601.83 403.185 599.81L230.798 505.162C227.132 503.142 221.37 503.217 217.929 505.387L146.999 548.708C143.557 550.803 143.707 554.17 147.373 556.19Z" fill="url(#paint36_linear_273_2)"/>
<g filter="url(#filter6_f_273_2)">
<path d="M1080.8 625.698C1077.36 627.793 1071.6 627.868 1067.93 625.922L895.47 531.274C891.803 529.254 891.654 525.962 895.095 523.792L965.951 480.471C969.392 478.376 975.154 478.301 978.82 480.246L1151.36 574.895C1155.02 576.915 1155.17 580.207 1151.73 582.377L1080.8 625.698Z" fill="#6363EA"/>
</g>
<path d="M1013.59 603.778C1010.14 605.876 1004.37 605.951 1000.7 604.003L827.951 509.198C824.279 507.175 824.129 503.877 827.577 501.704L898.549 458.311C901.996 456.213 907.767 456.138 911.439 458.086L1084.26 552.891C1087.93 554.914 1088.08 558.212 1084.64 560.385L1013.59 603.778Z" fill="url(#paint37_linear_273_2)"/>
<path d="M1095.5 557.687C1095.5 557.762 1095.5 557.762 1095.5 557.837C1095.5 557.987 1095.43 558.137 1095.35 558.287C1095.28 558.437 1095.28 558.661 1095.2 558.811C1095.13 559.036 1095.05 559.336 1094.9 559.561C1094.9 559.636 1094.83 559.636 1094.83 559.711C1094.68 560.011 1094.53 560.235 1094.38 560.535C1094.23 560.76 1094 561.06 1093.78 561.285C1093.7 561.359 1093.63 561.434 1093.63 561.509C1093.4 561.734 1093.18 562.034 1092.88 562.259C1092.65 562.409 1092.43 562.634 1092.21 562.783C1092.13 562.858 1091.98 562.933 1091.91 563.083C1091.53 563.383 1091.16 563.608 1090.78 563.833L1019.81 607.225C1019.43 607.45 1018.98 607.675 1018.61 607.9C1018.53 607.975 1018.39 607.975 1018.31 608.05C1018.01 608.2 1017.71 608.35 1017.34 608.499C1017.19 608.574 1017.11 608.574 1016.96 608.649C1016.51 608.799 1016.14 608.949 1015.69 609.099C1015.61 609.099 1015.54 609.174 1015.46 609.174C1015.01 609.324 1014.56 609.474 1014.11 609.549C1013.89 609.624 1013.74 609.624 1013.51 609.699C1013.14 609.774 1012.84 609.848 1012.46 609.923C1012.01 609.998 1011.49 610.073 1011.04 610.148C1010.89 610.148 1010.82 610.148 1010.67 610.223C1010.37 610.298 1010.07 610.298 1009.69 610.298C1009.32 610.298 1008.94 610.373 1008.57 610.373C1008.34 610.373 1008.12 610.373 1007.82 610.373C1007.52 610.373 1007.14 610.373 1006.84 610.373C1006.62 610.373 1006.32 610.373 1006.09 610.373C1005.79 610.373 1005.49 610.373 1005.19 610.298C1004.9 610.298 1004.67 610.298 1004.37 610.223C1004.07 610.223 1003.77 610.148 1003.47 610.148C1003.17 610.148 1002.95 610.073 1002.65 610.073C1002.35 609.998 1001.97 609.998 1001.67 609.923C1001.45 609.848 1001.22 609.848 1001 609.774C1000.4 609.624 999.799 609.474 999.274 609.324C998.825 609.174 998.375 609.024 997.925 608.874C997.775 608.799 997.7 608.799 997.55 608.724C997.251 608.574 996.876 608.499 996.576 608.35C996.426 608.275 996.276 608.2 996.127 608.2C995.677 607.975 995.302 607.825 994.852 607.6L822.106 512.721C818.434 510.697 816.56 507.999 816.56 505.301V520.365C816.56 523.063 818.434 525.761 822.106 527.784L994.852 622.589C995.227 622.814 995.677 623.039 996.127 623.189C996.276 623.264 996.426 623.338 996.501 623.338C996.726 623.413 996.876 623.488 997.101 623.563C997.251 623.638 997.401 623.638 997.476 623.713C997.625 623.788 997.7 623.788 997.85 623.863C998.3 624.013 998.75 624.163 999.199 624.313C999.799 624.463 1000.32 624.612 1000.92 624.762C1001 624.762 1001 624.762 1001.07 624.762C1001.3 624.837 1001.45 624.837 1001.67 624.837C1001.97 624.912 1002.35 624.987 1002.65 624.987C1002.72 624.987 1002.8 624.987 1002.8 624.987C1003.02 624.987 1003.17 625.062 1003.4 625.062C1003.7 625.062 1004 625.137 1004.3 625.137C1004.37 625.137 1004.45 625.137 1004.52 625.137C1004.75 625.137 1004.9 625.137 1005.12 625.137C1005.42 625.137 1005.72 625.212 1006.02 625.212C1006.09 625.212 1006.17 625.212 1006.24 625.212C1006.39 625.212 1006.62 625.212 1006.77 625.212C1007.07 625.212 1007.44 625.212 1007.74 625.212C1007.82 625.212 1007.97 625.212 1008.04 625.212C1008.19 625.212 1008.34 625.212 1008.49 625.212C1008.87 625.212 1009.24 625.137 1009.62 625.137C1009.77 625.137 1009.84 625.137 1009.99 625.137C1010.22 625.137 1010.37 625.062 1010.59 625.062C1010.74 625.062 1010.82 625.062 1010.97 624.987C1011.42 624.912 1011.86 624.837 1012.31 624.762H1012.39C1012.76 624.687 1013.06 624.613 1013.44 624.538C1013.66 624.463 1013.81 624.463 1014.04 624.388C1014.49 624.238 1014.94 624.163 1015.39 624.013C1015.46 624.013 1015.54 624.013 1015.61 623.938C1015.61 623.938 1015.61 623.938 1015.69 623.938C1016.14 623.788 1016.59 623.638 1016.96 623.488C1017.11 623.413 1017.19 623.413 1017.34 623.338C1017.64 623.189 1018.01 623.039 1018.31 622.889C1018.39 622.814 1018.53 622.814 1018.61 622.739C1018.98 622.514 1019.36 622.364 1019.73 622.139C1019.73 622.139 1019.81 622.139 1019.81 622.064L1090.78 578.672C1091.16 578.447 1091.53 578.147 1091.91 577.922C1092.06 577.847 1092.13 577.772 1092.21 577.622C1092.43 577.473 1092.65 577.248 1092.88 577.098C1093.1 576.873 1093.4 576.648 1093.63 576.348C1093.7 576.273 1093.78 576.198 1093.78 576.124C1093.85 576.049 1093.93 575.974 1094 575.899C1094.15 575.749 1094.23 575.599 1094.38 575.374C1094.53 575.224 1094.6 574.999 1094.68 574.849C1094.75 574.775 1094.75 574.625 1094.83 574.55C1094.83 574.475 1094.9 574.475 1094.9 574.4C1094.98 574.175 1095.05 574.025 1095.13 573.8C1095.13 573.725 1095.13 573.725 1095.2 573.65C1095.28 573.5 1095.28 573.276 1095.35 573.126C1095.35 573.051 1095.43 572.901 1095.43 572.826C1095.43 572.751 1095.43 572.751 1095.43 572.676C1095.43 572.601 1095.43 572.601 1095.43 572.526C1095.43 572.301 1095.5 572.077 1095.5 571.777C1095.5 571.702 1095.5 571.702 1095.5 571.627L1095.58 556.563C1095.58 557.088 1095.58 557.387 1095.5 557.687Z" fill="url(#paint38_linear_273_2)"/>
<path d="M1019.81 607.225C1013.14 611.347 1001.97 611.497 994.927 607.6L822.106 512.721C815.061 508.823 814.686 502.378 821.356 498.256L892.329 454.863C898.999 450.742 910.165 450.592 917.21 454.489L1090.11 549.368C1097.15 553.265 1097.53 559.711 1090.86 563.833L1019.81 607.225ZM827.951 509.198L1000.7 604.003C1004.37 606.026 1010.14 605.951 1013.59 603.778L1084.56 560.385C1088.01 558.287 1087.86 554.914 1084.19 552.891L911.514 458.086C907.842 456.063 902.071 456.138 898.624 458.311L827.577 501.704C824.129 503.802 824.279 507.175 827.951 509.198Z" fill="url(#paint39_linear_273_2)"/>
<g clip-path="url(#clip0_273_2)">
<path d="M994.446 486.766L994.363 524.099C994.363 527.335 992.123 528.579 989.302 527.003L940.437 498.796C937.7 497.137 935.46 493.32 935.46 490.085L935.543 452.752C935.543 449.516 937.783 448.272 940.603 449.848L989.385 478.055C992.206 479.714 994.446 483.614 994.446 486.766Z" fill="url(#paint40_linear_273_2)"/>
<path d="M992.206 476.479L943.424 448.272C942.014 447.442 940.769 447.359 939.857 447.94L937.036 449.599C937.949 449.019 939.193 449.102 940.603 449.931L989.385 478.138C992.206 479.715 994.446 483.614 994.363 486.849L994.28 524.182C994.28 525.758 993.699 526.92 992.786 527.418L995.524 525.841C996.437 525.344 997.018 524.182 997.018 522.606L997.101 485.273C997.183 481.955 994.943 478.055 992.206 476.479Z" fill="url(#paint41_linear_273_2)"/>
<path d="M994.446 486.766L994.363 524.099C993.865 515.388 993.699 506.76 993.533 498.049L993.45 494.814V491.578V488.343V487.513V487.098C993.45 486.932 993.45 486.849 993.45 486.683C993.45 486.434 993.45 486.186 993.367 486.02C993.367 485.771 993.284 485.522 993.201 485.356C992.952 484.443 992.621 483.531 992.123 482.618C991.625 481.789 991.044 480.959 990.381 480.295C990.049 479.963 989.634 479.632 989.302 479.383C988.97 479.134 988.472 478.885 987.975 478.636L985.154 476.977C977.604 472.663 970.138 468.266 962.754 463.703C955.288 459.223 947.904 454.66 940.603 449.931L989.385 478.138C992.206 479.715 994.446 483.614 994.446 486.766Z" fill="url(#paint42_radial_273_2)"/>
<path d="M941.433 478.47L942.097 478.885V476.645L942.346 476.728V479.051L943.009 479.383V488.923L942.346 488.592V490.583L942.097 490.417V488.426L941.433 488.011V478.47Z" fill="url(#paint43_linear_273_2)"/>
<path d="M950.393 484.195L951.057 484.609V482.369L951.305 482.452V484.692L952.052 485.107V492.906L951.305 492.491V494.482L951.057 494.399V492.408L950.393 491.993V484.195Z" fill="url(#paint44_linear_273_2)"/>
<path d="M978.766 491.827L979.43 492.242V490.002L979.678 490.085V492.408L980.342 492.74V500.538L979.678 500.206V502.197L979.43 502.031V500.04L978.766 499.625V491.827Z" fill="url(#paint45_linear_273_2)"/>
<path d="M965.243 477.226L965.907 477.64V475.401L966.156 475.483V477.806L966.819 478.138V485.937L966.156 485.522V487.513L965.907 487.43V485.439L965.243 485.024V477.226Z" fill="url(#paint46_linear_273_2)"/>
<path d="M954.043 480.876L954.707 481.208V478.968L954.956 479.134V481.374L955.619 481.789V494.98L954.956 494.565V496.556L954.707 496.473V494.399L954.043 494.067V480.876Z" fill="url(#paint47_linear_273_2)"/>
<path d="M972.046 481.789L972.793 482.203V479.964L973.041 480.046V482.369L973.705 482.701V495.892L973.041 495.56V497.551L972.793 497.386V495.394L972.046 494.98V481.789Z" fill="url(#paint48_linear_273_2)"/>
<path d="M961.593 476.645L962.256 477.06V474.82L962.505 474.903V477.143L963.169 477.558V494.399L962.505 494.067V496.058L962.256 495.892V493.901L961.593 493.569V476.645Z" fill="url(#paint49_linear_273_2)"/>
<path d="M944.254 481.623L944.917 482.038V479.715L945.166 479.881V482.12L945.83 482.535V489.006L945.166 488.592V490.583L944.917 490.5V488.509L944.254 488.094V481.623Z" fill="url(#paint50_linear_273_2)"/>
<path d="M957.693 484.526L958.357 484.941V482.701L958.606 482.784V485.107L959.27 485.439V491.91L958.606 491.578V493.569L958.357 493.403V491.412L957.693 490.997V484.526Z" fill="url(#paint51_linear_273_2)"/>
<path d="M968.645 482.618L969.308 482.95V480.71L969.557 480.876V483.116L970.221 483.448V489.919L969.557 489.587V491.578L969.308 491.412V489.421L968.645 489.089V482.618Z" fill="url(#paint52_linear_273_2)"/>
<path d="M947.323 486.351L947.987 486.683V484.443L948.236 484.609V486.849L948.9 487.264V494.233L948.236 493.901V495.892L947.987 495.726V493.735L947.323 493.403V486.351Z" fill="url(#paint53_linear_273_2)"/>
<path d="M975.53 491.163L976.277 491.578V489.338L976.526 489.421V491.661L977.19 492.076V505.848L976.526 505.516V507.507L976.277 507.341V505.35L975.53 504.935V491.163Z" fill="url(#paint54_linear_273_2)"/>
<path d="M950.559 466.69L940.935 461.214V459.97L950.559 465.528V466.69Z" fill="url(#paint55_linear_273_2)"/>
<path d="M955.785 472.58L940.935 464.118V462.873L955.785 471.335V472.58Z" fill="url(#paint56_linear_273_2)"/>
<path d="M990.546 491.08L985.403 488.177V487.098L990.546 490.002V491.08Z" fill="url(#paint57_linear_273_2)"/>
<path d="M990.546 495.892L985.403 492.988V491.993L990.546 494.897V495.892Z" fill="url(#paint58_linear_273_2)"/>
<path d="M990.546 500.455L985.403 497.551V496.473L990.546 499.377V500.455Z" fill="url(#paint59_linear_273_2)"/>
<path d="M990.546 505.267L985.403 502.363V501.285L990.546 504.188V505.267Z" fill="url(#paint60_linear_273_2)"/>
<path d="M990.546 509.83L985.403 506.926V505.848L990.546 508.751V509.83Z" fill="url(#paint61_linear_273_2)"/>
<path d="M990.546 514.642L985.403 511.738V510.659L990.546 513.563V514.642Z" fill="url(#paint62_linear_273_2)"/>
</g>
<path d="M309.476 520.531L309.393 557.864C309.393 561.099 307.153 562.344 304.332 560.767L255.468 532.56C252.647 530.984 250.407 527.085 250.49 523.849L250.573 486.516C250.573 483.281 252.813 482.036 255.633 483.613L304.415 511.82C307.236 513.479 309.476 517.295 309.476 520.531Z" fill="url(#paint63_linear_273_2)"/>
<path d="M307.236 510.244L258.454 482.036C257.044 481.207 255.799 481.124 254.887 481.705L252.149 483.281C253.062 482.783 254.306 482.783 255.716 483.613L304.498 511.82C307.319 513.396 309.559 517.295 309.476 520.531L309.393 557.864C309.393 559.44 308.812 560.601 307.899 561.099L310.637 559.523C311.55 559.025 312.13 557.864 312.13 556.287L312.213 518.955C312.213 515.719 309.973 511.82 307.236 510.244Z" fill="url(#paint64_linear_273_2)"/>
<path d="M309.476 520.531L309.393 557.864C308.895 549.153 308.729 540.525 308.563 531.814L308.48 528.578V525.343V522.107V521.277V520.863C308.48 520.697 308.48 520.614 308.48 520.448C308.48 520.199 308.48 519.95 308.397 519.784C308.397 519.535 308.314 519.286 308.231 519.12C307.983 518.208 307.651 517.295 307.153 516.383C306.655 515.553 306.074 514.723 305.411 514.06C305.079 513.728 304.664 513.396 304.332 513.147C304 512.898 303.503 512.649 303.005 512.401L300.184 510.741C292.635 506.427 285.168 502.03 277.784 497.467C270.318 492.987 262.934 488.425 255.634 483.696L304.415 511.903C307.236 513.479 309.476 517.295 309.476 520.531Z" fill="url(#paint65_radial_273_2)"/>
<path d="M297.28 545.171L255.219 520.531V491.826L255.716 492.075V520.282L297.28 544.673V545.171Z" fill="url(#paint66_linear_273_2)"/>
<path d="M292.634 518.54V540.359L257.707 519.95V516.3C257.707 516.3 259.284 509.497 263.349 511.82C267.414 514.226 267.414 520.365 269.488 521.609C271.645 522.854 271.479 511.654 275.295 513.894C279.111 516.134 278.116 521.195 280.937 522.854C280.937 522.854 281.02 522.854 281.02 522.937C283.757 524.43 282.513 519.867 284.919 521.112C284.919 521.112 284.919 521.112 285.002 521.112H285.085C287.657 522.605 287.657 515.47 291.556 517.71C291.971 518.042 292.302 518.291 292.634 518.54Z" fill="url(#paint67_linear_273_2)"/>
<path d="M282.015 523.517C281.683 523.517 281.352 523.434 281.02 523.186L280.854 523.103C279.443 522.273 278.946 520.697 278.365 519.038C277.784 517.212 277.12 515.304 275.212 514.143L275.295 513.894L275.129 514.143C274.715 513.894 274.3 513.811 273.968 513.977C272.889 514.392 272.309 516.715 271.728 518.457C271.23 520.199 270.815 521.609 270.069 521.941C269.903 522.024 269.737 522.024 269.488 521.941L269.405 522.024L269.322 521.858C268.326 521.277 267.829 519.784 267.165 518.125C266.335 515.885 265.423 513.313 263.1 511.986L263.183 511.737L263.017 511.986C262.187 511.488 261.358 511.405 260.611 511.654C258.62 512.484 257.707 516.217 257.707 516.217H257.375C257.375 516.051 258.288 512.235 260.611 511.239C261.524 510.824 262.519 510.99 263.515 511.571C265.921 512.981 266.999 515.802 267.746 517.959C268.326 519.535 268.824 520.863 269.654 521.36H269.737C269.82 521.36 269.903 521.36 269.903 521.36C270.401 521.195 270.815 519.618 271.23 518.291C271.811 516.134 272.475 513.894 273.802 513.396C274.3 513.23 274.88 513.23 275.461 513.645C277.618 514.889 278.282 517.046 278.863 518.872C279.36 520.448 279.858 521.858 281.103 522.605L281.02 522.854L281.186 522.605L281.269 522.688C281.683 522.937 282.015 522.937 282.181 522.937C282.513 522.854 282.679 522.439 282.845 521.941C283.094 521.443 283.26 520.863 283.84 520.697C284.172 520.614 284.587 520.614 285.085 520.946C285.085 520.946 285.085 520.946 285.168 520.946C285.997 521.443 286.412 520.863 287.242 519.452C288.071 518.042 289.233 516.134 291.639 517.544L291.556 517.793L291.722 517.544C291.805 517.544 291.805 517.627 291.888 517.627C292.22 517.793 292.551 518.042 292.8 518.291L292.385 518.706C292.137 518.457 291.805 518.291 291.556 518.042C291.473 518.042 291.473 517.959 291.39 517.959C289.482 516.798 288.652 518.208 287.74 519.701C287.076 520.863 286.246 522.19 284.836 521.36C284.421 521.112 284.172 521.112 284.006 521.112C283.757 521.195 283.591 521.609 283.343 522.024C283.094 522.522 282.845 523.103 282.347 523.352C282.264 523.517 282.181 523.517 282.015 523.517Z" fill="white"/>
<path d="M293.547 519.12C293.547 519.618 293.132 519.784 292.634 519.452C292.136 519.203 291.722 518.54 291.722 518.042C291.722 517.544 292.136 517.378 292.634 517.71C293.132 518.042 293.547 518.623 293.547 519.12Z" fill="#D7DBFF"/>
<path d="M293.049 519.95C292.883 519.95 292.634 519.867 292.468 519.784C291.888 519.452 291.473 518.706 291.473 518.125C291.473 517.793 291.639 517.544 291.805 517.461C292.054 517.295 292.385 517.378 292.717 517.544C293.298 517.876 293.713 518.623 293.713 519.203C293.713 519.535 293.547 519.784 293.381 519.867C293.298 519.867 293.215 519.95 293.049 519.95ZM292.22 517.876C292.137 517.876 292.137 517.876 292.22 517.876C292.054 517.959 292.054 518.042 292.054 518.125C292.054 518.54 292.385 519.038 292.8 519.286C292.966 519.369 293.132 519.369 293.215 519.369C293.298 519.369 293.298 519.203 293.298 519.203C293.298 518.789 292.966 518.291 292.551 518.042C292.385 517.959 292.22 517.876 292.22 517.876Z" fill="white"/>
<path d="M272.06 502.113V503.773L260.196 496.804V495.145L272.06 502.113Z" fill="url(#paint68_linear_273_2)"/>
<path d="M267.248 531.731L257.625 526.089V524.928L267.248 530.569V531.731Z" fill="url(#paint69_linear_273_2)"/>
<path d="M280.107 539.28L270.483 533.639V532.477L280.107 538.119V539.28Z" fill="url(#paint70_linear_273_2)"/>
<path d="M293.547 547.079L283.923 541.52V540.276L293.547 545.917V547.079Z" fill="url(#paint71_linear_273_2)"/>
<path d="M303.254 525.757L300.682 524.264C300.018 523.932 299.52 523.103 299.52 522.439V519.867C299.52 519.203 300.018 519.038 300.682 519.369L303.254 520.863C303.917 521.195 304.415 522.024 304.415 522.688V525.26C304.415 525.923 303.917 526.089 303.254 525.757Z" fill="url(#paint72_linear_273_2)"/>
<path d="M303.254 533.639L300.682 532.146C300.018 531.814 299.52 530.984 299.52 530.32V527.749C299.52 527.085 300.018 526.919 300.682 527.251L303.254 528.744C303.917 529.076 304.415 529.906 304.415 530.569V533.141C304.415 533.805 303.917 533.971 303.254 533.639Z" fill="url(#paint73_linear_273_2)"/>
<path d="M303.254 541.852L300.682 540.359C300.018 540.027 299.52 539.197 299.52 538.534V535.962C299.52 535.298 300.018 535.132 300.682 535.464L303.254 536.957C303.917 537.289 304.415 538.119 304.415 538.782V541.354C304.415 542.018 303.917 542.184 303.254 541.852Z" fill="url(#paint74_linear_273_2)"/>
<path d="M586.567 259.201L586.484 296.534C586.484 299.769 584.244 301.014 581.423 299.437L532.558 271.23C529.821 269.571 527.581 265.755 527.581 262.519L527.664 225.186C527.664 221.951 529.904 220.706 532.724 222.283L581.506 250.49C584.327 252.149 586.567 256.048 586.567 259.201Z" fill="url(#paint75_linear_273_2)"/>
<path d="M584.326 248.913L535.545 220.706C534.134 219.877 532.89 219.794 531.977 220.374L529.157 222.034C530.069 221.453 531.314 221.536 532.724 222.366L581.506 250.573C584.326 252.149 586.566 256.048 586.483 259.284L586.401 296.617C586.401 298.193 585.82 299.354 584.907 299.852L587.645 298.276C588.558 297.778 589.138 296.617 589.138 295.04L589.221 257.707C589.304 254.389 587.064 250.49 584.326 248.913Z" fill="url(#paint76_linear_273_2)"/>
<path d="M586.566 259.201L586.483 296.533C585.986 287.822 585.82 279.194 585.654 270.483L585.571 267.248V264.012V260.777V259.947V259.532C585.571 259.367 585.571 259.284 585.571 259.118C585.571 258.869 585.571 258.62 585.488 258.454C585.488 258.205 585.405 257.956 585.322 257.79C585.073 256.878 584.741 255.965 584.244 255.053C583.746 254.223 583.165 253.393 582.501 252.73C582.169 252.398 581.755 252.066 581.423 251.817C581.091 251.568 580.593 251.319 580.095 251.07L577.275 249.411C569.725 245.097 562.259 240.7 554.875 236.137C547.408 231.657 540.025 227.094 532.724 222.365L581.506 250.573C584.326 252.149 586.566 256.048 586.566 259.201Z" fill="url(#paint77_radial_273_2)"/>
<path d="M566.49 276.374C564.001 277.369 560.6 276.955 556.783 274.715C549.234 270.318 543.095 260.528 543.095 252.979C543.095 245.429 549.234 242.857 556.783 247.254V260.943L566.49 276.374Z" fill="url(#paint78_linear_273_2)"/>
<path d="M573.625 270.732L556.866 260.943V244.185C566.075 249.577 573.625 261.524 573.625 270.732Z" fill="url(#paint79_linear_273_2)"/>
<path d="M570.555 268.99C570.555 272.806 568.979 275.295 566.49 276.374L556.866 260.943L570.555 268.99Z" fill="url(#paint80_linear_273_2)"/>
<path d="M580.013 260.777V270.069C579.764 269.986 579.515 269.903 579.266 269.737C579.017 269.571 578.768 269.405 578.519 269.156V259.864L580.013 260.777Z" fill="url(#paint81_linear_273_2)"/>
<path d="M580.013 270.069V289.233L578.519 288.32V269.156C578.768 269.405 579.017 269.571 579.266 269.737C579.515 269.903 579.764 269.986 580.013 270.069Z" fill="url(#paint82_linear_273_2)"/>
<path d="M580.013 268.327V269.986C579.764 269.903 579.515 269.82 579.266 269.654C579.017 269.488 578.768 269.322 578.519 269.073V267.414L580.013 268.327Z" fill="#4646BC"/>
<path d="M581.257 268.907C581.257 269.737 580.759 270.152 580.013 270.069C579.764 269.986 579.515 269.903 579.266 269.737C579.017 269.571 578.768 269.405 578.519 269.156C577.773 268.409 577.275 267.331 577.275 266.501C577.275 265.672 577.773 265.257 578.519 265.34C578.768 265.423 579.017 265.506 579.266 265.672C579.515 265.838 579.764 266.004 580.013 266.252C580.759 266.999 581.257 268.078 581.257 268.907Z" fill="white"/>
<path d="M580.261 268.326C580.261 268.907 579.847 269.073 579.266 268.741C578.685 268.409 578.27 267.663 578.27 267.165C578.27 266.584 578.685 266.418 579.266 266.75C579.764 266.999 580.261 267.746 580.261 268.326Z" fill="url(#paint83_linear_273_2)"/>
<path d="M547.906 274.963L545.749 273.719C545.5 273.553 545.252 273.221 545.252 272.889V270.732C545.252 270.484 545.5 270.401 545.749 270.484L547.906 271.728C548.155 271.894 548.404 272.226 548.404 272.558V274.798C548.404 275.046 548.238 275.129 547.906 274.963Z" fill="url(#paint84_linear_273_2)"/>
<path d="M554.46 278.78L552.303 277.535C552.054 277.369 551.806 277.038 551.806 276.706V274.549C551.806 274.3 552.054 274.217 552.303 274.3L554.46 275.544C554.709 275.71 554.958 276.042 554.958 276.374V278.531C554.958 278.863 554.709 278.946 554.46 278.78Z" fill="url(#paint85_linear_273_2)"/>
<path d="M561.18 282.679L558.94 281.434C558.691 281.269 558.443 280.937 558.443 280.605V278.448C558.443 278.199 558.691 278.116 558.94 278.199L561.097 279.443C561.346 279.609 561.595 279.941 561.595 280.273V282.43C561.678 282.762 561.429 282.845 561.18 282.679Z" fill="url(#paint86_linear_273_2)"/>
<path d="M567.983 286.661L565.743 285.417C565.494 285.251 565.245 284.919 565.245 284.587V282.43C565.245 282.181 565.494 282.098 565.743 282.181L567.9 283.425C568.149 283.591 568.398 283.923 568.398 284.255V286.412C568.481 286.744 568.232 286.827 567.983 286.661Z" fill="url(#paint87_linear_273_2)"/>
<path d="M544.007 239.788L532.144 232.819V230.994L544.007 237.962V239.788Z" fill="url(#paint88_linear_273_2)"/>
<defs>
<filter id="filter0_f_273_2" x="0.816162" y="0.195068" width="1212.26" height="1111.57" filterUnits="userSpaceOnUse" color-interpolation-filters="sRGB">
<feFlood flood-opacity="0" result="BackgroundImageFix"/>
<feBlend mode="normal" in="SourceGraphic" in2="BackgroundImageFix" result="shape"/>
<feGaussianBlur stdDeviation="200" result="effect1_foregroundBlur_273_2"/>
</filter>
<filter id="filter1_f_273_2" x="319.134" y="271.484" width="592.412" height="585.036" filterUnits="userSpaceOnUse" color-interpolation-filters="sRGB">
<feFlood flood-opacity="0" result="BackgroundImageFix"/>
<feBlend mode="normal" in="SourceGraphic" in2="BackgroundImageFix" result="shape"/>
<feGaussianBlur stdDeviation="75" result="effect1_foregroundBlur_273_2"/>
</filter>
<filter id="filter2_f_273_2" x="444.982" y="395.751" width="340.189" height="336.501" filterUnits="userSpaceOnUse" color-interpolation-filters="sRGB">
<feFlood flood-opacity="0" result="BackgroundImageFix"/>
<feBlend mode="normal" in="SourceGraphic" in2="BackgroundImageFix" result="shape"/>
<feGaussianBlur stdDeviation="40" result="effect1_foregroundBlur_273_2"/>
</filter>
<filter id="filter3_f_273_2" x="477.581" y="640.395" width="380.411" height="262.605" filterUnits="userSpaceOnUse" color-interpolation-filters="sRGB">
<feFlood flood-opacity="0" result="BackgroundImageFix"/>
<feBlend mode="normal" in="SourceGraphic" in2="BackgroundImageFix" result="shape"/>
<feGaussianBlur stdDeviation="25" result="effect1_foregroundBlur_273_2"/>
</filter>
<filter id="filter4_f_273_2" x="383.833" y="209.822" width="380.411" height="262.605" filterUnits="userSpaceOnUse" color-interpolation-filters="sRGB">
<feFlood flood-opacity="0" result="BackgroundImageFix"/>
<feBlend mode="normal" in="SourceGraphic" in2="BackgroundImageFix" result="shape"/>
<feGaussianBlur stdDeviation="25" result="effect1_foregroundBlur_273_2"/>
</filter>
<filter id="filter5_f_273_2" x="87.4365" y="413.686" width="461.599" height="348.486" filterUnits="userSpaceOnUse" color-interpolation-filters="sRGB">
<feFlood flood-opacity="0" result="BackgroundImageFix"/>
<feBlend mode="normal" in="SourceGraphic" in2="BackgroundImageFix" result="shape"/>
<feGaussianBlur stdDeviation="50" result="effect1_foregroundBlur_273_2"/>
</filter>
<filter id="filter6_f_273_2" x="792.613" y="378.841" width="461.599" height="348.486" filterUnits="userSpaceOnUse" color-interpolation-filters="sRGB">
<feFlood flood-opacity="0" result="BackgroundImageFix"/>
<feBlend mode="normal" in="SourceGraphic" in2="BackgroundImageFix" result="shape"/>
<feGaussianBlur stdDeviation="50" result="effect1_foregroundBlur_273_2"/>
</filter>
<linearGradient id="paint0_linear_273_2" x1="323.498" y1="827.875" x2="963.535" y2="216.176" gradientUnits="userSpaceOnUse">
<stop stop-color="white" stop-opacity="0.46"/>
<stop offset="0.7524" stop-color="#AF63EA" stop-opacity="0.72"/>
</linearGradient>
<linearGradient id="paint1_linear_273_2" x1="515.473" y1="759.488" x2="769.127" y2="759.488" gradientUnits="userSpaceOnUse">
<stop stop-color="#D3CFFF"/>
<stop offset="1" stop-color="white"/>
</linearGradient>
<linearGradient id="paint2_linear_273_2" x1="506.882" y1="759.626" x2="777.196" y2="759.626" gradientUnits="userSpaceOnUse">
<stop stop-color="#FCF8FF"/>
<stop offset="0.2909" stop-color="#D7B8F2"/>
<stop offset="1" stop-color="#4D58FF"/>
</linearGradient>
<linearGradient id="paint3_linear_273_2" x1="506.84" y1="792.755" x2="777.196" y2="792.755" gradientUnits="userSpaceOnUse">
<stop stop-color="#FCF8FF"/>
<stop offset="0.2909" stop-color="#D7B8F2"/>
<stop offset="1" stop-color="#4D58FF"/>
</linearGradient>
<linearGradient id="paint4_linear_273_2" x1="671.405" y1="335.777" x2="433.803" y2="326.791" gradientUnits="userSpaceOnUse">
<stop stop-color="#D3CFFF"/>
<stop offset="1" stop-color="white"/>
</linearGradient>
<linearGradient id="paint5_linear_273_2" x1="686.862" y1="326.79" x2="432.366" y2="326.79" gradientUnits="userSpaceOnUse">
<stop stop-color="#FCF8FF"/>
<stop offset="0.2909" stop-color="#D7B8F2"/>
<stop offset="1" stop-color="#4D58FF"/>
</linearGradient>
<linearGradient id="paint6_linear_273_2" x1="690.097" y1="351.234" x2="414.752" y2="359.142" gradientUnits="userSpaceOnUse">
<stop stop-color="#FCF8FF"/>
<stop offset="0.2909" stop-color="#D7B8F2"/>
<stop offset="1" stop-color="#4D58FF"/>
</linearGradient>
<linearGradient id="paint7_linear_273_2" x1="630.905" y1="456.191" x2="611.211" y2="381.633" gradientUnits="userSpaceOnUse">
<stop stop-color="#7773EA"/>
<stop offset="0.7308" stop-color="#FFAAB6"/>
<stop offset="1" stop-color="#FFEFD1"/>
</linearGradient>
<linearGradient id="paint8_linear_273_2" x1="599.076" y1="350.667" x2="574.381" y2="403.513" gradientUnits="userSpaceOnUse">
<stop stop-color="#DB9BC4"/>
<stop offset="1" stop-color="#4D58FF"/>
</linearGradient>
<linearGradient id="paint9_linear_273_2" x1="630.704" y1="375.996" x2="598.074" y2="429.968" gradientUnits="userSpaceOnUse">
<stop stop-color="#FFAAAF" stop-opacity="0.71"/>
<stop offset="1" stop-color="#2B00FE" stop-opacity="0.65"/>
</linearGradient>
<linearGradient id="paint10_linear_273_2" x1="20081.3" y1="10330.1" x2="18953.7" y2="11984.7" gradientUnits="userSpaceOnUse">
<stop stop-color="#FFAAAF"/>
<stop offset="1" stop-color="#2B00FE" stop-opacity="0.46"/>
</linearGradient>
<linearGradient id="paint11_linear_273_2" x1="534.453" y1="581.271" x2="687.329" y2="581.271" gradientUnits="userSpaceOnUse">
<stop stop-color="#FCF8FF"/>
<stop offset="0.2909" stop-color="#D7B8F2"/>
<stop offset="1" stop-color="#4D58FF"/>
</linearGradient>
<linearGradient id="paint12_linear_273_2" x1="629.171" y1="523.491" x2="596.453" y2="582.809" gradientUnits="userSpaceOnUse">
<stop stop-color="#D3CFFF"/>
<stop offset="1" stop-color="white"/>
</linearGradient>
<linearGradient id="paint13_linear_273_2" x1="534.453" y1="558.61" x2="687.329" y2="558.61" gradientUnits="userSpaceOnUse">
<stop stop-color="#FCF8FF"/>
<stop offset="0.2909" stop-color="#D7B8F2"/>
<stop offset="1" stop-color="#4D58FF"/>
</linearGradient>
<linearGradient id="paint14_linear_273_2" x1="629.171" y1="500.83" x2="596.453" y2="560.148" gradientUnits="userSpaceOnUse">
<stop stop-color="#D3CFFF"/>
<stop offset="1" stop-color="white"/>
</linearGradient>
<linearGradient id="paint15_linear_273_2" x1="537.286" y1="531.983" x2="690.162" y2="531.983" gradientUnits="userSpaceOnUse">
<stop stop-color="#FCF8FF"/>
<stop offset="0.2909" stop-color="#D7B8F2"/>
<stop offset="1" stop-color="#4D58FF"/>
</linearGradient>
<linearGradient id="paint16_linear_273_2" x1="632.003" y1="474.203" x2="599.285" y2="533.521" gradientUnits="userSpaceOnUse">
<stop stop-color="#D3CFFF"/>
<stop offset="1" stop-color="white"/>
</linearGradient>
<linearGradient id="paint17_linear_273_2" x1="576.376" y1="511.017" x2="651.171" y2="511.017" gradientUnits="userSpaceOnUse">
<stop stop-color="#FCF8FF"/>
<stop offset="0.2909" stop-color="#D7B8F2"/>
<stop offset="1" stop-color="#4D58FF"/>
</linearGradient>
<linearGradient id="paint18_linear_273_2" x1="622.716" y1="482.686" x2="606.656" y2="511.741" gradientUnits="userSpaceOnUse">
<stop stop-color="#D3CFFF"/>
<stop offset="1" stop-color="white"/>
</linearGradient>
<linearGradient id="paint19_linear_273_2" x1="607.032" y1="314.324" x2="614.78" y2="505.163" gradientUnits="userSpaceOnUse">
<stop stop-color="#F1EBF9" stop-opacity="0"/>
<stop offset="0.28" stop-color="#F3EFFA" stop-opacity="0"/>
<stop offset="0.3" stop-color="#F3F0FA" stop-opacity="0"/>
<stop offset="0.38" stop-color="#F1F3FB" stop-opacity="0.04"/>
<stop offset="0.5" stop-color="#ECFAFD" stop-opacity="0.13"/>
<stop offset="0.57" stop-color="#E9FFFF" stop-opacity="0.2"/>
<stop offset="0.64" stop-color="#E9FFFF" stop-opacity="0.3"/>
<stop offset="0.78" stop-color="#E8FFFF" stop-opacity="0.56"/>
<stop offset="0.98" stop-color="#E6FFFF" stop-opacity="0.96"/>
<stop offset="1" stop-color="#E6FFFF"/>
</linearGradient>
<linearGradient id="paint20_linear_273_2" x1="640.066" y1="671.41" x2="677.652" y2="767.528" gradientUnits="userSpaceOnUse">
<stop stop-color="#E4C8ED"/>
<stop offset="0.3293" stop-color="#6363EA"/>
<stop offset="1" stop-color="#4D58FF" stop-opacity="0"/>
</linearGradient>
<linearGradient id="paint21_linear_273_2" x1="653.278" y1="715.499" x2="682.637" y2="610.78" gradientUnits="userSpaceOnUse">
<stop stop-color="#E4C8ED"/>
<stop offset="0.3293" stop-color="#6363EA"/>
<stop offset="1" stop-color="#4D58FF" stop-opacity="0"/>
</linearGradient>
<radialGradient id="paint22_radial_273_2" cx="0" cy="0" r="1" gradientUnits="userSpaceOnUse" gradientTransform="translate(686.538 695.255) scale(81.1156)">
<stop stop-color="#E4C8ED"/>
<stop offset="0.3293" stop-color="#6363EA"/>
<stop offset="1" stop-color="#4D58FF" stop-opacity="0"/>
</radialGradient>
<linearGradient id="paint23_linear_273_2" x1="633.889" y1="708.636" x2="636.96" y2="699.726" gradientUnits="userSpaceOnUse">
<stop stop-color="#2A67E7"/>
<stop offset="1" stop-color="#9AFFFF"/>
</linearGradient>
<linearGradient id="paint24_linear_273_2" x1="645.733" y1="693.639" x2="638.131" y2="709.144" gradientUnits="userSpaceOnUse">
<stop stop-color="#E4C8ED"/>
<stop offset="0.4929" stop-color="#6363EA"/>
<stop offset="1" stop-color="#4D58FF" stop-opacity="0.2"/>
</linearGradient>
<linearGradient id="paint25_linear_273_2" x1="652.898" y1="697.805" x2="638.803" y2="721.566" gradientUnits="userSpaceOnUse">
<stop stop-color="white"/>
<stop offset="0.1971" stop-color="#E7AE82"/>
<stop offset="0.7098" stop-color="#FF4F9C"/>
<stop offset="1" stop-color="#4D58FF"/>
</linearGradient>
<linearGradient id="paint26_linear_273_2" x1="654.894" y1="703.609" x2="648.249" y2="717.503" gradientUnits="userSpaceOnUse">
<stop stop-color="#E4C8ED"/>
<stop offset="0.4929" stop-color="#6363EA"/>
<stop offset="1" stop-color="#4D58FF" stop-opacity="0.2"/>
</linearGradient>
<linearGradient id="paint27_linear_273_2" x1="653.924" y1="720.391" x2="659.109" y2="695.673" gradientUnits="userSpaceOnUse">
<stop stop-color="#2A67E7"/>
<stop offset="1" stop-color="#9AFFFF"/>
</linearGradient>
<linearGradient id="paint28_linear_273_2" x1="665.575" y1="702.593" x2="658.276" y2="722.629" gradientUnits="userSpaceOnUse">
<stop stop-color="#E4C8ED"/>
<stop offset="0.4929" stop-color="#6363EA"/>
<stop offset="1" stop-color="#4D58FF" stop-opacity="0.2"/>
</linearGradient>
<linearGradient id="paint29_linear_273_2" x1="672.104" y1="709.198" x2="658.008" y2="732.959" gradientUnits="userSpaceOnUse">
<stop stop-color="white"/>
<stop offset="0.1971" stop-color="#E7AE82"/>
<stop offset="0.7098" stop-color="#FF4F9C"/>
<stop offset="1" stop-color="#4D58FF"/>
</linearGradient>
<linearGradient id="paint30_linear_273_2" x1="678.925" y1="708.657" x2="660.5" y2="733.626" gradientUnits="userSpaceOnUse">
<stop stop-color="#E4C8ED"/>
<stop offset="0.4929" stop-color="#6363EA"/>
<stop offset="1" stop-color="#4D58FF" stop-opacity="0.2"/>
</linearGradient>
<linearGradient id="paint31_linear_273_2" x1="655.772" y1="690.054" x2="651.284" y2="779.813" gradientUnits="userSpaceOnUse">
<stop stop-color="#E4C8ED"/>
<stop offset="0.7524" stop-color="#6363EA"/>
</linearGradient>
<linearGradient id="paint32_linear_273_2" x1="638.12" y1="680.81" x2="636.686" y2="695.271" gradientUnits="userSpaceOnUse">
<stop stop-color="#E4C8ED"/>
<stop offset="0.7476" stop-color="#565EFE" stop-opacity="0.3"/>
</linearGradient>
<linearGradient id="paint33_linear_273_2" x1="641.161" y1="681.111" x2="639.727" y2="695.573" gradientUnits="userSpaceOnUse">
<stop stop-color="#E4C8ED"/>
<stop offset="0.7476" stop-color="#565EFE" stop-opacity="0.3"/>
</linearGradient>
<linearGradient id="paint34_linear_273_2" x1="144.536" y1="577.995" x2="406.082" y2="577.995" gradientUnits="userSpaceOnUse">
<stop stop-color="#D3CFFF"/>
<stop offset="1" stop-color="white"/>
</linearGradient>
<linearGradient id="paint35_linear_273_2" x1="136" y1="612.253" x2="414.577" y2="612.253" gradientUnits="userSpaceOnUse">
<stop stop-color="#FCF8FF"/>
<stop offset="0.2909" stop-color="#D7B8F2"/>
<stop offset="1" stop-color="#4D58FF"/>
</linearGradient>
<linearGradient id="paint36_linear_273_2" x1="136.043" y1="577.996" x2="414.577" y2="577.996" gradientUnits="userSpaceOnUse">
<stop stop-color="#FCF8FF"/>
<stop offset="0.2909" stop-color="#D7B8F2"/>
<stop offset="1" stop-color="#4D58FF"/>
</linearGradient>
<linearGradient id="paint37_linear_273_2" x1="1106.59" y1="543.098" x2="824.804" y2="531.107" gradientUnits="userSpaceOnUse">
<stop stop-color="#D3CFFF"/>
<stop offset="1" stop-color="white"/>
</linearGradient>
<linearGradient id="paint38_linear_273_2" x1="1087.86" y1="565.581" x2="822.93" y2="565.581" gradientUnits="userSpaceOnUse">
<stop stop-color="#FCF8FF"/>
<stop offset="0.2909" stop-color="#D7B8F2"/>
<stop offset="1" stop-color="#4D58FF"/>
</linearGradient>
<linearGradient id="paint39_linear_273_2" x1="1101.72" y1="551.716" x2="830.425" y2="531.107" gradientUnits="userSpaceOnUse">
<stop stop-color="#FCF8FF"/>
<stop offset="0.2909" stop-color="#D7B8F2"/>
<stop offset="1" stop-color="#4D58FF"/>
</linearGradient>
<linearGradient id="paint40_linear_273_2" x1="950.956" y1="452.655" x2="988.543" y2="548.773" gradientUnits="userSpaceOnUse">
<stop stop-color="#E4C8ED"/>
<stop offset="0.3293" stop-color="#6363EA"/>
<stop offset="1" stop-color="#4D58FF" stop-opacity="0"/>
</linearGradient>
<linearGradient id="paint41_linear_273_2" x1="964.169" y1="496.743" x2="993.528" y2="392.024" gradientUnits="userSpaceOnUse">
<stop stop-color="#E4C8ED"/>
<stop offset="0.3293" stop-color="#6363EA"/>
<stop offset="1" stop-color="#4D58FF" stop-opacity="0"/>
</linearGradient>
<radialGradient id="paint42_radial_273_2" cx="0" cy="0" r="1" gradientUnits="userSpaceOnUse" gradientTransform="translate(997.429 476.499) scale(81.1157)">
<stop stop-color="#E4C8ED"/>
<stop offset="0.3293" stop-color="#6363EA"/>
<stop offset="1" stop-color="#4D58FF" stop-opacity="0"/>
</radialGradient>
<linearGradient id="paint43_linear_273_2" x1="943.397" y1="517.607" x2="942.15" y2="480.706" gradientUnits="userSpaceOnUse">
<stop stop-color="#2A67E7"/>
<stop offset="1" stop-color="#9AFFFF"/>
</linearGradient>
<linearGradient id="paint44_linear_273_2" x1="952.19" y1="517.31" x2="950.943" y2="480.409" gradientUnits="userSpaceOnUse">
<stop stop-color="#2A67E7"/>
<stop offset="1" stop-color="#9AFFFF"/>
</linearGradient>
<linearGradient id="paint45_linear_273_2" x1="980.203" y1="516.364" x2="978.956" y2="479.462" gradientUnits="userSpaceOnUse">
<stop stop-color="#2A67E7"/>
<stop offset="1" stop-color="#9AFFFF"/>
</linearGradient>
<linearGradient id="paint46_linear_273_2" x1="967.202" y1="516.803" x2="965.955" y2="479.902" gradientUnits="userSpaceOnUse">
<stop stop-color="#2A67E7"/>
<stop offset="1" stop-color="#9AFFFF"/>
</linearGradient>
<linearGradient id="paint47_linear_273_2" x1="955.835" y1="517.187" x2="954.588" y2="480.286" gradientUnits="userSpaceOnUse">
<stop stop-color="#2A67E7"/>
<stop offset="1" stop-color="#9AFFFF"/>
</linearGradient>
<linearGradient id="paint48_linear_273_2" x1="973.815" y1="516.579" x2="972.569" y2="479.678" gradientUnits="userSpaceOnUse">
<stop stop-color="#2A67E7"/>
<stop offset="1" stop-color="#9AFFFF"/>
</linearGradient>
<linearGradient id="paint49_linear_273_2" x1="963.445" y1="516.93" x2="962.199" y2="480.029" gradientUnits="userSpaceOnUse">
<stop stop-color="#2A67E7"/>
<stop offset="1" stop-color="#9AFFFF"/>
</linearGradient>
<linearGradient id="paint50_linear_273_2" x1="945.592" y1="474.242" x2="943.909" y2="507.06" gradientUnits="userSpaceOnUse">
<stop stop-color="white"/>
<stop offset="0.1971" stop-color="#E7AE82"/>
<stop offset="0.7098" stop-color="#FF4F9C"/>
<stop offset="1" stop-color="#4D58FF"/>
</linearGradient>
<linearGradient id="paint51_linear_273_2" x1="959.154" y1="474.938" x2="957.471" y2="507.756" gradientUnits="userSpaceOnUse">
<stop stop-color="white"/>
<stop offset="0.1971" stop-color="#E7AE82"/>
<stop offset="0.7098" stop-color="#FF4F9C"/>
<stop offset="1" stop-color="#4D58FF"/>
</linearGradient>
<linearGradient id="paint52_linear_273_2" x1="969.967" y1="475.492" x2="968.284" y2="508.31" gradientUnits="userSpaceOnUse">
<stop stop-color="white"/>
<stop offset="0.1971" stop-color="#E7AE82"/>
<stop offset="0.7098" stop-color="#FF4F9C"/>
<stop offset="1" stop-color="#4D58FF"/>
</linearGradient>
<linearGradient id="paint53_linear_273_2" x1="948.936" y1="474.414" x2="947.253" y2="507.232" gradientUnits="userSpaceOnUse">
<stop stop-color="white"/>
<stop offset="0.1971" stop-color="#E7AE82"/>
<stop offset="0.7098" stop-color="#FF4F9C"/>
<stop offset="1" stop-color="#4D58FF"/>
</linearGradient>
<linearGradient id="paint54_linear_273_2" x1="977.525" y1="475.88" x2="975.842" y2="508.698" gradientUnits="userSpaceOnUse">
<stop stop-color="white"/>
<stop offset="0.1971" stop-color="#E7AE82"/>
<stop offset="0.7098" stop-color="#FF4F9C"/>
<stop offset="1" stop-color="#4D58FF"/>
</linearGradient>
<linearGradient id="paint55_linear_273_2" x1="945.945" y1="457.573" x2="945.322" y2="475.275" gradientUnits="userSpaceOnUse">
<stop stop-color="#6363EA"/>
<stop offset="1" stop-color="#4D58FF" stop-opacity="0.2"/>
</linearGradient>
<linearGradient id="paint56_linear_273_2" x1="948.705" y1="457.67" x2="948.082" y2="475.372" gradientUnits="userSpaceOnUse">
<stop stop-color="#6363EA"/>
<stop offset="1" stop-color="#4D58FF" stop-opacity="0.2"/>
</linearGradient>
<linearGradient id="paint57_linear_273_2" x1="988.022" y1="489.852" x2="990.266" y2="537.599" gradientUnits="userSpaceOnUse">
<stop stop-color="#E4C8ED"/>
<stop offset="0.7476" stop-color="#565EFE" stop-opacity="0.3"/>
</linearGradient>
<linearGradient id="paint58_linear_273_2" x1="987.796" y1="489.863" x2="990.04" y2="537.61" gradientUnits="userSpaceOnUse">
<stop stop-color="#E4C8ED"/>
<stop offset="0.7476" stop-color="#565EFE" stop-opacity="0.3"/>
</linearGradient>
<linearGradient id="paint59_linear_273_2" x1="987.583" y1="489.873" x2="989.828" y2="537.62" gradientUnits="userSpaceOnUse">
<stop stop-color="#E4C8ED"/>
<stop offset="0.7476" stop-color="#565EFE" stop-opacity="0.3"/>
</linearGradient>
<linearGradient id="paint60_linear_273_2" x1="987.357" y1="489.883" x2="989.601" y2="537.63" gradientUnits="userSpaceOnUse">
<stop stop-color="#E4C8ED"/>
<stop offset="0.7476" stop-color="#565EFE" stop-opacity="0.3"/>
</linearGradient>
<linearGradient id="paint61_linear_273_2" x1="987.145" y1="489.893" x2="989.389" y2="537.64" gradientUnits="userSpaceOnUse">
<stop stop-color="#E4C8ED"/>
<stop offset="0.7476" stop-color="#565EFE" stop-opacity="0.3"/>
</linearGradient>
<linearGradient id="paint62_linear_273_2" x1="986.918" y1="489.904" x2="989.162" y2="537.651" gradientUnits="userSpaceOnUse">
<stop stop-color="#E4C8ED"/>
<stop offset="0.7476" stop-color="#565EFE" stop-opacity="0.3"/>
</linearGradient>
<linearGradient id="paint63_linear_273_2" x1="265.986" y1="486.405" x2="303.573" y2="582.523" gradientUnits="userSpaceOnUse">
<stop stop-color="#E4C8ED"/>
<stop offset="0.3293" stop-color="#6363EA"/>
<stop offset="1" stop-color="#4D58FF" stop-opacity="0"/>
</linearGradient>
<linearGradient id="paint64_linear_273_2" x1="279.199" y1="530.493" x2="308.558" y2="425.774" gradientUnits="userSpaceOnUse">
<stop stop-color="#E4C8ED"/>
<stop offset="0.3293" stop-color="#6363EA"/>
<stop offset="1" stop-color="#4D58FF" stop-opacity="0"/>
</linearGradient>
<radialGradient id="paint65_radial_273_2" cx="0" cy="0" r="1" gradientUnits="userSpaceOnUse" gradientTransform="translate(312.459 510.249) scale(81.1156)">
<stop stop-color="#E4C8ED"/>
<stop offset="0.3293" stop-color="#6363EA"/>
<stop offset="1" stop-color="#4D58FF" stop-opacity="0"/>
</radialGradient>
<linearGradient id="paint66_linear_273_2" x1="276.464" y1="545.278" x2="274.968" y2="467.113" gradientUnits="userSpaceOnUse">
<stop stop-color="#6363EA"/>
<stop offset="1" stop-color="#4D58FF" stop-opacity="0.2"/>
</linearGradient>
<linearGradient id="paint67_linear_273_2" x1="284.322" y1="506.099" x2="273.383" y2="532.466" gradientUnits="userSpaceOnUse">
<stop stop-color="white"/>
<stop offset="0.1971" stop-color="#E7AE82"/>
<stop offset="0.7098" stop-color="#FF4F9C"/>
<stop offset="1" stop-color="#4D58FF"/>
</linearGradient>
<linearGradient id="paint68_linear_273_2" x1="266.242" y1="498.553" x2="265.183" y2="507.84" gradientUnits="userSpaceOnUse">
<stop stop-color="#E4C8ED"/>
<stop offset="0.7524" stop-color="#6363EA"/>
</linearGradient>
<linearGradient id="paint69_linear_273_2" x1="264.809" y1="508.91" x2="258.357" y2="561.925" gradientUnits="userSpaceOnUse">
<stop stop-color="#E4C8ED"/>
<stop offset="0.7524" stop-color="#6363EA"/>
</linearGradient>
<linearGradient id="paint70_linear_273_2" x1="278.399" y1="510.564" x2="271.948" y2="563.578" gradientUnits="userSpaceOnUse">
<stop stop-color="#E4C8ED"/>
<stop offset="0.7524" stop-color="#6363EA"/>
</linearGradient>
<linearGradient id="paint71_linear_273_2" x1="292.527" y1="512.283" x2="286.076" y2="565.297" gradientUnits="userSpaceOnUse">
<stop stop-color="#E4C8ED"/>
<stop offset="0.7524" stop-color="#6363EA"/>
</linearGradient>
<linearGradient id="paint72_linear_273_2" x1="301.138" y1="518.609" x2="303.475" y2="529.642" gradientUnits="userSpaceOnUse">
<stop stop-color="white"/>
<stop offset="0.1971" stop-color="#E7AE82"/>
<stop offset="0.7098" stop-color="#FF4F9C"/>
<stop offset="1" stop-color="#4D58FF"/>
</linearGradient>
<linearGradient id="paint73_linear_273_2" x1="300.391" y1="524.348" x2="305.112" y2="542.581" gradientUnits="userSpaceOnUse">
<stop stop-color="#E4C8ED"/>
<stop offset="0.7524" stop-color="#6363EA"/>
</linearGradient>
<linearGradient id="paint74_linear_273_2" x1="303.09" y1="546.43" x2="301.313" y2="534.042" gradientUnits="userSpaceOnUse">
<stop stop-color="#2A67E7"/>
<stop offset="1" stop-color="#9AFFFF"/>
</linearGradient>
<linearGradient id="paint75_linear_273_2" x1="543.077" y1="225.089" x2="580.664" y2="321.207" gradientUnits="userSpaceOnUse">
<stop stop-color="#E4C8ED"/>
<stop offset="0.3293" stop-color="#6363EA"/>
<stop offset="1" stop-color="#4D58FF" stop-opacity="0"/>
</linearGradient>
<linearGradient id="paint76_linear_273_2" x1="556.29" y1="269.178" x2="585.648" y2="164.458" gradientUnits="userSpaceOnUse">
<stop stop-color="#E4C8ED"/>
<stop offset="0.3293" stop-color="#6363EA"/>
<stop offset="1" stop-color="#4D58FF" stop-opacity="0"/>
</linearGradient>
<radialGradient id="paint77_radial_273_2" cx="0" cy="0" r="1" gradientUnits="userSpaceOnUse" gradientTransform="translate(589.55 248.934) scale(81.1157)">
<stop stop-color="#E4C8ED"/>
<stop offset="0.3293" stop-color="#6363EA"/>
<stop offset="1" stop-color="#4D58FF" stop-opacity="0"/>
</radialGradient>
<linearGradient id="paint78_linear_273_2" x1="556.16" y1="283.565" x2="552.7" y2="235.039" gradientUnits="userSpaceOnUse">
<stop stop-color="#6363EA"/>
<stop offset="1" stop-color="#4D58FF" stop-opacity="0.2"/>
</linearGradient>
<linearGradient id="paint79_linear_273_2" x1="567.285" y1="244.52" x2="562.891" y2="272.289" gradientUnits="userSpaceOnUse">
<stop stop-color="white"/>
<stop offset="0.1971" stop-color="#E7AE82"/>
<stop offset="0.7098" stop-color="#FF4F9C"/>
<stop offset="1" stop-color="#4D58FF"/>
</linearGradient>
<linearGradient id="paint80_linear_273_2" x1="560.258" y1="272.887" x2="565.868" y2="262.228" gradientUnits="userSpaceOnUse">
<stop stop-color="#2A67E7"/>
<stop offset="1" stop-color="#9AFFFF"/>
</linearGradient>
<linearGradient id="paint81_linear_273_2" x1="578.871" y1="253.201" x2="579.806" y2="284.71" gradientUnits="userSpaceOnUse">
<stop stop-color="#6363EA"/>
<stop offset="1" stop-color="#4D58FF" stop-opacity="0.2"/>
</linearGradient>
<linearGradient id="paint82_linear_273_2" x1="581.139" y1="257.027" x2="577.492" y2="299.195" gradientUnits="userSpaceOnUse">
<stop stop-color="white"/>
<stop offset="0.1971" stop-color="#E7AE82"/>
<stop offset="0.7098" stop-color="#FF4F9C"/>
<stop offset="1" stop-color="#4D58FF"/>
</linearGradient>
<linearGradient id="paint83_linear_273_2" x1="579.272" y1="266.692" x2="578.758" y2="276.744" gradientUnits="userSpaceOnUse">
<stop stop-color="#6363EA"/>
<stop offset="1" stop-color="#4D58FF" stop-opacity="0.2"/>
</linearGradient>
<linearGradient id="paint84_linear_273_2" x1="550.391" y1="264.524" x2="536.74" y2="296.22" gradientUnits="userSpaceOnUse">
<stop stop-color="#E4C8ED"/>
<stop offset="0.7524" stop-color="#6363EA"/>
</linearGradient>
<linearGradient id="paint85_linear_273_2" x1="557.265" y1="267.485" x2="543.615" y2="299.181" gradientUnits="userSpaceOnUse">
<stop stop-color="#E4C8ED"/>
<stop offset="0.7524" stop-color="#6363EA"/>
</linearGradient>
<linearGradient id="paint86_linear_273_2" x1="564.335" y1="270.529" x2="550.684" y2="302.225" gradientUnits="userSpaceOnUse">
<stop stop-color="#E4C8ED"/>
<stop offset="0.7524" stop-color="#6363EA"/>
</linearGradient>
<linearGradient id="paint87_linear_273_2" x1="571.533" y1="273.629" x2="557.883" y2="305.325" gradientUnits="userSpaceOnUse">
<stop stop-color="#E4C8ED"/>
<stop offset="0.7524" stop-color="#6363EA"/>
</linearGradient>
<linearGradient id="paint88_linear_273_2" x1="532.151" y1="235.394" x2="544.046" y2="235.394" gradientUnits="userSpaceOnUse">
<stop stop-color="#E4C8ED"/>
<stop offset="0.7476" stop-color="#565EFE" stop-opacity="0.3"/>
</linearGradient>
<clipPath id="clip0_273_2">
<rect width="61.7237" height="80.0583" fill="white" transform="translate(935.46 447.608)"/>
</clipPath>
</defs>
</svg>
