<svg width="229" height="82" viewBox="0 0 229 82" fill="none" xmlns="http://www.w3.org/2000/svg">
<g filter="url(#filter0_d_238_256)">
<path d="M42.0635 52.4621C45.4642 52.4621 47.6236 50.7618 48.5417 47.3612H33.2389C16.2359 47.3612 9.79169 39.7098 13.9064 24.407C17.9872 9.10427 28.5291 1.45288 45.5322 1.45288H55.734C72.7371 1.45288 79.1983 9.10427 75.1175 24.407L68.2823 49.9117C64.1676 65.2145 53.6086 72.8658 36.6056 72.8658H6L11.458 52.4621H42.0635ZM48.2357 29.508C51.6363 29.508 53.7957 27.8077 54.7138 24.407C55.598 21.0064 54.3398 19.3061 50.9392 19.3061H40.7373C37.3367 19.3061 35.1943 21.0064 34.3101 24.407C33.392 27.8077 34.6332 29.508 38.0338 29.508H48.2357Z" fill="url(#paint0_linear_238_256)"/>
<path d="M108.376 52.4621C111.776 52.4621 113.936 50.7618 114.854 47.3612H99.551C82.5479 47.3612 76.1037 39.7098 80.2185 24.407C84.2992 9.10427 94.8411 1.45288 111.844 1.45288H122.046C139.049 1.45288 145.51 9.10427 141.43 24.407L134.594 49.9117C130.48 65.2145 119.921 72.8658 102.918 72.8658H72.312L77.77 52.4621H108.376ZM114.548 29.508C117.948 29.508 120.108 27.8077 121.026 24.407C121.91 21.0064 120.652 19.3061 117.251 19.3061H107.049C103.649 19.3061 101.506 21.0064 100.622 24.407C99.704 27.8077 100.945 29.508 104.346 29.508H114.548Z" fill="url(#paint1_linear_238_256)"/>
<path d="M33.2389 47.8612H47.867C47.4217 49.1637 46.7675 50.1301 45.9242 50.7941C44.952 51.5596 43.6789 51.9621 42.0635 51.9621H11.458H11.0742L10.975 52.3329L5.51698 72.7366L5.34867 73.3658H6H36.6056C45.1805 73.3658 52.183 71.4361 57.5704 67.5322C62.9615 63.6256 66.6846 57.7789 68.7652 50.0415L68.7653 50.0411L75.6005 24.5365L75.6007 24.5359C77.658 16.8209 77.1006 10.879 73.7142 6.86883C70.3394 2.87229 64.2839 0.952881 55.734 0.952881H45.5322C36.9572 0.952881 29.9588 2.88259 24.5797 6.78677C19.1971 10.6935 15.4868 16.5405 13.4234 24.2779C11.3492 31.9922 11.8933 37.9342 15.2711 41.9448C18.6375 45.9419 24.6893 47.8612 33.2389 47.8612ZM34.7929 24.5374L34.7941 24.5329C35.2166 22.9075 35.9262 21.7386 36.8909 20.973C37.8539 20.2087 39.1217 19.8061 40.7373 19.8061H50.9392C52.5782 19.8061 53.5423 20.2179 54.0314 20.8788C54.525 21.5458 54.6585 22.6313 54.2306 24.2787C53.7916 25.9035 53.07 27.0733 52.0964 27.8399C51.1241 28.6055 49.851 29.008 48.2357 29.008H38.0338C36.394 29.008 35.4366 28.5958 34.9563 27.9379C34.4707 27.2728 34.3473 26.1877 34.7929 24.5374ZM99.551 47.8612H114.179C113.734 49.1637 113.08 50.1301 112.236 50.7941C111.264 51.5596 109.991 51.9621 108.376 51.9621H77.77H77.3862L77.287 52.3329L71.829 72.7366L71.6607 73.3658H72.312H102.918C111.493 73.3658 118.495 71.4361 123.882 67.5322C129.274 63.6256 132.997 57.7789 135.077 50.0415L135.077 50.0411L141.913 24.5365L141.913 24.5359C143.97 16.8209 143.413 10.879 140.026 6.86883C136.651 2.87229 130.596 0.952881 122.046 0.952881H111.844C103.269 0.952881 96.2709 2.88259 90.8918 6.78677C85.5093 10.6934 81.799 16.5401 79.7356 24.2772C77.6612 31.9919 78.2052 37.9341 81.5831 41.9448C84.9496 45.9419 91.0013 47.8612 99.551 47.8612ZM101.105 24.5374L101.106 24.5329C101.529 22.9075 102.238 21.7386 103.203 20.973C104.166 20.2087 105.434 19.8061 107.049 19.8061H117.251C118.89 19.8061 119.854 20.2179 120.343 20.8788C120.837 21.5458 120.971 22.6315 120.543 24.2791C120.103 25.9037 119.382 27.0733 118.408 27.8399C117.436 28.6055 116.163 29.008 114.548 29.008H104.346C102.706 29.008 101.749 28.5958 101.268 27.9379C100.783 27.2728 100.659 26.1877 101.105 24.5374Z" stroke="#1C003E"/>
</g>
<path d="M226.662 2.36914L227.387 1.54004H226.286H203.485H203.258L203.109 1.71033L140.47 73.1233L139.742 73.953H140.845H163.851H164.078L164.227 73.7821L226.662 2.36914ZM156.506 24.8761L156.506 24.8762L156.512 24.8839C158.083 27.0037 160.387 28.0447 163.341 28.0447C166.29 28.0447 169.065 27.0114 171.657 24.9797L171.658 24.9791C174.284 22.9135 176.001 20.4099 176.78 17.4709C177.559 14.5333 177.198 11.9724 175.629 9.85458C174.058 7.701 171.755 6.64096 168.799 6.64096C165.848 6.64096 163.072 7.69257 160.48 9.75824C157.887 11.7907 156.188 14.2776 155.41 17.2147C154.632 20.1514 154.975 22.7257 156.506 24.8761ZM191.502 65.688L191.504 65.6913C193.076 67.8111 195.379 68.8521 198.333 68.8521C201.282 68.8521 204.058 67.8188 206.65 65.7871L206.653 65.7845C209.244 63.7189 210.942 61.2165 211.721 58.2806C212.534 55.3439 212.192 52.7815 210.621 50.6621C209.051 48.5085 206.747 47.4484 203.791 47.4484C200.84 47.4484 198.064 48.5 195.472 50.5657C192.881 52.5973 191.166 55.0823 190.353 58.0167L190.353 58.0167L190.351 58.0221C189.572 60.9616 189.935 63.5379 191.502 65.688Z" fill="url(#paint2_linear_238_256)" stroke="#1C003E"/>
<defs>
<filter id="filter0_d_238_256" x="0.697342" y="0.452881" width="146.916" height="81.4128" filterUnits="userSpaceOnUse" color-interpolation-filters="sRGB">
<feFlood flood-opacity="0" result="BackgroundImageFix"/>
<feColorMatrix in="SourceAlpha" type="matrix" values="0 0 0 0 0 0 0 0 0 0 0 0 0 0 0 0 0 0 127 0" result="hardAlpha"/>
<feOffset dy="4"/>
<feGaussianBlur stdDeviation="2"/>
<feComposite in2="hardAlpha" operator="out"/>
<feColorMatrix type="matrix" values="0 0 0 0 0 0 0 0 0 0 0 0 0 0 0 0 0 0 0.25 0"/>
<feBlend mode="normal" in2="BackgroundImageFix" result="effect1_dropShadow_238_256"/>
<feBlend mode="normal" in="SourceGraphic" in2="effect1_dropShadow_238_256" result="shape"/>
</filter>
<linearGradient id="paint0_linear_238_256" x1="74.3072" y1="1.45288" x2="74.3072" y2="72.8658" gradientUnits="userSpaceOnUse">
<stop stop-color="#E2F4FF"/>
<stop offset="1" stop-color="#B6E3FF"/>
</linearGradient>
<linearGradient id="paint1_linear_238_256" x1="74.3072" y1="1.45288" x2="74.3072" y2="72.8658" gradientUnits="userSpaceOnUse">
<stop stop-color="#E2F4FF"/>
<stop offset="1" stop-color="#B6E3FF"/>
</linearGradient>
<linearGradient id="paint2_linear_238_256" x1="183.566" y1="2.04004" x2="183.566" y2="73.453" gradientUnits="userSpaceOnUse">
<stop stop-color="#E2F4FF"/>
<stop offset="1" stop-color="#B6E3FF"/>
</linearGradient>
</defs>
</svg>
